<svg width="48" height="48" viewBox="0 0 48 48" fill="none" xmlns="http://www.w3.org/2000/svg">
<g filter="url(#filter0_d_9355_72226)">
<circle cx="24" cy="24" r="24" fill="#5C5C63" fill-opacity="0.05"/>
<circle cx="24" cy="24" r="23.5" stroke="#F14A4A"/>
</g>
<g filter="url(#filter1_d_9355_72226)">
<circle cx="24" cy="24" r="19" fill="#202327"/>
</g>
<path d="M38.0509 17.0841C37.8387 16.8528 37.5578 16.6881 37.2164 16.5954L32.3727 15.391V13.6361C32.3727 12.734 31.6386 12 30.7363 12H18.1909C17.2886 12 16.5546 12.734 16.5546 13.6361V15.3913L11.7217 16.5928C11.7181 16.5937 11.7145 16.5946 11.711 16.5956C10.9527 16.8005 10.5 17.3559 10.5 18.0814C10.5 18.2744 10.5353 18.4957 10.5394 18.5203C10.5419 18.5354 10.5451 18.5504 10.5488 18.5653L14.6223 34.7397C14.8332 35.6208 15.7287 36.1758 16.596 35.9449L24.464 34.0492L32.3313 35.9447C33.1524 36.1872 34.1188 35.6038 34.3048 34.74V34.7394L35.6111 29.5533C35.6806 29.3013 35.5181 28.9608 35.2151 28.8912C34.9644 28.8158 34.6126 28.9985 34.5534 29.2872L33.246 34.4782C33.1833 34.7419 32.8984 34.9818 32.5865 34.8845L29.0558 34.0337H30.7363C31.6386 34.0337 32.3727 33.2997 32.3727 32.3975V24.5774L32.976 24.4505C33.1631 24.4111 33.3158 24.2767 33.3787 24.0963L34.6333 20.4967C34.6985 20.3095 34.6571 20.1017 34.525 19.9538L32.3728 17.5457V16.5153L36.9376 17.6503C37.2838 17.7454 37.3886 17.9525 37.3167 18.3135L35.7519 24.5271C35.6782 24.8189 35.856 25.1161 36.1479 25.1892C36.3982 25.266 36.7509 25.0821 36.81 24.7938L38.3788 18.5655L38.3848 18.536C38.4126 18.3943 38.4268 18.2371 38.4273 18.0817C38.4305 17.708 38.2936 17.3443 38.0509 17.0841ZM16.5546 23.4627L16.4774 23.4465L15.4299 20.441L16.5546 19.1827V23.4627ZM16.3406 34.8845C16.0836 34.9744 15.7573 34.7866 15.6814 34.4781L11.6128 18.3234C11.6005 18.0529 11.4698 17.8287 11.9907 17.6499L16.5546 16.5153V17.5456L14.4024 19.9538C14.2702 20.1016 14.2287 20.3095 14.294 20.4967L15.5486 24.0962C15.6115 24.2767 15.7642 24.4111 15.9513 24.4504L16.5546 24.5774V32.3976C16.5546 33.2998 17.2886 34.0337 18.1909 34.0337H19.8716L16.3406 34.8845ZM33.4974 20.4411L32.4499 23.4465L32.3727 23.4628V19.1827L33.4974 20.4411ZM31.2818 32.3976C31.2818 32.6983 31.0371 32.943 30.7363 32.943H18.1909C17.8902 32.943 17.6455 32.6983 17.6455 32.3976V13.6361C17.6455 13.3354 17.8902 13.0907 18.1909 13.0907H30.7364C31.0372 13.0907 31.2819 13.3354 31.2819 13.6361L31.2818 32.3976Z" fill="#F1C94A"/>
<path d="M35.8147 26.5133C35.7711 26.5018 35.7264 26.4963 35.6817 26.4963C35.4313 26.4963 35.2137 26.6659 35.1526 26.9087C35.0795 27.2005 35.2568 27.4973 35.5486 27.5709C35.5923 27.5818 35.6375 27.5879 35.6822 27.5879C35.9321 27.5879 36.1497 27.4182 36.2107 27.1754C36.2838 26.8836 36.1066 26.5864 35.8147 26.5133Z" fill="#F1C94A"/>
<path d="M21.4638 25.8545C21.1626 25.8545 20.9184 26.0987 20.9184 26.3999V28.4949L19.7713 26.167C19.6592 25.9395 19.405 25.8193 19.1582 25.8769C18.9113 25.9344 18.7366 26.1545 18.7366 26.4081V30.7636C18.7366 31.0648 18.9809 31.309 19.2821 31.309C19.5833 31.309 19.8275 31.0648 19.8275 30.7636V28.7491L20.8942 30.9139C21.0428 31.2146 21.3326 31.2969 21.5538 31.2452C21.764 31.1961 22.0094 31.002 22.0094 30.6165V26.3999C22.0093 26.0987 21.765 25.8545 21.4638 25.8545Z" fill="#F1C94A"/>
<path d="M25.282 26.9454C25.5832 26.9454 25.8274 26.7011 25.8274 26.3999C25.8274 26.0987 25.5832 25.8545 25.282 25.8545H23.6456C23.3444 25.8545 23.1002 26.0987 23.1002 26.3999V30.7636C23.1002 31.0648 23.3444 31.309 23.6456 31.309C23.9468 31.309 24.1911 31.0648 24.1911 30.7636V29.0859H25.152C25.4532 29.0859 25.6975 28.8416 25.6975 28.5404C25.6975 28.2392 25.4532 27.995 25.152 27.995H24.1911V26.9454H25.282Z" fill="#F1C94A"/>
<path d="M29.6457 25.8545H27.4638C27.1626 25.8545 26.9184 26.0987 26.9184 26.3999C26.9184 26.7011 27.1626 26.9454 27.4638 26.9454H28.0049V30.7636C28.0049 31.0648 28.2491 31.309 28.5503 31.309C28.8515 31.309 29.0958 31.0648 29.0958 30.7636V26.9454H29.6457C29.9469 26.9454 30.1911 26.7011 30.1911 26.3999C30.1911 26.0987 29.9469 25.8545 29.6457 25.8545Z" fill="#F1C94A"/>
<path d="M20.4264 22.2901L24.1901 24.472C24.2747 24.521 24.3691 24.5455 24.4637 24.5455C24.5582 24.5455 24.6527 24.5211 24.7373 24.472L28.5009 22.2901C28.6692 22.1926 28.7728 22.0128 28.7728 21.8183V17.4546C28.7728 17.2601 28.6692 17.0803 28.5009 16.9827L24.7373 14.8009C24.5681 14.7028 24.3593 14.7028 24.1901 14.8009L20.4265 16.9827C20.2582 17.0803 20.1546 17.2601 20.1546 17.4546V21.8183C20.1546 22.0128 20.2582 22.1926 20.4264 22.2901ZM21.2455 17.7689L24.4637 15.9033L27.6819 17.7689V21.504L24.4637 23.3696L21.2455 21.504V17.7689Z" fill="#F1C94A"/>
<defs>
<filter id="filter0_d_9355_72226" x="-2" y="-1" width="52" height="52" filterUnits="userSpaceOnUse" color-interpolation-filters="sRGB">
<feFlood flood-opacity="0" result="BackgroundImageFix"/>
<feColorMatrix in="SourceAlpha" type="matrix" values="0 0 0 0 0 0 0 0 0 0 0 0 0 0 0 0 0 0 127 0" result="hardAlpha"/>
<feOffset dy="1"/>
<feGaussianBlur stdDeviation="1"/>
<feColorMatrix type="matrix" values="0 0 0 0 0 0 0 0 0 0 0 0 0 0 0 0 0 0 0.05 0"/>
<feBlend mode="normal" in2="BackgroundImageFix" result="effect1_dropShadow_9355_72226"/>
<feBlend mode="normal" in="SourceGraphic" in2="effect1_dropShadow_9355_72226" result="shape"/>
</filter>
<filter id="filter1_d_9355_72226" x="3" y="4" width="42" height="42" filterUnits="userSpaceOnUse" color-interpolation-filters="sRGB">
<feFlood flood-opacity="0" result="BackgroundImageFix"/>
<feColorMatrix in="SourceAlpha" type="matrix" values="0 0 0 0 0 0 0 0 0 0 0 0 0 0 0 0 0 0 127 0" result="hardAlpha"/>
<feOffset dy="1"/>
<feGaussianBlur stdDeviation="1"/>
<feColorMatrix type="matrix" values="0 0 0 0 0 0 0 0 0 0 0 0 0 0 0 0 0 0 0.05 0"/>
<feBlend mode="normal" in2="BackgroundImageFix" result="effect1_dropShadow_9355_72226"/>
<feBlend mode="normal" in="SourceGraphic" in2="effect1_dropShadow_9355_72226" result="shape"/>
</filter>
</defs>
</svg>
