<svg width="49" height="48" viewBox="0 0 49 48" fill="none" xmlns="http://www.w3.org/2000/svg">
<g filter="url(#filter0_d_9355_72257)">
<circle cx="24.5" cy="24" r="24" fill="#5C5C63" fill-opacity="0.05"/>
<circle cx="24.5" cy="24" r="23.5" stroke="#F14A4A"/>
</g>
<g filter="url(#filter1_d_9355_72257)">
<circle cx="24.5" cy="24" r="19" fill="#202327"/>
</g>
<path fillRule="evenodd" clipRule="evenodd" d="M23.6154 12.9231C21.1549 12.9231 19.1319 14.9964 19.1319 17.5897C19.1319 20.183 21.1549 22.2564 23.6154 22.2564C26.0758 22.2564 28.0989 20.183 28.0989 17.5897C28.0989 14.9965 26.0758 12.9231 23.6154 12.9231ZM18.2088 17.5897C18.2088 14.5186 20.6137 12 23.6154 12C26.617 12 29.022 14.5186 29.022 17.5897C29.022 20.6609 26.617 23.1795 23.6154 23.1795C20.6137 23.1795 18.2088 20.6609 18.2088 17.5897ZM15.4349 35.0769C15.6658 30.5759 19.2546 27.0256 23.6154 27.0256C24.4278 27.0256 25.2119 27.1484 25.9518 27.3768C26.1954 27.452 26.4537 27.3154 26.5289 27.0719C26.6041 26.8283 26.4676 26.5699 26.224 26.4948C25.3971 26.2395 24.5214 26.1026 23.6154 26.1026C18.5654 26.1026 14.5 30.3431 14.5 35.5385C14.5 35.7934 14.7066 36 14.9615 36H23.6154C23.8703 36 24.0769 35.7934 24.0769 35.5385C24.0769 35.2836 23.8703 35.0769 23.6154 35.0769H15.4349ZM31.033 27.3846C31.2879 27.3846 31.4945 27.5913 31.4945 27.8462V31.2308H34.7418C34.9967 31.2308 35.2033 31.4374 35.2033 31.6923C35.2033 31.9472 34.9967 32.1538 34.7418 32.1538H31.4945V35.5385C31.4945 35.7934 31.2879 36 31.033 36C30.7781 36 30.5714 35.7934 30.5714 35.5385V32.1538H27.3242C27.0693 32.1538 26.8626 31.9472 26.8626 31.6923C26.8626 31.4374 27.0693 31.2308 27.3242 31.2308H30.5714V27.8462C30.5714 27.5913 30.7781 27.3846 31.033 27.3846Z" fill="#F1C94A"/>
<defs>
<filter id="filter0_d_9355_72257" x="-1.5" y="-1" width="52" height="52" filterUnits="userSpaceOnUse" color-interpolation-filters="sRGB">
<feFlood flood-opacity="0" result="BackgroundImageFix"/>
<feColorMatrix in="SourceAlpha" type="matrix" values="0 0 0 0 0 0 0 0 0 0 0 0 0 0 0 0 0 0 127 0" result="hardAlpha"/>
<feOffset dy="1"/>
<feGaussianBlur stdDeviation="1"/>
<feColorMatrix type="matrix" values="0 0 0 0 0 0 0 0 0 0 0 0 0 0 0 0 0 0 0.05 0"/>
<feBlend mode="normal" in2="BackgroundImageFix" result="effect1_dropShadow_9355_72257"/>
<feBlend mode="normal" in="SourceGraphic" in2="effect1_dropShadow_9355_72257" result="shape"/>
</filter>
<filter id="filter1_d_9355_72257" x="3.5" y="4" width="42" height="42" filterUnits="userSpaceOnUse" color-interpolation-filters="sRGB">
<feFlood flood-opacity="0" result="BackgroundImageFix"/>
<feColorMatrix in="SourceAlpha" type="matrix" values="0 0 0 0 0 0 0 0 0 0 0 0 0 0 0 0 0 0 127 0" result="hardAlpha"/>
<feOffset dy="1"/>
<feGaussianBlur stdDeviation="1"/>
<feColorMatrix type="matrix" values="0 0 0 0 0 0 0 0 0 0 0 0 0 0 0 0 0 0 0.05 0"/>
<feBlend mode="normal" in2="BackgroundImageFix" result="effect1_dropShadow_9355_72257"/>
<feBlend mode="normal" in="SourceGraphic" in2="effect1_dropShadow_9355_72257" result="shape"/>
</filter>
</defs>
</svg>
