<svg width="20" height="20" viewBox="0 0 20 20" fill="none" xmlns="http://www.w3.org/2000/svg">
<rect width="20" height="20" rx="6" fill="#4DAA90"/>
<path d="M13.7299 3.98438H6.15631C5.82154 3.98438 5.50047 4.11737 5.26375 4.35409C5.02703 4.59082 4.89404 4.91189 4.89404 5.24667C4.89404 5.58145 5.02703 5.90252 5.26375 6.13925C5.50047 6.37598 5.82154 6.50897 6.15631 6.50897H8.68085V15.345C8.68085 15.6798 8.81384 16.0009 9.05056 16.2376C9.28728 16.4743 9.60834 16.6073 9.94312 16.6073C10.2779 16.6073 10.599 16.4743 10.8357 16.2376C11.0724 16.0009 11.2054 15.6798 11.2054 15.345V6.50897H13.7299C14.0647 6.50897 14.3858 6.37598 14.6225 6.13925C14.8592 5.90252 14.9922 5.58145 14.9922 5.24667C14.9922 4.91189 14.8592 4.59082 14.6225 4.35409C14.3858 4.11737 14.0647 3.98438 13.7299 3.98438Z" fill="#F1F2F2"/>
<path d="M9.94284 12.4002C9.51661 12.4002 9.08197 12.3842 8.64985 12.3531C6.42784 12.1936 4.05225 11.57 4.05225 10.2964C4.05225 9.41867 5.25477 8.72272 7.35182 8.38779C7.46035 8.37368 7.57011 8.40241 7.65781 8.4679C7.7455 8.53338 7.80423 8.63046 7.82153 8.73853C7.83883 8.84661 7.81334 8.95717 7.75047 9.04675C7.6876 9.13634 7.59229 9.19791 7.48478 9.21838C5.54635 9.52848 4.89376 10.0885 4.89376 10.2964C4.89376 10.633 6.16907 11.3315 8.71044 11.5137C9.53067 11.5734 10.3542 11.5734 11.1744 11.5137C13.7166 11.3315 14.9919 10.6351 14.9919 10.2964C14.9919 10.0885 14.3393 9.52848 12.4009 9.21838C12.2934 9.19791 12.1981 9.13634 12.1352 9.04675C12.0723 8.95717 12.0468 8.84661 12.0641 8.73853C12.0814 8.63046 12.1402 8.53338 12.2279 8.4679C12.3156 8.40241 12.4253 8.37368 12.5339 8.38779C14.6309 8.72272 15.8334 9.41867 15.8334 10.2964C15.8334 11.57 13.4578 12.1936 11.235 12.3531C10.8037 12.3842 10.3691 12.4002 9.94284 12.4002Z" fill="#E6E7E8"/>
</svg>
