<svg width="1352" height="320" viewBox="0 0 1352 320" fill="none" xmlns="http://www.w3.org/2000/svg">
<path d="M166.238 69.2713C167.318 70.3514 167.498 70.3514 168.758 69.2713L178.839 56.4899C179.919 55.0498 180.459 53.6097 180.459 51.6295C180.459 47.8491 177.759 44.4287 173.979 44.4287C171.278 44.4287 169.118 46.0489 167.498 48.0291C165.878 45.8689 163.718 44.4287 161.017 44.4287C157.237 44.4287 154.537 47.8491 154.537 51.6295C154.537 53.6097 155.257 55.0498 156.157 56.4899L166.238 69.2713Z" fill="black"/>
<path d="M128.982 107.792L139.063 95.0109C140.143 93.5708 140.683 92.1306 140.683 90.1504C140.683 86.3701 137.983 82.9497 134.203 82.9497C133.663 82.9497 133.303 82.9497 132.763 83.1297L123.762 101.312C123.402 102.032 123.042 102.572 122.682 103.112L126.462 107.792C127.722 108.872 127.902 108.872 128.982 107.792Z" fill="black"/>
<path d="M178.482 86.5501H175.782L174.882 84.7499C174.342 83.6698 173.982 82.9497 173.082 82.9497H162.1C161.02 82.9497 160.84 83.8498 160.3 84.7499L159.4 86.5501H156.52C154.54 86.5501 152.919 88.1702 152.919 90.1504V104.912C152.919 106.892 154.54 108.512 156.52 108.512H178.482C180.462 108.512 182.082 106.892 182.082 104.912V90.1504C182.262 88.3503 180.642 86.5501 178.482 86.5501ZM167.501 104.912C163.361 104.912 160.12 101.672 160.12 97.5312C160.12 93.3908 163.361 90.1504 167.501 90.1504C171.641 90.1504 174.882 93.3908 174.882 97.5312C174.882 101.672 171.641 104.912 167.501 104.912Z" fill="black"/>
<path d="M167.501 92.1309C164.441 92.1309 161.92 94.6511 161.92 97.7114C161.92 100.772 164.441 103.292 167.501 103.292C170.561 103.292 173.082 100.772 173.082 97.7114C173.082 94.6511 170.561 92.1309 167.501 92.1309Z" fill="black"/>
<path d="M194.866 90.1561C194.686 90.3362 194.506 90.6962 194.506 91.0562V100.597C194.506 100.957 194.686 101.317 194.866 101.497L201.707 108.338C201.887 108.518 202.247 108.698 202.607 108.698H212.148C212.508 108.698 212.868 108.518 213.048 108.338L214.668 106.718C213.048 105.278 211.788 103.478 210.708 101.317L201.887 83.3154L201.707 83.4954L194.866 90.1561Z" fill="black"/>
<path d="M35.9157 140.02L42.7564 146.861C42.9364 147.041 43.2965 147.221 43.6565 147.221H53.1975C53.5575 147.221 53.9176 147.041 54.0976 146.861L60.9383 140.02C61.1183 139.84 61.2983 139.48 61.2983 139.12V129.579C61.2983 129.219 61.1183 128.859 60.9383 128.679L54.0976 121.838C53.9176 121.658 53.5575 121.478 53.1975 121.478H45.6367C40.7762 123.638 37.3558 127.419 35.5557 132.099V139.12C35.5557 139.48 35.5557 139.84 35.9157 140.02Z" fill="black"/>
<path d="M86.8609 146.321C87.941 147.401 88.121 147.401 89.3812 146.321L99.4622 133.539C100.542 132.099 101.082 130.659 101.082 128.679C101.082 124.898 98.3821 121.478 94.6017 121.478C91.9014 121.478 89.7412 123.098 88.121 125.078C86.5009 122.918 84.3406 121.478 81.6403 121.478C77.86 121.478 75.1597 124.898 75.1597 128.679C75.1597 130.659 75.8798 132.099 76.7799 133.539L86.8609 146.321Z" fill="black"/>
<path d="M138.878 125.078H136.178L135.278 123.278C134.738 122.198 134.378 121.478 133.478 121.478H122.316C121.236 121.478 121.056 122.378 120.516 123.278L119.616 125.078H116.916C114.936 125.078 113.315 126.699 113.315 128.679V143.44C113.315 145.42 114.936 147.041 116.916 147.041H138.878C140.858 147.041 142.478 145.42 142.478 143.44V128.679C142.478 126.879 140.858 125.078 138.878 125.078ZM127.717 143.44C123.576 143.44 120.336 140.2 120.336 136.06C120.336 131.919 123.576 128.679 127.717 128.679C131.857 128.679 135.098 131.919 135.098 136.06C135.098 140.2 131.857 143.44 127.717 143.44Z" fill="black"/>
<path d="M127.717 141.64C124.657 141.64 122.136 139.12 122.136 136.06C122.136 132.999 124.657 130.479 127.717 130.479C130.777 130.479 133.297 132.999 133.297 136.06C133.297 139.12 130.777 141.64 127.717 141.64Z" fill="black"/>
<path d="M127.717 130.659C124.657 130.659 122.136 133.179 122.136 136.24C122.136 139.3 124.657 141.82 127.717 141.82C130.777 141.82 133.297 139.3 133.297 136.24C133.297 133.179 130.777 130.659 127.717 130.659Z" fill="black"/>
<path d="M162.82 147.221H172.361C172.721 147.221 173.081 147.041 173.261 146.861L180.102 140.02C180.282 139.84 180.462 139.48 180.462 139.12V129.579C180.462 129.219 180.282 128.859 180.102 128.679L173.261 121.838C173.081 121.658 172.721 121.478 172.361 121.478H162.82C162.46 121.478 162.1 121.658 161.92 121.838L155.079 128.679C154.899 128.859 154.719 129.219 154.719 129.579V139.12C154.719 139.48 154.899 139.84 155.079 140.02L161.92 146.861C162.1 147.041 162.46 147.221 162.82 147.221Z" fill="black"/>
<path d="M206.025 146.321C207.105 147.401 207.285 147.401 208.545 146.321L218.626 133.539C219.706 132.099 220.246 130.659 220.246 128.679C220.246 124.898 217.546 121.478 213.766 121.478C211.065 121.478 208.905 123.098 207.285 125.078C205.665 122.918 203.505 121.478 200.804 121.478C197.024 121.478 194.324 124.898 194.324 128.679C194.324 130.659 195.044 132.099 195.944 133.539L206.025 146.321Z" fill="black"/>
<path d="M247.077 130.659C244.017 130.659 241.497 133.179 241.497 136.24C241.497 139.3 244.017 141.82 247.077 141.82C250.137 141.82 252.658 139.3 252.658 136.24C252.658 133.179 250.137 130.659 247.077 130.659Z" fill="black"/>
<path d="M258.058 125.078H255.358L254.458 123.278C253.918 122.198 253.558 121.478 252.658 121.478H241.677C240.597 121.478 240.417 122.378 239.877 123.278L238.976 125.078H236.276C234.296 125.078 232.676 126.699 232.676 128.679V143.44C232.676 145.42 234.296 147.041 236.276 147.041H258.238C260.219 147.041 261.839 145.42 261.839 143.44V128.679C261.839 126.879 260.039 125.078 258.058 125.078ZM247.077 143.44C242.937 143.44 239.697 140.2 239.697 136.06C239.697 131.919 242.937 128.679 247.077 128.679C251.218 128.679 254.458 131.919 254.458 136.06C254.458 140.2 251.218 143.44 247.077 143.44Z" fill="black"/>
<path d="M281.098 121.838L274.257 128.679C274.077 128.859 273.897 129.219 273.897 129.579V139.12C273.897 139.48 274.077 139.84 274.257 140.02L281.098 146.861C281.278 147.041 281.638 147.221 281.998 147.221H291.539C291.899 147.221 292.259 147.041 292.439 146.861L299.28 140.02C299.46 139.84 299.64 139.48 299.64 139.12V133.899C298.2 128.499 294.42 123.818 289.019 121.478H281.998C281.638 121.478 281.458 121.658 281.098 121.838Z" fill="black"/>
<path d="M54.8176 159.999C53.0174 159.999 51.3972 160.719 49.957 161.979L59.858 171.7C60.7581 170.44 61.1182 169.18 61.1182 167.38C61.1182 163.419 58.5979 159.999 54.8176 159.999Z" fill="black"/>
<path d="M99.0936 163.599H96.3933L95.4932 161.799C94.9531 160.719 94.5931 159.999 93.693 159.999H82.7119C81.6318 159.999 81.4517 160.899 80.9117 161.799L80.0116 163.599H77.3113C75.3311 163.599 73.7109 165.22 73.7109 167.2V181.961C73.7109 183.941 75.3311 185.562 77.3113 185.562H99.2736C101.254 185.562 102.874 183.941 102.874 181.961V167.2C102.694 165.4 101.074 163.599 99.0936 163.599ZM88.1124 181.961C83.972 181.961 80.7316 178.721 80.7316 174.581C80.7316 170.44 83.972 167.2 88.1124 167.2C92.2528 167.2 95.4932 170.44 95.4932 174.581C95.4932 178.721 92.0728 181.961 88.1124 181.961Z" fill="black"/>
<path d="M88.1123 169.18C85.052 169.18 82.5317 171.7 82.5317 174.761C82.5317 177.821 85.052 180.341 88.1123 180.341C91.1726 180.341 93.6929 177.821 93.6929 174.761C93.5129 171.7 91.1726 169.18 88.1123 169.18Z" fill="black"/>
<path d="M123.033 185.742H132.574C132.934 185.742 133.295 185.562 133.475 185.382L140.315 178.541C140.495 178.361 140.675 178.001 140.675 177.641V168.1C140.675 167.74 140.495 167.38 140.315 167.2L133.475 160.359C133.295 160.179 132.934 159.999 132.574 159.999H123.033C122.673 159.999 122.313 160.179 122.133 160.359L115.293 167.2C115.113 167.38 114.933 167.74 114.933 168.1V177.641C114.933 178.001 115.113 178.361 115.293 178.541L122.133 185.382C122.313 185.562 122.673 185.742 123.033 185.742Z" fill="black"/>
<path d="M156.337 172.06L166.238 184.842C167.318 185.922 167.498 185.922 168.758 184.842L178.839 172.06C179.919 170.62 180.459 169.18 180.459 167.2C180.459 163.419 177.759 159.999 173.979 159.999C171.278 159.999 169.118 161.619 167.498 163.599C165.878 161.439 163.718 159.999 161.017 159.999C157.237 159.999 154.537 163.419 154.537 167.2C154.717 169.36 155.437 170.8 156.337 172.06Z" fill="black"/>
<path d="M218.272 163.599H215.571L214.671 161.799C214.131 160.719 213.771 159.999 212.871 159.999H201.89C200.81 159.999 200.63 160.899 200.09 161.799L199.19 163.599H196.49C194.509 163.599 192.889 165.22 192.889 167.2V181.961C192.889 183.941 194.509 185.562 196.49 185.562H218.452C220.432 185.562 222.052 183.941 222.052 181.961V167.2C222.052 165.4 220.432 163.599 218.272 163.599ZM207.291 181.961C203.15 181.961 199.91 178.721 199.91 174.581C199.91 170.44 203.15 167.2 207.291 167.2C211.431 167.2 214.671 170.44 214.671 174.581C214.671 178.721 211.431 181.961 207.291 181.961Z" fill="black"/>
<path d="M207.291 169.18C204.23 169.18 201.71 171.7 201.71 174.761C201.71 177.821 204.23 180.341 207.291 180.341C210.351 180.341 212.871 177.821 212.871 174.761C212.871 171.7 210.351 169.18 207.291 169.18Z" fill="black"/>
<path d="M252.835 160.359C252.655 160.179 252.295 159.999 251.935 159.999H242.394C242.034 159.999 241.674 160.179 241.494 160.359L234.653 167.2C234.473 167.38 234.293 167.74 234.293 168.1V177.641C234.293 178.001 234.473 178.361 234.653 178.541L241.494 185.382C241.674 185.562 242.034 185.742 242.394 185.742H251.935C252.295 185.742 252.655 185.562 252.835 185.382L259.676 178.541C259.856 178.361 260.036 178.001 260.036 177.641V168.1C260.036 167.74 259.856 167.38 259.676 167.2L252.835 160.359Z" fill="black"/>
<path d="M274.08 167.2C274.08 168.82 274.62 170.08 275.16 171.16L285.061 161.619C283.801 160.539 282.361 159.999 280.561 159.999C276.6 159.999 274.08 163.419 274.08 167.2Z" fill="black"/>
<path d="M93.7018 223.91L100.542 217.069C100.722 216.889 100.903 216.529 100.903 216.169V206.628C100.903 206.268 100.722 205.908 100.542 205.728L93.7018 198.887C93.5217 198.707 93.1617 198.527 92.8017 198.527H86.321C88.3012 202.128 89.0213 206.448 88.3012 210.769L85.9609 224.27H92.8017C93.1617 224.27 93.5217 224.09 93.7018 223.91Z" fill="black"/>
<path d="M116.564 210.589L126.465 223.37C127.545 224.45 127.725 224.45 128.985 223.37L139.066 210.589C140.146 209.148 140.686 207.708 140.686 205.728C140.686 201.948 137.986 198.527 134.206 198.527C131.505 198.527 129.345 200.148 127.725 202.128C126.105 199.967 123.945 198.527 121.244 198.527C117.464 198.527 114.764 201.948 114.764 205.728C114.944 207.888 115.664 209.328 116.564 210.589Z" fill="black"/>
<path d="M167.501 207.704C164.441 207.704 161.92 210.224 161.92 213.285C161.92 216.345 164.441 218.865 167.501 218.865C170.561 218.865 173.082 216.345 173.082 213.285C173.082 210.224 170.561 207.704 167.501 207.704Z" fill="black"/>
<path d="M178.482 202.303H175.782L174.882 200.503C174.342 199.423 173.982 198.703 173.082 198.703H162.1C161.02 198.703 160.84 199.603 160.3 200.503L159.4 202.303H156.52C154.54 202.303 152.919 203.924 152.919 205.904V220.665C152.919 222.646 154.54 224.266 156.52 224.266H178.482C180.462 224.266 182.082 222.646 182.082 220.665V205.904C182.262 203.924 180.642 202.303 178.482 202.303ZM167.501 220.485C163.361 220.485 160.12 217.245 160.12 213.105C160.12 208.964 163.361 205.724 167.501 205.724C171.641 205.724 174.882 208.964 174.882 213.105C174.882 217.245 171.641 220.485 167.501 220.485Z" fill="black"/>
<path d="M213.048 198.887C212.868 198.707 212.508 198.527 212.148 198.527H202.607C202.247 198.527 201.887 198.707 201.707 198.887L194.866 205.728C194.686 205.908 194.506 206.268 194.506 206.628V216.169C194.506 216.529 194.686 216.889 194.866 217.069L201.707 223.91C201.887 224.09 202.247 224.27 202.607 224.27H212.148C212.508 224.27 212.868 224.09 213.048 223.91L219.889 217.069C220.069 216.889 220.249 216.529 220.249 216.169V206.628C220.249 206.268 220.069 205.908 219.889 205.728L213.048 198.887Z" fill="black"/>
<path d="M240.591 198.527C236.811 198.527 234.11 201.948 234.11 205.728C234.11 207.708 234.83 209.148 235.731 210.589L245.632 223.37C246.712 224.45 246.892 224.45 248.152 223.37L248.332 223.19L246.172 210.769C245.632 207.708 245.812 204.828 246.712 201.948C245.271 199.967 243.291 198.527 240.591 198.527Z" fill="black"/>
<path d="M89.1899 261.891L99.2709 249.11C100.351 247.669 100.891 246.229 100.891 244.249C100.891 240.469 98.1908 237.048 94.4104 237.048C91.7101 237.048 89.5499 238.669 87.9297 240.649C86.8496 239.029 85.4095 237.948 83.6093 237.408L80.729 254.33L86.6696 262.071C87.9298 262.971 88.1098 262.971 89.1899 261.891Z" fill="black"/>
<path d="M138.878 240.831H136.178L135.278 239.031C134.738 237.951 134.378 237.231 133.478 237.231H122.316C121.236 237.231 121.056 238.131 120.516 239.031L119.616 240.831H116.916C114.936 240.831 113.315 242.451 113.315 244.432V259.193C113.315 261.173 114.936 262.794 116.916 262.794H138.878C140.858 262.794 142.478 261.173 142.478 259.193V244.432C142.478 242.451 140.858 240.831 138.878 240.831ZM127.717 259.013C123.576 259.013 120.336 255.773 120.336 251.632C120.336 247.492 123.576 244.252 127.717 244.252C131.857 244.252 135.098 247.492 135.098 251.632C135.098 255.773 131.857 259.013 127.717 259.013Z" fill="black"/>
<path d="M127.717 246.232C124.657 246.232 122.136 248.752 122.136 251.813C122.136 254.873 124.657 257.393 127.717 257.393C130.777 257.393 133.297 254.873 133.297 251.813C133.297 248.752 130.777 246.232 127.717 246.232Z" fill="black"/>
<path d="M180.462 254.69V245.149C180.462 244.789 180.282 244.429 180.102 244.249L173.261 237.408C173.081 237.228 172.721 237.048 172.361 237.048H162.82C162.46 237.048 162.1 237.228 161.92 237.408L155.079 244.249C154.899 244.429 154.719 244.789 154.719 245.149V254.69C154.719 255.05 154.899 255.41 155.079 255.59L160.3 260.811C164.8 259.011 170.021 259.011 174.521 260.991L179.922 255.59C180.282 255.41 180.462 255.05 180.462 254.69Z" fill="black"/>
<path d="M213.766 237.048C211.065 237.048 208.905 238.669 207.285 240.649C205.665 238.488 203.505 237.048 200.804 237.048C197.024 237.048 194.324 240.469 194.324 244.249C194.324 246.229 195.044 247.669 195.944 249.11L205.845 261.891C206.925 262.971 207.105 262.971 208.365 261.891L218.446 249.11C219.526 247.669 220.066 246.229 220.066 244.249C220.066 240.469 217.546 237.048 213.766 237.048Z" fill="black"/>
<path d="M253.738 254.69C252.658 257.39 249.958 259.191 247.077 259.191C242.937 259.191 239.697 255.95 239.697 251.81C239.697 247.669 242.937 244.429 247.077 244.429C249.237 244.429 251.218 245.329 252.478 246.769L250.858 237.048H241.677C240.597 237.048 240.417 237.948 239.877 238.849L238.976 240.649H236.276C234.296 240.649 232.676 242.269 232.676 244.249V259.011C232.676 260.991 234.296 262.611 236.276 262.611H255.358L253.738 254.69Z" fill="black"/>
<path d="M241.497 251.81C241.497 254.87 244.017 257.391 247.077 257.391C250.137 257.391 252.658 254.87 252.658 251.81C252.658 248.75 250.137 246.229 247.077 246.229C244.017 246.229 241.497 248.75 241.497 251.81Z" fill="black"/>
<path d="M99.0939 279.353H96.3936L95.4935 277.553C94.9535 276.473 94.5934 275.752 93.6933 275.752H82.7122C81.6321 275.752 81.4521 276.653 80.912 277.553L80.0119 279.353H79.1118C80.0119 281.693 81.092 283.673 82.7122 285.473C83.0722 286.014 83.6123 286.374 83.9723 286.734C86.6726 289.254 89.9129 290.874 93.5133 291.594C94.0534 291.774 94.7734 291.774 95.3135 291.774C97.8337 291.954 100.354 291.594 102.874 290.874V282.953C102.694 280.973 101.074 279.353 99.0939 279.353Z" fill="black"/>
<path d="M122.133 275.929L115.293 282.77C115.113 282.95 114.933 283.31 114.933 283.67V284.75L132.214 275.749H123.033C122.673 275.569 122.313 275.749 122.133 275.929Z" fill="black"/>
<path d="M218.266 279.353H215.566L214.666 277.553C214.125 276.473 213.765 275.752 212.865 275.752H202.424L222.046 286.014V283.133C222.046 280.973 220.426 279.353 218.266 279.353Z" fill="black"/>
<path d="M251.935 275.569H242.394C242.034 275.569 241.674 275.749 241.494 275.929L234.653 282.77C234.473 282.95 234.293 283.31 234.293 283.67V291.411C243.654 293.391 252.835 287.631 255.896 278.81L252.835 275.749C252.475 275.749 252.295 275.569 251.935 275.569Z" fill="black"/>
<path d="M187.302 22.2863L218.625 85.6528C221.865 92.1334 228.166 96.6339 235.366 97.714L305.214 107.795C323.396 110.495 330.596 132.818 317.455 145.599L266.87 194.924C261.649 199.965 259.309 207.345 260.569 214.546L272.45 284.033C275.511 302.035 256.609 315.896 240.407 307.436L177.941 274.672C171.46 271.252 163.719 271.252 157.418 274.672L94.7721 307.436C78.5704 315.896 59.4884 302.215 62.7288 284.033L74.61 214.546C75.8701 207.345 73.5299 199.965 68.3093 194.924L17.7241 145.599C4.5828 132.818 11.7836 110.495 29.9654 107.795L99.8126 97.714C107.013 96.6339 113.314 92.1334 116.554 85.6528L147.878 22.2863C155.798 5.90458 179.201 5.90458 187.302 22.2863Z" stroke="#45A3DB" stroke-width="20" stroke-miterlimit="10"/>
<path d="M493.995 150.231H476.713V204.777H493.995V150.231Z" fill="black"/>
<path d="M556.453 159.597C554.653 156.356 552.132 153.836 549.072 152.036C546.012 150.236 542.411 149.156 538.451 149.156C534.311 149.156 530.53 150.056 527.11 151.856C525.67 152.576 524.23 153.656 522.969 154.736V150.416H505.868V204.961H523.149V173.818C523.149 172.018 523.509 170.218 524.41 168.958C525.31 167.518 526.39 166.438 527.83 165.717C529.27 164.997 530.89 164.457 532.69 164.457C535.391 164.457 537.551 165.357 539.351 167.158C541.151 168.958 542.051 171.118 542.051 173.998V205.141H559.333V170.218C559.153 166.258 558.253 162.657 556.453 159.597Z" fill="black"/>
<path d="M606.684 150.232H594.262V127.729H576.981V150.232H564.739V164.993H576.981V204.777H594.262V164.993H606.684V150.232Z" fill="black"/>
<path d="M639.447 206.036C632.787 206.036 627.206 204.956 622.525 202.975C617.845 200.815 613.525 197.755 609.744 193.254L621.265 181.733C623.786 184.613 626.666 186.954 629.726 188.574C632.787 190.194 636.387 190.914 640.527 190.914C644.128 190.914 647.008 190.194 649.168 188.754C651.148 187.314 652.229 185.514 652.229 183.173C652.229 181.013 651.508 179.393 650.248 177.953C648.988 176.693 647.188 175.433 644.848 174.532C642.688 173.632 640.167 172.732 637.467 171.832C634.767 170.932 632.246 170.032 629.546 168.772C626.846 167.512 624.506 166.072 622.165 164.451C620.005 162.651 618.205 160.491 616.765 157.791C615.505 155.09 614.785 151.85 614.785 147.89C614.785 143.029 616.045 138.709 618.385 135.288C620.725 131.688 623.966 129.168 628.286 127.188C632.606 125.387 637.287 124.487 642.688 124.487C648.268 124.487 653.309 125.387 657.989 127.368C662.49 129.348 666.27 131.868 669.33 135.288L657.809 146.81C655.469 144.289 652.949 142.489 650.608 141.229C648.088 139.969 645.388 139.429 642.507 139.429C639.447 139.429 636.927 139.969 635.127 141.229C633.327 142.309 632.426 144.109 632.426 146.27C632.426 148.25 633.147 149.87 634.407 150.95C635.667 152.21 637.467 153.29 639.807 154.19C641.967 155.09 644.488 155.991 647.188 156.891C649.888 157.791 652.409 158.871 655.109 159.951C657.809 161.031 660.149 162.651 662.31 164.451C664.47 166.252 666.27 168.592 667.71 171.472C669.15 174.172 669.87 177.773 669.87 181.913C669.87 189.474 667.17 195.415 661.77 199.735C656.549 203.875 649.168 206.036 639.447 206.036Z" fill="black"/>
<path d="M716.847 150.232H704.425V127.729H687.144V150.232H674.902V164.993H687.144V204.777H704.425V164.993H716.847V150.232Z" fill="black"/>
<path d="M828.109 150.416C826.129 149.696 823.789 149.156 821.269 149.156C815.328 149.156 810.647 150.956 807.227 154.376V150.236H789.945V204.782H807.227V174.898C807.227 171.298 808.127 168.778 809.747 166.978C811.368 165.177 813.708 164.277 816.588 164.277C818.028 164.277 819.288 164.457 820.368 164.997C821.449 165.357 822.349 166.077 823.069 166.798L833.33 153.836C831.71 152.216 830.089 151.136 828.109 150.416Z" fill="black"/>
<path d="M872.746 150.233V153.833C871.486 152.753 870.045 151.853 868.605 151.133C865.725 149.693 862.305 148.973 858.524 148.973C853.664 148.973 849.163 150.233 845.203 152.573C841.242 154.913 838.182 158.154 836.022 162.114C833.862 166.074 832.602 170.755 832.602 175.975C832.602 181.016 833.682 185.516 836.022 189.657C838.182 193.797 841.242 197.038 845.203 199.378C849.163 201.718 853.484 202.978 858.524 202.978C862.305 202.978 865.545 202.258 868.605 200.818C870.045 200.098 871.306 199.378 872.566 198.298V201.718C872.566 205.679 871.306 208.559 868.965 210.719C866.445 212.879 863.205 213.779 858.884 213.779C855.644 213.779 852.764 213.239 850.243 211.979C847.723 210.719 845.563 209.099 843.763 206.759L833.142 217.38C835.842 221.16 839.262 224.04 843.943 226.021C848.443 228.001 853.664 229.081 859.604 229.081C865.365 229.081 870.585 228.001 875.266 225.661C879.946 223.32 883.547 220.08 886.067 215.94C888.767 211.799 890.027 206.939 890.027 201.178V150.053H872.746V150.233ZM867.885 186.236C866.085 187.317 864.105 187.857 861.585 187.857C859.244 187.857 857.264 187.317 855.464 186.236C853.664 185.156 852.404 183.716 851.323 181.916C850.243 180.116 849.883 178.136 849.883 175.975C849.883 173.815 850.423 171.835 851.323 170.035C852.224 168.235 853.664 166.795 855.464 165.714C857.264 164.634 859.244 164.094 861.585 164.094C863.925 164.094 866.085 164.634 867.705 165.714C869.505 166.795 870.766 168.235 871.666 170.035C872.566 171.835 873.106 173.815 873.106 175.795C873.106 178.136 872.566 180.116 871.666 181.916C871.126 183.896 869.685 185.156 867.885 186.236Z" fill="black"/>
<path d="M939.721 150.416C937.74 149.696 935.4 149.156 932.88 149.156C926.939 149.156 922.259 150.956 918.838 154.376V150.236H901.557V204.782H918.838V174.898C918.838 171.298 919.739 168.778 921.359 166.978C922.979 165.177 925.319 164.277 928.199 164.277C929.64 164.277 930.9 164.457 931.98 164.997C933.06 165.357 933.96 166.077 934.68 166.798L944.941 153.836C943.501 152.216 941.701 151.136 939.721 150.416Z" fill="black"/>
<path d="M985.623 150.233V154.733C984.183 153.293 982.382 152.213 980.582 151.133C977.702 149.693 974.282 148.973 970.681 148.973C965.641 148.973 961.14 150.233 957.36 152.573C953.399 155.093 950.339 158.334 947.999 162.654C945.659 166.975 944.579 171.835 944.579 177.236C944.579 182.636 945.659 187.497 947.999 191.817C950.339 195.958 953.399 199.378 957.36 201.898C961.32 204.418 965.821 205.679 970.681 205.679C974.462 205.679 977.702 204.958 980.762 203.518C982.742 202.618 984.363 201.358 985.803 200.098V204.598H1002.72V150.053H985.623V150.233ZM974.282 190.377C971.941 190.377 969.961 189.837 967.981 188.757C966.181 187.677 964.741 186.236 963.661 184.256C962.58 182.276 962.04 180.116 962.04 177.596C962.04 175.075 962.58 172.915 963.661 170.935C964.741 168.955 966.181 167.515 967.981 166.434C969.781 165.354 971.941 164.814 974.282 164.814C976.622 164.814 978.782 165.354 980.762 166.434C982.562 167.515 984.003 168.955 985.083 170.935C985.983 172.915 986.523 175.075 986.523 177.416C986.523 181.196 985.443 184.256 983.283 186.777C980.942 189.117 977.882 190.377 974.282 190.377Z" fill="black"/>
<path d="M763.117 150.233V154.733C761.677 153.293 759.877 152.213 758.076 151.133C755.196 149.693 751.776 148.973 748.175 148.973C743.135 148.973 738.634 150.233 734.854 152.573C730.894 155.093 727.833 158.334 725.493 162.654C723.153 166.975 722.073 171.835 722.073 177.236C722.073 182.636 723.153 187.497 725.493 191.817C727.833 195.958 730.894 199.378 734.854 201.898C738.814 204.418 743.315 205.679 748.175 205.679C751.956 205.679 755.196 204.958 758.256 203.518C760.237 202.618 761.857 201.358 763.297 200.098V204.598H780.219V150.053H763.117V150.233ZM751.776 190.377C749.436 190.377 747.455 189.837 745.475 188.757C743.675 187.677 742.235 186.236 741.155 184.256C740.075 182.276 739.535 180.116 739.535 177.596C739.535 175.075 740.075 172.915 741.155 170.935C742.235 168.955 743.675 167.515 745.475 166.434C747.275 165.354 749.436 164.814 751.776 164.814C754.116 164.814 756.276 165.354 758.256 166.434C760.057 167.515 761.497 168.955 762.577 170.935C763.477 172.915 764.017 175.075 764.017 177.416C764.017 181.196 762.937 184.256 760.777 186.777C758.256 189.117 755.376 190.377 751.776 190.377Z" fill="black"/>
<path d="M450.245 125.57L422.522 168.955L394.619 125.57H381.838V204.779L399.48 205.859V161.034L416.581 187.677H428.283L445.384 161.034V204.779H446.825L463.026 191.277V125.57H450.245Z" fill="black"/>
<path d="M1098.85 159.234C1097.05 155.994 1094.35 153.473 1091.11 151.853C1087.87 150.053 1084.09 149.153 1079.95 149.153C1075.63 149.153 1071.85 150.053 1068.43 151.853C1066.09 153.113 1064.11 154.733 1062.49 156.534C1060.87 154.553 1059.07 152.933 1056.91 151.673C1053.85 149.873 1050.43 149.153 1046.83 149.153C1042.69 149.153 1039.09 150.053 1035.84 151.673C1034.4 152.393 1033.14 153.293 1032.06 154.373V150.233H1014.78V204.779H1032.06V172.915C1032.06 171.115 1032.42 169.675 1033.32 168.235C1034.04 166.975 1035.12 165.895 1036.56 165.174C1037.83 164.454 1039.45 164.094 1041.25 164.094C1043.77 164.094 1045.75 164.814 1047.55 166.435C1049.17 168.055 1050.07 170.035 1050.07 172.735V204.599H1067.35V172.735C1067.35 170.935 1067.71 169.495 1068.43 168.055C1069.15 166.795 1070.23 165.715 1071.67 164.994C1073.11 164.274 1074.55 163.914 1076.17 163.914C1078.51 163.914 1080.67 164.634 1082.29 166.255C1083.91 167.875 1084.81 169.855 1084.81 172.555V199.018V197.938L1102.09 190.197V170.395C1101.73 166.435 1100.83 162.474 1098.85 159.234Z" fill="black"/>
<path d="M1163.84 127.552H1146.74V149.875H1134.68V164.456H1146.74V203.88H1163.84V164.456H1176.08V149.875H1163.84V127.552Z" fill="#00A3E0"/>
<path d="M1221.81 152.214C1217.67 149.874 1212.99 148.794 1207.59 148.794C1202.19 148.794 1197.15 150.054 1192.83 152.394C1188.51 154.915 1185.09 158.155 1182.57 162.475C1180.05 166.796 1178.79 171.476 1178.79 176.877C1178.79 182.277 1180.05 187.318 1182.75 191.458C1185.27 195.779 1188.87 199.019 1193.37 201.539C1197.87 203.88 1203.09 205.14 1208.85 205.14C1213.35 205.14 1217.67 204.42 1221.45 202.799C1225.23 201.179 1228.47 199.019 1231.17 195.779L1221.81 186.418C1220.19 188.218 1218.21 189.658 1216.23 190.558C1214.07 191.458 1211.73 191.998 1209.21 191.998C1206.33 191.998 1203.81 191.458 1201.65 190.198C1199.49 188.938 1197.87 187.138 1196.79 184.978C1196.43 184.258 1196.07 183.537 1195.89 182.637L1234.41 182.457C1234.77 181.197 1234.95 179.937 1235.13 178.857C1235.31 177.777 1235.31 176.697 1235.31 175.617C1235.31 170.396 1234.05 165.716 1231.71 161.575C1229.19 157.615 1225.95 154.375 1221.81 152.214ZM1195.71 170.936C1195.89 170.216 1196.25 169.496 1196.43 168.956C1197.51 166.796 1198.95 164.996 1200.93 163.736C1202.91 162.475 1205.25 161.935 1207.95 161.935C1210.47 161.935 1212.45 162.475 1214.25 163.555C1216.05 164.636 1217.31 166.256 1218.21 168.236C1218.57 168.956 1218.75 169.856 1219.11 170.936H1195.71Z" fill="#00A3E0"/>
<path d="M1275.28 188.398C1273.47 189.118 1271.49 189.478 1269.33 189.478C1266.99 189.478 1265.01 188.938 1263.03 187.858C1261.05 186.778 1259.61 185.338 1258.53 183.358C1257.45 181.378 1256.91 179.217 1256.91 176.697C1256.91 174.177 1257.45 172.017 1258.53 170.216C1259.61 168.416 1261.05 166.796 1263.03 165.716C1265.01 164.636 1266.99 164.096 1269.33 164.096C1271.49 164.096 1273.29 164.456 1275.1 165.176C1276.72 165.896 1278.16 166.796 1279.42 168.236L1290.4 157.075C1287.7 154.195 1284.46 152.215 1281.04 150.774C1277.44 149.334 1273.65 148.614 1269.33 148.614C1263.75 148.614 1258.71 149.874 1254.21 152.215C1249.71 154.735 1246.11 157.975 1243.59 162.296C1241.07 166.616 1239.63 171.297 1239.63 176.697C1239.63 182.098 1240.89 186.778 1243.41 191.099C1245.93 195.419 1249.53 198.839 1254.03 201.18C1258.53 203.52 1263.57 204.78 1269.15 204.78C1273.65 204.78 1277.62 204.06 1281.04 202.44C1284.64 201 1287.7 198.659 1290.58 195.779L1279.6 184.978C1278.52 186.598 1277.08 187.678 1275.28 188.398Z" fill="#00A3E0"/>
<path d="M1348.18 158.695C1346.38 155.635 1343.86 153.295 1340.8 151.494C1337.56 149.694 1333.96 148.974 1329.64 148.974C1325.5 148.974 1321.9 149.874 1318.84 151.494C1317.4 152.215 1316.32 153.115 1315.24 154.195V123.412H1298.14V203.88H1315.24V173.097C1315.24 171.296 1315.6 169.676 1316.5 168.236C1317.4 166.796 1318.48 165.716 1319.92 164.996C1321.36 164.276 1322.98 163.916 1324.6 163.916C1327.3 163.916 1329.46 164.816 1331.26 166.436C1333.06 168.236 1333.96 170.396 1333.96 173.097V203.88H1351.06V169.316C1350.88 165.356 1349.98 161.756 1348.18 158.695Z" fill="#00A3E0"/>
<path d="M476.713 139.613L492.735 139.253V124.312L476.713 139.613Z" fill="black"/>
<path d="M1134.23 192.287L1125.96 184.013L1117.69 192.287L1125.96 200.561L1134.23 192.287Z" fill="#00A3E0"/>
</svg>
