<svg width="32" height="32" viewBox="0 0 32 32" fill="none" xmlns="http://www.w3.org/2000/svg">
<rect width="32" height="32" rx="6" fill="#2DE370"/>
<path d="M10.5396 6L3 13.5L15.5594 26L28.1188 13.505L20.5792 6H10.5396Z" fill="#121619"/>
<path d="M10.1894 10.8713C13.1547 7.90098 17.9666 7.90098 20.9319 10.8713L23.4963 13.4356L20.9319 16C17.9666 18.9703 13.1547 18.9703 10.1894 16L7.625 13.4356L10.1894 10.8713Z" fill="#2DE370"/>
<path fillRule="evenodd" clipRule="evenodd" d="M15.5605 16.5793C13.8278 16.5793 12.4219 15.208 12.4219 13.5199C12.4219 11.8317 13.8278 10.4604 15.5605 10.4604C17.2932 10.4604 18.6991 11.8317 18.6991 13.5199C18.6991 15.208 17.2981 16.5793 15.5605 16.5793Z" fill="white"/>
<path d="M15.5601 14.7573C14.8323 14.7573 14.2383 14.1633 14.2383 13.4356C14.2383 12.7029 14.8323 12.1138 15.5601 12.1138C16.2878 12.1138 16.8818 12.7078 16.8818 13.4356C16.8818 14.1682 16.2927 14.7573 15.5601 14.7573Z" fill="#121619"/>
</svg>
