<svg width="243" height="56" viewBox="0 0 243 56" fill="none" xmlns="http://www.w3.org/2000/svg">
<path d="M28.9431 11.6687C29.1376 11.8631 29.17 11.8631 29.3968 11.6687L31.2114 9.36804C31.4058 9.10882 31.503 8.84959 31.503 8.49315C31.503 7.81268 31.0169 7.19702 30.3365 7.19702C29.8504 7.19702 29.4616 7.48865 29.17 7.84509C28.8783 7.45625 28.4895 7.19702 28.0034 7.19702C27.323 7.19702 26.8369 7.81268 26.8369 8.49315C26.8369 8.84959 26.9665 9.10882 27.1285 9.36804L28.9431 11.6687Z" fill="white"/>
<path d="M22.2367 18.6025L24.0512 16.3019C24.2457 16.0427 24.3429 15.7834 24.3429 15.427C24.3429 14.7465 23.8568 14.1309 23.1763 14.1309C23.0791 14.1309 23.0143 14.1309 22.9171 14.1633L21.297 17.436C21.2321 17.5656 21.1673 17.6628 21.1025 17.76L21.783 18.6025C22.0098 18.7969 22.0422 18.7969 22.2367 18.6025Z" fill="white"/>
<path d="M31.1462 14.7792H30.6601L30.4981 14.4551C30.4009 14.2607 30.3361 14.1311 30.1741 14.1311H28.1975C28.0031 14.1311 27.9707 14.2931 27.8735 14.4551L27.7114 14.7792H27.193C26.8366 14.7792 26.5449 15.0708 26.5449 15.4272V18.0843C26.5449 18.4407 26.8366 18.7324 27.193 18.7324H31.1462C31.5026 18.7324 31.7943 18.4407 31.7943 18.0843V15.4272C31.8267 15.1032 31.535 14.7792 31.1462 14.7792ZM29.1696 18.0843C28.4243 18.0843 27.8411 17.501 27.8411 16.7558C27.8411 16.0105 28.4243 15.4272 29.1696 15.4272C29.9149 15.4272 30.4981 16.0105 30.4981 16.7558C30.4981 17.501 29.9149 18.0843 29.1696 18.0843Z" fill="white"/>
<path d="M29.1695 15.7837C28.6187 15.7837 28.165 16.2373 28.165 16.7882C28.165 17.3391 28.6187 17.7927 29.1695 17.7927C29.7204 17.7927 30.174 17.3391 30.174 16.7882C30.174 16.2373 29.7204 15.7837 29.1695 15.7837Z" fill="white"/>
<path d="M34.0961 15.4281C34.0636 15.4605 34.0312 15.5253 34.0312 15.5901V17.3075C34.0312 17.3723 34.0636 17.4371 34.0961 17.4695L35.3274 18.7008C35.3598 18.7332 35.4246 18.7656 35.4894 18.7656H37.2068C37.2716 18.7656 37.3364 18.7332 37.3688 18.7008L37.6604 18.4092C37.3688 18.15 37.142 17.8259 36.9475 17.4371L35.3598 14.1968L35.3274 14.2292L34.0961 15.4281Z" fill="white"/>
<path d="M5.48473 24.4035L6.71606 25.6348C6.74846 25.6672 6.81326 25.6996 6.87807 25.6996H8.59545C8.66026 25.6996 8.72507 25.6672 8.75747 25.6348L9.98879 24.4035C10.0212 24.3711 10.0536 24.3063 10.0536 24.2414V22.5241C10.0536 22.4593 10.0212 22.3945 9.98879 22.3621L8.75747 21.1307C8.72507 21.0983 8.66026 21.0659 8.59545 21.0659H7.23451C6.35962 21.4548 5.74396 22.1352 5.41992 22.9777V24.2414C5.41992 24.3063 5.41993 24.3711 5.48473 24.4035Z" fill="white"/>
<path d="M14.655 25.5376C14.8495 25.732 14.8819 25.732 15.1087 25.5376L16.9233 23.2369C17.1177 22.9777 17.2149 22.7185 17.2149 22.3621C17.2149 21.6816 16.7289 21.0659 16.0484 21.0659C15.5623 21.0659 15.1735 21.3575 14.8819 21.714C14.5902 21.3251 14.2014 21.0659 13.7153 21.0659C13.0349 21.0659 12.5488 21.6816 12.5488 22.3621C12.5488 22.7185 12.6784 22.9777 12.8405 23.2369L14.655 25.5376Z" fill="white"/>
<path d="M24.0183 21.714H23.5322L23.3702 21.39C23.273 21.1955 23.2082 21.0659 23.0462 21.0659H21.0372C20.8427 21.0659 20.8103 21.2279 20.7131 21.39L20.5511 21.714H20.0651C19.7086 21.714 19.417 22.0056 19.417 22.3621V25.0191C19.417 25.3756 19.7086 25.6672 20.0651 25.6672H24.0183C24.3747 25.6672 24.6663 25.3756 24.6663 25.0191V22.3621C24.6663 22.038 24.3747 21.714 24.0183 21.714ZM22.0093 25.0191C21.264 25.0191 20.6807 24.4359 20.6807 23.6906C20.6807 22.9453 21.264 22.3621 22.0093 22.3621C22.7545 22.3621 23.3378 22.9453 23.3378 23.6906C23.3378 24.4359 22.7545 25.0191 22.0093 25.0191Z" fill="white"/>
<path d="M22.0094 24.6953C21.4585 24.6953 21.0049 24.2416 21.0049 23.6908C21.0049 23.1399 21.4585 22.6863 22.0094 22.6863C22.5602 22.6863 23.0139 23.1399 23.0139 23.6908C23.0139 24.2416 22.5602 24.6953 22.0094 24.6953Z" fill="white"/>
<path d="M22.0094 22.7185C21.4585 22.7185 21.0049 23.1722 21.0049 23.723C21.0049 24.2739 21.4585 24.7275 22.0094 24.7275C22.5602 24.7275 23.0139 24.2739 23.0139 23.723C23.0139 23.1722 22.5602 22.7185 22.0094 22.7185Z" fill="white"/>
<path d="M28.3283 25.6996H30.0456C30.1104 25.6996 30.1753 25.6672 30.2077 25.6348L31.439 24.4035C31.4714 24.3711 31.5038 24.3063 31.5038 24.2414V22.5241C31.5038 22.4593 31.4714 22.3945 31.439 22.3621L30.2077 21.1307C30.1753 21.0983 30.1104 21.0659 30.0456 21.0659H28.3283C28.2635 21.0659 28.1987 21.0983 28.1663 21.1307L26.9349 22.3621C26.9025 22.3945 26.8701 22.4593 26.8701 22.5241V24.2414C26.8701 24.3063 26.9025 24.3711 26.9349 24.4035L28.1663 25.6348C28.1987 25.6672 28.2635 25.6996 28.3283 25.6996Z" fill="white"/>
<path d="M36.1043 25.5376C36.2987 25.732 36.3311 25.732 36.5579 25.5376L38.3725 23.2369C38.5669 22.9777 38.6641 22.7185 38.6641 22.3621C38.6641 21.6816 38.1781 21.0659 37.4976 21.0659C37.0116 21.0659 36.6227 21.3575 36.3311 21.714C36.0395 21.3251 35.6506 21.0659 35.1646 21.0659C34.4841 21.0659 33.998 21.6816 33.998 22.3621C33.998 22.7185 34.1277 22.9777 34.2897 23.2369L36.1043 25.5376Z" fill="white"/>
<path d="M43.4947 22.7188C42.9439 22.7188 42.4902 23.1724 42.4902 23.7233C42.4902 24.2741 42.9439 24.7278 43.4947 24.7278C44.0456 24.7278 44.4992 24.2741 44.4992 23.7233C44.4992 23.1724 44.0456 22.7188 43.4947 22.7188Z" fill="white"/>
<path d="M45.4712 21.7142H44.9852L44.8231 21.3902C44.7259 21.1958 44.6611 21.0662 44.4991 21.0662H42.5225C42.3281 21.0662 42.2957 21.2282 42.1985 21.3902L42.0365 21.7142H41.5504C41.194 21.7142 40.9023 22.0059 40.9023 22.3623V25.0194C40.9023 25.3758 41.194 25.6674 41.5504 25.6674H45.5036C45.8601 25.6674 46.1517 25.3758 46.1517 25.0194V22.3623C46.1517 22.0383 45.8277 21.7142 45.4712 21.7142ZM43.4946 25.0194C42.7493 25.0194 42.1661 24.4361 42.1661 23.6908C42.1661 22.9456 42.7493 22.3623 43.4946 22.3623C44.2399 22.3623 44.8231 22.9456 44.8231 23.6908C44.8231 24.4361 44.2399 25.0194 43.4946 25.0194Z" fill="white"/>
<path d="M49.6174 21.1307L48.3861 22.3621C48.3537 22.3945 48.3213 22.4593 48.3213 22.5241V24.2414C48.3213 24.3063 48.3537 24.3711 48.3861 24.4035L49.6174 25.6348C49.6498 25.6672 49.7146 25.6996 49.7794 25.6996H51.4968C51.5616 25.6996 51.6264 25.6672 51.6588 25.6348L52.8902 24.4035C52.9226 24.3711 52.955 24.3063 52.955 24.2414V23.3017C52.6957 22.3296 52.0153 21.4872 51.0432 21.0659H49.7794C49.7146 21.0659 49.6822 21.0983 49.6174 21.1307Z" fill="white"/>
<path d="M8.88759 27.9998C8.56356 27.9998 8.27192 28.1294 8.0127 28.3562L9.79488 30.106C9.9569 29.8791 10.0217 29.6523 10.0217 29.3283C10.0217 28.6154 9.56806 27.9998 8.88759 27.9998Z" fill="white"/>
<path d="M16.857 28.6478H16.3709L16.2089 28.3238C16.1117 28.1294 16.0469 27.9998 15.8849 27.9998H13.9083C13.7138 27.9998 13.6814 28.1618 13.5842 28.3238L13.4222 28.6478H12.9362C12.5797 28.6478 12.2881 28.9395 12.2881 29.2959V31.953C12.2881 32.3094 12.5797 32.601 12.9362 32.601H16.8894C17.2458 32.601 17.5374 32.3094 17.5374 31.953V29.2959C17.505 28.9719 17.2134 28.6478 16.857 28.6478ZM14.8804 31.953C14.1351 31.953 13.5518 31.3697 13.5518 30.6244C13.5518 29.8791 14.1351 29.2959 14.8804 29.2959C15.6256 29.2959 16.2089 29.8791 16.2089 30.6244C16.2089 31.3697 15.5932 31.953 14.8804 31.953Z" fill="white"/>
<path d="M14.8805 29.6523C14.3296 29.6523 13.876 30.106 13.876 30.6568C13.876 31.2077 14.3296 31.6613 14.8805 31.6613C15.4313 31.6613 15.885 31.2077 15.885 30.6568C15.8526 30.106 15.4313 29.6523 14.8805 29.6523Z" fill="white"/>
<path d="M21.1662 32.6334H22.8835C22.9483 32.6334 23.0132 32.601 23.0456 32.5686L24.2769 31.3373C24.3093 31.3049 24.3417 31.2401 24.3417 31.1753V29.4579C24.3417 29.3931 24.3093 29.3283 24.2769 29.2959L23.0456 28.0646C23.0132 28.0322 22.9483 27.9998 22.8835 27.9998H21.1662C21.1014 27.9998 21.0365 28.0322 21.0041 28.0646L19.7728 29.2959C19.7404 29.3283 19.708 29.3931 19.708 29.4579V31.1753C19.708 31.2401 19.7404 31.3049 19.7728 31.3373L21.0041 32.5686C21.0365 32.601 21.1014 32.6334 21.1662 32.6334Z" fill="white"/>
<path d="M27.1609 30.1708L28.9431 32.4714C29.1376 32.6658 29.17 32.6658 29.3968 32.4714L31.2114 30.1708C31.4058 29.9116 31.503 29.6523 31.503 29.2959C31.503 28.6154 31.0169 27.9998 30.3365 27.9998C29.8504 27.9998 29.4616 28.2914 29.17 28.6478C28.8783 28.259 28.4895 27.9998 28.0034 27.9998C27.323 27.9998 26.8369 28.6154 26.8369 29.2959C26.8693 29.6847 26.9989 29.944 27.1609 30.1708Z" fill="white"/>
<path d="M38.3091 28.6478H37.823L37.661 28.3238C37.5638 28.1294 37.499 27.9998 37.337 27.9998H35.3604C35.166 27.9998 35.1336 28.1618 35.0364 28.3238L34.8744 28.6478H34.3883C34.0319 28.6478 33.7402 28.9395 33.7402 29.2959V31.953C33.7402 32.3094 34.0319 32.601 34.3883 32.601H38.3415C38.6979 32.601 38.9896 32.3094 38.9896 31.953V29.2959C38.9896 28.9719 38.6979 28.6478 38.3091 28.6478ZM36.3325 31.953C35.5872 31.953 35.004 31.3697 35.004 30.6244C35.004 29.8791 35.5872 29.2959 36.3325 29.2959C37.0778 29.2959 37.661 29.8791 37.661 30.6244C37.661 31.3697 37.0778 31.953 36.3325 31.953Z" fill="white"/>
<path d="M36.3326 29.6523C35.7818 29.6523 35.3281 30.106 35.3281 30.6568C35.3281 31.2077 35.7818 31.6613 36.3326 31.6613C36.8835 31.6613 37.3371 31.2077 37.3371 30.6568C37.3371 30.106 36.8835 29.6523 36.3326 29.6523Z" fill="white"/>
<path d="M44.5309 28.0646C44.4985 28.0322 44.4337 27.9998 44.3689 27.9998H42.6515C42.5867 27.9998 42.5219 28.0322 42.4895 28.0646L41.2582 29.2959C41.2258 29.3283 41.1934 29.3931 41.1934 29.4579V31.1753C41.1934 31.2401 41.2258 31.3049 41.2582 31.3373L42.4895 32.5686C42.5219 32.601 42.5867 32.6334 42.6515 32.6334H44.3689C44.4337 32.6334 44.4985 32.601 44.5309 32.5686L45.7622 31.3373C45.7946 31.3049 45.827 31.2401 45.827 31.1753V29.4579C45.827 29.3931 45.7946 29.3283 45.7622 29.2959L44.5309 28.0646Z" fill="white"/>
<path d="M48.3545 29.2959C48.3545 29.5875 48.4517 29.8143 48.5489 30.0088L50.3311 28.2914C50.1043 28.097 49.845 27.9998 49.521 27.9998C48.8081 27.9998 48.3545 28.6154 48.3545 29.2959Z" fill="white"/>
<path d="M15.8865 39.5037L17.1178 38.2724C17.1502 38.24 17.1826 38.1751 17.1826 38.1103V36.393C17.1826 36.3282 17.1502 36.2634 17.1178 36.2309L15.8865 34.9996C15.8541 34.9672 15.7893 34.9348 15.7245 34.9348H14.558C14.9144 35.5829 15.044 36.3606 14.9144 37.1382L14.4932 39.5685H15.7245C15.7893 39.5685 15.8541 39.5361 15.8865 39.5037Z" fill="white"/>
<path d="M20.0018 37.1058L21.784 39.4065C21.9784 39.6009 22.0108 39.6009 22.2376 39.4065L24.0522 37.1058C24.2466 36.8466 24.3438 36.5874 24.3438 36.2309C24.3438 35.5505 23.8578 34.9348 23.1773 34.9348C22.6912 34.9348 22.3024 35.2264 22.0108 35.5829C21.7191 35.194 21.3303 34.9348 20.8443 34.9348C20.1638 34.9348 19.6777 35.5505 19.6777 36.2309C19.7101 36.6198 19.8398 36.879 20.0018 37.1058Z" fill="white"/>
<path d="M29.1695 36.5867C28.6187 36.5867 28.165 37.0403 28.165 37.5912C28.165 38.142 28.6187 38.5957 29.1695 38.5957C29.7204 38.5957 30.174 38.142 30.174 37.5912C30.174 37.0403 29.7204 36.5867 29.1695 36.5867Z" fill="white"/>
<path d="M31.1462 35.6146H30.6601L30.4981 35.2906C30.4009 35.0962 30.3361 34.9666 30.1741 34.9666H28.1975C28.0031 34.9666 27.9707 35.1286 27.8735 35.2906L27.7114 35.6146H27.193C26.8366 35.6146 26.5449 35.9062 26.5449 36.2627V38.9198C26.5449 39.2762 26.8366 39.5678 27.193 39.5678H31.1462C31.5026 39.5678 31.7943 39.2762 31.7943 38.9198V36.2627C31.8267 35.9062 31.535 35.6146 31.1462 35.6146ZM29.1696 38.8874C28.4243 38.8874 27.8411 38.3041 27.8411 37.5588C27.8411 36.8135 28.4243 36.2303 29.1696 36.2303C29.9149 36.2303 30.4981 36.8135 30.4981 37.5588C30.4981 38.3041 29.9149 38.8874 29.1696 38.8874Z" fill="white"/>
<path d="M37.3688 34.9996C37.3364 34.9672 37.2716 34.9348 37.2068 34.9348H35.4894C35.4246 34.9348 35.3598 34.9672 35.3274 34.9996L34.0961 36.2309C34.0636 36.2634 34.0312 36.3282 34.0312 36.393V38.1103C34.0312 38.1751 34.0636 38.24 34.0961 38.2724L35.3274 39.5037C35.3598 39.5361 35.4246 39.5685 35.4894 39.5685H37.2068C37.2716 39.5685 37.3364 39.5361 37.3688 39.5037L38.6001 38.2724C38.6325 38.24 38.6649 38.1751 38.6649 38.1103V36.393C38.6649 36.3282 38.6325 36.2634 38.6001 36.2309L37.3688 34.9996Z" fill="white"/>
<path d="M42.3267 34.9348C41.6462 34.9348 41.1602 35.5505 41.1602 36.2309C41.1602 36.5874 41.2898 36.8466 41.4518 37.1058L43.234 39.4065C43.4284 39.6009 43.4608 39.6009 43.6876 39.4065L43.72 39.3741L43.3312 37.1382C43.234 36.5874 43.2664 36.0689 43.4284 35.5505C43.1692 35.194 42.8127 34.9348 42.3267 34.9348Z" fill="white"/>
<path d="M15.0747 46.3403L16.8893 44.0397C17.0837 43.7805 17.1809 43.5212 17.1809 43.1648C17.1809 42.4843 16.6949 41.8687 16.0144 41.8687C15.5284 41.8687 15.1395 42.1603 14.8479 42.5167C14.6535 42.2251 14.3942 42.0307 14.0702 41.9335L13.5518 44.9794L14.6211 46.3727C14.8479 46.5347 14.8803 46.5347 15.0747 46.3403Z" fill="white"/>
<path d="M24.0183 42.5497H23.5322L23.3702 42.2256C23.273 42.0312 23.2082 41.9016 23.0462 41.9016H21.0372C20.8427 41.9016 20.8103 42.0636 20.7131 42.2256L20.5511 42.5497H20.0651C19.7086 42.5497 19.417 42.8413 19.417 43.1977V45.8548C19.417 46.2113 19.7086 46.5029 20.0651 46.5029H24.0183C24.3747 46.5029 24.6663 46.2113 24.6663 45.8548V43.1977C24.6663 42.8413 24.3747 42.5497 24.0183 42.5497ZM22.0093 45.8224C21.264 45.8224 20.6807 45.2392 20.6807 44.4939C20.6807 43.7486 21.264 43.1653 22.0093 43.1653C22.7545 43.1653 23.3378 43.7486 23.3378 44.4939C23.3378 45.2392 22.7545 45.8224 22.0093 45.8224Z" fill="white"/>
<path d="M22.0094 43.5217C21.4585 43.5217 21.0049 43.9754 21.0049 44.5262C21.0049 45.0771 21.4585 45.5307 22.0094 45.5307C22.5602 45.5307 23.0139 45.0771 23.0139 44.5262C23.0139 43.9754 22.5602 43.5217 22.0094 43.5217Z" fill="white"/>
<path d="M31.5038 45.0442V43.3268C31.5038 43.262 31.4714 43.1972 31.439 43.1648L30.2077 41.9335C30.1753 41.9011 30.1104 41.8687 30.0456 41.8687H28.3283C28.2635 41.8687 28.1987 41.9011 28.1663 41.9335L26.9349 43.1648C26.9025 43.1972 26.8701 43.262 26.8701 43.3268V45.0442C26.8701 45.109 26.9025 45.1738 26.9349 45.2062L27.8746 46.1459C28.6847 45.8219 29.6244 45.8219 30.4345 46.1783L31.4066 45.2062C31.4714 45.1738 31.5038 45.109 31.5038 45.0442Z" fill="white"/>
<path d="M37.4976 41.8687C37.0116 41.8687 36.6227 42.1603 36.3311 42.5167C36.0395 42.1279 35.6506 41.8687 35.1646 41.8687C34.4841 41.8687 33.998 42.4843 33.998 43.1648C33.998 43.5212 34.1277 43.7805 34.2897 44.0397L36.0719 46.3403C36.2663 46.5347 36.2987 46.5347 36.5255 46.3403L38.3401 44.0397C38.5345 43.7805 38.6317 43.5212 38.6317 43.1648C38.6317 42.4843 38.1781 41.8687 37.4976 41.8687Z" fill="white"/>
<path d="M44.6935 45.0442C44.4991 45.5302 44.0131 45.8543 43.4946 45.8543C42.7493 45.8543 42.1661 45.271 42.1661 44.5257C42.1661 43.7805 42.7493 43.1972 43.4946 43.1972C43.8835 43.1972 44.2399 43.3592 44.4667 43.6184L44.1751 41.8687H42.5225C42.3281 41.8687 42.2957 42.0307 42.1985 42.1927L42.0365 42.5167H41.5504C41.194 42.5167 40.9023 42.8083 40.9023 43.1648V45.8219C40.9023 46.1783 41.194 46.4699 41.5504 46.4699H44.9852L44.6935 45.0442Z" fill="white"/>
<path d="M42.4902 44.5257C42.4902 45.0766 42.9439 45.5302 43.4947 45.5302C44.0456 45.5302 44.4992 45.0766 44.4992 44.5257C44.4992 43.9749 44.0456 43.5212 43.4947 43.5212C42.9439 43.5212 42.4902 43.9749 42.4902 44.5257Z" fill="white"/>
<path d="M16.8565 49.4835H16.3705L16.2085 49.1595C16.1113 48.9651 16.0465 48.8354 15.8844 48.8354H13.9078C13.7134 48.8354 13.681 48.9975 13.5838 49.1595L13.4218 49.4835H13.2598C13.4218 49.9048 13.6162 50.2612 13.9078 50.5852C13.9726 50.6824 14.0699 50.7472 14.1347 50.8121C14.6207 51.2657 15.204 51.5573 15.852 51.6869C15.9492 51.7193 16.0789 51.7193 16.1761 51.7193C16.6297 51.7518 17.0834 51.6869 17.537 51.5573V50.1316C17.5046 49.7751 17.213 49.4835 16.8565 49.4835Z" fill="white"/>
<path d="M21.0041 48.8674L19.7728 50.0987C19.7404 50.1311 19.708 50.1959 19.708 50.2607V50.4551L22.8187 48.835H21.1662C21.1014 48.8026 21.0365 48.835 21.0041 48.8674Z" fill="white"/>
<path d="M38.3085 49.4835H37.8225L37.6605 49.1595C37.5632 48.9651 37.4984 48.8354 37.3364 48.8354H35.457L38.989 50.6824V50.164C38.989 49.7751 38.6974 49.4835 38.3085 49.4835Z" fill="white"/>
<path d="M44.3689 48.8025H42.6515C42.5867 48.8025 42.5219 48.8349 42.4895 48.8673L41.2582 50.0986C41.2258 50.131 41.1934 50.1958 41.1934 50.2606V51.654C42.8783 52.0104 44.5309 50.9735 45.0818 49.3858L44.5309 48.8349C44.4661 48.8349 44.4337 48.8025 44.3689 48.8025Z" fill="white"/>
<path d="M32.7343 3.21153L38.3725 14.6175C38.9557 15.784 40.0898 16.5941 41.386 16.7885L53.9585 18.6031C57.2312 19.0892 58.5273 23.1072 56.1619 25.4078L47.0565 34.2863C46.1169 35.1936 45.6956 36.5221 45.9224 37.8183L48.0611 50.326C48.6119 53.5663 45.2096 56.0614 42.2933 54.5384L31.0493 48.641C29.8828 48.0253 28.4894 48.0253 27.3553 48.641L16.079 54.5384C13.1627 56.0614 9.72792 53.5987 10.3112 50.326L12.4498 37.8183C12.6766 36.5221 12.2554 35.1936 11.3157 34.2863L2.21035 25.4078C-0.155097 23.1072 1.14104 19.0892 4.41378 18.6031L16.9863 16.7885C18.2824 16.5941 19.4165 15.784 19.9998 14.6175L25.638 3.21153C27.0637 0.262824 31.2761 0.262824 32.7343 3.21153Z" stroke="#45A3DB" stroke-width="2" stroke-miterlimit="10"/>
<path d="M87.9388 26.2417H84.8281V36.0599H87.9388V26.2417Z" fill="white"/>
<path d="M99.1815 27.9275C98.8575 27.3442 98.4038 26.8906 97.853 26.5666C97.3021 26.2425 96.654 26.0481 95.9412 26.0481C95.1959 26.0481 94.5154 26.2101 93.8998 26.5341C93.6405 26.6638 93.3813 26.8582 93.1545 27.0526V26.2749H90.0762V36.0931H93.1869V30.4874C93.1869 30.1633 93.2517 29.8393 93.4137 29.6125C93.5757 29.3532 93.7701 29.1588 94.0294 29.0292C94.2886 28.8996 94.5802 28.8024 94.9043 28.8024C95.3903 28.8024 95.7792 28.9644 96.1032 29.2884C96.4272 29.6125 96.5892 30.0013 96.5892 30.5198V36.1255H99.7V29.8393C99.6676 29.1264 99.5055 28.4783 99.1815 27.9275Z" fill="white"/>
<path d="M108.223 26.2416H105.987V22.1912H102.876V26.2416H100.673V28.8986H102.876V36.0598H105.987V28.8986H108.223V26.2416Z" fill="white"/>
<path d="M114.121 36.2864C112.922 36.2864 111.918 36.092 111.075 35.7355C110.233 35.3467 109.455 34.7958 108.774 33.9857L110.848 31.9119C111.302 32.4304 111.82 32.8516 112.371 33.1433C112.922 33.4349 113.57 33.5645 114.315 33.5645C114.963 33.5645 115.482 33.4349 115.871 33.1757C116.227 32.9164 116.422 32.5924 116.422 32.1712C116.422 31.7823 116.292 31.4907 116.065 31.2315C115.838 31.0046 115.514 30.7778 115.093 30.6158C114.704 30.4538 114.251 30.2918 113.765 30.1297C113.278 29.9677 112.825 29.8057 112.339 29.5789C111.853 29.3521 111.431 29.0928 111.01 28.8012C110.621 28.4772 110.297 28.0883 110.038 27.6023C109.811 27.1162 109.682 26.533 109.682 25.8201C109.682 24.9452 109.909 24.1675 110.33 23.5519C110.751 22.9038 111.334 22.4502 112.112 22.0937C112.89 21.7697 113.732 21.6077 114.704 21.6077C115.709 21.6077 116.616 21.7697 117.459 22.1261C118.269 22.4826 118.949 22.9362 119.5 23.5519L117.426 25.6257C117.005 25.172 116.551 24.848 116.13 24.6212C115.676 24.3944 115.19 24.2971 114.672 24.2971C114.121 24.2971 113.667 24.3944 113.343 24.6212C113.019 24.8156 112.857 25.1396 112.857 25.5285C112.857 25.8849 112.987 26.1765 113.214 26.371C113.44 26.5978 113.765 26.7922 114.186 26.9542C114.575 27.1162 115.028 27.2782 115.514 27.4403C116 27.6023 116.454 27.7967 116.94 27.9911C117.426 28.1855 117.847 28.4772 118.236 28.8012C118.625 29.1252 118.949 29.5465 119.208 30.0649C119.468 30.551 119.597 31.1991 119.597 31.9443C119.597 33.3053 119.111 34.3746 118.139 35.1523C117.199 35.8975 115.871 36.2864 114.121 36.2864Z" fill="white"/>
<path d="M128.053 26.2416H125.817V22.1912H122.706V26.2416H120.503V28.8986H122.706V36.0598H125.817V28.8986H128.053V26.2416Z" fill="white"/>
<path d="M148.079 26.2749C147.723 26.1453 147.302 26.0481 146.848 26.0481C145.779 26.0481 144.936 26.3721 144.321 26.9878V26.2425H141.21V36.0607H144.321V30.6818C144.321 30.0337 144.483 29.5801 144.774 29.256C145.066 28.932 145.487 28.77 146.006 28.77C146.265 28.77 146.492 28.8024 146.686 28.8996C146.881 28.9644 147.043 29.094 147.172 29.2236L149.019 26.8906C148.728 26.599 148.436 26.4045 148.079 26.2749Z" fill="white"/>
<path d="M156.115 26.242V26.89C155.888 26.6956 155.629 26.5336 155.369 26.404C154.851 26.1448 154.235 26.0151 153.555 26.0151C152.68 26.0151 151.87 26.242 151.157 26.6632C150.444 27.0844 149.893 27.6677 149.504 28.3806C149.115 29.0935 148.889 29.9359 148.889 30.8756C148.889 31.7829 149.083 32.593 149.504 33.3383C149.893 34.0836 150.444 34.6668 151.157 35.0881C151.87 35.5093 152.647 35.7361 153.555 35.7361C154.235 35.7361 154.818 35.6065 155.369 35.3473C155.629 35.2177 155.855 35.0881 156.082 34.8936V35.5093C156.082 36.2222 155.855 36.7406 155.434 37.1295C154.981 37.5183 154.397 37.6803 153.62 37.6803C153.036 37.6803 152.518 37.5831 152.064 37.3563C151.611 37.1295 151.222 36.8379 150.898 36.4166L148.986 38.3284C149.472 39.0089 150.088 39.5273 150.93 39.8838C151.74 40.2402 152.68 40.4346 153.749 40.4346C154.786 40.4346 155.726 40.2402 156.568 39.819C157.411 39.3977 158.059 38.8144 158.512 38.0692C158.999 37.3239 159.225 36.449 159.225 35.4121V26.2096H156.115V26.242ZM155.24 32.7226C154.916 32.917 154.559 33.0143 154.106 33.0143C153.684 33.0143 153.328 32.917 153.004 32.7226C152.68 32.5282 152.453 32.269 152.259 31.945C152.064 31.6209 151.999 31.2645 151.999 30.8756C151.999 30.4868 152.097 30.1304 152.259 29.8063C152.421 29.4823 152.68 29.2231 153.004 29.0287C153.328 28.8342 153.684 28.737 154.106 28.737C154.527 28.737 154.916 28.8342 155.207 29.0287C155.531 29.2231 155.758 29.4823 155.92 29.8063C156.082 30.1304 156.179 30.4868 156.179 30.8432C156.179 31.2645 156.082 31.6209 155.92 31.945C155.823 32.3014 155.564 32.5282 155.24 32.7226Z" fill="white"/>
<path d="M168.17 26.2749C167.814 26.1453 167.393 26.0481 166.939 26.0481C165.87 26.0481 165.027 26.3721 164.412 26.9878V26.2425H161.301V36.0607H164.412V30.6818C164.412 30.0337 164.574 29.5801 164.865 29.256C165.157 28.932 165.578 28.77 166.096 28.77C166.356 28.77 166.583 28.8024 166.777 28.8996C166.971 28.9644 167.133 29.094 167.263 29.2236L169.11 26.8906C168.851 26.599 168.527 26.4045 168.17 26.2749Z" fill="white"/>
<path d="M176.432 26.242V27.052C176.173 26.7928 175.849 26.5984 175.525 26.404C175.006 26.1448 174.39 26.0151 173.742 26.0151C172.835 26.0151 172.025 26.242 171.345 26.6632C170.632 27.1168 170.081 27.7001 169.66 28.4778C169.238 29.2555 169.044 30.1304 169.044 31.1025C169.044 32.0746 169.238 32.9495 169.66 33.7271C170.081 34.4724 170.632 35.0881 171.345 35.5417C172.057 35.9954 172.868 36.2222 173.742 36.2222C174.423 36.2222 175.006 36.0926 175.557 35.8334C175.913 35.6713 176.205 35.4445 176.464 35.2177V36.0278H179.51V26.2096H176.432V26.242ZM174.39 33.4679C173.969 33.4679 173.613 33.3707 173.256 33.1763C172.932 32.9819 172.673 32.7226 172.479 32.3662C172.284 32.0098 172.187 31.6209 172.187 31.1673C172.187 30.7136 172.284 30.3248 172.479 29.9683C172.673 29.6119 172.932 29.3527 173.256 29.1583C173.58 28.9638 173.969 28.8666 174.39 28.8666C174.812 28.8666 175.201 28.9638 175.557 29.1583C175.881 29.3527 176.14 29.6119 176.335 29.9683C176.497 30.3248 176.594 30.7136 176.594 31.1349C176.594 31.8153 176.4 32.3662 176.011 32.8198C175.589 33.2411 175.039 33.4679 174.39 33.4679Z" fill="white"/>
<path d="M136.381 26.242V27.052C136.122 26.7928 135.798 26.5984 135.474 26.404C134.955 26.1448 134.34 26.0151 133.692 26.0151C132.784 26.0151 131.974 26.242 131.294 26.6632C130.581 27.1168 130.03 27.7001 129.609 28.4778C129.188 29.2555 128.993 30.1304 128.993 31.1025C128.993 32.0746 129.188 32.9495 129.609 33.7271C130.03 34.4724 130.581 35.0881 131.294 35.5417C132.007 35.9954 132.817 36.2222 133.692 36.2222C134.372 36.2222 134.955 36.0926 135.506 35.8334C135.863 35.6713 136.154 35.4445 136.414 35.2177V36.0278H139.459V26.2096H136.381V26.242ZM134.34 33.4679C133.918 33.4679 133.562 33.3707 133.206 33.1763C132.882 32.9819 132.622 32.7226 132.428 32.3662C132.233 32.0098 132.136 31.6209 132.136 31.1673C132.136 30.7136 132.233 30.3248 132.428 29.9683C132.622 29.6119 132.882 29.3527 133.206 29.1583C133.53 28.9638 133.918 28.8666 134.34 28.8666C134.761 28.8666 135.15 28.9638 135.506 29.1583C135.83 29.3527 136.089 29.6119 136.284 29.9683C136.446 30.3248 136.543 30.7136 136.543 31.1349C136.543 31.8153 136.349 32.3662 135.96 32.8198C135.506 33.2411 134.988 33.4679 134.34 33.4679Z" fill="white"/>
<path d="M80.0642 21.8027L75.0741 29.6119L70.0516 21.8027H67.751V36.0602L70.9265 36.2546V28.1862L74.0048 32.9819H76.111L79.1894 28.1862V36.0602H79.4486L82.3649 33.63V21.8027H80.0642Z" fill="white"/>
<path d="M196.813 27.8622C196.489 27.2789 196.003 26.8253 195.42 26.5337C194.836 26.2096 194.156 26.0476 193.411 26.0476C192.633 26.0476 191.953 26.2096 191.337 26.5337C190.916 26.7605 190.559 27.0521 190.268 27.3761C189.976 27.0197 189.652 26.7281 189.263 26.5013C188.712 26.1772 188.097 26.0476 187.448 26.0476C186.703 26.0476 186.055 26.2096 185.472 26.5013C185.213 26.6309 184.986 26.7929 184.791 26.9873V26.242H181.681V36.0602H184.791V30.3249C184.791 30.0008 184.856 29.7416 185.018 29.4824C185.148 29.2555 185.342 29.0611 185.601 28.9315C185.828 28.8019 186.12 28.7371 186.444 28.7371C186.898 28.7371 187.254 28.8667 187.578 29.1583C187.87 29.4499 188.032 29.8064 188.032 30.2924V36.0278H191.142V30.2924C191.142 29.9684 191.207 29.7092 191.337 29.45C191.466 29.2231 191.661 29.0287 191.92 28.8991C192.179 28.7695 192.439 28.7047 192.73 28.7047C193.151 28.7047 193.54 28.8343 193.832 29.1259C194.124 29.4176 194.286 29.774 194.286 30.26V35.0233V34.8289L197.396 33.4356V29.8712C197.331 29.1583 197.169 28.4455 196.813 27.8622Z" fill="white"/>
<path d="M208.512 22.1594H205.434V26.1774H203.263V28.8021H205.434V35.8984H208.512V28.8021H210.715V26.1774H208.512V22.1594Z" fill="#00A3E0"/>
<path d="M218.946 26.5986C218.2 26.1773 217.358 25.9829 216.386 25.9829C215.414 25.9829 214.506 26.2097 213.729 26.631C212.951 27.0846 212.335 27.6679 211.882 28.4456C211.428 29.2232 211.201 30.0657 211.201 31.0378C211.201 32.0099 211.428 32.9172 211.914 33.6625C212.368 34.4402 213.016 35.0234 213.826 35.4771C214.636 35.8983 215.576 36.1251 216.613 36.1251C217.423 36.1251 218.2 35.9955 218.881 35.7039C219.561 35.4123 220.145 35.0235 220.631 34.4402L218.946 32.7552C218.654 33.0792 218.297 33.3385 217.941 33.5005C217.552 33.6625 217.131 33.7597 216.677 33.7597C216.159 33.7597 215.705 33.6625 215.316 33.4357C214.928 33.2089 214.636 32.8848 214.442 32.496C214.377 32.3664 214.312 32.2367 214.279 32.0747L221.214 32.0423C221.279 31.8155 221.311 31.5887 221.343 31.3943C221.376 31.1999 221.376 31.0054 221.376 30.811C221.376 29.8713 221.149 29.0288 220.728 28.2835C220.274 27.5707 219.691 26.9874 218.946 26.5986ZM214.247 29.9685C214.279 29.8389 214.344 29.7093 214.377 29.6121C214.571 29.2232 214.83 28.8992 215.187 28.6724C215.543 28.4456 215.964 28.3484 216.451 28.3484C216.904 28.3484 217.261 28.4456 217.585 28.64C217.909 28.8344 218.135 29.126 218.298 29.4825C218.362 29.6121 218.395 29.7741 218.46 29.9685H214.247Z" fill="#00A3E0"/>
<path d="M228.57 33.1118C228.246 33.2414 227.89 33.3062 227.501 33.3062C227.08 33.3062 226.723 33.209 226.367 33.0146C226.01 32.8202 225.751 32.561 225.557 32.2045C225.362 31.8481 225.265 31.4592 225.265 31.0056C225.265 30.5519 225.362 30.1631 225.557 29.8391C225.751 29.515 226.01 29.2234 226.367 29.029C226.723 28.8346 227.08 28.7374 227.501 28.7374C227.89 28.7374 228.214 28.8022 228.538 28.9318C228.829 29.0614 229.089 29.2234 229.315 29.4826L231.292 27.4736C230.806 26.9552 230.223 26.5987 229.607 26.3395C228.959 26.0803 228.279 25.9507 227.501 25.9507C226.496 25.9507 225.589 26.1775 224.779 26.5988C223.969 27.0524 223.321 27.6356 222.867 28.4133C222.414 29.191 222.154 30.0335 222.154 31.0056C222.154 31.9777 222.381 32.8202 222.835 33.5979C223.288 34.3755 223.936 34.9912 224.747 35.4125C225.557 35.8337 226.464 36.0605 227.468 36.0605C228.279 36.0605 228.991 35.9309 229.607 35.6393C230.255 35.38 230.806 34.9588 231.324 34.4404L229.348 32.4962C229.153 32.7878 228.894 32.9822 228.57 33.1118Z" fill="#00A3E0"/>
<path d="M241.693 27.7651C241.369 27.2143 240.915 26.793 240.364 26.469C239.781 26.1449 239.133 26.0153 238.355 26.0153C237.61 26.0153 236.962 26.1773 236.411 26.469C236.152 26.5986 235.957 26.7606 235.763 26.955V21.4141H232.685V35.8984H235.763V30.3574C235.763 30.0333 235.828 29.7417 235.99 29.4825C236.152 29.2233 236.346 29.0288 236.605 28.8992C236.865 28.7696 237.156 28.7048 237.448 28.7048C237.934 28.7048 238.323 28.8668 238.647 29.1584C238.971 29.4825 239.133 29.8713 239.133 30.3574V35.8984H242.211V29.6769C242.179 28.964 242.017 28.316 241.693 27.7651Z" fill="#00A3E0"/>
<path d="M84.8281 24.3305L87.712 24.2656V21.5762L84.8281 24.3305Z" fill="white"/>
<path d="M203.183 33.8116L201.693 32.3223L200.204 33.8116L201.693 35.3009L203.183 33.8116Z" fill="#00A3E0"/>
</svg>
