<svg width="84" height="42" viewBox="0 0 84 42" fill="none" xmlns="http://www.w3.org/2000/svg">
<path d="M3.89844 23.1044V5.50455C3.89844 4.93864 4.09477 4.44347 4.48742 4.04734C4.88008 3.65119 5.37089 3.45312 5.93183 3.45312H7.90911V19.4543H17.431V23.1185H3.89844V23.1044Z" fill="white"/>
<path d="M53.835 23.1044V5.50455C53.835 4.93864 54.0313 4.44347 54.424 4.04734C54.8166 3.65119 55.3074 3.45312 55.8684 3.45312H63.0063C65.0116 3.45312 66.5401 3.87756 67.5919 4.71228C68.6435 5.63189 69.1768 6.86274 69.1768 8.43311C69.1768 9.42348 68.9665 10.2582 68.5595 10.9515C68.1388 11.6022 67.5638 12.1115 66.8066 12.4935C67.7882 12.9179 68.5458 13.498 69.0785 14.262C69.5695 14.9835 69.8215 15.9456 69.8215 17.1199C69.8215 19.0298 69.2185 20.5153 68.0126 21.5764C66.7645 22.6092 65.0116 23.1185 62.7398 23.1185H53.835V23.1044ZM57.6914 11.0363H62.277C63.2587 11.0363 63.9739 10.8666 64.4366 10.527C64.8854 10.1875 65.1097 9.64987 65.1097 8.92829C65.1097 8.20679 64.8854 7.66919 64.4366 7.32961C64.058 7.01839 63.3288 6.87688 62.221 6.87688H57.6914V11.0363ZM57.6914 19.5533H62.4453C63.4971 19.5533 64.3104 19.3411 64.8854 18.9308C65.4183 18.5488 65.6847 17.898 65.6847 16.9926C65.6847 16.0729 65.4183 15.408 64.8854 14.9977C64.3946 14.6157 63.5672 14.4318 62.3892 14.4318H57.6914V19.5533Z" fill="white"/>
<path d="M72.0317 23.1034V15.7324C72.0317 14.2469 72.2421 13.0019 72.6771 11.9833C73.1121 10.9788 73.7008 10.1582 74.4582 9.54981C75.1732 8.98391 76.0146 8.55951 76.9823 8.29071C77.95 8.02191 78.9313 7.89453 79.9551 7.89453C80.0254 7.89453 80.1237 7.89453 80.2357 7.89453C80.3477 7.89453 80.4461 7.89453 80.5164 7.89453V11.955H79.2264C78.1323 11.955 77.319 12.2238 76.7863 12.7614C76.2529 13.299 75.9866 14.1337 75.9866 15.2796V23.1175H72.0317V23.1034Z" fill="white"/>
<path d="M24.4552 14.3853C24.9199 14.3853 25.2966 14.0052 25.2966 13.5364C25.2966 13.0676 24.9199 12.6875 24.4552 12.6875C23.9905 12.6875 23.6138 13.0676 23.6138 13.5364C23.6138 14.0052 23.9905 14.3853 24.4552 14.3853Z" fill="#FBB040"/>
<path d="M27.3028 14.3853C27.7675 14.3853 28.1442 14.0052 28.1442 13.5364C28.1442 13.0676 27.7675 12.6875 27.3028 12.6875C26.8381 12.6875 26.4614 13.0676 26.4614 13.5364C26.4614 14.0052 26.8381 14.3853 27.3028 14.3853Z" fill="#8DC63F"/>
<path d="M30.1613 14.3853C30.6259 14.3853 31.0026 14.0052 31.0026 13.5364C31.0026 13.0676 30.6259 12.6875 30.1613 12.6875C29.6965 12.6875 29.3198 13.0676 29.3198 13.5364C29.3198 14.0052 29.6965 14.3853 30.1613 14.3853Z" fill="#FFDE17"/>
<path d="M37.2742 5.63103C37.3163 5.61688 37.3584 5.58858 37.3864 5.57444C37.3584 5.60273 37.3163 5.63103 37.2742 5.67347C37.2321 5.71591 37.176 5.74421 37.12 5.78665C37.6949 5.43296 38.368 5.03682 39.0412 4.71143C39.7143 4.37188 40.4014 4.10307 40.9483 3.905C41.355 3.82012 41.7196 3.73523 41.7477 3.66449C41.7617 3.63619 41.6916 3.6079 41.5654 3.59375C41.4391 3.59375 41.2569 3.6079 41.0325 3.63619C40.9343 3.65034 40.8221 3.66449 40.7661 3.66449C40.149 3.70693 39.3917 3.86256 38.5924 4.18795C38.7467 4.13136 38.915 4.08892 39.0692 4.03233C38.9571 4.07477 38.8448 4.11721 38.7186 4.15966C38.6064 4.2021 38.4802 4.25869 38.368 4.31529C38.3961 4.31529 38.4382 4.31529 38.4662 4.30114C38.2699 4.37188 38.0595 4.47091 37.8492 4.5841C37.751 4.64069 37.6388 4.69728 37.5407 4.76802C37.4425 4.8246 37.3443 4.89534 37.2462 4.96608C37.148 5.03682 37.0638 5.10756 36.9797 5.1783C36.8956 5.24904 36.8114 5.31978 36.7414 5.39052C36.5871 5.53199 36.4749 5.67347 36.3767 5.78665C36.3347 5.84324 36.2926 5.89984 36.2785 5.94228C36.2505 5.98472 36.2365 6.02717 36.2365 6.05546C36.2225 6.11205 36.2505 6.14035 36.3066 6.14035C36.3627 6.14035 36.4468 6.09791 36.559 6.04131C36.6151 6.01302 36.6852 5.97058 36.7554 5.92813C36.8255 5.88569 36.8956 5.8291 36.9938 5.78665L37.2742 5.63103Z" fill="url(#paint0_linear_3914_86328)"/>
<path d="M38.7177 5.18104C38.297 5.36497 37.8903 5.54889 37.4977 5.77526L37.4135 5.80355L37.4977 5.87429V5.86014C37.7781 5.54889 38.3531 5.1386 38.928 4.8415C38.9982 4.79906 39.0683 4.77076 39.1244 4.72832C39.2226 4.67173 39.2787 4.62928 39.2927 4.60099C39.3207 4.53025 39.1244 4.57269 38.8439 4.68588L38.5214 4.8415C38.1287 5.01128 37.6519 5.29423 37.2452 5.60548C37.049 5.76111 36.8666 5.91673 36.7264 6.07235C36.6563 6.14309 36.5862 6.22798 36.5441 6.28457C36.488 6.35531 36.4599 6.41191 36.4319 6.4685C36.3758 6.56753 36.488 6.53924 36.5301 6.55338C36.5441 6.58168 36.6142 6.56753 36.7264 6.49679C36.8386 6.42605 36.9788 6.32702 37.1331 6.18554C37.3014 6.05821 37.4416 5.93088 37.5398 5.83185C37.6519 5.73281 37.7081 5.64793 37.7081 5.61963C37.7641 5.57719 37.8343 5.54889 37.8903 5.50645C37.8483 5.54889 37.8062 5.57719 37.7641 5.61963C37.7922 5.56304 37.8903 5.47815 38.0025 5.39326C38.0586 5.35082 38.1287 5.29423 38.1848 5.25178C38.255 5.20934 38.311 5.1669 38.3672 5.12445L38.5494 5.01128C38.6056 4.96883 38.6756 4.94054 38.7318 4.91224C38.6336 4.8981 38.5354 4.88395 38.4513 4.88395L38.269 5.01128C38.283 5.01128 38.3251 4.99713 38.3251 4.99713C37.9745 5.23764 37.6519 5.50645 37.3014 5.80355C37.1611 5.94502 37.0209 6.07235 36.8806 6.21383C36.7825 6.34117 36.8246 6.35531 36.9648 6.27043C37.0349 6.22798 37.105 6.17139 37.1752 6.12895C37.1471 6.14309 37.105 6.17139 37.077 6.18554C37.5538 5.83185 38.0727 5.50645 38.5915 5.26593C38.6756 5.22349 38.7738 5.1669 38.8018 5.1386C38.8439 5.15275 38.8018 5.15275 38.7177 5.18104Z" fill="url(#paint1_linear_3914_86328)"/>
<path d="M37.0192 6.35156C36.9351 6.40843 36.865 6.45108 36.7668 6.5506C36.7528 6.57903 36.7388 6.59325 36.7388 6.59325C36.7808 6.56482 36.8369 6.52217 36.893 6.49374C37.0052 6.42265 37.0472 6.36577 37.0192 6.35156Z" fill="url(#paint2_linear_3914_86328)"/>
<path d="M36.7419 6.58984C36.7002 6.61787 36.6724 6.63189 36.6724 6.63189C36.6863 6.61787 36.7002 6.61788 36.7141 6.60386C36.728 6.60386 36.728 6.60386 36.7419 6.58984C36.728 6.60386 36.728 6.60386 36.7419 6.58984Z" fill="url(#paint3_linear_3914_86328)"/>
<path d="M38.7215 6.86247C38.7496 6.76295 38.7777 6.67764 38.8057 6.57812C38.7636 6.67764 38.7355 6.77717 38.7075 6.86247H38.7215Z" fill="url(#paint4_linear_3914_86328)"/>
<path d="M39.5456 5.48828C39.4755 5.48828 39.4194 5.50229 39.4194 5.50229C39.4755 5.48828 39.5176 5.48828 39.5456 5.48828Z" fill="url(#paint5_linear_3914_86328)"/>
<path d="M37.7238 6.13672C37.6957 6.15094 37.6676 6.15094 37.6396 6.16516C37.6957 6.15094 37.7098 6.15094 37.7238 6.13672Z" fill="url(#paint6_linear_3914_86328)"/>
<path d="M41.5665 4.38499C41.1177 4.42764 40.641 4.54138 40.2202 4.6409C40.3464 4.61246 40.4586 4.61246 40.5708 4.59825C40.683 4.59825 40.7812 4.58403 40.8793 4.59825C41.0336 4.5556 41.2159 4.51295 41.3842 4.48451C41.4963 4.4703 41.6226 4.44186 41.7347 4.42764C41.8469 4.41342 41.9732 4.39921 42.0854 4.38499C42.3097 4.37077 42.5481 4.35656 42.7725 4.35656C42.7164 4.32812 42.8286 4.32813 42.8707 4.32813C42.9267 4.32813 42.9829 4.32813 43.0389 4.32813C42.5481 4.32813 42.0573 4.34234 41.5665 4.38499Z" fill="url(#paint7_linear_3914_86328)"/>
<path d="M37.2451 6.45312C37.2312 6.46714 37.2034 6.48116 37.1895 6.49518C37.2173 6.49518 37.2451 6.48116 37.2451 6.45312Z" fill="url(#paint8_linear_3914_86328)"/>
<path d="M37.2617 6.34871C37.2617 6.30589 37.2756 6.27734 37.2756 6.27734C37.2339 6.36298 37.2339 6.36298 37.2339 6.36298C37.2339 6.36298 37.2478 6.34871 37.2617 6.34871Z" fill="url(#paint9_linear_3914_86328)"/>
<path d="M42.0557 4.53906C42.0697 4.53906 42.0837 4.53906 42.0977 4.53906C42.266 4.56732 42.4343 4.59558 42.4343 4.59558C42.2099 4.53906 42.2099 4.53906 42.2099 4.53906C42.1679 4.53906 42.1118 4.53906 42.0557 4.53906Z" fill="url(#paint10_linear_3914_86328)"/>
<path d="M29.514 3.97633C29.57 3.99048 29.6261 4.01877 29.6822 4.03292C29.6261 4.03292 29.556 4.01877 29.4859 3.99048C29.4017 3.97633 29.3176 3.96218 29.2335 3.93389C29.4578 3.99048 29.6822 4.06122 29.9206 4.13196C30.145 4.2027 30.3834 4.28758 30.6218 4.37247C31.0985 4.54225 31.5754 4.75446 32.0241 4.98082C32.4729 5.20719 32.9076 5.46185 33.3002 5.73065C33.6929 5.99946 34.0435 6.26827 34.352 6.50878C34.5483 6.70685 34.7446 6.90494 34.8849 7.04637C34.955 7.11715 35.0251 7.17374 35.0812 7.21616C35.1373 7.25864 35.1654 7.28694 35.1934 7.28694C35.2775 7.28694 35.0672 6.90495 34.6605 6.48048C34.5764 6.38145 34.4782 6.26827 34.4081 6.19753C34.1417 5.87213 33.8191 5.53258 33.4264 5.20719C33.3283 5.1223 33.2301 5.03741 33.118 4.96667C33.0058 4.88179 32.9076 4.81105 32.7954 4.72616C32.6832 4.65542 32.571 4.57054 32.4448 4.4998C32.3326 4.42906 32.2064 4.35832 32.0802 4.28758C32.1784 4.34417 32.2765 4.40077 32.3607 4.47151C32.4588 4.54225 32.543 4.59884 32.6411 4.66957C32.5009 4.58469 32.3607 4.48565 32.2205 4.40077C32.0662 4.31588 31.9259 4.23099 31.7576 4.16025C31.7857 4.18855 31.8278 4.21684 31.8558 4.24514C31.365 3.96218 30.7199 3.70753 30.1029 3.5519C29.4859 3.39627 28.8969 3.36798 28.5042 3.38212C28.1116 3.41042 27.9854 3.48116 28.0836 3.5519C28.1957 3.63679 28.5323 3.70753 29.0511 3.83486C29.2054 3.89145 29.3597 3.93389 29.514 3.97633Z" fill="url(#paint11_linear_3914_86328)"/>
<path d="M31.2854 4.95383C30.7385 4.65672 30.1776 4.43036 29.5886 4.24644L29.4764 4.204L29.4904 4.31718H29.5045C30.0794 4.34548 30.9909 4.60013 31.7762 4.98213C31.8744 5.02457 31.9586 5.06701 32.0567 5.10946C32.1969 5.16605 32.2811 5.20849 32.3231 5.20849C32.3652 5.20849 32.3372 5.16605 32.2531 5.09531C32.211 5.06701 32.1549 5.01042 32.0848 4.96798C32.0147 4.92553 31.9305 4.88309 31.8464 4.8265C31.7061 4.74161 31.5659 4.68502 31.4257 4.61428C30.9068 4.34548 30.1916 4.09082 29.5185 3.96348C28.8454 3.83615 28.2284 3.83615 27.9058 3.90689C27.7655 3.94934 27.8918 3.99178 27.9198 4.04837C27.8918 4.07667 27.99 4.10496 28.1582 4.14741C28.2424 4.16156 28.3405 4.18985 28.4667 4.204C28.5789 4.21815 28.7051 4.24644 28.8454 4.26059C29.3923 4.34548 29.8691 4.41622 29.9252 4.35963C30.0093 4.38792 30.1074 4.41621 30.2056 4.45866C30.1355 4.44451 30.0514 4.43036 29.9812 4.41622C30.0654 4.41622 30.2336 4.43036 30.43 4.48695C30.6263 4.52939 30.8367 4.60013 31.019 4.65672C31.2013 4.71332 31.3836 4.7982 31.5519 4.86894L31.3135 4.58598C31.2153 4.55769 31.1171 4.51525 31.019 4.48695C31.033 4.5011 31.0751 4.52939 31.0751 4.52939C30.5141 4.35963 29.9953 4.23229 29.3642 4.14741L28.9716 4.10496L28.5789 4.07667C28.4667 4.07667 28.4246 4.09082 28.4246 4.11911C28.4246 4.13326 28.4948 4.16156 28.607 4.18985L28.9435 4.26059C28.8875 4.24644 28.8454 4.23229 28.7893 4.21815C29.5746 4.34548 30.3739 4.60013 31.0751 4.93968C31.1873 4.99627 31.3275 5.05287 31.3836 5.06701C31.4397 5.03872 31.3976 5.01042 31.2854 4.95383Z" fill="url(#paint12_linear_3914_86328)"/>
<path d="M28.6043 4.23288C28.4781 4.20433 28.3519 4.19006 28.1696 4.17578C28.1275 4.17578 28.0994 4.17578 28.0854 4.17578C28.1556 4.19006 28.2397 4.20433 28.3379 4.21861C28.5202 4.26142 28.6043 4.26142 28.6043 4.23288Z" fill="url(#paint13_linear_3914_86328)"/>
<path d="M28.1001 4.17026C28.044 4.15625 28.002 4.15625 28.002 4.15625C28.03 4.15625 28.044 4.17026 28.0721 4.17026C28.0861 4.17026 28.0861 4.17026 28.0861 4.17026C28.0861 4.17026 28.0861 4.17026 28.1001 4.17026Z" fill="url(#paint14_linear_3914_86328)"/>
<path d="M21.7643 21.0508C20.7826 20.2727 19.9412 19.2823 19.3382 18.1788C18.7212 17.0753 18.3285 15.8445 18.1883 14.5853C18.1743 14.5004 18.1602 14.4297 18.1462 14.4297C18.1322 14.4297 18.1322 14.4863 18.1462 14.5712C18.2864 15.8303 18.6791 17.0612 19.2822 18.1647C19.8992 19.2682 20.7265 20.2585 21.7082 21.0508C21.7783 21.1074 21.8344 21.1357 21.8484 21.1357C21.8765 21.1357 21.8344 21.0933 21.7643 21.0508Z" fill="#1C75BC"/>
<path d="M23.4216 5.9137C23.3795 5.94225 23.3795 5.95652 23.4356 5.92798C23.4777 5.9137 23.5618 5.87088 23.6039 5.84234C23.646 5.81379 23.6319 5.79951 23.5899 5.82806C23.5197 5.84234 23.4497 5.87088 23.4216 5.9137Z" fill="url(#paint15_linear_3914_86328)"/>
<path d="M39.5714 14.3853C40.0361 14.3853 40.4128 14.0052 40.4128 13.5364C40.4128 13.0676 40.0361 12.6875 39.5714 12.6875C39.1067 12.6875 38.73 13.0676 38.73 13.5364C38.73 14.0052 39.1067 14.3853 39.5714 14.3853Z" fill="#1C75BC"/>
<path d="M42.4186 14.3853C42.8832 14.3853 43.2599 14.0052 43.2599 13.5364C43.2599 13.0676 42.8832 12.6875 42.4186 12.6875C41.9538 12.6875 41.5771 13.0676 41.5771 13.5364C41.5771 14.0052 41.9538 14.3853 42.4186 14.3853Z" fill="#EE2A7B"/>
<path d="M45.2662 14.3853C45.7309 14.3853 46.1076 14.0052 46.1076 13.5364C46.1076 13.0676 45.7309 12.6875 45.2662 12.6875C44.8015 12.6875 44.4248 13.0676 44.4248 13.5364C44.4248 14.0052 44.8015 14.3853 45.2662 14.3853Z" fill="#92278F"/>
<path d="M29.4652 4.65143C29.4231 4.62339 29.3951 4.62339 29.353 4.60938C29.4652 4.65143 29.4652 4.65143 29.4652 4.65143Z" fill="url(#paint16_linear_3914_86328)"/>
<path d="M29.7148 5.90205L29.7429 5.91632C29.799 5.90205 29.8551 5.8735 29.9112 5.85923L30.0795 5.81641L29.8972 5.85923L29.7148 5.90205Z" fill="url(#paint17_linear_3914_86328)"/>
<path d="M31.6333 5.76953C31.6894 5.81235 31.7174 5.85517 31.7595 5.88371C31.7174 5.85517 31.6894 5.81235 31.6754 5.79808C31.6474 5.78381 31.6333 5.76953 31.6333 5.76953Z" fill="url(#paint18_linear_3914_86328)"/>
<path d="M33.0962 6.11328C33.3487 6.3538 33.5169 6.58016 33.6711 6.77823C33.7553 6.84897 33.8395 6.93383 33.9236 7.01873C34.0078 7.10362 34.0919 7.18852 34.176 7.27341C34.6107 7.75441 34.9753 8.26372 35.2839 8.80138C35.2698 8.71649 35.3399 8.8438 35.382 8.91451C35.4241 8.98529 35.4662 9.04189 35.5082 9.1126C35.2137 8.5184 34.8491 7.9525 34.4284 7.42902C34.0218 6.96213 33.5309 6.49527 33.0962 6.11328Z" fill="url(#paint19_linear_3914_86328)"/>
<path d="M27.2363 22.7601C27.1662 22.7461 27.068 22.7461 26.9839 22.7461C27.068 22.7461 27.1522 22.7601 27.2363 22.7601Z" fill="url(#paint20_linear_3914_86328)"/>
<path d="M34.7489 8.26221C34.7068 8.19143 34.6788 8.13478 34.6367 8.07812C34.6507 8.09232 34.6507 8.10645 34.6647 8.13478C34.7068 8.23388 34.7629 8.34719 34.7909 8.41804C34.833 8.48882 34.8471 8.54547 34.8471 8.54547C34.7909 8.40384 34.7629 8.33306 34.7489 8.29054C34.7489 8.26221 34.7489 8.26221 34.7489 8.26221Z" fill="url(#paint21_linear_3914_86328)"/>
<path d="M28.4825 22.7672C28.9873 22.7247 29.4921 22.6397 29.983 22.5264C30.2915 22.4415 30.6 22.3281 30.9085 22.2148C30.2774 22.4415 29.6324 22.5972 28.9733 22.6822C28.3983 22.7672 27.8233 22.7814 27.2484 22.7672C27.2484 22.7672 27.2344 22.7672 27.2344 22.7814C27.6551 22.7955 28.0617 22.7955 28.4825 22.7672Z" fill="#662D91"/>
<path d="M37.1101 11.9847C37.0961 12.0271 37.0821 12.0696 37.068 12.112C37.054 11.9564 37.04 11.8432 37.04 11.7159C37.04 11.6593 37.0259 11.5885 37.0259 11.5178C37.0119 11.4471 36.9979 11.3763 36.9838 11.2915C36.9838 11.3905 36.9979 11.4754 36.9979 11.5744V11.5603C36.9838 11.3763 36.9418 11.1783 36.8997 10.9802C36.8436 10.768 36.8016 10.5558 36.7174 10.3436C36.6052 9.86256 36.423 9.32489 36.1705 8.78729C35.9181 8.24969 35.5815 7.71209 35.1888 7.20272C34.7962 6.69343 34.3335 6.2124 33.8286 5.78797C33.3238 5.36354 32.7769 5.00985 32.2159 4.71274C32.0477 4.62785 31.8794 4.55711 31.8513 4.55711C31.8232 4.57126 31.9354 4.642 32.1037 4.74104C32.7488 5.12303 33.2817 5.56161 33.8567 6.08507C34.9224 7.08959 35.6797 8.24969 36.2546 9.62198C36.2827 9.70688 36.3108 9.79177 36.3388 9.87667C36.3668 10.004 36.3949 10.1172 36.423 10.2445C36.423 10.2304 36.4089 10.2162 36.4089 10.188C36.3528 10.0323 36.3108 9.87667 36.2546 9.72106C36.2687 9.74936 36.2687 9.77766 36.2687 9.80596C36.0303 9.21176 35.7498 8.63168 35.3993 8.10819C35.0907 7.58471 34.7121 7.07541 34.2633 6.60854C33.8146 6.14166 33.2957 5.70308 32.7488 5.34939C32.1879 4.98155 31.5989 4.68444 30.9959 4.47223C30.3929 4.26001 29.7758 4.11854 29.2009 4.06194C28.9905 4.0195 28.8363 4.03365 28.8643 4.06194C28.8783 4.07609 28.9345 4.09024 29.0046 4.11854C29.0747 4.13268 29.1729 4.16098 29.271 4.17513C30.3929 4.41564 31.4727 4.88251 32.3281 5.47672C32.3561 5.50501 32.2861 5.49087 32.3421 5.53331C32.3702 5.56161 32.3982 5.5899 32.4403 5.6182C32.3421 5.53331 32.2159 5.46257 32.0897 5.39183C32.0336 5.36354 31.9635 5.33524 31.9214 5.30695C31.8653 5.27865 31.8232 5.2645 31.7672 5.23621C31.669 5.19377 31.5989 5.16547 31.5288 5.13718C31.4026 5.08059 31.3184 5.05229 31.2483 5.03814C31.2483 5.03814 31.2483 5.03814 31.2062 5.02399C31.1502 4.9957 31.0941 4.98155 31.0099 4.95325C30.9959 4.95325 30.9819 4.93911 30.9538 4.93911C30.8837 4.91081 30.7995 4.86837 30.7295 4.84007C30.6453 4.79763 30.5611 4.78348 30.5051 4.76933C30.477 4.75518 30.449 4.72689 30.4069 4.71274C30.2947 4.6703 30.2106 4.642 30.1404 4.6137C30.0704 4.58541 30.0142 4.57126 29.9582 4.55711C29.846 4.51467 29.7338 4.48638 29.4954 4.42979C29.4954 4.42979 29.4954 4.44393 29.5094 4.45808C29.4954 4.45808 29.4533 4.44393 29.3972 4.42979C29.3271 4.41564 29.2429 4.40149 29.1588 4.38734C29.0747 4.3732 29.0186 4.35905 28.9485 4.3449C28.8643 4.33075 28.7521 4.31661 28.5278 4.27416C28.5278 4.27416 28.5278 4.27416 28.7381 4.33075C28.7381 4.33075 28.7381 4.33075 28.5558 4.28831C28.5558 4.28831 28.5558 4.28831 28.5979 4.33075C28.5979 4.33075 28.5979 4.33075 28.5138 4.28831C28.5138 4.28831 28.5138 4.28831 28.4997 4.28831C28.4857 4.28831 28.4716 4.28831 28.4296 4.30246C28.4296 4.30246 28.4296 4.30246 28.051 4.18928C28.023 4.18928 27.9528 4.18928 27.7705 4.18928C27.7705 4.18928 27.7144 4.18928 27.6863 4.20342C27.6863 4.21757 27.6863 4.21757 27.5321 4.24587C27.5321 4.24587 27.5321 4.26001 27.5461 4.27416C27.5882 4.28831 27.5882 4.28831 27.6022 4.31661C27.6022 4.31661 27.6583 4.33075 27.7284 4.3449C27.7985 4.35905 27.8125 4.3449 28.079 4.38734C28.051 4.38734 28.037 4.40149 28.0089 4.40149C27.9528 4.45808 27.9528 4.45808 28.2754 4.6137C28.2754 4.6137 28.3174 4.62785 28.4016 4.642C28.4857 4.65615 28.5979 4.69859 28.7381 4.72689C28.9064 4.75518 28.9905 4.78348 29.0747 4.79763C29.1588 4.81178 29.257 4.84007 29.4533 4.88251C29.4533 4.88251 29.5375 4.91081 29.6777 4.95325C29.7758 4.9957 29.8039 5.00985 29.874 5.05229C29.8039 5.03814 29.7338 5.00985 29.6777 5.00985C29.5094 4.98155 29.4674 5.00985 29.6076 5.06644C29.3972 5.10888 29.4953 5.20791 29.7058 5.34939C29.6356 5.36354 29.5936 5.37768 29.5936 5.42013C29.3131 5.43427 29.1308 5.47672 29.0467 5.54746L29.0046 5.6182C29.0747 5.68894 29.271 5.78797 29.5655 5.9153L29.6496 5.95775L29.5515 5.98604C29.7198 6.11337 29.9862 6.26899 30.2386 6.45292C30.3087 6.49536 30.3649 6.5378 30.4349 6.5944C30.4911 6.63684 30.5612 6.69343 30.6173 6.73587C30.7295 6.82076 30.8416 6.93392 30.9257 7.01881C30.9678 7.06129 31.0099 7.10371 31.0519 7.132L31.1782 7.25931C31.3605 7.44329 31.669 7.6979 32.0056 8.00918C32.1177 8.12238 32.244 8.2355 32.3561 8.3487C32.4263 8.41948 32.4964 8.49019 32.5665 8.56097C32.4683 8.47607 32.3702 8.41948 32.2861 8.36288C32.2019 8.30628 32.1178 8.27798 32.0617 8.2638C31.9354 8.22139 31.8653 8.2355 31.8653 8.3204C31.8653 8.44777 32.0477 8.70239 32.2861 9.05609C32.5385 9.40978 32.8469 9.86255 33.1274 10.3577C33.492 11.0226 33.7445 11.7442 33.8567 12.494C33.9689 13.2438 33.9548 14.0078 33.8146 14.7577C33.6743 15.4933 33.3939 16.2149 33.0012 16.8798C32.6085 17.5448 32.0897 18.139 31.4867 18.6342C31.2483 18.8181 31.0099 19.002 30.7575 19.1435C29.902 20.5724 28.6961 21.8032 27.2376 22.7653C27.8126 22.7794 28.3875 22.7653 28.9625 22.6804C29.6216 22.5814 30.2666 22.4257 30.8977 22.2135C30.6033 22.3408 30.2947 22.4399 29.9722 22.5248C29.4814 22.6521 28.9765 22.7228 28.4717 22.7653C28.051 22.7936 27.6303 22.7936 27.2096 22.7653C27.1815 22.7794 27.1535 22.8077 27.1255 22.8219C27.2096 22.8219 27.2937 22.836 27.3779 22.836C27.8406 22.8502 28.3174 22.836 28.7802 22.7794C28.2052 22.8643 27.6303 22.8926 27.0553 22.8785C26.9993 22.9209 26.9291 22.9492 26.873 22.9917C27.6303 23.0341 28.3875 23.0058 29.1308 22.8643C29.902 22.7228 30.6593 22.4965 31.3745 22.1711C31.7952 22.072 32.4263 21.8174 33.0854 21.4071C33.4219 21.209 33.7445 20.9544 34.067 20.6855C34.2213 20.5441 34.3895 20.4026 34.5298 20.247C34.5999 20.1762 34.684 20.0913 34.7542 20.0206C34.8243 19.9357 34.8944 19.865 34.9645 19.7801C35.3572 19.3132 35.6657 18.8181 35.9321 18.3088C35.862 18.4219 35.7919 18.5351 35.7217 18.6483C35.6517 18.7615 35.5815 18.8747 35.4974 18.9737C35.6096 18.8039 35.7077 18.6483 35.7919 18.4927C35.876 18.3229 35.9601 18.1673 36.0303 18.0117C36.1705 17.7004 36.2967 17.3892 36.3949 17.0638C36.423 17.0072 36.437 16.9647 36.465 16.9081C36.7875 16.2149 36.9979 15.3943 37.1101 14.5454C37.2363 13.6824 37.2083 12.8052 37.1101 11.9847ZM28.6259 4.45808C28.654 4.45808 28.6821 4.47223 28.7241 4.47223C28.6961 4.48638 28.654 4.48638 28.6259 4.45808ZM28.8363 4.41564C28.8223 4.41564 28.8083 4.40149 28.7802 4.40149C28.7802 4.40149 28.7802 4.40149 28.9064 4.3732C28.9064 4.38734 28.8783 4.40149 28.8363 4.41564ZM29.3551 4.59956C29.3972 4.6137 29.4253 4.62785 29.4674 4.642C29.4674 4.65615 29.4673 4.65615 29.3551 4.59956ZM29.902 5.85871C29.846 5.87286 29.7899 5.88701 29.7338 5.9153L29.7058 5.90116L29.902 5.85871ZM31.7672 5.90116C31.7391 5.87286 31.697 5.83042 31.641 5.78797C31.641 5.78797 31.655 5.80212 31.683 5.81627C31.697 5.83042 31.7251 5.85871 31.7672 5.90116ZM34.8102 8.41948C34.7682 8.33458 34.7261 8.2355 34.684 8.13649C34.67 8.10819 34.67 8.09408 34.656 8.0799C34.684 8.13649 34.7261 8.19309 34.7682 8.2638C34.7682 8.2638 34.7682 8.2638 34.7822 8.30628C34.7962 8.3487 34.8243 8.41948 34.8804 8.56097C34.8664 8.54678 34.8523 8.49019 34.8102 8.41948ZM35.3712 8.92878C35.3291 8.85807 35.259 8.73069 35.273 8.81558C34.9645 8.27798 34.5999 7.7545 34.1651 7.28761C34.081 7.20272 33.9969 7.11789 33.9127 7.03299C33.8286 6.9481 33.7445 6.87735 33.6603 6.79246C33.506 6.58025 33.3378 6.36803 33.0854 6.12752C33.5341 6.50951 34.0109 6.9764 34.3895 7.4574C34.8102 7.98089 35.1748 8.54678 35.4693 9.14098C35.4553 9.05609 35.4133 8.98537 35.3712 8.92878Z" fill="url(#paint22_linear_3914_86328)"/>
<path d="M28.7173 4.47088C28.6892 4.47088 28.6612 4.45703 28.6191 4.45703C28.6471 4.48473 28.6892 4.48473 28.7173 4.47088Z" fill="url(#paint23_linear_3914_86328)"/>
<path d="M28.831 4.41314C28.8731 4.38511 28.9011 4.37109 28.9011 4.37109C28.7749 4.39913 28.7749 4.39913 28.7749 4.39913C28.789 4.41314 28.817 4.41314 28.831 4.41314Z" fill="url(#paint24_linear_3914_86328)"/>
<path d="M45.9967 21.3931L45.8845 21.4357L45.8284 21.45C45.7583 21.521 45.6881 21.5779 45.604 21.649C45.8424 21.5637 46.0668 21.4784 46.2912 21.3789C46.165 21.4073 46.0668 21.4073 45.9967 21.3931Z" fill="url(#paint25_linear_3914_86328)"/>
<path d="M48.4594 17.3865C48.0247 18.0939 47.4638 18.7305 46.8047 19.2681C46.5242 19.4945 46.2437 19.6784 45.9773 19.8624C45.6968 20.0321 45.4164 20.1878 45.1359 20.3292C44.5609 20.5981 43.972 20.8244 43.3129 20.9376C43.2708 20.9376 43.2708 20.9518 43.2988 20.9659C43.3269 20.9659 43.3829 20.9659 43.425 20.9659C44.4908 20.8386 45.5145 20.4566 46.412 19.9048C46.8607 19.6218 47.2955 19.2964 47.6881 18.9286C47.8144 18.8154 47.9406 18.6881 48.0527 18.5608C48.2771 18.108 48.4594 17.6412 48.6137 17.1602C48.5435 17.2309 48.5015 17.3158 48.4594 17.3865Z" fill="url(#paint26_linear_3914_86328)"/>
<path d="M47.6777 19.2109C47.3411 19.4797 46.9905 19.7061 46.6119 19.9041L46.4576 19.9749C46.3595 20.0173 46.2613 20.0739 46.1912 20.1305C46.1071 20.1871 46.0509 20.2295 46.0089 20.272C45.9809 20.3003 45.9668 20.3144 45.9668 20.3286C45.6162 20.4984 45.2656 20.6398 44.887 20.7672C44.5224 20.8804 44.1298 20.9652 43.7511 21.0218C42.9799 21.1492 42.2086 21.1492 41.4513 21.0643C41.3811 21.0501 41.3391 21.0643 41.3391 21.0784C41.3111 21.0643 41.269 21.0643 41.2409 21.0501C41.1568 21.0501 41.0587 21.036 40.9605 21.0077C40.8623 20.9935 40.7641 20.9794 40.652 20.9511C40.6099 20.9369 40.5818 20.9369 40.5958 20.9511C40.6099 20.9652 40.666 20.9935 40.708 20.9935C40.8203 21.0218 40.9184 21.036 41.0306 21.0501C41.1287 21.0643 41.2409 21.0784 41.3391 21.0926C41.3671 21.0926 41.3811 21.0926 41.3811 21.0926C41.4233 21.1067 41.4933 21.135 41.5635 21.135C41.9562 21.1916 42.3348 21.2199 42.7274 21.2199C43.1061 21.2199 43.4987 21.1916 43.8773 21.1209C44.256 21.0643 44.6206 20.9652 44.9852 20.8521C45.3498 20.7389 45.7004 20.5974 46.065 20.4418C45.7284 20.6257 45.3778 20.7813 44.9992 20.9087C44.6206 21.036 44.2279 21.135 43.8212 21.2058C43.3304 21.2906 42.8396 21.3189 42.3488 21.3189C41.858 21.3048 41.3671 21.2482 40.8763 21.135C40.8203 21.1209 40.7922 21.1209 40.7922 21.135C40.7922 21.1492 40.8343 21.1633 40.8904 21.1775C41.9141 21.4321 42.9377 21.4321 43.9054 21.2482C44.873 21.0643 45.8126 20.7247 46.7241 20.2013C46.7942 20.1588 46.8643 20.1164 46.9344 20.0739C46.4155 20.4701 45.8547 20.8238 45.2376 21.0784C44.284 21.3897 43.2743 21.5029 42.2646 21.4463C41.269 21.3897 40.2733 21.135 39.3618 20.7106C39.2777 20.6681 39.1935 20.6398 39.1935 20.654C39.1935 20.6681 39.2496 20.7247 39.3478 20.7672C40.3575 21.3048 41.5074 21.6302 42.6713 21.7009C42.5872 21.7009 42.5031 21.7151 42.4189 21.7151L42.1805 21.7009C41.4232 21.6302 40.68 21.4604 39.9788 21.1916C39.7124 21.0784 39.488 21.0218 39.4459 21.0643C39.4179 21.1067 39.6002 21.2341 39.8526 21.3472C39.8105 21.3331 39.7685 21.3189 39.7264 21.3048C39.6843 21.2906 39.6563 21.2906 39.6563 21.2906C39.6703 21.3048 39.7264 21.3331 39.7685 21.3472C39.9227 21.4038 40.077 21.4463 40.2312 21.4887C41.6195 21.998 43.1481 22.0829 44.6065 21.7858C43.064 22.1537 41.3671 22.0546 39.8245 21.4604C39.8526 21.4604 39.8667 21.4604 39.8245 21.4321C39.7965 21.418 39.7264 21.3897 39.6983 21.3755C39.6563 21.3614 39.6563 21.3755 39.6983 21.4038C39.2917 21.2341 38.885 21.036 38.5204 20.7955C38.1417 20.555 37.7772 20.3003 37.4406 20.0032C37.3985 19.9749 37.3564 19.9466 37.3564 19.9607C37.3564 19.9749 37.3845 20.0032 37.4266 20.0456C38.5484 21.0218 39.9367 21.6726 41.3671 21.9132C42.7975 22.1678 44.284 22.0122 45.6022 21.517L45.8126 21.4463L45.8686 21.4321C46.5698 20.7672 47.1868 20.0173 47.6777 19.2109Z" fill="url(#paint27_linear_3914_86328)"/>
<path d="M43.3901 22.1132C42.5488 22.1557 41.7073 22.0708 40.88 21.8585C40.7678 21.8302 40.6556 21.8161 40.6556 21.8302C40.6416 21.8444 40.7398 21.8868 40.866 21.9293C41.0623 21.9717 41.2727 22.0283 41.483 22.0566C41.3989 22.0566 41.3287 22.0566 41.2727 22.0708C41.2165 22.0849 41.1885 22.0849 41.1745 22.1132C41.1605 22.1557 41.2306 22.2122 41.3708 22.2688C40.908 22.1981 40.4453 22.0991 39.9965 21.9717C39.5478 21.8302 39.113 21.6605 38.6924 21.4765C38.6362 21.4483 38.6082 21.4483 38.6222 21.4624C38.6362 21.4765 38.6783 21.5048 38.7344 21.5331C39.3374 21.8444 39.9685 22.0708 40.6276 22.2405C41.2727 22.3962 41.9318 22.4811 42.6048 22.4952C43.278 22.5518 43.9651 22.5518 44.6523 22.4386C45.0029 22.1981 45.3394 21.9293 45.648 21.6463C44.9047 21.901 44.1614 22.0566 43.3901 22.1132Z" fill="url(#paint28_linear_3914_86328)"/>
<path d="M43.9056 22.6933C42.7837 22.8348 41.6478 22.7924 40.54 22.5236C39.4321 22.2689 38.3663 21.8021 37.4128 21.1513C37.2866 21.0664 37.1884 20.9957 37.1042 20.9532C37.0201 20.9108 36.978 20.8966 36.978 20.9249C36.978 20.9815 37.1744 21.1796 37.4128 21.3493C38.3383 22.0001 39.334 22.4528 40.3858 22.7075C41.4375 22.9621 42.5173 23.047 43.6392 22.9197C43.7233 22.9055 43.8074 22.8914 43.8916 22.8914C44.0458 22.8065 44.186 22.7075 44.3403 22.6085C44.2001 22.6509 44.0598 22.665 43.9056 22.6933Z" fill="url(#paint29_linear_3914_86328)"/>
<path d="M40.0951 21.5752C40.1372 21.5896 40.1372 21.5752 40.0951 21.5467C40.0671 21.5325 40.011 21.5039 39.9689 21.5039C39.9409 21.5039 39.9269 21.5039 39.9689 21.5325C39.9969 21.5467 40.0671 21.561 40.0951 21.5752Z" fill="url(#paint30_linear_3914_86328)"/>
<path d="M22.66 21.6055C22.66 21.6337 22.66 21.662 22.646 21.6903L22.8703 21.8177L22.9965 21.8884L23.1227 21.9592L23.3892 22.0865C23.7398 22.2563 24.1044 22.4119 24.483 22.5251C24.8617 22.6524 25.2403 22.7514 25.6189 22.8222C26.0116 22.8929 26.3902 22.9495 26.7829 22.9778C26.8109 22.9778 26.839 22.9778 26.867 22.9778C26.9231 22.9354 26.9932 22.9071 27.0493 22.8646C25.5208 22.808 23.9922 22.3694 22.66 21.6055Z" fill="url(#paint31_linear_3914_86328)"/>
<path d="M28.412 20.0024L28.2017 20.0307L27.9914 20.0448L27.8932 20.059H27.781L27.5707 20.0731C27.5005 20.0731 27.4304 20.0731 27.3603 20.0731C27.2902 20.0731 27.2201 20.0731 27.1499 20.0731C27.0097 20.059 26.8695 20.059 26.7292 20.0448C26.4488 20.0165 26.1683 19.9599 25.8879 19.9033L25.6775 19.8468L25.5793 19.8185L25.4812 19.7902C25.4111 19.7619 25.3409 19.7477 25.2708 19.7194C25.2007 19.6911 25.1306 19.6628 25.0745 19.6345L24.9763 19.6062L24.8782 19.5638L24.6818 19.4789L24.4996 19.394C24.4294 19.3657 24.3733 19.3374 24.3172 19.295L24.1349 19.1959C24.0788 19.1677 24.0087 19.1252 23.9526 19.0969C23.8264 19.0262 23.7143 18.9554 23.602 18.8705C23.1393 18.5593 22.7185 18.1915 22.3399 17.767C21.9753 17.3426 21.6388 16.8899 21.3723 16.3947C21.1059 15.8996 20.8955 15.362 20.7553 14.8102C20.5169 13.8764 20.4608 12.9851 20.5169 12.1362C20.5449 11.7118 20.6151 11.2873 20.7273 10.8629C20.8394 10.4385 20.9797 10.0282 21.176 9.61795C21.204 9.57546 21.19 9.56135 21.176 9.57546C21.148 9.60376 21.1059 9.67454 21.0919 9.71696C20.4327 11.0185 20.1663 12.4899 20.3206 13.9472C20.4608 15.3903 21.0357 16.805 21.9753 17.9651C22.1857 18.2339 22.4241 18.4886 22.6625 18.7149C22.6905 18.7432 22.7185 18.7715 22.7466 18.7998C22.971 19.012 23.1954 19.2101 23.4478 19.394C23.3636 19.3374 23.2795 19.2808 23.1954 19.2101C23.1112 19.1394 23.0271 19.0828 22.971 19.0545C22.9149 19.012 22.8588 18.9979 22.8448 18.9979C22.8308 19.012 22.8448 19.0403 22.8868 19.0828C22.5783 18.8422 22.2839 18.5734 22.0174 18.2905C21.751 18.0076 21.4986 17.6963 21.2742 17.3851C21.148 17.187 21.0357 17.0031 20.9376 16.8475C20.5449 16.0128 20.3206 15.1214 20.2504 14.216L20.2364 13.9896C20.2224 13.6925 20.2084 13.3954 20.1663 13.2539C20.1523 13.2115 20.1382 13.1832 20.1382 13.169C20.1382 12.6456 20.2084 12.1079 20.3206 11.5986C20.4327 11.0751 20.6011 10.58 20.8254 10.0989C21.2602 9.13694 21.8912 8.27388 22.6204 7.56649C22.6905 7.49578 22.7326 7.45336 22.7045 7.45336C22.7326 7.43918 22.7747 7.39677 22.8168 7.36847C22.8588 7.32599 22.9009 7.28357 22.957 7.24109C23.013 7.19868 23.0552 7.1562 23.1112 7.11378C23.1673 7.07137 23.2234 7.02889 23.2795 6.98647C23.3356 6.94399 23.3917 6.90158 23.4478 6.85912C23.5038 6.81668 23.5179 6.78839 23.4898 6.80253C23.4618 6.81668 23.3917 6.84498 23.3496 6.8874C23.1112 7.05719 22.8868 7.25527 22.6905 7.43918C22.6765 7.45336 22.6625 7.46748 22.6625 7.48159C22.6064 7.50989 22.5363 7.56649 22.4661 7.63727C21.6808 8.35877 21.0778 9.23595 20.6571 10.1838C20.2364 11.1317 20.012 12.1645 19.984 13.2256C19.97 12.1928 20.1663 11.1176 20.6151 10.0848C20.8955 9.46234 21.2321 8.88226 21.6388 8.37296C21.8351 8.10416 22.0595 7.86359 22.2979 7.62308C22.4241 7.50989 22.5363 7.38258 22.6765 7.28357C22.7466 7.22698 22.8027 7.17038 22.8728 7.11378C22.943 7.05719 23.013 7.01477 23.0832 6.95818C23.1393 6.91569 23.1814 6.8874 23.1673 6.87327C23.1533 6.87327 23.0972 6.90158 23.0411 6.94399C22.971 7.00059 22.9009 7.05719 22.8308 7.09967C22.7606 7.1562 22.6905 7.21279 22.6204 7.26939L22.5223 7.35428L22.4241 7.43918C22.3539 7.49578 22.2979 7.55237 22.2277 7.62308C22.1015 7.75046 21.9753 7.86359 21.8631 8.00508C21.807 8.07586 21.751 8.13245 21.6948 8.20317L21.5406 8.40125C21.4845 8.47197 21.4424 8.54268 21.3864 8.61346C21.3443 8.68417 21.2882 8.75495 21.2461 8.82566C21.162 8.96715 21.0638 9.10864 20.9797 9.26425C20.8114 9.56135 20.6711 9.85845 20.5309 10.1697C20.2785 10.7922 20.0962 11.443 19.998 12.1079C19.984 12.1928 19.97 12.2777 19.956 12.3626C19.942 12.4475 19.942 12.5324 19.9279 12.6173L19.9139 12.7446V12.8719C19.9139 12.9568 19.8998 13.0417 19.8998 13.1266C19.8998 13.2115 19.8998 13.2964 19.8998 13.3954V13.5227V13.6501C19.8998 13.7349 19.8998 13.834 19.9139 13.9189C19.9139 14.0038 19.9279 14.1028 19.942 14.1877C19.942 14.3009 19.97 14.414 19.97 14.5272C19.7736 13.6501 19.7316 12.7446 19.8438 11.8533C19.984 11.1883 20.1944 10.5234 20.4889 9.91505C20.6291 9.60376 20.8114 9.30666 20.9937 9.02375C21.0919 8.88226 21.176 8.74077 21.2882 8.59927L21.4424 8.40125L21.6107 8.20317C21.6668 8.13245 21.7229 8.07586 21.779 8.00508L21.9472 7.82117C22.0735 7.70798 22.1857 7.58067 22.3119 7.46748C22.5643 7.22698 22.8308 7.02889 23.0972 6.81668L23.3076 6.67521L23.4197 6.60447L23.5319 6.53373L23.7563 6.4064L23.9807 6.27906L24.0929 6.22247L24.2051 6.16588L24.4294 6.0527C24.5136 6.02441 24.5837 5.98197 24.6678 5.95367C24.752 5.92538 24.8221 5.88293 24.9062 5.85464C25.0324 5.81219 25.1306 5.7556 25.1166 5.74145C25.1025 5.7273 24.9904 5.74145 24.8642 5.79804C23.3636 6.20832 22.0174 7.1562 21.0357 8.41537C21.0919 8.31636 21.162 8.23146 21.2181 8.13245L21.4284 7.87777C22.1156 7.11378 22.9289 6.47714 23.8545 5.99611C23.8965 5.96782 23.9386 5.95367 23.9807 5.92538C24.0227 5.91123 24.0648 5.88293 24.0929 5.86878C24.163 5.82634 24.2331 5.79804 24.2892 5.7556C24.4013 5.68486 24.4715 5.64242 24.4715 5.61412C24.4715 5.58583 24.3873 5.59997 24.2751 5.62827C24.163 5.65656 24.0087 5.71316 23.8264 5.79804C23.8825 5.76975 23.9386 5.74145 23.9947 5.71316C24.0508 5.68486 24.0929 5.65656 24.0648 5.65656C24.0367 5.65656 23.9667 5.68486 23.9105 5.71316C23.8124 5.76975 23.7143 5.82634 23.6301 5.88293C23.5319 5.93952 23.4478 5.99611 23.3496 6.0527C22.4801 6.54788 21.6948 7.19868 21.0498 7.97678C20.4047 8.75495 19.8999 9.64625 19.5774 10.5941C19.9139 9.56135 20.4468 8.58516 21.162 7.73628C21.8772 6.8874 22.7606 6.19418 23.7563 5.68486C23.7143 5.71316 23.7143 5.7273 23.7703 5.69901C23.8124 5.68486 23.8965 5.64242 23.9386 5.61412C23.9807 5.58583 23.9667 5.58582 23.9246 5.59997C25.0044 5.07651 26.2103 4.8077 27.4024 4.79355C27.4725 4.79355 27.5286 4.7794 27.5286 4.7794C27.5286 4.76525 27.4585 4.76525 27.3883 4.76525C26.3927 4.76525 25.3971 4.97747 24.4575 5.33116C23.5319 5.68486 22.6765 6.22247 21.9332 6.8874C21.5686 7.21279 21.2321 7.58067 20.9235 7.96266C20.6151 8.34466 20.3486 8.76906 20.1242 9.19354C19.8998 9.61795 19.7036 10.0707 19.5493 10.5375C19.395 11.0044 19.2969 11.4713 19.2267 11.9523C19.1847 12.1645 19.1707 12.3626 19.1426 12.5748C19.1005 12.6314 19.0585 12.7729 19.0164 12.9568C19.0445 12.2636 19.1566 11.5845 19.3389 10.9336C19.5212 10.2687 19.8017 9.63206 20.1382 9.03786C20.7273 8.04756 21.4985 7.18449 22.4241 6.49128C22.5643 6.39225 22.6625 6.30736 22.6485 6.27906C22.6344 6.26492 22.5223 6.32151 22.382 6.42054C22.2698 6.50543 22.1577 6.59032 22.0455 6.67521C21.9332 6.76009 21.8351 6.85912 21.7229 6.95818C21.8772 6.78839 21.9753 6.64691 21.9613 6.60447C21.9472 6.56202 21.8351 6.60447 21.6668 6.71765C22.5923 5.84049 23.7143 5.14725 24.8922 4.72281C24.9623 4.69451 25.0044 4.68037 24.9763 4.68037C24.9483 4.68037 24.8782 4.69451 24.808 4.72281C23.0692 5.30287 21.5546 6.43469 20.4749 7.87777C20.3627 8.01926 20.2504 8.16075 20.1523 8.30218C20.0401 8.44367 19.942 8.59927 19.8438 8.74077C19.6474 9.03786 19.4652 9.34915 19.3109 9.67454C19.1426 9.99994 19.0164 10.3395 18.8902 10.6931C18.778 11.0468 18.6658 11.4147 18.5957 11.8108C18.3854 12.9285 18.3994 14.0603 18.6237 15.1214C18.8341 16.1825 19.2407 17.187 19.8157 18.0924C20.1944 18.7574 20.6571 19.3657 21.176 19.9033C21.0919 19.8468 21.0217 19.8043 21.0077 19.8326C21.0077 19.8326 21.0077 19.8468 21.0077 19.8609C20.5449 19.3799 20.1382 18.8422 19.7736 18.2481C19.5774 17.9085 19.381 17.5548 19.2267 17.2011C19.1426 17.0172 19.0725 16.8333 19.0024 16.6494C18.9603 16.5645 18.9323 16.4655 18.9042 16.3665C18.8762 16.2674 18.8341 16.1825 18.8201 16.0835C18.5957 15.3337 18.4554 14.5555 18.4274 13.7774C18.3994 12.9992 18.4414 12.2211 18.5957 11.4713C18.6378 11.2873 18.6799 11.0893 18.7219 10.9054C18.7499 10.8063 18.764 10.7214 18.792 10.6224L18.8762 10.3536C18.9042 10.2546 18.9323 10.1697 18.9743 10.0848L19.0725 9.81603L19.1847 9.54717C19.2267 9.46234 19.2548 9.36326 19.2969 9.27837C19.6194 8.58516 20.0401 7.92018 20.5169 7.34017C20.7553 7.04307 21.0217 6.76009 21.3022 6.49128C21.5827 6.23662 21.8772 5.96782 22.1857 5.74145C23.4197 4.82185 24.8922 4.19935 26.4348 3.98713C26.4908 3.97298 26.5329 3.97298 26.575 3.95883C26.617 3.95883 26.6591 3.94468 26.7012 3.94468C26.7854 3.93054 26.8554 3.91639 26.9116 3.90224C27.0237 3.87394 27.0799 3.84565 27.0658 3.8315C27.0378 3.8032 26.9396 3.8032 26.7854 3.78906C26.7152 3.78906 26.617 3.78906 26.5329 3.78906C26.4348 3.8032 26.3366 3.8032 26.2384 3.81735C26.0561 3.8315 25.8598 3.87394 25.6775 3.91639C25.4952 3.95883 25.3129 4.00128 25.1306 4.04372C24.766 4.14275 24.4154 4.25594 24.0788 4.39742C23.3917 4.68037 22.7466 5.03406 22.1577 5.45849C21.5686 5.88293 21.0217 6.39225 20.5449 6.94399C20.0682 7.50989 19.6474 8.13245 19.2969 8.81155C19.0445 9.29255 18.8481 9.78774 18.6939 10.2829C18.5396 10.778 18.4274 11.2732 18.3433 11.7684C18.189 12.7729 18.203 13.7915 18.3713 14.8526C18.5816 16.0976 19.0304 17.2436 19.6474 18.2764C20.1944 19.1818 20.8955 19.9882 21.7229 20.6532C21.779 20.1297 21.751 19.4789 21.5686 18.6866C21.8912 19.0403 22.7185 20.0448 22.6625 21.3747C22.6344 22.3934 22.1015 23.1291 21.4705 24.0204C20.8675 24.8692 20.2364 25.4493 19.7877 25.8171L26.0141 22.6339C26.3787 22.7046 26.7573 22.7471 27.1359 22.7612C27.164 22.7471 27.192 22.7188 27.2201 22.7046C27.1359 22.7046 27.0518 22.6905 26.9676 22.6905C27.0518 22.6905 27.1499 22.6905 27.2341 22.7046C28.6925 21.7567 29.8986 20.5117 30.7539 19.0828C30.0248 19.5921 29.2394 19.875 28.412 20.0024Z" fill="url(#paint32_linear_3914_86328)"/>
<path d="M49.4185 19.8082C49.4466 19.7799 49.4747 19.7516 49.4887 19.7233C49.5588 19.6526 49.6149 19.5818 49.685 19.497C50.0636 19.0867 50.4142 18.634 50.6947 18.1671C50.6666 18.2378 50.6666 18.2944 50.6806 18.3086C50.6806 18.3086 50.6947 18.3086 50.7087 18.3086C50.4422 18.733 50.1477 19.1291 49.8112 19.5111C49.685 19.6667 49.5448 19.8082 49.4045 19.9497C49.4045 20.0204 49.4045 20.0912 49.4045 20.1477C49.4185 20.1336 49.4466 20.1053 49.4607 20.0912C49.5448 20.0063 49.6149 19.9355 49.685 19.8506C49.7551 19.7658 49.8393 19.695 49.9093 19.6101L50.1197 19.3555L50.316 19.0867C50.3862 19.0018 50.4422 18.9028 50.5124 18.8179C50.5685 18.7188 50.6386 18.634 50.6947 18.5349C50.933 18.1671 51.1575 17.771 51.3397 17.3607C51.4099 17.2051 51.494 17.0353 51.5501 16.8655C51.6062 16.6957 51.6763 16.526 51.7184 16.342C51.9428 15.6629 52.097 14.9697 52.1672 14.2765C52.2372 13.5832 52.2372 12.8758 52.1672 12.1826C52.4196 13.8379 52.2232 15.5498 51.6483 17.1202C51.6062 17.2334 51.5922 17.3183 51.6062 17.3041C51.6343 17.29 51.6903 17.1909 51.7324 17.0919C52.1531 16.0025 52.3775 14.8282 52.3915 13.6681C52.4055 12.4938 52.2092 11.3337 51.8166 10.2302C51.7885 9.90477 51.6623 9.40965 51.4239 8.87198C51.1995 8.33438 50.863 7.76848 50.4703 7.28748C50.1898 6.93379 49.8953 6.63666 49.5588 6.36785C49.6289 6.43859 49.699 6.50933 49.7551 6.58007C49.8252 6.65081 49.8813 6.72155 49.9515 6.80643C49.8533 6.7074 49.7551 6.59422 49.6569 6.50933C49.5588 6.42444 49.4607 6.33955 49.3624 6.25467C49.1521 6.09905 48.9558 5.95757 48.7594 5.81609C48.7314 5.78779 48.6894 5.7595 48.6613 5.7312C48.2406 5.34922 47.7217 5.00967 47.1748 4.71256C46.6139 4.42961 46.0249 4.18909 45.4359 4.01932C45.45 4.04762 45.478 4.07591 45.506 4.10421C45.3938 4.06176 45.3097 4.03347 45.2256 3.99102C45.1414 3.96273 45.0433 3.92029 44.9311 3.89199C45.0012 3.92029 45.0573 3.94858 45.1274 3.97688H45.1134C44.9871 3.93444 44.8469 3.89199 44.6927 3.84955C44.5384 3.82126 44.3842 3.77881 44.2158 3.76467C44.0336 3.72222 43.8513 3.67978 43.655 3.63734C43.5568 3.62319 43.4586 3.60904 43.3464 3.59489C43.2483 3.58074 43.1361 3.58074 43.0239 3.5666C42.5892 3.5383 42.1264 3.5383 41.6636 3.58074C40.724 3.67978 39.7424 3.94858 38.915 4.35887C38.7888 4.41546 38.6766 4.4862 38.6626 4.5145C38.6626 4.54279 38.7468 4.5145 38.887 4.45791C39.0132 4.41546 39.1394 4.37302 39.2657 4.31643C39.3919 4.27398 39.5181 4.24569 39.6443 4.20324C39.8967 4.1325 40.1632 4.07591 40.4436 4.00517C40.9765 3.89199 41.4813 3.8354 42.0142 3.80711C42.533 3.79296 43.0519 3.80711 43.5988 3.8637C43.669 3.87785 43.7251 3.87785 43.7952 3.89199C43.8793 3.92029 43.9775 3.94858 44.0616 3.97688C44.0476 3.97688 44.0336 3.97688 44.0196 3.97688L43.8372 3.94858L43.655 3.92029C43.683 3.92029 43.697 3.93444 43.7251 3.93444C43.2623 3.87785 42.7855 3.8637 42.3227 3.87785C41.874 3.8637 41.4112 3.90614 40.9344 3.99102C40.4576 4.07591 39.9808 4.20324 39.5321 4.37302C39.3077 4.45791 39.0833 4.55694 38.859 4.67012C38.7468 4.72671 38.6486 4.7833 38.5364 4.83989C38.4242 4.89648 38.3261 4.96722 38.2279 5.02381C38.1718 5.05211 38.1297 5.08041 38.0737 5.12285C38.0175 5.15115 37.9755 5.19359 37.9334 5.22189C37.8353 5.29263 37.7371 5.34922 37.6529 5.41995C37.4706 5.56143 37.3024 5.70291 37.1481 5.85853C37.0219 5.95757 36.9518 6.04246 36.9798 6.04246C37.0079 6.04246 37.1341 5.97172 37.2462 5.87268L37.3724 5.78779L37.4987 5.7029C37.5828 5.64631 37.681 5.58972 37.7651 5.53313C37.9475 5.4341 38.1297 5.32092 38.312 5.22189C38.6766 5.02381 39.0553 4.88233 39.4339 4.75501C39.462 4.74086 39.4199 4.79745 39.49 4.7833C39.5181 4.7833 39.5461 4.76915 39.5741 4.76915C39.5321 4.7833 39.476 4.79745 39.4339 4.81159C39.3919 4.82574 39.3357 4.85404 39.2797 4.86819C39.1955 4.92478 39.1114 4.96722 39.0553 4.99552C38.9852 5.03796 38.9431 5.06626 38.901 5.09455C38.8169 5.15115 38.7608 5.17944 38.7187 5.20774C38.7187 5.20774 38.7187 5.20774 38.6907 5.22189C38.6486 5.25018 38.6206 5.27848 38.5645 5.30677C38.5504 5.32092 38.5504 5.32092 38.5364 5.33507C38.4804 5.36336 38.4242 5.39166 38.3681 5.41995C38.312 5.44825 38.2559 5.49069 38.2279 5.51899C38.1999 5.51899 38.1718 5.53313 38.1437 5.54728C37.8353 5.71705 37.8353 5.71705 37.5408 5.91512C37.5408 5.91512 37.5408 5.91512 37.5548 5.92927C37.5548 5.92927 37.5267 5.95757 37.4846 5.98586C37.4426 6.01416 37.4005 6.0566 37.3444 6.09905C37.2883 6.14149 37.2603 6.15564 37.2182 6.19808C37.1902 6.21223 37.1621 6.24052 37.12 6.26882C37.078 6.29711 37.0359 6.33955 36.9658 6.39614C36.9658 6.39614 36.9658 6.39614 37.106 6.31126C37.106 6.31126 37.106 6.31126 36.9798 6.382C36.9798 6.382 36.9798 6.382 37.0359 6.382C37.0359 6.382 37.0359 6.382 36.9658 6.39614C36.9658 6.39614 36.9658 6.39614 36.9378 6.45274C36.9378 6.45274 36.9378 6.45274 36.9097 6.46688C36.8817 6.48103 36.8116 6.50933 36.6853 6.58007C36.6713 6.59422 36.6292 6.63666 36.5451 6.7357C36.5451 6.7357 36.5171 6.76399 36.5171 6.79229C36.5171 6.80643 36.5171 6.80643 36.4609 6.90549C36.4609 6.90549 36.4609 6.9196 36.489 6.9196C36.5171 6.90549 36.5171 6.90549 36.5451 6.9196C36.5451 6.9196 36.5871 6.90549 36.6292 6.87717C36.6713 6.84888 36.6853 6.83473 36.8396 6.7074C36.8256 6.72155 36.8256 6.7357 36.8116 6.74984C36.8116 6.77814 36.8256 6.80643 36.8536 6.80643C36.8957 6.80643 36.9518 6.79229 37.092 6.76399C37.092 6.76399 37.2182 6.7074 37.4005 6.58007C37.4987 6.50933 37.5548 6.46688 37.6109 6.43859C37.667 6.39614 37.7231 6.3537 37.8493 6.28296C37.8493 6.28296 37.9053 6.25467 37.9895 6.19808C38.0737 6.16979 38.0877 6.16979 38.1437 6.14149C38.1017 6.16979 38.0596 6.21223 38.0316 6.24052C37.9334 6.32541 37.9475 6.36785 38.0456 6.32541C37.9755 6.48103 38.1017 6.49518 38.284 6.46688C38.2559 6.52348 38.2559 6.56592 38.284 6.58007C38.2279 6.66496 38.1858 6.74984 38.1578 6.82058C38.1297 6.8913 38.1157 6.9479 38.1297 7.0045L38.1578 7.07521C38.1999 7.08939 38.2559 7.07521 38.3401 7.04698C38.4242 7.0328 38.5224 6.99038 38.6206 6.9479C38.6486 6.93379 38.6626 6.93379 38.6907 6.9196L38.6626 7.0045C38.7468 6.99038 38.8449 6.9762 38.9571 6.96208C39.0132 6.9479 39.0693 6.93379 39.1254 6.9196C39.1815 6.90549 39.2376 6.8913 39.2937 6.8913C39.4059 6.86303 39.5181 6.84888 39.6303 6.83473C39.7424 6.82058 39.8406 6.80643 39.9387 6.80643L40.2052 6.77814C40.3034 6.77814 40.4296 6.76399 40.5558 6.7357C40.6259 6.72155 40.696 6.7074 40.7802 6.69325C40.8502 6.6791 40.9344 6.65081 41.0185 6.63666C41.1307 6.60836 41.2569 6.58007 41.3691 6.56592C41.4393 6.55177 41.5093 6.53762 41.5935 6.52348C41.2429 6.6791 41.0747 6.84888 41.1728 6.9479C41.2149 6.99038 41.299 7.01868 41.3972 7.0328C41.4533 7.04698 41.5093 7.04698 41.5795 7.04698C41.6075 7.04698 41.6496 7.04698 41.6917 7.04698C41.7337 7.04698 41.7618 7.04698 41.8039 7.04698C42.1264 7.04698 42.519 7.0328 42.9397 7.01868C44.0616 7.01868 45.1554 7.31578 46.1231 7.85338C46.5999 8.12218 47.0486 8.46169 47.4693 8.85787C47.6657 9.05596 47.876 9.26816 48.0443 9.49448C48.1424 9.60767 48.2125 9.72086 48.3107 9.83406C48.3527 9.89066 48.3948 9.96137 48.437 10.018C48.479 10.0746 48.5211 10.1453 48.5491 10.2019C48.9978 10.9376 49.2923 11.7298 49.4326 12.5645C49.5728 13.3851 49.5448 14.2482 49.3344 15.0829C49.1942 15.8044 48.9418 16.5118 48.5772 17.1485C48.4369 17.6295 48.2406 18.0964 48.0162 18.5491C48.2686 18.2803 48.507 17.9832 48.7174 17.6719C48.7875 17.5588 48.8576 17.4597 48.9277 17.3607C48.9978 17.2475 49.068 17.1485 49.124 17.0494C49.1381 17.0212 49.1521 17.007 49.1661 16.9787L49.2502 16.8372C49.2783 16.7948 49.3064 16.7382 49.3344 16.6957C49.3905 16.5967 49.4466 16.4977 49.4887 16.3986C49.4606 16.4694 49.4326 16.5401 49.3905 16.6109C49.3204 16.7523 49.2783 16.8797 49.3064 16.908C49.3204 16.908 49.3344 16.908 49.3624 16.8797C49.124 17.4173 48.8296 17.9124 48.493 18.3935C48.465 18.4218 48.437 18.4642 48.4089 18.4925C48.3808 18.5208 48.3527 18.5491 48.3247 18.5915C48.2686 18.6481 48.2265 18.7188 48.1845 18.7754C48.0022 18.9452 47.8199 19.1008 47.6236 19.2564C47.1328 20.0629 46.5157 20.8127 45.7865 21.4918L45.8426 21.4777L45.9548 21.4352C46.0108 21.4494 46.1231 21.4494 46.2633 21.4211C46.0389 21.5201 45.8146 21.6191 45.5762 21.6899C45.2676 21.9728 44.9311 22.2275 44.5805 22.4822C44.9591 22.4256 45.3378 22.3407 45.7304 22.2275C46.1371 22.1002 46.5157 21.9445 46.8804 21.7748C47.2449 21.5908 47.5955 21.3928 47.9181 21.1523C48.1284 21.0108 48.3247 20.8551 48.507 20.6995C48.7174 19.7658 49.2783 19.0867 49.5307 18.8037C49.4887 19.1291 49.4466 19.4828 49.4185 19.8082ZM51.8726 10.7819L51.9288 10.9517C51.9568 11.0649 51.9988 11.1781 52.0269 11.3054C52.1672 12.0411 52.2372 12.7909 52.1952 13.5549C52.1952 13.0597 52.1672 12.5645 52.111 12.0694C52.055 11.5742 51.9568 11.0932 51.8306 10.6122L51.8726 10.7819ZM37.1902 6.49518C37.2042 6.48103 37.2322 6.46688 37.2462 6.45274C37.2462 6.48103 37.2182 6.49518 37.1902 6.49518ZM37.2603 6.3537C37.2462 6.3537 37.2322 6.36785 37.2182 6.36785C37.2182 6.36785 37.2182 6.36785 37.2603 6.28296C37.2743 6.28296 37.2743 6.31126 37.2603 6.3537ZM37.6389 6.18393C37.667 6.16979 37.681 6.15564 37.7231 6.15564C37.7091 6.15564 37.695 6.15564 37.6389 6.18393ZM38.7187 6.84888H38.7047C38.7328 6.74984 38.7748 6.66496 38.8028 6.56592C38.7748 6.66496 38.7468 6.76399 38.7187 6.84888ZM39.5461 5.49069C39.5181 5.49069 39.476 5.49069 39.4199 5.50484C39.4199 5.49069 39.476 5.49069 39.5461 5.49069ZM42.1124 4.54279C42.0984 4.54279 42.0843 4.54279 42.0703 4.54279C42.1124 4.54279 42.1685 4.54279 42.2246 4.54279C42.2246 4.54279 42.2246 4.54279 42.4489 4.59938C42.4489 4.59938 42.2806 4.57109 42.1124 4.54279ZM42.8556 4.35887C42.7995 4.35887 42.6873 4.35887 42.7575 4.38717C42.533 4.38717 42.3087 4.40131 42.0703 4.41546C41.9581 4.42961 41.846 4.44376 41.7197 4.45791C41.6075 4.47205 41.4813 4.4862 41.3691 4.5145C41.2009 4.54279 41.0185 4.58524 40.8643 4.62768C40.7661 4.62768 40.668 4.62768 40.5558 4.62768C40.4436 4.62768 40.3314 4.64183 40.2052 4.67012C40.6259 4.57109 41.1027 4.45791 41.5514 4.41546C42.0422 4.35887 42.533 4.34472 43.0239 4.37302C42.9818 4.34472 42.9257 4.34472 42.8556 4.35887Z" fill="url(#paint33_linear_3914_86328)"/>
<path d="M47.133 21.6462C46.2636 22.113 45.324 22.4384 44.3565 22.6082C44.2162 22.7073 44.0619 22.7921 43.9077 22.8912C44.2162 22.8487 44.5107 22.7921 44.7912 22.7214C44.9735 22.679 45.1558 22.6224 45.3381 22.5799C45.4222 22.5516 45.5204 22.5233 45.6045 22.495C45.6887 22.4667 45.7869 22.4384 45.871 22.4101C46.0393 22.3394 46.2215 22.2828 46.3898 22.1979C46.4739 22.1555 46.5581 22.1272 46.6422 22.0847C46.7264 22.0423 46.8106 21.9999 46.8947 21.9574C46.9788 21.915 47.063 21.8725 47.1471 21.8301C47.2312 21.7876 47.3154 21.7452 47.3995 21.6886C47.5678 21.5896 47.7361 21.4905 47.8903 21.3774C48.1007 21.2359 48.297 21.0944 48.4934 20.9388C48.5074 20.8681 48.5074 20.7973 48.5214 20.7266C48.0867 21.0803 47.6239 21.3915 47.133 21.6462Z" fill="url(#paint34_linear_3914_86328)"/>
<path d="M49.6568 24.0783C49.0257 23.2012 48.5069 22.4797 48.4648 21.4328C48.4648 21.263 48.4648 21.1074 48.4928 20.9376C48.5069 20.8669 48.5069 20.7961 48.5209 20.7254C48.5209 20.6971 48.5349 20.6688 48.5349 20.6405C48.591 20.4141 48.6611 20.1878 48.7452 19.9897L48.4367 19.3672L45.2534 22.5787L51.5079 25.861C50.9609 25.3658 49.9513 24.4603 49.6568 24.0783Z" fill="url(#paint35_linear_3914_86328)"/>
<path d="M51.9281 10.949L51.872 10.7792L51.8159 10.6094C51.9421 11.0904 52.0403 11.5714 52.0964 12.0666C52.1525 12.5618 52.1805 13.0569 52.1805 13.5521C52.2226 12.8023 52.1525 12.0525 52.0123 11.3026C51.9982 11.1753 51.9561 11.0621 51.9281 10.949Z" fill="url(#paint36_linear_3914_86328)"/>
<path d="M5.20681 29.3114C5.10736 29.3114 5.03632 29.3245 4.96529 29.364C4.89425 29.4036 4.85163 29.4563 4.80901 29.509C4.76638 29.5749 4.73797 29.6408 4.72376 29.7067C4.70955 29.7725 4.69535 29.8517 4.69535 29.9307C4.69535 29.9966 4.70955 30.0756 4.72376 30.1415C4.73797 30.2074 4.76638 30.2865 4.80901 30.3392C4.85163 30.3919 4.89425 30.4446 4.96529 30.4841C5.03632 30.5237 5.10736 30.5369 5.20681 30.5369C5.34889 30.5369 5.46255 30.4974 5.53358 30.4315C5.60462 30.3656 5.66145 30.2602 5.67565 30.1415H6.24395C6.20133 30.4051 6.08767 30.6028 5.90297 30.7345C5.71828 30.8663 5.47675 30.9322 5.1926 30.9322C5.03632 30.9322 4.88004 30.9059 4.75217 30.8531C4.6101 30.8004 4.49644 30.7345 4.41119 30.6423C4.31175 30.55 4.24071 30.4446 4.18388 30.326C4.12705 30.2074 4.09863 30.0756 4.09863 29.9175C4.09863 29.7725 4.12705 29.6276 4.16967 29.4958C4.21229 29.364 4.29754 29.2586 4.38278 29.1664C4.48223 29.0742 4.59589 28.9951 4.73797 28.9424C4.88004 28.8897 5.03632 28.8633 5.20681 28.8633C5.33468 28.8633 5.46255 28.8765 5.5762 28.9029C5.68986 28.9292 5.80352 28.9819 5.88877 29.0346C5.98822 29.1005 6.05925 29.1796 6.11609 29.2586C6.17291 29.3377 6.20133 29.4563 6.21553 29.5881H5.63303C5.60462 29.4168 5.46255 29.3114 5.20681 29.3114Z" fill="white"/>
<path d="M8.40123 28.9536V29.3226H8.41543C8.44384 29.2567 8.48652 29.204 8.52914 29.1513C8.57175 29.0986 8.62857 29.059 8.6996 29.0195C8.75642 28.98 8.82744 28.9536 8.89853 28.9404C8.96956 28.9141 9.04058 28.9141 9.11161 28.9141C9.15422 28.9141 9.19684 28.9141 9.23945 28.9273V29.428C9.21104 29.428 9.18263 29.4148 9.14002 29.4148C9.0974 29.4148 9.06899 29.4148 9.02638 29.4148C8.91274 29.4148 8.82744 29.428 8.75642 29.4675C8.68539 29.4939 8.61437 29.5466 8.57175 29.5993C8.52914 29.652 8.48652 29.7179 8.47232 29.797C8.45805 29.876 8.44384 29.9551 8.44384 30.0474V30.9302H7.84717V28.98H8.40123V28.9536Z" fill="white"/>
<path d="M11.2856 30.4417C11.3709 30.5207 11.4988 30.5603 11.6692 30.5603C11.7829 30.5603 11.8966 30.5339 11.9818 30.4812C12.067 30.4285 12.1239 30.3758 12.1381 30.3099H12.6638C12.5785 30.5471 12.4506 30.7053 12.2802 30.8107C12.1096 30.9161 11.8966 30.9556 11.655 30.9556C11.4846 30.9556 11.3282 30.9292 11.2004 30.8766C11.0583 30.8238 10.9446 30.7579 10.8452 30.6657C10.7458 30.5735 10.6747 30.4681 10.6321 30.3363C10.5752 30.2045 10.561 30.0727 10.561 29.9146C10.561 29.7696 10.5895 29.6378 10.6463 29.5061C10.7032 29.3743 10.7742 29.2689 10.8736 29.1767C10.9731 29.0844 11.0868 29.0185 11.2288 28.9658C11.3709 28.9131 11.513 28.8867 11.6834 28.8867C11.8682 28.8867 12.0244 28.9131 12.1665 28.979C12.3086 29.0449 12.4222 29.1239 12.5075 29.2425C12.5927 29.348 12.6638 29.4797 12.6922 29.6115C12.7348 29.7565 12.749 29.8882 12.7348 30.0463H11.172C11.1436 30.2309 11.1862 30.3626 11.2856 30.4417ZM11.9534 29.4139C11.8824 29.348 11.7687 29.3084 11.6266 29.3084C11.5272 29.3084 11.4561 29.3216 11.3851 29.348C11.3282 29.3743 11.2714 29.4139 11.2288 29.4534C11.1862 29.4929 11.1578 29.5456 11.1436 29.5852C11.1294 29.6378 11.1152 29.6774 11.1152 29.7169H12.0812C12.0812 29.5852 12.0244 29.4797 11.9534 29.4139Z" fill="white"/>
<path d="M14.2835 29.5598C14.2977 29.428 14.3261 29.3358 14.3829 29.2435C14.4397 29.1645 14.525 29.0986 14.6245 29.0458C14.7239 28.9931 14.8233 28.9536 14.9512 28.9404C15.0791 28.9273 15.1927 28.9141 15.3064 28.9141C15.4201 28.9141 15.5195 28.9273 15.6331 28.9404C15.7468 28.9536 15.8463 28.98 15.9457 29.0195C16.0309 29.059 16.1162 29.1117 16.1731 29.1908C16.2299 29.2699 16.2583 29.3621 16.2583 29.4807V30.4954C16.2583 30.5876 16.2583 30.6667 16.2725 30.7457C16.2867 30.8248 16.3009 30.8907 16.3293 30.9302H15.7184C15.7042 30.9039 15.7042 30.8644 15.69 30.838C15.69 30.8116 15.6758 30.7721 15.6758 30.7457C15.5763 30.838 15.4627 30.8907 15.3348 30.9302C15.2069 30.9698 15.0791 30.9829 14.937 30.9829C14.8375 30.9829 14.7381 30.9698 14.6529 30.9434C14.5676 30.9171 14.4823 30.8907 14.4113 30.838C14.3403 30.7853 14.2977 30.7326 14.2551 30.6535C14.2124 30.5744 14.1982 30.4954 14.1982 30.39C14.1982 30.2845 14.2267 30.1923 14.2693 30.1132C14.3119 30.0474 14.3687 29.9815 14.4397 29.9419C14.5108 29.9024 14.5818 29.8629 14.6813 29.8497C14.7665 29.8233 14.8517 29.8102 14.9512 29.797C15.0365 29.7838 15.1217 29.7706 15.2211 29.7706C15.3064 29.7574 15.3917 29.7574 15.4485 29.7311C15.5195 29.7179 15.5621 29.6915 15.6047 29.6652C15.6473 29.6388 15.6616 29.5993 15.6616 29.5334C15.6616 29.4807 15.6473 29.428 15.6331 29.4017C15.6189 29.3753 15.5905 29.3358 15.5479 29.3226C15.5195 29.3094 15.4769 29.2962 15.4201 29.283C15.3632 29.2699 15.3206 29.2699 15.278 29.2699C15.1643 29.2699 15.0649 29.2962 15.0081 29.3358C14.937 29.3753 14.9086 29.4543 14.8944 29.5598H14.2835ZM15.6616 29.9551C15.6331 29.9815 15.6047 29.9946 15.5621 30.0078C15.5195 30.021 15.4769 30.0342 15.4343 30.0342C15.3917 30.0474 15.349 30.0474 15.2922 30.0474C15.2353 30.0474 15.1927 30.0605 15.1501 30.0605C15.1075 30.0737 15.0649 30.0737 15.0223 30.0869C14.9796 30.1 14.937 30.1132 14.9086 30.1396C14.8801 30.1659 14.8517 30.1923 14.8375 30.2187C14.8233 30.245 14.8091 30.2977 14.8091 30.3372C14.8091 30.39 14.8233 30.4295 14.8375 30.4559C14.8517 30.4822 14.8801 30.5085 14.9228 30.5349C14.9512 30.5481 14.9939 30.5613 15.0365 30.5744C15.0791 30.5876 15.1217 30.5876 15.1785 30.5876C15.2922 30.5876 15.3917 30.5744 15.4485 30.5349C15.5195 30.4954 15.5621 30.4559 15.5905 30.4031C15.6189 30.3504 15.6331 30.3109 15.6473 30.2582C15.6473 30.2055 15.6616 30.1659 15.6616 30.1396V29.9551Z" fill="white"/>
<path d="M19.1745 28.9548V29.3106H18.734V30.2726C18.734 30.3648 18.7482 30.4175 18.7909 30.4571C18.8193 30.4834 18.8904 30.4966 18.9898 30.4966C19.0182 30.4966 19.0608 30.4966 19.0892 30.4966C19.1176 30.4966 19.1461 30.4966 19.1745 30.4834V30.9051C19.1176 30.9183 19.075 30.9183 19.004 30.9183C18.9472 30.9183 18.8762 30.9183 18.8193 30.9183C18.734 30.9183 18.6346 30.9183 18.5636 30.9051C18.4784 30.8919 18.4073 30.8656 18.3504 30.8392C18.2936 30.8129 18.2368 30.7602 18.2084 30.6943C18.1658 30.6284 18.1516 30.5493 18.1516 30.4571V29.3106H17.7964V28.9548H18.1516V28.375H18.7482V28.9548H19.1745Z" fill="white"/>
<path d="M21.3467 30.4456C21.4319 30.5246 21.5598 30.5642 21.7303 30.5642C21.8439 30.5642 21.9576 30.5379 22.0428 30.4851C22.1281 30.4324 22.1849 30.3797 22.1991 30.3138H22.7248C22.6395 30.551 22.5117 30.7092 22.3412 30.8146C22.1707 30.92 21.9576 30.9595 21.7161 30.9595C21.5456 30.9595 21.3893 30.9331 21.2614 30.8805C21.1193 30.8277 21.0057 30.7618 20.9062 30.6696C20.8068 30.5774 20.7357 30.472 20.6931 30.3402C20.6363 30.2084 20.6221 30.0766 20.6221 29.9185C20.6221 29.7735 20.6505 29.6417 20.7073 29.51C20.7642 29.3782 20.8352 29.2728 20.9346 29.1806C21.0341 29.0883 21.1477 29.0224 21.2898 28.9697C21.4319 28.917 21.574 28.8906 21.7445 28.8906C21.9292 28.8906 22.0854 28.917 22.2275 28.9829C22.3696 29.0488 22.4833 29.1278 22.5685 29.2465C22.6537 29.3519 22.7248 29.4837 22.7532 29.6154C22.7958 29.7604 22.81 29.8922 22.7958 30.0502H21.233C21.2046 30.2348 21.2614 30.3665 21.3467 30.4456ZM22.0286 29.4178C21.9576 29.3519 21.8439 29.3123 21.7018 29.3123C21.6024 29.3123 21.5314 29.3255 21.4603 29.3519C21.4035 29.3782 21.3467 29.4178 21.304 29.4573C21.2614 29.4968 21.233 29.5495 21.2188 29.5891C21.2046 29.6417 21.1904 29.6813 21.1904 29.7208H22.1565C22.1423 29.5891 22.0997 29.4837 22.0286 29.4178Z" fill="white"/>
<path d="M28.0481 29.6523V30.114H26.7837V29.6523H28.0481Z" fill="white"/>
<path d="M33.3786 28.9548V29.3106H32.9381V30.2726C32.9381 30.3648 32.9524 30.4175 32.995 30.4571C33.0234 30.4834 33.0945 30.4966 33.1939 30.4966C33.2223 30.4966 33.2649 30.4966 33.2933 30.4966C33.3217 30.4966 33.3502 30.4966 33.3786 30.4834V30.9051C33.3217 30.9183 33.2791 30.9183 33.2081 30.9183C33.1513 30.9183 33.0803 30.9183 33.0234 30.9183C32.9381 30.9183 32.8387 30.9183 32.7677 30.9051C32.6825 30.8919 32.6114 30.8656 32.5545 30.8392C32.4977 30.8129 32.4409 30.7602 32.4125 30.6943C32.3699 30.6284 32.3557 30.5493 32.3557 30.4571V29.3106H32.0005V28.9548H32.3557V28.375H32.9524V28.9548H33.3786Z" fill="white"/>
<path d="M35.4799 28.9536V29.3226H35.4941C35.5225 29.2567 35.5651 29.204 35.6078 29.1513C35.6504 29.0986 35.7072 29.059 35.7783 29.0195C35.8351 28.98 35.9061 28.9536 35.9771 28.9404C36.0482 28.9141 36.1192 28.9141 36.1903 28.9141C36.2329 28.9141 36.2755 28.9141 36.3181 28.9273V29.428C36.2897 29.428 36.2613 29.4148 36.2187 29.4148C36.1761 29.4148 36.1477 29.4148 36.105 29.4148C35.9914 29.4148 35.9061 29.428 35.8351 29.4675C35.7641 29.4939 35.693 29.5466 35.6504 29.5993C35.6078 29.652 35.5651 29.7179 35.5509 29.797C35.5367 29.876 35.5225 29.9551 35.5225 30.0474V30.9302H34.9258V28.98H35.4799V28.9536Z" fill="white"/>
<path d="M37.7805 29.5598C37.7947 29.428 37.8232 29.3358 37.88 29.2435C37.9369 29.1645 38.0221 29.0986 38.1215 29.0458C38.221 28.9931 38.3205 28.9536 38.4483 28.9404C38.5762 28.9273 38.6899 28.9141 38.8035 28.9141C38.9171 28.9141 39.0166 28.9273 39.1303 28.9404C39.2439 28.9536 39.3434 28.98 39.4429 29.0195C39.5281 29.059 39.6133 29.1117 39.6701 29.1908C39.727 29.2699 39.7554 29.3621 39.7554 29.4807V30.4954C39.7554 30.5876 39.7554 30.6667 39.7696 30.7457C39.7838 30.8248 39.798 30.8907 39.8265 30.9302H39.2155C39.2013 30.9039 39.2013 30.8644 39.1871 30.838C39.1871 30.8116 39.1729 30.7721 39.1729 30.7457C39.0735 30.838 38.9598 30.8907 38.8319 30.9302C38.7041 30.9698 38.5762 30.9829 38.4341 30.9829C38.3347 30.9829 38.2352 30.9698 38.1499 30.9434C38.0647 30.9171 37.9795 30.8907 37.9085 30.838C37.8374 30.7853 37.7947 30.7326 37.7521 30.6535C37.7095 30.5744 37.6953 30.4954 37.6953 30.39C37.6953 30.2845 37.7237 30.1923 37.7663 30.1132C37.809 30.0474 37.8658 29.9815 37.9369 29.9419C38.0079 29.9024 38.0789 29.8629 38.1783 29.8497C38.2636 29.8233 38.3489 29.8102 38.4483 29.797C38.5335 29.7838 38.6188 29.7706 38.7183 29.7706C38.8035 29.7574 38.8887 29.7574 38.9455 29.7311C39.0166 29.7179 39.0593 29.6915 39.1019 29.6652C39.1445 29.6388 39.1587 29.5993 39.1587 29.5334C39.1587 29.4807 39.1445 29.428 39.1303 29.4017C39.1161 29.3753 39.0877 29.3358 39.045 29.3226C39.0166 29.3094 38.974 29.2962 38.9171 29.283C38.8603 29.2699 38.8177 29.2699 38.7751 29.2699C38.6614 29.2699 38.5619 29.2962 38.5051 29.3358C38.4341 29.3753 38.4057 29.4543 38.3915 29.5598H37.7805ZM39.1587 29.9551C39.1303 29.9815 39.1019 29.9946 39.0593 30.0078C39.0166 30.021 38.974 30.0342 38.9313 30.0342C38.8887 30.0474 38.8461 30.0474 38.7893 30.0474C38.7325 30.0474 38.6899 30.0605 38.6472 30.0605C38.6046 30.0737 38.5619 30.0737 38.5193 30.0869C38.4767 30.1 38.4341 30.1132 38.4057 30.1396C38.3773 30.1659 38.3489 30.1923 38.3347 30.2187C38.3205 30.245 38.3063 30.2977 38.3063 30.3372C38.3063 30.39 38.3205 30.4295 38.3347 30.4559C38.3489 30.4822 38.3773 30.5085 38.4199 30.5349C38.4483 30.5481 38.4909 30.5613 38.5335 30.5744C38.5762 30.5876 38.6188 30.5876 38.6757 30.5876C38.7893 30.5876 38.8887 30.5744 38.9455 30.5349C39.0166 30.4954 39.0593 30.4559 39.0877 30.4031C39.1161 30.3504 39.1303 30.3109 39.1445 30.2582C39.1445 30.2055 39.1587 30.1659 39.1587 30.1396V29.9551Z" fill="white"/>
<path d="M43.0132 30.6551C42.9422 30.7605 42.8569 30.8396 42.7432 30.8792C42.6296 30.9318 42.5017 30.945 42.3596 30.945C42.2034 30.945 42.0613 30.9187 41.9334 30.866C41.8056 30.8133 41.7061 30.7342 41.635 30.642C41.5498 30.5497 41.493 30.4311 41.4504 30.3125C41.4078 30.1807 41.3936 30.0621 41.3936 29.9172C41.3936 29.7854 41.4078 29.6536 41.4504 29.535C41.493 29.4165 41.5498 29.311 41.635 29.2188C41.7203 29.1265 41.8198 29.0475 41.9334 28.9947C42.047 28.9421 42.1892 28.9157 42.3596 28.9157C42.4875 28.9157 42.6154 28.9421 42.729 28.9947C42.8427 29.0475 42.9422 29.1134 42.999 29.2056H43.0132V28.2305H43.6099V30.9318H43.0416L43.0132 30.6551ZM42.999 29.6932C42.9848 29.6141 42.9564 29.5482 42.9137 29.4955C42.8711 29.4428 42.8142 29.3901 42.7574 29.3637C42.6864 29.3242 42.6154 29.311 42.5159 29.311C42.4164 29.311 42.3312 29.3242 42.2744 29.3637C42.2034 29.4032 42.1465 29.4428 42.1181 29.5087C42.0897 29.5746 42.047 29.6273 42.0328 29.7063C42.0186 29.7854 42.0044 29.8645 42.0044 29.9435C42.0044 30.0226 42.0186 30.0885 42.0328 30.1676C42.047 30.2466 42.0897 30.3125 42.1323 30.3652C42.175 30.4179 42.2318 30.4707 42.3028 30.5102C42.3738 30.5497 42.4449 30.5629 42.5444 30.5629C42.6438 30.5629 42.729 30.5497 42.7858 30.5102C42.8569 30.4707 42.8995 30.4311 42.9422 30.3652C42.9848 30.3125 43.0132 30.2335 43.0274 30.1676C43.0416 30.1017 43.0558 30.0094 43.0558 29.9304C43.0558 29.8513 43.0132 29.7722 42.999 29.6932Z" fill="white"/>
<path d="M45.9359 30.4456C46.0212 30.5246 46.149 30.5642 46.3195 30.5642C46.4332 30.5642 46.5468 30.5379 46.6321 30.4851C46.7173 30.4324 46.7742 30.3797 46.7884 30.3138H47.314C47.2288 30.551 47.101 30.7092 46.9304 30.8146C46.76 30.92 46.5468 30.9595 46.3053 30.9595C46.1348 30.9595 45.9786 30.9331 45.8507 30.8805C45.7086 30.8277 45.595 30.7618 45.5097 30.6696C45.4102 30.5774 45.3392 30.472 45.2966 30.3402C45.2398 30.2084 45.2256 30.0766 45.2256 29.9185C45.2256 29.7735 45.254 29.6417 45.3108 29.51C45.3676 29.3782 45.4387 29.2728 45.5381 29.1806C45.6376 29.0883 45.7512 29.0224 45.8933 28.9697C46.0354 28.917 46.1775 28.8906 46.348 28.8906C46.5326 28.8906 46.6889 28.917 46.831 28.9829C46.9731 29.0488 47.0867 29.1278 47.172 29.2465C47.2572 29.3519 47.3282 29.4837 47.3567 29.6154C47.3993 29.7604 47.4135 29.8922 47.3993 30.0502H45.8365C45.7938 30.2348 45.8365 30.3665 45.9359 30.4456ZM46.6037 29.4178C46.5326 29.3519 46.419 29.3123 46.2769 29.3123C46.1774 29.3123 46.1064 29.3255 46.0354 29.3519C45.9786 29.3782 45.9217 29.4178 45.8791 29.4573C45.8365 29.4968 45.8081 29.5495 45.7938 29.5891C45.7796 29.6417 45.7654 29.6813 45.7654 29.7208H46.7316C46.7316 29.5891 46.6747 29.4837 46.6037 29.4178Z" fill="white"/>
<path d="M52.6468 29.6523V30.114H51.3823V29.6523H52.6468Z" fill="white"/>
<path d="M57.8127 29.3114C57.7133 29.3114 57.6422 29.3245 57.5712 29.364C57.5002 29.4036 57.4576 29.4563 57.4149 29.509C57.3723 29.5749 57.3439 29.6408 57.3297 29.7067C57.3155 29.7725 57.3013 29.8517 57.3013 29.9307C57.3013 29.9966 57.3155 30.0756 57.3297 30.1415C57.3439 30.2074 57.3723 30.2865 57.4149 30.3392C57.4576 30.3919 57.5002 30.4446 57.5712 30.4841C57.6422 30.5237 57.7133 30.5369 57.8127 30.5369C57.9548 30.5369 58.0685 30.4974 58.1395 30.4315C58.2105 30.3656 58.2674 30.2602 58.2816 30.1415H58.8499C58.8073 30.4051 58.6936 30.6028 58.5089 30.7345C58.3242 30.8663 58.0827 30.9322 57.7985 30.9322C57.6422 30.9322 57.486 30.9059 57.3581 30.8531C57.216 30.8004 57.1024 30.7345 57.0171 30.6423C56.9177 30.55 56.8466 30.4446 56.7898 30.326C56.733 30.2074 56.7046 30.0756 56.7046 29.9175C56.7046 29.7725 56.733 29.6276 56.7756 29.4958C56.8182 29.364 56.9035 29.2586 56.9887 29.1664C57.0882 29.0742 57.2018 28.9951 57.3439 28.9424C57.486 28.8897 57.6422 28.8633 57.8127 28.8633C57.9406 28.8633 58.0685 28.8765 58.1821 28.9029C58.2958 28.9292 58.4094 28.9819 58.4947 29.0346C58.5941 29.1005 58.6652 29.1796 58.722 29.2586C58.7788 29.3377 58.8073 29.4563 58.8215 29.5881H58.239C58.2105 29.4168 58.0685 29.3114 57.8127 29.3114Z" fill="white"/>
<path d="M60.4603 29.5061C60.5171 29.3743 60.5881 29.2689 60.6876 29.1767C60.7871 29.0844 60.9007 29.0185 61.0428 28.9658C61.1849 28.9131 61.3269 28.8867 61.4974 28.8867C61.6679 28.8867 61.8242 28.9131 61.9663 28.9658C62.1083 29.0185 62.222 29.0844 62.3215 29.1767C62.4209 29.2689 62.4919 29.3743 62.5488 29.5061C62.6056 29.6378 62.634 29.7696 62.634 29.9278C62.634 30.0859 62.6056 30.2309 62.5488 30.3494C62.4919 30.4681 62.4209 30.5866 62.3215 30.6657C62.222 30.7579 62.1083 30.8238 61.9663 30.8766C61.8242 30.9292 61.6679 30.9424 61.4974 30.9424C61.3269 30.9424 61.1707 30.9161 61.0428 30.8766C60.9149 30.837 60.7871 30.7579 60.6876 30.6657C60.5881 30.5735 60.5171 30.4681 60.4603 30.3494C60.4035 30.2176 60.375 30.0859 60.375 29.9278C60.375 29.7696 60.4035 29.6378 60.4603 29.5061ZM61.0002 30.165C61.0144 30.244 61.0428 30.3099 61.0854 30.3626C61.128 30.4153 61.1849 30.4681 61.2417 30.5076C61.3127 30.5471 61.398 30.5603 61.4974 30.5603C61.5969 30.5603 61.6821 30.5471 61.7531 30.5076C61.8242 30.4681 61.881 30.4285 61.9236 30.3626C61.9663 30.3099 61.9947 30.2309 62.0089 30.165C62.0231 30.0991 62.0373 30.02 62.0373 29.9409C62.0373 29.8619 62.0231 29.7828 62.0089 29.7169C61.9947 29.651 61.9663 29.5719 61.9236 29.5193C61.881 29.4665 61.8242 29.4139 61.7531 29.3743C61.6821 29.3347 61.5969 29.3216 61.4974 29.3216C61.398 29.3216 61.3127 29.3347 61.2417 29.3743C61.1707 29.4139 61.1138 29.4534 61.0854 29.5193C61.0428 29.5719 61.0144 29.6378 61.0002 29.7169C60.9859 29.796 60.9717 29.875 60.9717 29.9409C60.9717 30.0068 60.9859 30.0859 61.0002 30.165Z" fill="white"/>
<path d="M64.8334 28.955V29.2317H64.8476C64.9187 29.1132 65.0181 29.0341 65.1459 28.9814C65.2596 28.9286 65.3875 28.9023 65.5153 28.9023C65.6716 28.9023 65.7995 28.9155 65.9131 28.955C66.0126 28.9945 66.0979 29.0473 66.1547 29.1132C66.2115 29.1791 66.2541 29.2713 66.2825 29.3635C66.3109 29.4689 66.3251 29.5743 66.3251 29.693V30.8921H65.7285V29.7852C65.7285 29.6271 65.7001 29.5085 65.6432 29.4294C65.5864 29.3504 65.4869 29.3108 65.3449 29.3108C65.1885 29.3108 65.0607 29.3504 64.9897 29.4426C64.9187 29.5348 64.876 29.6666 64.876 29.8774V30.9053H64.2793V28.955H64.8334Z" fill="white"/>
<path d="M68.5707 28.955V29.2317H68.585C68.656 29.1132 68.755 29.0341 68.8834 28.9814C68.9968 28.9286 69.1245 28.9023 69.2529 28.9023C69.4086 28.9023 69.537 28.9155 69.6504 28.955C69.7501 28.9945 69.8354 29.0473 69.8921 29.1132C69.9488 29.1791 69.9911 29.2713 70.0198 29.3635C70.0485 29.4689 70.0622 29.5743 70.0622 29.693V30.8921H69.466V29.7852C69.466 29.6271 69.4373 29.5085 69.3806 29.4294C69.3239 29.3504 69.2242 29.3108 69.0822 29.3108C68.9258 29.3108 68.7981 29.3504 68.727 29.4426C68.656 29.5348 68.613 29.6666 68.613 29.8774V30.9053H68.0166V28.955H68.5707Z" fill="white"/>
<path d="M72.3914 30.4456C72.4768 30.5246 72.6045 30.5642 72.7752 30.5642C72.8886 30.5642 73.0026 30.5379 73.0873 30.4851C73.1727 30.4324 73.2293 30.3797 73.2437 30.3138H73.7695C73.6842 30.551 73.5565 30.7092 73.3857 30.8146C73.2157 30.92 73.0026 30.9595 72.7609 30.9595C72.5901 30.9595 72.4337 30.9331 72.306 30.8805C72.164 30.8277 72.0506 30.7618 71.9653 30.6696C71.8655 30.5774 71.7945 30.472 71.7522 30.3402C71.6955 30.2084 71.6812 30.0766 71.6812 29.9185C71.6812 29.7735 71.7092 29.6417 71.7665 29.51C71.8232 29.3782 71.8942 29.2728 71.9939 29.1806C72.093 29.0883 72.207 29.0224 72.3491 28.9697C72.4911 28.917 72.6332 28.8906 72.8032 28.8906C72.9883 28.8906 73.1447 28.917 73.2867 28.9829C73.4288 29.0488 73.5421 29.1278 73.6275 29.2465C73.7129 29.3519 73.7839 29.4837 73.8119 29.6154C73.8549 29.7604 73.8693 29.8922 73.8549 30.0502H72.2917C72.2494 30.2348 72.2917 30.3665 72.3914 30.4456ZM73.0593 29.4178C72.9883 29.3519 72.8742 29.3123 72.7322 29.3123C72.6332 29.3123 72.5621 29.3255 72.4911 29.3519C72.4337 29.3782 72.3771 29.4178 72.3347 29.4573C72.2917 29.4968 72.2637 29.5495 72.2493 29.5891C72.235 29.6417 72.2207 29.6813 72.2207 29.7208H73.187C73.187 29.5891 73.1303 29.4837 73.0593 29.4178Z" fill="white"/>
<path d="M76.4546 29.3114C76.3549 29.3114 76.2838 29.3245 76.2128 29.364C76.1418 29.4036 76.0995 29.4563 76.0564 29.509C76.0141 29.5749 75.9854 29.6408 75.9711 29.7067C75.9574 29.7725 75.9431 29.8517 75.9431 29.9307C75.9431 29.9966 75.9574 30.0756 75.9711 30.1415C75.9854 30.2074 76.0141 30.2865 76.0564 30.3392C76.0995 30.3919 76.1418 30.4446 76.2128 30.4841C76.2838 30.5237 76.3549 30.5369 76.4546 30.5369C76.5966 30.5369 76.71 30.4974 76.781 30.4315C76.852 30.3656 76.9087 30.2602 76.9231 30.1415H77.4913C77.4489 30.4051 77.3356 30.6028 77.1505 30.7345C76.9661 30.8663 76.7243 30.9322 76.4402 30.9322C76.2838 30.9322 76.1275 30.9059 75.9998 30.8531C75.8577 30.8004 75.7443 30.7345 75.659 30.6423C75.5593 30.55 75.4882 30.4446 75.4316 30.326C75.3749 30.2074 75.3462 30.0756 75.3462 29.9175C75.3462 29.7725 75.3749 29.6276 75.4172 29.4958C75.4596 29.364 75.5449 29.2586 75.6303 29.1664C75.73 29.0742 75.8434 28.9951 75.9854 28.9424C76.1275 28.8897 76.2839 28.8633 76.4546 28.8633C76.5823 28.8633 76.71 28.8765 76.824 28.9029C76.9374 28.9292 77.0508 28.9819 77.1361 29.0346C77.2359 29.1005 77.3069 29.1796 77.3636 29.2586C77.4202 29.3377 77.4489 29.4563 77.4633 29.5881H76.8807C76.852 29.4168 76.71 29.3114 76.4546 29.3114Z" fill="white"/>
<path d="M80.2781 28.9548V29.3106H79.8376V30.2726C79.8376 30.3648 79.8519 30.4175 79.8949 30.4571C79.9373 30.4966 79.994 30.4966 80.0937 30.4966C80.1217 30.4966 80.1647 30.4966 80.1927 30.4966C80.2214 30.4966 80.2501 30.4966 80.2781 30.4834V30.9051C80.2214 30.9183 80.179 30.9183 80.108 30.9183C80.0506 30.9183 79.9796 30.9183 79.9229 30.9183C79.8376 30.9183 79.7385 30.9183 79.6675 30.9051C79.5821 30.8919 79.5111 30.8656 79.4544 30.8392C79.3971 30.8129 79.3404 30.7602 79.3124 30.6943C79.2694 30.6284 79.255 30.5493 79.255 30.4571V29.3106H78.8999V28.9548H79.255V28.375H79.8519V28.9548H80.2781Z" fill="white"/>
<path d="M4.43997 39.2487V37.6169H5.60095C6.58436 37.6169 7.1307 36.9353 7.1307 36.1366C7.1307 35.331 6.59119 34.6562 5.60095 34.6562H3.47021V39.2487H4.43997ZM5.47119 36.7562H4.43997V35.5169H5.47119C5.85363 35.5169 6.14046 35.751 6.14046 36.1366C6.14046 36.5153 5.85363 36.7562 5.47119 36.7562ZM9.12772 39.3313C10.2204 39.3313 10.876 38.5326 10.876 37.5825C10.876 36.6392 10.2204 35.8405 9.12772 35.8405C8.04186 35.8405 7.38625 36.6392 7.38625 37.5825C7.38625 38.5326 8.04186 39.3313 9.12772 39.3313ZM9.12772 38.5533C8.58821 38.5533 8.28772 38.1058 8.28772 37.5825C8.28772 37.0661 8.58821 36.6185 9.12772 36.6185C9.66723 36.6185 9.97455 37.0661 9.97455 37.5825C9.97455 38.1058 9.66723 38.5533 9.12772 38.5533ZM15.337 39.2487L16.3409 35.9231H15.4395L14.8248 38.1608L14.1009 35.9231H13.3292L12.6053 38.1608L11.9907 35.9231H11.0892L12.0931 39.2487H13.0219L13.7185 36.9835L14.4151 39.2487H15.337ZM18.3184 39.3313C18.8306 39.3313 19.3496 39.173 19.6774 38.87L19.295 38.3054C19.0833 38.512 18.694 38.6359 18.414 38.6359C17.854 38.6359 17.5194 38.2848 17.4648 37.8648H19.9165V37.672C19.9165 36.5841 19.2472 35.8405 18.2638 35.8405C17.2599 35.8405 16.5565 36.6185 16.5565 37.5825C16.5565 38.6497 17.3145 39.3313 18.3184 39.3313ZM19.0765 37.2726H17.4511C17.4921 36.9422 17.7243 36.5359 18.2638 36.5359C18.8374 36.5359 19.056 36.9559 19.0765 37.2726ZM21.4102 39.2487V37.0523C21.5536 36.8389 21.9361 36.6736 22.2229 36.6736C22.3185 36.6736 22.4005 36.6805 22.4619 36.6943V35.8405C22.0522 35.8405 21.6424 36.0815 21.4102 36.3776V35.9231H20.5429V39.2487H21.4102ZM24.5541 39.3313C25.0663 39.3313 25.5853 39.173 25.9131 38.87L25.5307 38.3054C25.319 38.512 24.9297 38.6359 24.6497 38.6359C24.0897 38.6359 23.7551 38.2848 23.7004 37.8648H26.1521V37.672C26.1521 36.5841 25.4829 35.8405 24.4994 35.8405C23.4955 35.8405 22.7921 36.6185 22.7921 37.5825C22.7921 38.6497 23.5502 39.3313 24.5541 39.3313ZM25.3121 37.2726H23.6868C23.7277 36.9422 23.9599 36.5359 24.4994 36.5359C25.0731 36.5359 25.2916 36.9559 25.3121 37.2726ZM29.9201 39.2487V34.6562H29.046V36.35C28.7864 36.0126 28.4177 35.8405 28.0284 35.8405C27.1884 35.8405 26.5669 36.5015 26.5669 37.5894C26.5669 38.6979 27.1952 39.3313 28.0284 39.3313C28.4245 39.3313 28.7864 39.1523 29.046 38.8218V39.2487H29.9201ZM28.2947 38.5533C27.803 38.5533 27.4616 38.1608 27.4616 37.5894C27.4616 37.011 27.803 36.6185 28.2947 36.6185C28.5884 36.6185 28.9025 36.7769 29.046 36.9972V38.1746C28.9025 38.3949 28.5884 38.5533 28.2947 38.5533ZM33.3948 38.1815V37.0041C33.5382 36.7838 33.8592 36.6185 34.1392 36.6185C34.6445 36.6185 34.9792 37.011 34.9792 37.5894C34.9792 38.1677 34.6445 38.5533 34.1392 38.5533C33.8592 38.5533 33.5382 38.3949 33.3948 38.1815ZM33.3948 39.2487V38.8218C33.6543 39.1523 34.0162 39.3313 34.4123 39.3313C35.2455 39.3313 35.8738 38.6979 35.8738 37.5894C35.8738 36.5015 35.2523 35.8405 34.4123 35.8405C34.0231 35.8405 33.6543 36.0126 33.3948 36.35V34.6562H32.5275V39.2487H33.3948ZM36.4129 40.55C36.5222 40.5776 36.7407 40.5982 36.8431 40.5982C37.41 40.5844 37.847 40.4192 38.0929 39.7926L39.6431 35.9231H38.7075L37.847 38.2366L36.9866 35.9231H36.0578L37.3963 39.2969L37.2734 39.5792C37.1914 39.7582 37.0412 39.8202 36.8158 39.8202C36.7339 39.8202 36.6178 39.7995 36.5426 39.7651L36.4129 40.55ZM46.7357 39.2487V34.6562H45.3699L44.2635 37.431L43.1572 34.6562H41.7982V39.2487H42.7679V36.0333L44.0518 39.2487H44.4753L45.7592 36.0333V39.2487H46.7357ZM50.8638 39.2487V38.3881H48.6101V37.3484H50.816V36.4877H48.6101V35.5169H50.8638V34.6562H47.6403V39.2487H50.8638ZM53.6502 39.2487V35.5169H54.9751V34.6562H51.3419V35.5169H52.6736V39.2487H53.6502ZM59.4044 39.2487L57.6493 34.6562H56.4336L54.6717 39.2487H55.778L56.0649 38.4707H58.018L58.298 39.2487H59.4044ZM57.7517 37.61H56.3312L57.0414 35.634L57.7517 37.61ZM63.5128 39.2487L62.4884 37.4999C62.9801 37.3828 63.4855 36.949 63.4855 36.1366C63.4855 35.2828 62.905 34.6562 61.9557 34.6562H59.825V39.2487H60.7947V37.6169H61.505L62.3996 39.2487H63.5128ZM61.8123 36.7562H60.7947V35.5169H61.8123C62.2016 35.5169 62.4952 35.751 62.4952 36.1366C62.4952 36.5222 62.2016 36.7562 61.8123 36.7562ZM66.269 39.3313C67.6553 39.3313 68.3245 38.5533 68.3245 37.4103V34.6562H67.3343V37.3828C67.3343 38.0231 66.9724 38.4638 66.269 38.4638C65.5655 38.4638 65.1968 38.0231 65.1968 37.3828V34.6562H64.2133V37.4172C64.2133 38.5464 64.8826 39.3313 66.269 39.3313ZM70.1916 39.2487V37.3484H72.3975V36.4877H70.1916V35.5169H72.4453V34.6562H69.2219V39.2487H70.1916ZM74.0932 39.2487V37.3484H76.299V36.4877H74.0932V35.5169H76.3468V34.6562H73.1234V39.2487H74.0932ZM79.265 39.2487V37.369L81.0064 34.6562H79.9001L78.7801 36.5015L77.6464 34.6562H76.5401L78.2952 37.369V39.2487H79.265Z" fill="#EFC74D"/>
<defs>
<linearGradient id="paint0_linear_3914_86328" x1="38.7782" y1="3.9861" x2="42.8164" y2="20.6484" gradientUnits="userSpaceOnUse">
<stop stop-color="#FFF33B"/>
<stop offset="0.053592" stop-color="#FDE23B"/>
<stop offset="0.2252" stop-color="#F7B03B"/>
<stop offset="0.3951" stop-color="#F2873A"/>
<stop offset="0.5602" stop-color="#EE673A"/>
<stop offset="0.7189" stop-color="#EB503A"/>
<stop offset="0.8686" stop-color="#EA433A"/>
<stop offset="1" stop-color="#E93E3A"/>
</linearGradient>
<linearGradient id="paint1_linear_3914_86328" x1="37.5525" y1="4.28569" x2="41.5907" y2="20.948" gradientUnits="userSpaceOnUse">
<stop stop-color="#FFF33B"/>
<stop offset="0.053592" stop-color="#FDE23B"/>
<stop offset="0.2252" stop-color="#F7B03B"/>
<stop offset="0.3951" stop-color="#F2873A"/>
<stop offset="0.5602" stop-color="#EE673A"/>
<stop offset="0.7189" stop-color="#EB503A"/>
<stop offset="0.8686" stop-color="#EA433A"/>
<stop offset="1" stop-color="#E93E3A"/>
</linearGradient>
<linearGradient id="paint2_linear_3914_86328" x1="36.4233" y1="4.54638" x2="40.4991" y2="21.2814" gradientUnits="userSpaceOnUse">
<stop stop-color="#FFF33B"/>
<stop offset="0.053592" stop-color="#FDE23B"/>
<stop offset="0.2252" stop-color="#F7B03B"/>
<stop offset="0.3951" stop-color="#F2873A"/>
<stop offset="0.5602" stop-color="#EE673A"/>
<stop offset="0.7189" stop-color="#EB503A"/>
<stop offset="0.8686" stop-color="#EA433A"/>
<stop offset="1" stop-color="#E93E3A"/>
</linearGradient>
<linearGradient id="paint3_linear_3914_86328" x1="36.2302" y1="4.61984" x2="40.2274" y2="21.1309" gradientUnits="userSpaceOnUse">
<stop stop-color="#FFF33B"/>
<stop offset="0.053592" stop-color="#FDE23B"/>
<stop offset="0.2252" stop-color="#F7B03B"/>
<stop offset="0.3951" stop-color="#F2873A"/>
<stop offset="0.5602" stop-color="#EE673A"/>
<stop offset="0.7189" stop-color="#EB503A"/>
<stop offset="0.8686" stop-color="#EA433A"/>
<stop offset="1" stop-color="#E93E3A"/>
</linearGradient>
<linearGradient id="paint4_linear_3914_86328" x1="38.1378" y1="4.12926" x2="42.2134" y2="20.8643" gradientUnits="userSpaceOnUse">
<stop stop-color="#FFF33B"/>
<stop offset="0.053592" stop-color="#FDE23B"/>
<stop offset="0.2252" stop-color="#F7B03B"/>
<stop offset="0.3951" stop-color="#F2873A"/>
<stop offset="0.5602" stop-color="#EE673A"/>
<stop offset="0.7189" stop-color="#EB503A"/>
<stop offset="0.8686" stop-color="#EA433A"/>
<stop offset="1" stop-color="#E93E3A"/>
</linearGradient>
<linearGradient id="paint5_linear_3914_86328" x1="39.1113" y1="3.91857" x2="43.0796" y2="20.4445" gradientUnits="userSpaceOnUse">
<stop stop-color="#FFF33B"/>
<stop offset="0.053592" stop-color="#FDE23B"/>
<stop offset="0.2252" stop-color="#F7B03B"/>
<stop offset="0.3951" stop-color="#F2873A"/>
<stop offset="0.5602" stop-color="#EE673A"/>
<stop offset="0.7189" stop-color="#EB503A"/>
<stop offset="0.8686" stop-color="#EA433A"/>
<stop offset="1" stop-color="#E93E3A"/>
</linearGradient>
<linearGradient id="paint6_linear_3914_86328" x1="37.2509" y1="4.34335" x2="41.3296" y2="21.0843" gradientUnits="userSpaceOnUse">
<stop stop-color="#FFF33B"/>
<stop offset="0.053592" stop-color="#FDE23B"/>
<stop offset="0.2252" stop-color="#F7B03B"/>
<stop offset="0.3951" stop-color="#F2873A"/>
<stop offset="0.5602" stop-color="#EE673A"/>
<stop offset="0.7189" stop-color="#EB503A"/>
<stop offset="0.8686" stop-color="#EA433A"/>
<stop offset="1" stop-color="#E93E3A"/>
</linearGradient>
<linearGradient id="paint7_linear_3914_86328" x1="41.3544" y1="3.35597" x2="45.4301" y2="20.091" gradientUnits="userSpaceOnUse">
<stop stop-color="#FFF33B"/>
<stop offset="0.053592" stop-color="#FDE23B"/>
<stop offset="0.2252" stop-color="#F7B03B"/>
<stop offset="0.3951" stop-color="#F2873A"/>
<stop offset="0.5602" stop-color="#EE673A"/>
<stop offset="0.7189" stop-color="#EB503A"/>
<stop offset="0.8686" stop-color="#EA433A"/>
<stop offset="1" stop-color="#E93E3A"/>
</linearGradient>
<linearGradient id="paint8_linear_3914_86328" x1="36.751" y1="4.49779" x2="40.7483" y2="21.0089" gradientUnits="userSpaceOnUse">
<stop stop-color="#FFF33B"/>
<stop offset="0.053592" stop-color="#FDE23B"/>
<stop offset="0.2252" stop-color="#F7B03B"/>
<stop offset="0.3951" stop-color="#F2873A"/>
<stop offset="0.5602" stop-color="#EE673A"/>
<stop offset="0.7189" stop-color="#EB503A"/>
<stop offset="0.8686" stop-color="#EA433A"/>
<stop offset="1" stop-color="#E93E3A"/>
</linearGradient>
<linearGradient id="paint9_linear_3914_86328" x1="36.81" y1="4.44378" x2="40.9461" y2="21.2216" gradientUnits="userSpaceOnUse">
<stop stop-color="#FFF33B"/>
<stop offset="0.053592" stop-color="#FDE23B"/>
<stop offset="0.2252" stop-color="#F7B03B"/>
<stop offset="0.3951" stop-color="#F2873A"/>
<stop offset="0.5602" stop-color="#EE673A"/>
<stop offset="0.7189" stop-color="#EB503A"/>
<stop offset="0.8686" stop-color="#EA433A"/>
<stop offset="1" stop-color="#E93E3A"/>
</linearGradient>
<linearGradient id="paint10_linear_3914_86328" x1="41.9312" y1="3.22119" x2="45.9583" y2="19.862" gradientUnits="userSpaceOnUse">
<stop stop-color="#FFF33B"/>
<stop offset="0.053592" stop-color="#FDE23B"/>
<stop offset="0.2252" stop-color="#F7B03B"/>
<stop offset="0.3951" stop-color="#F2873A"/>
<stop offset="0.5602" stop-color="#EE673A"/>
<stop offset="0.7189" stop-color="#EB503A"/>
<stop offset="0.8686" stop-color="#EA433A"/>
<stop offset="1" stop-color="#E93E3A"/>
</linearGradient>
<linearGradient id="paint11_linear_3914_86328" x1="30.5909" y1="19.9408" x2="31.8128" y2="2.89116" gradientUnits="userSpaceOnUse">
<stop stop-color="#662D91"/>
<stop offset="0.0940942" stop-color="#7C2D8D"/>
<stop offset="0.2912" stop-color="#A52C87"/>
<stop offset="0.4845" stop-color="#C52B82"/>
<stop offset="0.6705" stop-color="#DC2A7E"/>
<stop offset="0.846" stop-color="#E92A7C"/>
<stop offset="1" stop-color="#EE2A7B"/>
</linearGradient>
<linearGradient id="paint12_linear_3914_86328" x1="29.0163" y1="19.829" x2="30.2382" y2="2.77927" gradientUnits="userSpaceOnUse">
<stop stop-color="#662D91"/>
<stop offset="0.0940942" stop-color="#7C2D8D"/>
<stop offset="0.2912" stop-color="#A52C87"/>
<stop offset="0.4845" stop-color="#C52B82"/>
<stop offset="0.6705" stop-color="#DC2A7E"/>
<stop offset="0.846" stop-color="#E92A7C"/>
<stop offset="1" stop-color="#EE2A7B"/>
</linearGradient>
<linearGradient id="paint13_linear_3914_86328" x1="27.2575" y1="19.8408" x2="28.5011" y2="2.64156" gradientUnits="userSpaceOnUse">
<stop stop-color="#662D91"/>
<stop offset="0.0940942" stop-color="#7C2D8D"/>
<stop offset="0.2912" stop-color="#A52C87"/>
<stop offset="0.4845" stop-color="#C52B82"/>
<stop offset="0.6705" stop-color="#DC2A7E"/>
<stop offset="0.846" stop-color="#E92A7C"/>
<stop offset="1" stop-color="#EE2A7B"/>
</linearGradient>
<linearGradient id="paint14_linear_3914_86328" x1="26.952" y1="19.5333" x2="28.1518" y2="2.63864" gradientUnits="userSpaceOnUse">
<stop stop-color="#662D91"/>
<stop offset="0.0940942" stop-color="#7C2D8D"/>
<stop offset="0.2912" stop-color="#A52C87"/>
<stop offset="0.4845" stop-color="#C52B82"/>
<stop offset="0.6705" stop-color="#DC2A7E"/>
<stop offset="0.846" stop-color="#E92A7C"/>
<stop offset="1" stop-color="#EE2A7B"/>
</linearGradient>
<linearGradient id="paint15_linear_3914_86328" x1="22.5522" y1="19.4826" x2="23.7958" y2="2.28323" gradientUnits="userSpaceOnUse">
<stop stop-color="#662D91"/>
<stop offset="0.0940942" stop-color="#7C2D8D"/>
<stop offset="0.2912" stop-color="#A52C87"/>
<stop offset="0.4845" stop-color="#C52B82"/>
<stop offset="0.6705" stop-color="#DC2A7E"/>
<stop offset="0.846" stop-color="#E92A7C"/>
<stop offset="1" stop-color="#EE2A7B"/>
</linearGradient>
<linearGradient id="paint16_linear_3914_86328" x1="28.344" y1="19.6363" x2="29.5437" y2="2.7417" gradientUnits="userSpaceOnUse">
<stop stop-color="#662D91"/>
<stop offset="0.0940942" stop-color="#7C2D8D"/>
<stop offset="0.2912" stop-color="#A52C87"/>
<stop offset="0.4845" stop-color="#C52B82"/>
<stop offset="0.6705" stop-color="#DC2A7E"/>
<stop offset="0.846" stop-color="#E92A7C"/>
<stop offset="1" stop-color="#EE2A7B"/>
</linearGradient>
<linearGradient id="paint17_linear_3914_86328" x1="28.9069" y1="19.945" x2="30.1505" y2="2.74554" gradientUnits="userSpaceOnUse">
<stop stop-color="#662D91"/>
<stop offset="0.0940942" stop-color="#7C2D8D"/>
<stop offset="0.2912" stop-color="#A52C87"/>
<stop offset="0.4845" stop-color="#C52B82"/>
<stop offset="0.6705" stop-color="#DC2A7E"/>
<stop offset="0.846" stop-color="#E92A7C"/>
<stop offset="1" stop-color="#EE2A7B"/>
</linearGradient>
<linearGradient id="paint18_linear_3914_86328" x1="30.7023" y1="20.0708" x2="31.9459" y2="2.87151" gradientUnits="userSpaceOnUse">
<stop stop-color="#662D91"/>
<stop offset="0.0940942" stop-color="#7C2D8D"/>
<stop offset="0.2912" stop-color="#A52C87"/>
<stop offset="0.4845" stop-color="#C52B82"/>
<stop offset="0.6705" stop-color="#DC2A7E"/>
<stop offset="0.846" stop-color="#E92A7C"/>
<stop offset="1" stop-color="#EE2A7B"/>
</linearGradient>
<linearGradient id="paint19_linear_3914_86328" x1="33.4059" y1="20.1428" x2="34.6278" y2="3.09307" gradientUnits="userSpaceOnUse">
<stop stop-color="#662D91"/>
<stop offset="0.0940942" stop-color="#7C2D8D"/>
<stop offset="0.2912" stop-color="#A52C87"/>
<stop offset="0.4845" stop-color="#C52B82"/>
<stop offset="0.6705" stop-color="#DC2A7E"/>
<stop offset="0.846" stop-color="#E92A7C"/>
<stop offset="1" stop-color="#EE2A7B"/>
</linearGradient>
<linearGradient id="paint20_linear_3914_86328" x1="27.1113" y1="23.647" x2="27.1113" y2="3.60585" gradientUnits="userSpaceOnUse">
<stop stop-color="#00AEEF"/>
<stop offset="0.0150842" stop-color="#01ABEC"/>
<stop offset="0.2295" stop-color="#1082CB"/>
<stop offset="0.4396" stop-color="#1C62B2"/>
<stop offset="0.6418" stop-color="#244B9F"/>
<stop offset="0.8325" stop-color="#293E94"/>
<stop offset="1" stop-color="#2B3990"/>
</linearGradient>
<linearGradient id="paint21_linear_3914_86328" x1="33.9176" y1="20.1897" x2="35.1419" y2="3.12355" gradientUnits="userSpaceOnUse">
<stop stop-color="#662D91"/>
<stop offset="0.0940942" stop-color="#7C2D8D"/>
<stop offset="0.2912" stop-color="#A52C87"/>
<stop offset="0.4845" stop-color="#C52B82"/>
<stop offset="0.6705" stop-color="#DC2A7E"/>
<stop offset="0.846" stop-color="#E92A7C"/>
<stop offset="1" stop-color="#EE2A7B"/>
</linearGradient>
<linearGradient id="paint22_linear_3914_86328" x1="31.5962" y1="20.0129" x2="32.8181" y2="2.96324" gradientUnits="userSpaceOnUse">
<stop stop-color="#662D91"/>
<stop offset="0.0940942" stop-color="#7C2D8D"/>
<stop offset="0.2912" stop-color="#A52C87"/>
<stop offset="0.4845" stop-color="#C52B82"/>
<stop offset="0.6705" stop-color="#DC2A7E"/>
<stop offset="0.846" stop-color="#E92A7C"/>
<stop offset="1" stop-color="#EE2A7B"/>
</linearGradient>
<linearGradient id="paint23_linear_3914_86328" x1="27.5978" y1="19.4078" x2="28.7696" y2="2.70969" gradientUnits="userSpaceOnUse">
<stop stop-color="#662D91"/>
<stop offset="0.0940942" stop-color="#7C2D8D"/>
<stop offset="0.2912" stop-color="#A52C87"/>
<stop offset="0.4845" stop-color="#C52B82"/>
<stop offset="0.6705" stop-color="#DC2A7E"/>
<stop offset="0.846" stop-color="#E92A7C"/>
<stop offset="1" stop-color="#EE2A7B"/>
</linearGradient>
<linearGradient id="paint24_linear_3914_86328" x1="27.7569" y1="19.5948" x2="28.9566" y2="2.70027" gradientUnits="userSpaceOnUse">
<stop stop-color="#662D91"/>
<stop offset="0.0940942" stop-color="#7C2D8D"/>
<stop offset="0.2912" stop-color="#A52C87"/>
<stop offset="0.4845" stop-color="#C52B82"/>
<stop offset="0.6705" stop-color="#DC2A7E"/>
<stop offset="0.846" stop-color="#E92A7C"/>
<stop offset="1" stop-color="#EE2A7B"/>
</linearGradient>
<linearGradient id="paint25_linear_3914_86328" x1="38.0603" y1="22.6929" x2="43.9285" y2="21.827" gradientUnits="userSpaceOnUse">
<stop stop-color="#006838"/>
<stop offset="0.1509" stop-color="#056B38"/>
<stop offset="0.3229" stop-color="#127439"/>
<stop offset="0.5051" stop-color="#29843A"/>
<stop offset="0.6947" stop-color="#49993C"/>
<stop offset="0.8878" stop-color="#72B43E"/>
<stop offset="1" stop-color="#8DC63F"/>
</linearGradient>
<linearGradient id="paint26_linear_3914_86328" x1="37.7021" y1="20.3043" x2="43.569" y2="19.4343" gradientUnits="userSpaceOnUse">
<stop stop-color="#006838"/>
<stop offset="0.1509" stop-color="#056B38"/>
<stop offset="0.3229" stop-color="#127439"/>
<stop offset="0.5051" stop-color="#29843A"/>
<stop offset="0.6947" stop-color="#49993C"/>
<stop offset="0.8878" stop-color="#72B43E"/>
<stop offset="1" stop-color="#8DC63F"/>
</linearGradient>
<linearGradient id="paint27_linear_3914_86328" x1="37.8673" y1="21.3944" x2="43.7343" y2="20.5244" gradientUnits="userSpaceOnUse">
<stop stop-color="#006838"/>
<stop offset="0.1509" stop-color="#056B38"/>
<stop offset="0.3229" stop-color="#127439"/>
<stop offset="0.5051" stop-color="#29843A"/>
<stop offset="0.6947" stop-color="#49993C"/>
<stop offset="0.8878" stop-color="#72B43E"/>
<stop offset="1" stop-color="#8DC63F"/>
</linearGradient>
<linearGradient id="paint28_linear_3914_86328" x1="38.032" y1="22.4818" x2="43.8989" y2="21.6118" gradientUnits="userSpaceOnUse">
<stop stop-color="#006838"/>
<stop offset="0.1509" stop-color="#056B38"/>
<stop offset="0.3229" stop-color="#127439"/>
<stop offset="0.5051" stop-color="#29843A"/>
<stop offset="0.6947" stop-color="#49993C"/>
<stop offset="0.8878" stop-color="#72B43E"/>
<stop offset="1" stop-color="#8DC63F"/>
</linearGradient>
<linearGradient id="paint29_linear_3914_86328" x1="37.9982" y1="22.2773" x2="43.8651" y2="21.4072" gradientUnits="userSpaceOnUse">
<stop stop-color="#006838"/>
<stop offset="0.1509" stop-color="#056B38"/>
<stop offset="0.3229" stop-color="#127439"/>
<stop offset="0.5051" stop-color="#29843A"/>
<stop offset="0.6947" stop-color="#49993C"/>
<stop offset="0.8878" stop-color="#72B43E"/>
<stop offset="1" stop-color="#8DC63F"/>
</linearGradient>
<linearGradient id="paint30_linear_3914_86328" x1="37.9387" y1="21.8521" x2="43.8079" y2="20.9895" gradientUnits="userSpaceOnUse">
<stop stop-color="#006838"/>
<stop offset="0.1509" stop-color="#056B38"/>
<stop offset="0.3229" stop-color="#127439"/>
<stop offset="0.5051" stop-color="#29843A"/>
<stop offset="0.6947" stop-color="#49993C"/>
<stop offset="0.8878" stop-color="#72B43E"/>
<stop offset="1" stop-color="#8DC63F"/>
</linearGradient>
<linearGradient id="paint31_linear_3914_86328" x1="24.8555" y1="23.6608" x2="24.8555" y2="3.43107" gradientUnits="userSpaceOnUse">
<stop stop-color="#00AEEF"/>
<stop offset="0.0150842" stop-color="#01ABEC"/>
<stop offset="0.2295" stop-color="#1082CB"/>
<stop offset="0.4396" stop-color="#1C62B2"/>
<stop offset="0.6418" stop-color="#244B9F"/>
<stop offset="0.8325" stop-color="#293E94"/>
<stop offset="1" stop-color="#2B3990"/>
</linearGradient>
<linearGradient id="paint32_linear_3914_86328" x1="26.4561" y1="27.3843" x2="21.009" y2="4.2047" gradientUnits="userSpaceOnUse">
<stop stop-color="#00AEEF"/>
<stop offset="0.0150842" stop-color="#01ABEC"/>
<stop offset="0.2295" stop-color="#1082CB"/>
<stop offset="0.4396" stop-color="#1C62B2"/>
<stop offset="0.6418" stop-color="#244B9F"/>
<stop offset="0.8325" stop-color="#293E94"/>
<stop offset="1" stop-color="#2B3990"/>
</linearGradient>
<linearGradient id="paint33_linear_3914_86328" x1="42.8726" y1="2.99498" x2="46.9108" y2="19.6573" gradientUnits="userSpaceOnUse">
<stop stop-color="#FFF33B"/>
<stop offset="0.053592" stop-color="#FDE23B"/>
<stop offset="0.2252" stop-color="#F7B03B"/>
<stop offset="0.3951" stop-color="#F2873A"/>
<stop offset="0.5602" stop-color="#EE673A"/>
<stop offset="0.7189" stop-color="#EB503A"/>
<stop offset="0.8686" stop-color="#EA433A"/>
<stop offset="1" stop-color="#E93E3A"/>
</linearGradient>
<linearGradient id="paint34_linear_3914_86328" x1="41.8013" y1="3.25346" x2="45.8395" y2="19.9158" gradientUnits="userSpaceOnUse">
<stop stop-color="#FFF33B"/>
<stop offset="0.053592" stop-color="#FDE23B"/>
<stop offset="0.2252" stop-color="#F7B03B"/>
<stop offset="0.3951" stop-color="#F2873A"/>
<stop offset="0.5602" stop-color="#EE673A"/>
<stop offset="0.7189" stop-color="#EB503A"/>
<stop offset="0.8686" stop-color="#EA433A"/>
<stop offset="1" stop-color="#E93E3A"/>
</linearGradient>
<linearGradient id="paint35_linear_3914_86328" x1="48.7588" y1="27.5497" x2="47.9497" y2="20.3317" gradientUnits="userSpaceOnUse">
<stop stop-color="#FFF33B"/>
<stop offset="0.0438805" stop-color="#FDE23B"/>
<stop offset="0.1844" stop-color="#F7B03B"/>
<stop offset="0.3235" stop-color="#F2873A"/>
<stop offset="0.4587" stop-color="#EE673A"/>
<stop offset="0.5886" stop-color="#EB503A"/>
<stop offset="0.7112" stop-color="#EA433A"/>
<stop offset="0.8188" stop-color="#E93E3A"/>
</linearGradient>
<linearGradient id="paint36_linear_3914_86328" x1="52.0056" y1="23.6575" x2="52.0056" y2="3.42782" gradientUnits="userSpaceOnUse">
<stop stop-color="#00AEEF"/>
<stop offset="0.0150842" stop-color="#01ABEC"/>
<stop offset="0.2295" stop-color="#1082CB"/>
<stop offset="0.4396" stop-color="#1C62B2"/>
<stop offset="0.6418" stop-color="#244B9F"/>
<stop offset="0.8325" stop-color="#293E94"/>
<stop offset="1" stop-color="#2B3990"/>
</linearGradient>
</defs>
</svg>
