<svg width="24" height="17" viewBox="0 0 24 17" fill="none" xmlns="http://www.w3.org/2000/svg">
<path d="M15.5528 9.43408L13.5427 11.451C12.7275 12.269 11.2933 12.2866 10.4605 11.451L8.45029 9.43408L1.23047 16.6773C1.49922 16.8016 1.79553 16.8758 2.11054 16.8758H21.8927C22.2077 16.8758 22.5039 16.8017 22.7726 16.6774L15.5528 9.43408Z" fill="white"/>
<path d="M21.8926 0H2.11045C1.79543 0 1.49912 0.0741596 1.23047 0.198431L8.94536 7.93892C8.94588 7.93943 8.94649 7.93953 8.947 7.94004C8.94752 7.94056 8.94761 7.94126 8.94761 7.94126L11.4561 10.4581C11.7226 10.7245 12.2805 10.7245 12.547 10.4581L15.055 7.94168C15.055 7.94168 15.0556 7.94056 15.0561 7.94004C15.0561 7.94004 15.0572 7.93943 15.0578 7.93892L22.7725 0.198384C22.5038 0.0740659 22.2076 0 21.8926 0Z" fill="white"/>
<path d="M0.224354 1.18164C0.0853163 1.46281 0 1.77492 0 2.10924V14.7661C0 15.1004 0.0852226 15.4125 0.224307 15.6937L7.45665 8.43789L0.224354 1.18164Z" fill="white"/>
<path d="M23.7752 1.18164L16.543 8.43798L23.7752 15.6939C23.9142 15.4127 23.9996 15.1006 23.9996 14.7662V2.10934C23.9996 1.77492 23.9142 1.46281 23.7752 1.18164Z" fill="white"/>
</svg>
