<svg width="556" height="533" viewBox="0 0 556 533" fill="none" xmlns="http://www.w3.org/2000/svg">
<path d="M311.611 30.9686L365.02 139.114C370.545 150.174 381.288 157.855 393.566 159.699L512.662 176.904C543.664 181.512 555.942 219.609 533.535 241.422L447.282 325.604C438.381 334.206 434.39 346.803 436.539 359.092L456.798 477.683C462.016 508.406 429.786 532.063 402.161 517.623L295.65 461.707C284.599 455.87 271.401 455.87 260.657 461.707L153.839 517.623C126.214 532.063 93.6774 508.714 99.2024 477.683L119.461 359.092C121.61 346.803 117.619 334.206 108.718 325.604L22.4653 241.422C0.0580587 219.609 12.3361 181.512 43.3379 176.904L162.434 159.699C174.712 157.855 185.455 150.174 190.98 139.114L244.389 30.9686C257.895 3.01048 297.798 3.01048 311.611 30.9686Z" fill="black" stroke="#45A3DB" stroke-width="20" stroke-miterlimit="10"/>
<path d="M276.022 103.597C277.864 105.441 278.171 105.441 280.319 103.597L297.508 81.7837C299.35 79.3259 300.271 76.868 300.271 73.4885C300.271 67.0366 295.667 61.1992 289.221 61.1992C284.617 61.1992 280.933 63.9643 278.171 67.3438C275.408 63.6571 271.725 61.1992 267.12 61.1992C260.675 61.1992 256.07 67.0366 256.07 73.4885C256.07 76.868 257.298 79.3259 258.833 81.7837L276.022 103.597Z" fill="white"/>
<path d="M212.489 169.335L229.678 147.522C231.52 145.064 232.441 142.606 232.441 139.227C232.441 132.775 227.837 126.938 221.391 126.938C220.47 126.938 219.856 126.937 218.935 127.245L203.588 158.275C202.974 159.504 202.36 160.426 201.746 161.347L208.192 169.335C210.341 171.179 210.648 171.179 212.489 169.335Z" fill="white"/>
<path d="M296.893 133.082H292.289L290.754 130.01C289.834 128.166 289.22 126.938 287.685 126.938H268.961C267.119 126.938 266.812 128.474 265.892 130.01L264.357 133.082H259.446C256.069 133.082 253.307 135.847 253.307 139.227V164.42C253.307 167.799 256.069 170.564 259.446 170.564H296.893C300.27 170.564 303.032 167.799 303.032 164.42V139.227C303.339 136.154 300.577 133.082 296.893 133.082ZM278.169 164.42C271.11 164.42 265.585 158.89 265.585 151.823C265.585 144.757 271.11 139.227 278.169 139.227C285.229 139.227 290.754 144.757 290.754 151.823C290.754 158.89 285.229 164.42 278.169 164.42Z" fill="white"/>
<path d="M278.165 142.609C272.947 142.609 268.649 146.911 268.649 152.134C268.649 157.356 272.947 161.658 278.165 161.658C283.383 161.658 287.68 157.356 287.68 152.134C287.68 146.911 283.383 142.609 278.165 142.609Z" fill="white"/>
<path d="M324.836 139.237C324.529 139.545 324.222 140.159 324.222 140.773V157.057C324.222 157.671 324.529 158.286 324.836 158.593L336.5 170.268C336.807 170.575 337.42 170.882 338.034 170.882H354.303C354.916 170.882 355.53 170.575 355.837 170.268L358.6 167.503C355.837 165.045 353.689 161.972 351.847 158.286L336.807 127.562L336.5 127.87L324.836 139.237Z" fill="white"/>
<path d="M53.8102 224.34L65.4742 236.015C65.7812 236.322 66.3951 236.629 67.009 236.629H83.2773C83.8912 236.629 84.5051 236.322 84.812 236.015L96.4761 224.34C96.783 224.033 97.09 223.418 97.09 222.804V206.521C97.09 205.906 96.783 205.292 96.4761 204.985L84.812 193.31C84.5051 193.003 83.8912 192.695 83.2773 192.695H70.3854C62.0978 196.382 56.2658 202.834 53.1963 210.822V222.804C53.1963 223.418 53.1963 224.033 53.8102 224.34Z" fill="white"/>
<path d="M140.664 235.093C142.505 236.937 142.812 236.937 144.961 235.093L162.15 213.28C163.992 210.822 164.913 208.364 164.913 204.985C164.913 198.533 160.308 192.695 153.862 192.695C149.258 192.695 145.575 195.46 142.812 198.84C140.05 195.153 136.366 192.695 131.762 192.695C125.316 192.695 120.712 198.533 120.712 204.985C120.712 208.364 121.94 210.822 123.475 213.28L140.664 235.093Z" fill="white"/>
<path d="M229.368 198.84H224.764L223.229 195.768C222.308 193.924 221.694 192.695 220.16 192.695H201.129C199.287 192.695 198.98 194.231 198.059 195.768L196.524 198.84H191.92C188.544 198.84 185.781 201.605 185.781 204.985V230.178C185.781 233.557 188.544 236.322 191.92 236.322H229.368C232.744 236.322 235.507 233.557 235.507 230.178V204.985C235.507 201.912 232.744 198.84 229.368 198.84ZM210.337 230.178C203.277 230.178 197.752 224.647 197.752 217.581C197.752 210.515 203.277 204.985 210.337 204.985C217.397 204.985 222.922 210.515 222.922 217.581C222.922 224.647 217.397 230.178 210.337 230.178Z" fill="white"/>
<path d="M210.33 227.103C205.112 227.103 200.814 222.802 200.814 217.579C200.814 212.356 205.112 208.055 210.33 208.055C215.548 208.055 219.845 212.356 219.845 217.579C219.845 222.802 215.548 227.103 210.33 227.103Z" fill="white"/>
<path d="M210.33 208.367C205.112 208.367 200.814 212.668 200.814 217.891C200.814 223.114 205.112 227.416 210.33 227.416C215.548 227.416 219.845 223.114 219.845 217.891C219.845 212.668 215.548 208.367 210.33 208.367Z" fill="white"/>
<path d="M270.193 236.629H286.461C287.075 236.629 287.689 236.322 287.996 236.015L299.66 224.34C299.967 224.033 300.273 223.418 300.273 222.804V206.521C300.273 205.906 299.967 205.292 299.66 204.985L287.996 193.31C287.689 193.003 287.075 192.695 286.461 192.695H270.193C269.579 192.695 268.965 193.003 268.658 193.31L256.994 204.985C256.687 205.292 256.38 205.906 256.38 206.521V222.804C256.38 223.418 256.687 224.033 256.994 224.34L268.658 236.015C268.965 236.322 269.579 236.629 270.193 236.629Z" fill="white"/>
<path d="M343.855 235.093C345.697 236.937 346.004 236.937 348.152 235.093L365.341 213.28C367.183 210.822 368.104 208.364 368.104 204.985C368.104 198.533 363.5 192.695 357.054 192.695C352.45 192.695 348.766 195.46 346.004 198.84C343.241 195.153 339.558 192.695 334.953 192.695C328.508 192.695 323.903 198.533 323.903 204.985C323.903 208.364 325.131 210.822 326.666 213.28L343.855 235.093Z" fill="white"/>
<path d="M413.858 208.367C408.64 208.367 404.343 212.668 404.343 217.891C404.343 223.114 408.64 227.416 413.858 227.416C419.076 227.416 423.374 223.114 423.374 217.891C423.374 212.668 419.076 208.367 413.858 208.367Z" fill="white"/>
<path d="M432.589 198.84H427.985L426.45 195.768C425.53 193.924 424.916 192.695 423.381 192.695H404.657C402.815 192.695 402.508 194.231 401.588 195.768L400.053 198.84H395.449C392.072 198.84 389.31 201.605 389.31 204.985V230.178C389.31 233.557 392.072 236.322 395.449 236.322H432.896C436.273 236.322 439.035 233.557 439.035 230.178V204.985C439.035 201.912 435.966 198.84 432.589 198.84ZM413.865 230.178C406.806 230.178 401.281 224.647 401.281 217.581C401.281 210.515 406.806 204.985 413.865 204.985C420.925 204.985 426.45 210.515 426.45 217.581C426.45 224.647 420.925 230.178 413.865 230.178Z" fill="white"/>
<path d="M471.874 193.31L460.21 204.985C459.903 205.292 459.596 205.906 459.596 206.521V222.804C459.596 223.418 459.903 224.033 460.21 224.34L471.874 236.015C472.181 236.322 472.794 236.629 473.408 236.629H489.677C490.291 236.629 490.904 236.322 491.211 236.015L502.875 224.34C503.182 224.033 503.489 223.418 503.489 222.804V213.894C501.034 204.677 494.588 196.689 485.379 192.695H473.408C472.794 192.695 472.488 193.003 471.874 193.31Z" fill="white"/>
<path d="M86.0425 258.438C82.973 258.438 80.2105 259.666 77.7549 261.817L94.6371 278.408C96.1718 276.257 96.7857 274.106 96.7857 271.034C96.7857 264.275 92.4885 258.438 86.0425 258.438Z" fill="white"/>
<path d="M161.537 264.582H156.932L155.398 261.51C154.477 259.666 153.863 258.438 152.328 258.438H133.604C131.763 258.438 131.456 259.974 130.535 261.51L129 264.582H124.396C121.019 264.582 118.257 267.347 118.257 270.727V295.92C118.257 299.299 121.019 302.064 124.396 302.064H161.844C165.22 302.064 167.983 299.299 167.983 295.92V270.727C167.676 267.654 164.913 264.582 161.537 264.582ZM142.813 295.92C135.753 295.92 130.228 290.39 130.228 283.323C130.228 276.257 135.753 270.727 142.813 270.727C149.873 270.727 155.398 276.257 155.398 283.323C155.398 290.39 149.566 295.92 142.813 295.92Z" fill="white"/>
<path d="M142.805 274.109C137.587 274.109 133.29 278.411 133.29 283.634C133.29 288.857 137.587 293.158 142.805 293.158C148.024 293.158 152.321 288.857 152.321 283.634C152.014 278.411 148.024 274.109 142.805 274.109Z" fill="white"/>
<path d="M202.342 302.372H218.61C219.224 302.372 219.838 302.064 220.145 301.757L231.809 290.082C232.116 289.775 232.423 289.161 232.423 288.546V272.263C232.423 271.648 232.116 271.034 231.809 270.727L220.145 259.052C219.838 258.745 219.224 258.438 218.61 258.438H202.342C201.728 258.438 201.114 258.745 200.807 259.052L189.143 270.727C188.836 271.034 188.529 271.648 188.529 272.263V288.546C188.529 289.161 188.836 289.775 189.143 290.082L200.807 301.757C201.114 302.064 201.728 302.372 202.342 302.372Z" fill="white"/>
<path d="M259.14 279.022L276.022 300.835C277.864 302.679 278.171 302.679 280.319 300.835L297.508 279.022C299.35 276.564 300.271 274.106 300.271 270.727C300.271 264.275 295.667 258.438 289.221 258.438C284.617 258.438 280.933 261.203 278.171 264.582C275.408 260.895 271.725 258.438 267.12 258.438C260.675 258.438 256.07 264.275 256.07 270.727C256.377 274.414 257.605 276.871 259.14 279.022Z" fill="white"/>
<path d="M364.757 264.582H360.153L358.618 261.51C357.697 259.666 357.083 258.438 355.549 258.438H336.825C334.983 258.438 334.676 259.974 333.755 261.51L332.221 264.582H327.617C324.24 264.582 321.478 267.347 321.478 270.727V295.92C321.478 299.299 324.24 302.064 327.617 302.064H365.064C368.441 302.064 371.203 299.299 371.203 295.92V270.727C371.203 267.654 368.441 264.582 364.757 264.582ZM346.033 295.92C338.974 295.92 333.449 290.39 333.449 283.323C333.449 276.257 338.974 270.727 346.033 270.727C353.093 270.727 358.618 276.257 358.618 283.323C358.618 290.39 353.093 295.92 346.033 295.92Z" fill="white"/>
<path d="M346.026 274.109C340.808 274.109 336.511 278.411 336.511 283.634C336.511 288.857 340.808 293.158 346.026 293.158C351.244 293.158 355.541 288.857 355.541 283.634C355.541 278.411 351.244 274.109 346.026 274.109Z" fill="white"/>
<path d="M423.679 259.052C423.372 258.745 422.758 258.438 422.144 258.438H405.876C405.262 258.438 404.648 258.745 404.341 259.052L392.677 270.727C392.37 271.034 392.063 271.648 392.063 272.263V288.546C392.063 289.161 392.37 289.775 392.677 290.082L404.341 301.757C404.648 302.064 405.262 302.372 405.876 302.372H422.144C422.758 302.372 423.372 302.064 423.679 301.757L435.343 290.082C435.65 289.775 435.957 289.161 435.957 288.546V272.263C435.957 271.648 435.65 271.034 435.343 270.727L423.679 259.052Z" fill="white"/>
<path d="M459.897 270.727C459.897 273.492 460.818 275.642 461.739 277.486L478.621 261.203C476.473 259.359 474.017 258.438 470.948 258.438C464.195 258.438 459.897 264.275 459.897 270.727Z" fill="white"/>
<path d="M152.342 367.507L164.006 355.832C164.313 355.525 164.62 354.911 164.62 354.296V338.013C164.62 337.398 164.313 336.784 164.006 336.477L152.342 324.802C152.035 324.495 151.422 324.188 150.808 324.188H139.757C143.134 330.332 144.362 337.706 143.134 345.079L139.144 368.122H150.808C151.422 368.122 152.035 367.814 152.342 367.507Z" fill="white"/>
<path d="M191.322 344.772L208.205 366.585C210.046 368.429 210.353 368.429 212.502 366.585L229.691 344.772C231.533 342.314 232.454 339.856 232.454 336.477C232.454 330.025 227.849 324.188 221.403 324.188C216.799 324.188 213.116 326.953 210.353 330.332C207.591 326.645 203.907 324.188 199.303 324.188C192.857 324.188 188.253 330.025 188.253 336.477C188.56 340.164 189.788 342.621 191.322 344.772Z" fill="white"/>
<path d="M278.165 339.852C272.947 339.852 268.649 344.153 268.649 349.376C268.649 354.599 272.947 358.9 278.165 358.9C283.383 358.9 287.68 354.599 287.68 349.376C287.68 344.153 283.383 339.852 278.165 339.852Z" fill="white"/>
<path d="M296.893 330.637H292.289L290.754 327.565C289.834 325.721 289.22 324.492 287.685 324.492H268.961C267.119 324.492 266.812 326.028 265.892 327.565L264.357 330.637H259.446C256.069 330.637 253.307 333.402 253.307 336.781V361.974C253.307 365.354 256.069 368.119 259.446 368.119H296.893C300.27 368.119 303.032 365.354 303.032 361.974V336.781C303.339 333.402 300.577 330.637 296.893 330.637ZM278.169 361.667C271.11 361.667 265.585 356.137 265.585 349.071C265.585 342.004 271.11 336.474 278.169 336.474C285.229 336.474 290.754 342.004 290.754 349.071C290.754 356.137 285.229 361.667 278.169 361.667Z" fill="white"/>
<path d="M355.837 324.802C355.53 324.495 354.916 324.188 354.303 324.188H338.034C337.42 324.188 336.807 324.495 336.5 324.802L324.836 336.477C324.529 336.784 324.222 337.398 324.222 338.013V354.296C324.222 354.911 324.529 355.525 324.836 355.832L336.5 367.507C336.807 367.814 337.42 368.122 338.034 368.122H354.303C354.916 368.122 355.53 367.814 355.837 367.507L367.501 355.832C367.808 355.525 368.115 354.911 368.115 354.296V338.013C368.115 337.398 367.808 336.784 367.501 336.477L355.837 324.802Z" fill="white"/>
<path d="M402.795 324.188C396.349 324.188 391.745 330.025 391.745 336.477C391.745 339.856 392.973 342.314 394.508 344.772L411.39 366.585C413.231 368.429 413.538 368.429 415.687 366.585L415.994 366.278L412.311 345.079C411.39 339.856 411.697 334.941 413.232 330.025C410.776 326.645 407.4 324.188 402.795 324.188Z" fill="white"/>
<path d="M144.656 432.332L161.845 410.518C163.687 408.06 164.608 405.602 164.608 402.223C164.608 395.771 160.004 389.934 153.558 389.934C148.953 389.934 145.27 392.699 142.507 396.078C140.666 393.313 138.21 391.47 135.141 390.548L130.229 419.428L140.359 432.639C142.507 434.175 142.814 434.175 144.656 432.332Z" fill="white"/>
<path d="M229.368 396.387H224.764L223.229 393.315C222.308 391.471 221.694 390.242 220.16 390.242H201.129C199.287 390.242 198.98 391.778 198.059 393.315L196.524 396.387H191.92C188.544 396.387 185.781 399.152 185.781 402.531V427.724C185.781 431.104 188.544 433.869 191.92 433.869H229.368C232.744 433.869 235.507 431.104 235.507 427.724V402.531C235.507 399.152 232.744 396.387 229.368 396.387ZM210.337 427.417C203.277 427.417 197.752 421.887 197.752 414.821C197.752 407.754 203.277 402.224 210.337 402.224C217.397 402.224 222.922 407.754 222.922 414.821C222.922 421.887 217.397 427.417 210.337 427.417Z" fill="white"/>
<path d="M210.33 405.602C205.112 405.602 200.814 409.903 200.814 415.126C200.814 420.349 205.112 424.65 210.33 424.65C215.548 424.65 219.845 420.349 219.845 415.126C219.845 409.903 215.548 405.602 210.33 405.602Z" fill="white"/>
<path d="M300.273 420.042V403.759C300.273 403.145 299.967 402.53 299.66 402.223L287.996 390.548C287.689 390.241 287.075 389.934 286.461 389.934H270.193C269.579 389.934 268.965 390.241 268.658 390.548L256.994 402.223C256.687 402.53 256.38 403.145 256.38 403.759V420.042C256.38 420.657 256.687 421.271 256.994 421.578L265.895 430.488C273.569 427.416 282.471 427.416 290.144 430.795L299.353 421.578C299.967 421.271 300.273 420.657 300.273 420.042Z" fill="white"/>
<path d="M357.054 389.934C352.449 389.934 348.766 392.699 346.004 396.078C343.241 392.391 339.558 389.934 334.953 389.934C328.508 389.934 323.903 395.771 323.903 402.223C323.903 405.602 325.131 408.06 326.666 410.518L343.548 432.332C345.39 434.175 345.697 434.175 347.845 432.332L365.034 410.518C366.876 408.06 367.797 405.602 367.797 402.223C367.797 395.771 363.5 389.934 357.054 389.934Z" fill="white"/>
<path d="M425.223 420.046C423.381 424.655 418.777 427.727 413.865 427.727C406.806 427.727 401.281 422.197 401.281 415.131C401.281 408.064 406.806 402.534 413.865 402.534C417.549 402.534 420.925 404.07 423.074 406.528L420.311 389.938H404.657C402.815 389.938 402.508 391.474 401.588 393.01L400.053 396.082H395.449C392.072 396.082 389.31 398.847 389.31 402.227V427.42C389.31 430.799 392.072 433.564 395.449 433.564H427.985L425.223 420.046Z" fill="white"/>
<path d="M404.343 415.134C404.343 420.357 408.64 424.658 413.858 424.658C419.076 424.658 423.374 420.357 423.374 415.134C423.374 409.911 419.076 405.609 413.858 405.609C408.64 405.609 404.343 409.911 404.343 415.134Z" fill="white"/>
<path d="M161.522 462.133H156.918L155.384 459.061C154.463 457.217 153.849 455.988 152.314 455.988H133.59C131.748 455.988 131.442 457.524 130.521 459.061L128.986 462.133H127.451C128.986 466.127 130.828 469.506 133.59 472.579C134.204 473.501 135.125 474.115 135.739 474.729C140.343 479.031 145.868 481.796 152.007 483.025C152.928 483.332 154.156 483.332 155.077 483.332C159.374 483.639 163.671 483.025 167.968 481.796V468.278C167.661 464.898 164.899 462.133 161.522 462.133Z" fill="white"/>
<path d="M200.807 456.294L189.143 467.969C188.836 468.276 188.529 468.89 188.529 469.505V471.348L217.996 455.987H202.342C201.728 455.679 201.114 455.987 200.807 456.294Z" fill="white"/>
<path d="M364.726 462.133H360.122L358.587 459.061C357.666 457.217 357.053 455.988 355.518 455.988H337.715L371.172 473.501V468.585C371.172 464.898 368.41 462.133 364.726 462.133Z" fill="white"/>
<path d="M422.144 455.68H405.876C405.262 455.68 404.648 455.987 404.341 456.294L392.677 467.969C392.37 468.276 392.063 468.891 392.063 469.505V482.716C408.025 486.096 423.679 476.264 428.897 461.21L423.679 455.987C423.065 455.987 422.758 455.68 422.144 455.68Z" fill="white"/>
</svg>
