<svg width="188" height="180" viewBox="0 0 188 180" fill="none"
  xmlns="http://www.w3.org/2000/svg">
  <path d="M92.9956 38.1552C93.6131 38.7723 93.716 38.7723 94.436 38.1552L100.196 30.8516C100.813 30.0288 101.122 29.2059 101.122 28.0741C101.122 25.9141 99.5791 23.9595 97.4192 23.9595C95.8759 23.9595 94.6417 24.8852 93.716 26.017C92.7899 24.7823 91.5556 23.9595 90.0128 23.9595C87.8524 23.9595 86.3096 25.9141 86.3096 28.0741C86.3096 29.2059 86.721 30.0288 87.2353 30.8516L92.9956 38.1552Z" fill="white"/>
  <path d="M71.7068 60.1655L77.4671 52.8619C78.0846 52.0391 78.3932 51.2162 78.3932 50.0848C78.3932 47.9245 76.85 45.9702 74.69 45.9702C74.3814 45.9702 74.1757 45.9702 73.8672 46.0731L68.7236 56.4623C68.5179 56.8737 68.3122 57.1822 68.1064 57.4908L70.2668 60.1655C70.9868 60.7826 71.0897 60.7826 71.7068 60.1655Z" fill="white"/>
  <path d="M99.9914 48.0273H98.4486L97.9343 46.9988C97.6258 46.3816 97.4201 45.9702 96.9054 45.9702H90.6308C90.0137 45.9702 89.9108 46.4845 89.6022 46.9988L89.088 48.0273H87.4419C86.3105 48.0273 85.3848 48.953 85.3848 50.0848V58.5198C85.3848 59.6512 86.3105 60.5769 87.4419 60.5769H99.9914C101.123 60.5769 102.049 59.6512 102.049 58.5198V50.0848C102.152 49.0559 101.226 48.0273 99.9914 48.0273ZM93.7169 58.5198C91.3508 58.5198 89.4994 56.668 89.4994 54.3023C89.4994 51.9362 91.3508 50.0848 93.7169 50.0848C96.0825 50.0848 97.9343 51.9362 97.9343 54.3023C97.9343 56.668 96.0825 58.5198 93.7169 58.5198Z" fill="white"/>
  <path d="M93.7158 51.2168C91.9673 51.2168 90.5273 52.6572 90.5273 54.4057C90.5273 56.1543 91.9673 57.5947 93.7158 57.5947C95.4648 57.5947 96.9048 56.1543 96.9048 54.4057C96.9048 52.6572 95.4648 51.2168 93.7158 51.2168Z" fill="white"/>
  <path d="M109.355 50.0876C109.252 50.1905 109.149 50.3962 109.149 50.6019V56.0536C109.149 56.2593 109.252 56.465 109.355 56.5679L113.264 60.4768C113.367 60.5797 113.573 60.6825 113.778 60.6825H119.23C119.436 60.6825 119.641 60.5797 119.744 60.4768L120.67 59.5511C119.744 58.7283 119.024 57.6997 118.407 56.4651L113.367 46.1787L113.264 46.2816L109.355 50.0876Z" fill="white"/>
  <path d="M18.53 78.5812L22.4388 82.4901C22.5417 82.593 22.7474 82.6959 22.9532 82.6959H28.4052C28.6109 82.6959 28.8167 82.593 28.9195 82.4901L32.8284 78.5812C32.9313 78.4784 33.0341 78.2727 33.0341 78.067V72.6152C33.0341 72.4095 32.9313 72.2038 32.8284 72.1009L28.9195 68.192C28.8167 68.0892 28.6109 67.9863 28.4052 67.9863H24.0847C21.3074 69.2206 19.3529 71.381 18.3242 74.0552V78.067C18.3242 78.2727 18.3243 78.4784 18.53 78.5812Z" fill="white"/>
  <path d="M47.6386 82.1816C48.2557 82.7987 48.3585 82.7987 49.0785 82.1816L54.8388 74.878C55.456 74.0552 55.765 73.2324 55.765 72.1009C55.765 69.9406 54.2217 67.9863 52.0618 67.9863C50.5185 67.9863 49.2842 68.912 48.3586 70.0434C47.4329 68.8092 46.1982 67.9863 44.6553 67.9863C42.495 67.9863 40.9521 69.9406 40.9521 72.1009C40.9521 73.2324 41.3636 74.0552 41.8778 74.878L47.6386 82.1816Z" fill="white"/>
  <path d="M77.361 70.0439H75.8178L75.3035 69.0149C74.9949 68.3977 74.7892 67.9863 74.2749 67.9863H67.8971C67.2799 67.9863 67.1771 68.5006 66.8685 69.0149L66.3543 70.0439H64.8114C63.6796 70.0439 62.7539 70.9695 62.7539 72.1009V80.5359C62.7539 81.6673 63.6796 82.5934 64.8114 82.5934H77.361C78.4924 82.5934 79.4181 81.6673 79.4181 80.5359V72.1009C79.4181 71.0724 78.4924 70.0439 77.361 70.0439ZM70.9831 80.5359C68.6171 80.5359 66.7657 78.6845 66.7657 76.3184C66.7657 73.9528 68.6171 72.1009 70.9831 72.1009C73.3492 72.1009 75.2006 73.9528 75.2006 76.3184C75.2006 78.6845 73.3492 80.5359 70.9831 80.5359Z" fill="white"/>
  <path d="M70.9809 79.5068C69.232 79.5068 67.792 78.0664 67.792 76.3178C67.792 74.5693 69.232 73.1289 70.9809 73.1289C72.7295 73.1289 74.1694 74.5693 74.1694 76.3178C74.1694 78.0664 72.7295 79.5068 70.9809 79.5068Z" fill="white"/>
  <path d="M70.9809 73.2334C69.232 73.2334 67.792 74.6734 67.792 76.4223C67.792 78.1709 69.232 79.6108 70.9809 79.6108C72.7295 79.6108 74.1694 78.1709 74.1694 76.4223C74.1694 74.6734 72.7295 73.2334 70.9809 73.2334Z" fill="white"/>
  <path d="M91.043 82.6959H96.4947C96.7004 82.6959 96.9061 82.593 97.0094 82.4901L100.918 78.5812C101.021 78.4784 101.124 78.2727 101.124 78.067V72.6152C101.124 72.4095 101.021 72.2038 100.918 72.1009L97.0094 68.192C96.9061 68.0892 96.7004 67.9863 96.4947 67.9863H91.043C90.8372 67.9863 90.6315 68.0892 90.5287 68.192L86.6198 72.1009C86.5169 72.2038 86.4141 72.4095 86.4141 72.6152V78.067C86.4141 78.2727 86.5169 78.4784 86.6198 78.5812L90.5287 82.4901C90.6315 82.593 90.8372 82.6959 91.043 82.6959Z" fill="white"/>
  <path d="M115.731 82.1816C116.348 82.7987 116.451 82.7987 117.171 82.1816L122.932 74.878C123.549 74.0552 123.857 73.2324 123.857 72.1009C123.857 69.9406 122.314 67.9863 120.154 67.9863C118.611 67.9863 117.377 68.912 116.451 70.0434C115.525 68.8092 114.291 67.9863 112.748 67.9863C110.588 67.9863 109.045 69.9406 109.045 72.1009C109.045 73.2324 109.456 74.0552 109.971 74.878L115.731 82.1816Z" fill="white"/>
  <path d="M139.187 73.2334C137.438 73.2334 135.998 74.6734 135.998 76.4223C135.998 78.1709 137.438 79.6108 139.187 79.6108C140.936 79.6108 142.376 78.1709 142.376 76.4223C142.376 74.6734 140.936 73.2334 139.187 73.2334Z" fill="white"/>
  <path d="M145.464 70.0439H143.921L143.407 69.0149C143.098 68.3977 142.892 67.9863 142.378 67.9863H136.104C135.486 67.9863 135.383 68.5006 135.075 69.0149L134.56 70.0439H133.017C131.886 70.0439 130.96 70.9695 130.96 72.1009V80.5359C130.96 81.6673 131.886 82.5934 133.017 82.5934H145.567C146.698 82.5934 147.624 81.6673 147.624 80.5359V72.1009C147.624 71.0724 146.596 70.0439 145.464 70.0439ZM139.189 80.5359C136.824 80.5359 134.972 78.6845 134.972 76.3184C134.972 73.9528 136.824 72.1009 139.189 72.1009C141.555 72.1009 143.407 73.9528 143.407 76.3184C143.407 78.6845 141.555 80.5359 139.189 80.5359Z" fill="white"/>
  <path d="M158.63 68.192L154.721 72.1009C154.618 72.2038 154.516 72.4095 154.516 72.6152V78.067C154.516 78.2727 154.618 78.4784 154.721 78.5812L158.63 82.4901C158.733 82.593 158.939 82.6959 159.145 82.6959H164.597C164.802 82.6959 165.008 82.593 165.111 82.4901L169.02 78.5812C169.123 78.4784 169.226 78.2727 169.226 78.067V75.0837C168.403 71.9981 166.242 69.3234 163.156 67.9863H159.145C158.939 67.9863 158.836 68.0892 158.63 68.192Z" fill="white"/>
  <path d="M29.3291 89.998C28.3005 89.998 27.3749 90.4095 26.5518 91.1295L32.2095 96.6845C32.7237 95.9641 32.9294 95.2441 32.9294 94.2155C32.9294 91.9523 31.4895 89.998 29.3291 89.998Z" fill="white"/>
  <path d="M54.6312 92.0542H53.088L52.5737 91.0256C52.2651 90.4085 52.0594 89.9971 51.5451 89.9971H45.2701C44.653 89.9971 44.5501 90.5113 44.2416 91.0256L43.7273 92.0542H42.1845C41.0527 92.0542 40.127 92.9799 40.127 94.1117V102.547C40.127 103.678 41.0527 104.604 42.1845 104.604H54.7341C55.8655 104.604 56.7911 103.678 56.7911 102.547V94.1117C56.6883 93.0827 55.7626 92.0542 54.6312 92.0542ZM48.3562 102.547C45.9905 102.547 44.1387 100.695 44.1387 98.3292C44.1387 95.9631 45.9905 94.1117 48.3562 94.1117C50.7223 94.1117 52.5737 95.9631 52.5737 98.3292C52.5737 100.695 50.6194 102.547 48.3562 102.547Z" fill="white"/>
  <path d="M48.3549 95.2441C46.606 95.2441 45.166 96.6845 45.166 98.4331C45.166 100.182 46.606 101.622 48.3549 101.622C50.1035 101.622 51.5439 100.182 51.5439 98.4331C51.441 96.6845 50.1035 95.2441 48.3549 95.2441Z" fill="white"/>
  <path d="M68.3076 104.708H73.7598C73.9655 104.708 74.1712 104.605 74.274 104.502L78.183 100.593C78.2858 100.491 78.3887 100.284 78.3887 100.079V94.6269C78.3887 94.4212 78.2858 94.2155 78.183 94.1127L74.274 90.2038C74.1712 90.1009 73.9655 89.998 73.7598 89.998H68.3076C68.1019 89.998 67.8962 90.1009 67.7933 90.2038L63.8844 94.1127C63.7816 94.2155 63.6787 94.4212 63.6787 94.6269V100.079C63.6787 100.284 63.7816 100.491 63.8844 100.593L67.7933 104.502C67.8962 104.605 68.1019 104.708 68.3076 104.708Z" fill="white"/>
  <path d="M87.3381 96.8902L92.9956 104.193C93.6131 104.811 93.716 104.811 94.436 104.193L100.196 96.8902C100.813 96.0669 101.122 95.2441 101.122 94.1127C101.122 91.9523 99.5791 89.998 97.4192 89.998C95.8759 89.998 94.6417 90.9237 93.716 92.0551C92.7899 90.8209 91.5556 89.998 90.0128 89.998C87.8524 89.998 86.3096 91.9523 86.3096 94.1127C86.4124 95.3469 86.8238 96.1698 87.3381 96.8902Z" fill="white"/>
  <path d="M122.731 92.0542H121.188L120.673 91.0256C120.365 90.4085 120.159 89.9971 119.645 89.9971H113.37C112.753 89.9971 112.65 90.5113 112.341 91.0256L111.827 92.0542H110.284C109.153 92.0542 108.227 92.9799 108.227 94.1117V102.547C108.227 103.678 109.153 104.604 110.284 104.604H122.834C123.965 104.604 124.891 103.678 124.891 102.547V94.1117C124.891 93.0827 123.965 92.0542 122.731 92.0542ZM116.456 102.547C114.09 102.547 112.238 100.695 112.238 98.3292C112.238 95.9631 114.09 94.1117 116.456 94.1117C118.822 94.1117 120.673 95.9631 120.673 98.3292C120.673 100.695 118.822 102.547 116.456 102.547Z" fill="white"/>
  <path d="M116.454 95.2441C114.705 95.2441 113.265 96.6845 113.265 98.4331C113.265 100.182 114.705 101.622 116.454 101.622C118.203 101.622 119.642 100.182 119.642 98.4331C119.642 96.6845 118.203 95.2441 116.454 95.2441Z" fill="white"/>
  <path d="M142.48 90.2038C142.377 90.1009 142.171 89.998 141.965 89.998H136.514C136.308 89.998 136.102 90.1009 135.999 90.2038L132.09 94.1127C131.988 94.2155 131.885 94.4212 131.885 94.6269V100.079C131.885 100.284 131.988 100.491 132.09 100.593L135.999 104.502C136.102 104.605 136.308 104.708 136.514 104.708H141.965C142.171 104.708 142.377 104.605 142.48 104.502L146.389 100.593C146.491 100.491 146.594 100.284 146.594 100.079V94.6269C146.594 94.4212 146.491 94.2155 146.389 94.1127L142.48 90.2038Z" fill="white"/>
  <path d="M154.62 94.1127C154.62 95.0384 154.929 95.7583 155.238 96.3759L160.895 90.9237C160.175 90.3066 159.352 89.998 158.323 89.998C156.061 89.998 154.62 91.9523 154.62 94.1127Z" fill="white"/>
  <path d="M51.5492 126.517L55.4581 122.608C55.5609 122.505 55.6638 122.299 55.6638 122.093V116.642C55.6638 116.436 55.5609 116.23 55.4581 116.127L51.5492 112.218C51.4463 112.116 51.2406 112.013 51.0349 112.013H47.3317C48.4635 114.07 48.8749 116.539 48.4635 119.007L47.126 126.722H51.0349C51.2406 126.722 51.4463 126.619 51.5492 126.517Z" fill="white"/>
  <path d="M64.6106 118.904L70.268 126.208C70.8852 126.825 70.988 126.825 71.7084 126.208L77.4687 118.904C78.0858 118.082 78.3944 117.259 78.3944 116.127C78.3944 113.967 76.8516 112.013 74.6912 112.013C73.1484 112.013 71.9141 112.938 70.988 114.07C70.0623 112.836 68.8281 112.013 67.2852 112.013C65.1248 112.013 63.582 113.967 63.582 116.127C63.6849 117.362 64.0963 118.184 64.6106 118.904Z" fill="white"/>
  <path d="M93.7158 117.257C91.9673 117.257 90.5273 118.697 90.5273 120.446C90.5273 122.195 91.9673 123.635 93.7158 123.635C95.4648 123.635 96.9048 122.195 96.9048 120.446C96.9048 118.697 95.4648 117.257 93.7158 117.257Z" fill="white"/>
  <path d="M99.9914 114.172H98.4486L97.9343 113.143C97.6258 112.526 97.4201 112.115 96.9054 112.115H90.6308C90.0137 112.115 89.9108 112.629 89.6022 113.143L89.088 114.172H87.4419C86.3105 114.172 85.3848 115.098 85.3848 116.229V124.664C85.3848 125.796 86.3105 126.721 87.4419 126.721H99.9914C101.123 126.721 102.049 125.796 102.049 124.664V116.229C102.152 115.098 101.226 114.172 99.9914 114.172ZM93.7169 124.561C91.3508 124.561 89.4994 122.71 89.4994 120.344C89.4994 117.978 91.3508 116.127 93.7169 116.127C96.0825 116.127 97.9343 117.978 97.9343 120.344C97.9343 122.71 96.0825 124.561 93.7169 124.561Z" fill="white"/>
  <path d="M119.744 112.218C119.641 112.116 119.436 112.013 119.23 112.013H113.778C113.573 112.013 113.367 112.116 113.264 112.218L109.355 116.127C109.252 116.23 109.149 116.436 109.149 116.642V122.093C109.149 122.299 109.252 122.505 109.355 122.608L113.264 126.517C113.367 126.619 113.573 126.722 113.778 126.722H119.23C119.436 126.722 119.641 126.619 119.744 126.517L123.653 122.608C123.756 122.505 123.859 122.299 123.859 122.093V116.642C123.859 116.436 123.756 116.23 123.653 116.127L119.744 112.218Z" fill="white"/>
  <path d="M135.483 112.013C133.324 112.013 131.78 113.967 131.78 116.127C131.78 117.259 132.192 118.082 132.706 118.904L138.364 126.208C138.981 126.825 139.084 126.825 139.804 126.208L139.907 126.105L138.672 119.007C138.364 117.259 138.467 115.613 138.981 113.967C138.158 112.836 137.027 112.013 135.483 112.013Z" fill="white"/>
  <path d="M48.9713 148.22L54.7316 140.917C55.3488 140.094 55.6573 139.271 55.6573 138.139C55.6573 135.979 54.1145 134.024 51.9541 134.024C50.4113 134.024 49.177 134.951 48.2513 136.082C47.6338 135.156 46.8109 134.539 45.7824 134.231L44.1367 143.9L47.5309 148.323C48.2513 148.837 48.3542 148.837 48.9713 148.22Z" fill="white"/>
  <path d="M77.361 136.186H75.8178L75.3035 135.157C74.9949 134.54 74.7892 134.129 74.2749 134.129H67.8971C67.2799 134.129 67.1771 134.643 66.8685 135.157L66.3543 136.186H64.8114C63.6796 136.186 62.7539 137.112 62.7539 138.244V146.678C62.7539 147.81 63.6796 148.736 64.8114 148.736H77.361C78.4924 148.736 79.4181 147.81 79.4181 146.678V138.244C79.4181 137.112 78.4924 136.186 77.361 136.186ZM70.9831 146.576C68.6171 146.576 66.7657 144.724 66.7657 142.358C66.7657 139.992 68.6171 138.141 70.9831 138.141C73.3492 138.141 75.2006 139.992 75.2006 142.358C75.2006 144.724 73.3492 146.576 70.9831 146.576Z" fill="white"/>
  <path d="M70.9809 139.271C69.232 139.271 67.792 140.711 67.792 142.46C67.792 144.209 69.232 145.649 70.9809 145.649C72.7295 145.649 74.1694 144.209 74.1694 142.46C74.1694 140.711 72.7295 139.271 70.9809 139.271Z" fill="white"/>
  <path d="M101.124 144.105V138.654C101.124 138.448 101.021 138.242 100.918 138.139L97.0094 134.231C96.9061 134.127 96.7004 134.024 96.4947 134.024H91.043C90.8372 134.024 90.6315 134.127 90.5287 134.231L86.6198 138.139C86.5169 138.242 86.4141 138.448 86.4141 138.654V144.105C86.4141 144.311 86.5169 144.517 86.6198 144.62L89.603 147.603C92.1744 146.574 95.1576 146.574 97.7294 147.706L100.815 144.62C101.021 144.517 101.124 144.311 101.124 144.105Z" fill="white"/>
  <path d="M120.154 134.024C118.611 134.024 117.377 134.951 116.451 136.082C115.525 134.848 114.291 134.024 112.748 134.024C110.588 134.024 109.045 135.979 109.045 138.139C109.045 139.271 109.456 140.094 109.971 140.917L115.628 148.22C116.245 148.837 116.348 148.837 117.068 148.22L122.829 140.917C123.446 140.094 123.754 139.271 123.754 138.139C123.754 135.979 122.314 134.024 120.154 134.024Z" fill="white"/>
  <path d="M142.995 144.106C142.378 145.649 140.835 146.677 139.189 146.677C136.824 146.677 134.972 144.826 134.972 142.46C134.972 140.094 136.824 138.242 139.189 138.242C140.424 138.242 141.555 138.757 142.275 139.579L141.35 134.025H136.104C135.486 134.025 135.383 134.539 135.075 135.053L134.56 136.082H133.017C131.886 136.082 130.96 137.008 130.96 138.14V146.574C130.96 147.706 131.886 148.632 133.017 148.632H143.921L142.995 144.106Z" fill="white"/>
  <path d="M135.998 142.461C135.998 144.21 137.438 145.65 139.187 145.65C140.936 145.65 142.376 144.21 142.376 142.461C142.376 140.712 140.936 139.272 139.187 139.272C137.438 139.272 135.998 140.712 135.998 142.461Z" fill="white"/>
  <path d="M54.6281 158.198H53.0853L52.571 157.17C52.2625 156.552 52.0568 156.141 51.5425 156.141H45.2675C44.6504 156.141 44.5475 156.655 44.2389 157.17L43.7247 158.198H43.21C43.7247 159.535 44.3418 160.667 45.2675 161.696C45.4732 162.004 45.7818 162.21 45.9875 162.416C47.5307 163.856 49.3821 164.781 51.4392 165.193C51.7482 165.296 52.1596 165.296 52.4682 165.296C53.9081 165.399 55.3481 165.193 56.7885 164.781V160.255C56.6857 159.124 55.76 158.198 54.6281 158.198Z" fill="white"/>
  <path d="M67.7933 156.242L63.8844 160.151C63.7816 160.254 63.6787 160.46 63.6787 160.665V161.282L73.5541 156.139H68.3076C68.1019 156.036 67.8962 156.139 67.7933 156.242Z" fill="white"/>
  <path d="M122.726 158.198H121.183L120.669 157.17C120.36 156.552 120.155 156.141 119.64 156.141H113.674L124.886 162.004V160.358C124.886 159.124 123.961 158.198 122.726 158.198Z" fill="white"/>
  <path d="M141.965 156.037H136.514C136.308 156.037 136.102 156.14 135.999 156.243L132.09 160.152C131.988 160.255 131.885 160.46 131.885 160.666V165.089C137.234 166.221 142.48 162.929 144.229 157.888L142.48 156.14C142.274 156.14 142.171 156.037 141.965 156.037Z" fill="white"/>
  <path fillRule="evenodd" clipRule="evenodd" d="M101.191 13.2059C98.1174 6.99037 89.3115 7.07375 86.3631 13.1717L86.3549 13.1886L68.4439 49.4224L68.4396 49.4311C65.9502 54.4104 61.1398 57.8255 55.6756 58.645L55.6639 58.6468L15.7578 64.4062C15.7551 64.4066 15.7524 64.407 15.7498 64.4074C8.86669 65.4361 6.164 73.8755 11.1213 78.697L11.1252 78.7008L40.015 106.871C40.0176 106.873 40.0203 106.876 40.0229 106.879C44.0459 110.768 45.817 116.42 44.8616 121.896C44.8611 121.899 44.8606 121.902 44.8601 121.905L38.0715 161.61L38.0688 161.625C36.854 168.44 44.0103 173.665 50.175 170.447C50.1753 170.447 50.1755 170.446 50.1758 170.446L85.9444 151.74C90.829 149.102 96.7525 149.133 101.677 151.73C101.679 151.731 101.681 151.732 101.684 151.733L137.362 170.446C137.363 170.447 137.364 170.448 137.365 170.448C143.452 173.623 150.623 168.415 149.463 161.591L142.677 121.905C142.677 121.903 142.676 121.9 142.676 121.897C141.72 116.421 143.491 110.769 147.513 106.88C147.516 106.877 147.519 106.874 147.522 106.871L176.416 78.6971C181.373 73.8754 178.67 65.4358 171.787 64.4073C171.785 64.407 171.782 64.4066 171.78 64.4062L131.873 58.6468L131.862 58.645C126.398 57.8255 121.587 54.4104 119.098 49.4311L119.093 49.4224L101.191 13.2059ZM78.655 9.4232C84.7667 -3.1828 102.693 -3.09373 108.874 9.40655L108.874 9.40711L126.764 45.5983C126.766 45.6009 126.767 45.6035 126.768 45.6061C127.981 48.0259 130.365 49.7498 133.122 50.167C133.126 50.1675 133.129 50.168 133.133 50.1686L173.03 55.9267L173.039 55.928C186.928 57.9911 192.451 75.056 182.394 84.8399C182.393 84.8404 182.393 84.8408 182.392 84.8413L153.483 113.03L153.476 113.037C151.54 114.906 150.64 117.682 151.12 120.428L151.122 120.436L157.913 160.154C160.25 173.902 145.822 184.534 133.394 178.044L133.387 178.04L97.6878 159.316L97.6829 159.314C95.2139 158.01 92.3092 158.037 90.0014 159.29L89.9723 159.306L54.1434 178.044C41.7974 184.491 27.1528 174.091 29.6278 160.136C29.6287 160.131 29.6297 160.126 29.6306 160.121L36.4157 120.436L36.4171 120.428C36.8976 117.682 35.9972 114.906 34.0615 113.037L34.0539 113.03L5.14521 84.8413C5.14457 84.8407 5.14393 84.8401 5.14329 84.8395C-4.91324 75.0555 0.609551 57.9911 14.4984 55.928L14.5072 55.9267L54.4149 50.167C57.1725 49.7499 59.5561 48.026 60.7691 45.6061C60.7705 45.6035 60.7718 45.6009 60.7731 45.5983L78.655 9.4232Z" fill="#45A3DB"/>
</svg>
