<svg width="48" height="48" viewBox="0 0 48 48" fill="none" xmlns="http://www.w3.org/2000/svg">
<g clipPath="url(#clip0_9355_72207)">
<g filter="url(#filter0_d_9355_72207)">
<circle cx="24" cy="24" r="24" fill="#5C5C63" fill-opacity="0.05"/>
<circle cx="24" cy="24" r="23.5" stroke="#34D399"/>
</g>
<g filter="url(#filter1_d_9355_72207)">
<circle cx="24" cy="24" r="19" fill="#202327"/>
</g>
<path d="M24.0593 21.0612C23.2164 21.5707 22.2401 21.8813 21.1856 21.8813C20.1232 21.8813 19.1394 21.5672 18.2927 21.0508C15.4805 22.1942 13.4961 24.9499 13.4961 28.1726V33.0659H24.8794C24.7625 32.6165 24.6808 32.1534 24.6808 31.6679C24.6808 29.1535 26.3599 27.0465 28.6473 26.3449C28.0578 23.9309 26.3232 21.9801 24.0593 21.0612Z" fill="#F1C94A"/>
<path d="M25.3787 16.2875C25.3787 13.971 23.501 12 21.1845 12C18.868 12 16.9902 13.971 16.9902 16.2875C16.9902 18.604 18.868 20.4817 21.1845 20.4817C23.501 20.4817 25.3787 18.604 25.3787 16.2875Z" fill="#F1C94A"/>
<circle cx="30.2743" cy="31.8075" r="4.19426" fill="#34D399"/>
</g>
<defs>
<filter id="filter0_d_9355_72207" x="-2" y="-1" width="52" height="52" filterUnits="userSpaceOnUse" color-interpolation-filters="sRGB">
<feFlood flood-opacity="0" result="BackgroundImageFix"/>
<feColorMatrix in="SourceAlpha" type="matrix" values="0 0 0 0 0 0 0 0 0 0 0 0 0 0 0 0 0 0 127 0" result="hardAlpha"/>
<feOffset dy="1"/>
<feGaussianBlur stdDeviation="1"/>
<feColorMatrix type="matrix" values="0 0 0 0 0 0 0 0 0 0 0 0 0 0 0 0 0 0 0.05 0"/>
<feBlend mode="normal" in2="BackgroundImageFix" result="effect1_dropShadow_9355_72207"/>
<feBlend mode="normal" in="SourceGraphic" in2="effect1_dropShadow_9355_72207" result="shape"/>
</filter>
<filter id="filter1_d_9355_72207" x="3" y="4" width="42" height="42" filterUnits="userSpaceOnUse" color-interpolation-filters="sRGB">
<feFlood flood-opacity="0" result="BackgroundImageFix"/>
<feColorMatrix in="SourceAlpha" type="matrix" values="0 0 0 0 0 0 0 0 0 0 0 0 0 0 0 0 0 0 127 0" result="hardAlpha"/>
<feOffset dy="1"/>
<feGaussianBlur stdDeviation="1"/>
<feColorMatrix type="matrix" values="0 0 0 0 0 0 0 0 0 0 0 0 0 0 0 0 0 0 0.05 0"/>
<feBlend mode="normal" in2="BackgroundImageFix" result="effect1_dropShadow_9355_72207"/>
<feBlend mode="normal" in="SourceGraphic" in2="effect1_dropShadow_9355_72207" result="shape"/>
</filter>
<clipPath id="clip0_9355_72207">
<rect width="48" height="48" rx="24" fill="white"/>
</clipPath>
</defs>
</svg>
