<svg width="32" height="32" viewBox="0 0 32 32" fill="none" xmlns="http://www.w3.org/2000/svg">
<rect width="32" height="32" rx="6" fill="#2081E2"/>
<path d="M6.32261 17.4201L6.4004 17.2979L11.0893 9.96269C11.1578 9.85527 11.3189 9.8664 11.3708 9.98304C12.1541 11.7386 12.83 13.922 12.5134 15.2812C12.3782 15.8404 12.0078 16.5979 11.5911 17.2979C11.5374 17.3997 11.4782 17.4997 11.4152 17.596C11.3856 17.6405 11.3356 17.6664 11.2819 17.6664H6.45964C6.33002 17.6664 6.25412 17.5257 6.32261 17.4201Z" fill="white"/>
<path d="M27.2222 18.7833V19.9444C27.2222 20.0111 27.1815 20.0704 27.1222 20.0963C26.7593 20.2519 25.5167 20.8222 25 21.5407C23.6815 23.3759 22.6741 26 20.4222 26H11.0278C7.69815 26 5 23.2926 5 19.9519V19.8444C5 19.7555 5.07222 19.6833 5.16114 19.6833H10.3981C10.5018 19.6833 10.5778 19.7796 10.5685 19.8815C10.5315 20.2222 10.5944 20.5704 10.7555 20.887C11.0667 21.5185 11.7111 21.913 12.4074 21.913H15V19.8889H12.437C12.3056 19.8889 12.2278 19.737 12.3037 19.6296C12.3315 19.587 12.363 19.5426 12.3963 19.4926C12.6389 19.1482 12.9852 18.613 13.3296 18.0037C13.5648 17.5926 13.7926 17.1537 13.9759 16.713C14.013 16.6333 14.0426 16.5519 14.0722 16.4722C14.1222 16.3315 14.1741 16.2 14.2111 16.0685C14.2481 15.9574 14.2778 15.8407 14.3074 15.7315C14.3945 15.3574 14.4315 14.9611 14.4315 14.55C14.4315 14.3889 14.4241 14.2204 14.4093 14.0592C14.4019 13.8833 14.3796 13.7074 14.3574 13.5315C14.3426 13.3759 14.3148 13.2222 14.2852 13.0611C14.2481 12.8259 14.1963 12.5926 14.137 12.3574L14.1167 12.2685C14.0722 12.1074 14.0352 11.9537 13.9833 11.7926C13.8371 11.287 13.6685 10.7944 13.4907 10.3333C13.4259 10.15 13.3518 9.97408 13.2778 9.79817C13.1685 9.53333 13.0574 9.2926 12.9556 9.06481C12.9037 8.96111 12.8592 8.86666 12.8148 8.77037C12.7648 8.6611 12.713 8.55187 12.6611 8.44813C12.6241 8.3685 12.5815 8.29444 12.5519 8.22038L12.2352 7.63518C12.1907 7.55556 12.2648 7.46111 12.3518 7.48518L14.3333 8.02223H14.3389C14.3426 8.02223 14.3445 8.02407 14.3463 8.02407L14.6074 8.09629L14.8945 8.17776L15 8.2074V7.02964C15 6.46111 15.4556 6 16.0185 6C16.3 6 16.5556 6.1148 16.7389 6.30185C16.9222 6.4889 17.0371 6.74445 17.0371 7.02964V8.77778L17.2481 8.83702C17.2648 8.84259 17.2815 8.85 17.2963 8.86109C17.3482 8.89998 17.4222 8.95742 17.5167 9.02776C17.5908 9.08704 17.6704 9.15926 17.7667 9.23332C17.9574 9.38705 18.1852 9.5852 18.4352 9.81295C18.5018 9.87038 18.5667 9.92962 18.6259 9.9889C18.9482 10.2889 19.3093 10.6408 19.6537 11.0296C19.75 11.1389 19.8445 11.25 19.9408 11.3667C20.0371 11.4852 20.1389 11.6019 20.2278 11.7185C20.3445 11.8741 20.4704 12.0352 20.5796 12.2037C20.6315 12.2833 20.6907 12.3648 20.7408 12.4444C20.8815 12.6574 21.0056 12.8778 21.1241 13.0981C21.1741 13.2 21.2259 13.3111 21.2704 13.4204C21.4019 13.7148 21.5056 14.0148 21.5722 14.3148C21.5926 14.3796 21.6074 14.45 21.6148 14.513V14.5278C21.637 14.6167 21.6444 14.7111 21.6518 14.8074C21.6815 15.1148 21.6667 15.4222 21.6 15.7315C21.5722 15.863 21.5352 15.987 21.4907 16.1185C21.4463 16.2445 21.4019 16.3759 21.3445 16.5C21.2334 16.7574 21.1019 17.0148 20.9463 17.2555C20.8963 17.3444 20.8371 17.4389 20.7778 17.5278C20.713 17.6222 20.6463 17.7111 20.587 17.7982C20.5056 17.9093 20.4185 18.0259 20.3297 18.1296C20.25 18.2389 20.1685 18.3482 20.0796 18.4444C19.9556 18.5907 19.8371 18.7296 19.713 18.863C19.6389 18.95 19.5593 19.0389 19.4778 19.1185C19.3981 19.2074 19.3167 19.287 19.2426 19.3611C19.1185 19.4852 19.0148 19.5815 18.9278 19.6611L18.7241 19.8482C18.6945 19.8741 18.6556 19.8889 18.6148 19.8889H17.0371V21.913H19.0222C19.4667 21.913 19.8889 21.7555 20.2296 21.4667C20.3463 21.3648 20.8556 20.9241 21.4574 20.2593C21.4778 20.237 21.5037 20.2204 21.5333 20.213L27.0167 18.6278C27.1185 18.5981 27.2222 18.6759 27.2222 18.7833Z" fill="white"/>
</svg>
