<svg width="265" height="265" viewBox="0 0 265 265" fill="none" xmlns="http://www.w3.org/2000/svg">
<rect width="264.463" height="264.463" fill="#D9D9D9"/>
<g clipPath="url(#clip0_7861_66162)">
<path fillRule="evenodd" clipRule="evenodd" d="M169.256 163.967C169.256 166.887 166.886 169.256 163.967 169.256H150.299L130.813 149.514L153.388 126.94L169.256 142.807V163.967ZM100.496 169.256C97.5758 169.256 95.2062 166.887 95.2062 163.967V161.484L116.218 142.664L142.812 169.256H100.496ZM111.074 100.496C116.916 100.496 121.653 105.232 121.653 111.074C121.653 116.916 116.916 121.653 111.074 121.653C105.232 121.653 100.496 116.916 100.496 111.074C100.496 105.232 105.232 100.496 111.074 100.496ZM163.967 89.9174H100.496C94.6535 89.9174 89.917 94.6539 89.917 100.496V163.967C89.917 169.809 94.6535 174.545 100.496 174.545H163.967C169.809 174.545 174.545 169.809 174.545 163.967V100.496C174.545 94.6539 169.809 89.9174 163.967 89.9174ZM111.074 116.364C113.994 116.364 116.363 113.994 116.363 111.074C116.363 108.155 113.994 105.785 111.074 105.785C108.154 105.785 105.785 108.155 105.785 111.074C105.785 113.994 108.154 116.364 111.074 116.364Z" fill="white"/>
</g>
<defs>
<clipPath id="clip0_7861_66162">
<rect width="84.6281" height="84.6281" fill="white" transform="translate(89.917 89.9174)"/>
</clipPath>
</defs>
</svg>
