<svg width="54" height="54" viewBox="0 0 54 54" fill="none" xmlns="http://www.w3.org/2000/svg">
<g id="Group 1261155582">
<rect id="Rectangle 10022" width="54" height="54" rx="6" fill="#7D7E7F"/>
<g id="Group">
<path id="Vector" d="M38.1087 19.8043C37.6522 19.3261 37.0217 19.0435 36.3043 19.0435H32.6957V19C32.6957 18.4565 32.4783 17.9348 32.1087 17.587C31.7391 17.2174 31.2391 17 30.6957 17H24.1739C23.6087 17 23.1087 17.2174 22.7391 17.587C22.3696 17.9565 22.1522 18.4565 22.1522 19V19.0435H18.5652C17.8478 19.0435 17.2174 19.3261 16.7609 19.8043C16.3043 20.2609 16 20.913 16 21.6087V32.4348C16 33.1522 16.2826 33.7826 16.7609 34.2391C17.2174 34.6957 17.8696 35 18.5652 35H36.3043C37.0217 35 37.6522 34.7174 38.1087 34.2391C38.5652 33.7826 38.8696 33.1304 38.8696 32.4348V21.6087C38.8696 20.8913 38.587 20.2609 38.1087 19.8043ZM37.7391 32.4348H37.7174C37.7174 32.8261 37.5652 33.1739 37.3043 33.4348C37.0435 33.6957 36.6957 33.8478 36.3043 33.8478H18.5652C18.1739 33.8478 17.8261 33.6957 17.5652 33.4348C17.3043 33.1739 17.1522 32.8261 17.1522 32.4348V21.6087C17.1522 21.2174 17.3043 20.8696 17.5652 20.6087C17.8261 20.3478 18.1739 20.1957 18.5652 20.1957H22.7609C23.087 20.1957 23.3478 19.9348 23.3478 19.6087V18.9783C23.3478 18.7391 23.4348 18.5217 23.587 18.3696C23.7391 18.2174 23.9565 18.1304 24.1957 18.1304H30.6957C30.9348 18.1304 31.1522 18.2174 31.3043 18.3696C31.4565 18.5217 31.5435 18.7391 31.5435 18.9783V19.6087C31.5435 19.9348 31.8043 20.1957 32.1304 20.1957H36.3261C36.7174 20.1957 37.0652 20.3478 37.3261 20.6087C37.587 20.8696 37.7391 21.2174 37.7391 21.6087V32.4348Z" fill="white"/>
<path id="Vector_2" d="M27.4338 21.6738C25.9555 21.6738 24.6077 22.2825 23.6512 23.239C22.6729 24.2173 22.0859 25.5434 22.0859 27.0217C22.0859 28.4999 22.6946 29.8477 23.6512 30.8043C24.6294 31.7825 25.9555 32.3695 27.4338 32.3695C28.912 32.3695 30.2599 31.7608 31.2164 30.8043C32.1946 29.826 32.7816 28.4999 32.7816 27.0217C32.7816 25.5434 32.1729 24.1956 31.2164 23.239C30.2599 22.2825 28.912 21.6738 27.4338 21.6738ZM30.3903 29.9999C29.6294 30.739 28.5859 31.2173 27.4338 31.2173C26.2816 31.2173 25.2381 30.739 24.4772 29.9999C23.7164 29.239 23.2599 28.1956 23.2599 27.0434C23.2599 25.8912 23.7381 24.8477 24.4772 24.0869C25.2381 23.326 26.2816 22.8695 27.4338 22.8695C28.5859 22.8695 29.6294 23.3477 30.3903 24.0869C31.1512 24.8477 31.6077 25.8912 31.6077 27.0434C31.6294 28.1956 31.1512 29.239 30.3903 29.9999Z" fill="white"/>
<path id="Vector_3" d="M35.1746 23.7828C35.7629 23.7828 36.2398 23.3059 36.2398 22.7176C36.2398 22.1293 35.7629 21.6523 35.1746 21.6523C34.5863 21.6523 34.1094 22.1293 34.1094 22.7176C34.1094 23.3059 34.5863 23.7828 35.1746 23.7828Z" fill="white"/>
</g>
</g>
</svg>
