<svg width="21" height="16" viewBox="0 0 21 16" fill="none" xmlns="http://www.w3.org/2000/svg">
<path d="M3.57661 15.9977C3.41634 15.9977 3.25631 15.9353 3.13615 15.811C1.11376 13.7199 0 10.9453 0 7.99829C0 5.05194 1.11339 2.27778 3.13501 0.186808C3.37014 -0.0564135 3.75795 -0.0630302 4.00134 0.172227C4.24456 0.407403 4.25109 0.795251 4.01592 1.03851C2.21636 2.89978 1.2253 5.37146 1.2253 7.99829C1.2253 10.6257 2.21669 13.0978 4.01694 14.9592C4.25215 15.2024 4.2457 15.5902 4.00248 15.8255C3.8835 15.9405 3.72993 15.9977 3.57661 15.9977Z" fill="black"/>
<path d="M5.6175 13.8875C5.45723 13.8875 5.2972 13.8251 5.17704 13.7008C3.70072 12.1744 2.8877 10.1493 2.8877 7.99864C2.8877 5.84865 3.70031 3.82404 5.17586 2.29769C5.41099 2.05439 5.79888 2.04785 6.04215 2.28303C6.28541 2.5182 6.29194 2.90605 6.05677 3.14931C4.80329 4.44596 4.11295 6.16812 4.11295 7.99864C4.11295 9.82972 4.80361 11.5522 6.05775 12.849C6.29301 13.0922 6.28651 13.4801 6.04329 13.7153C5.92439 13.8303 5.77082 13.8875 5.6175 13.8875Z" fill="black"/>
<path d="M7.66128 11.7779C7.50101 11.7779 7.34098 11.7154 7.22082 11.5911C6.29062 10.6293 5.77832 9.35373 5.77832 7.99944C5.77832 6.64582 6.29017 5.37073 7.2196 4.40908C7.45465 4.16581 7.84254 4.15907 8.08588 4.39433C8.32919 4.62947 8.3358 5.01731 8.10067 5.26062C7.39322 5.99261 7.00362 6.96525 7.00362 7.99949C7.00362 9.03421 7.39355 10.0072 8.10161 10.7394C8.33687 10.9826 8.33037 11.3704 8.08711 11.6057C7.96817 11.7206 7.8146 11.7779 7.66128 11.7779Z" fill="black"/>
<path d="M17.3382 16C17.1848 16 17.0312 15.9428 16.9123 15.8277C16.6691 15.5924 16.6627 15.2046 16.8979 14.9614C18.6988 13.0998 19.6906 10.6274 19.6906 7.99945C19.6906 5.37205 18.6992 2.89997 16.899 1.03857C16.6638 0.795351 16.6702 0.407503 16.9135 0.172287C17.1567 -0.0630112 17.5446 -0.0564352 17.7798 0.186746C19.8021 2.27784 20.9159 5.05245 20.9159 7.99945C20.9159 10.9471 19.8017 13.7221 17.7785 15.8133C17.6584 15.9375 17.4984 16 17.3382 16Z" fill="black"/>
<path d="M15.2971 13.8891C15.1437 13.8891 14.9902 13.8319 14.8712 13.7168C14.628 13.4815 14.6217 13.0936 14.8569 12.8505C16.1117 11.5536 16.8027 9.83068 16.8027 7.99907C16.8027 6.16802 16.1121 4.44546 14.858 3.14868C14.6227 2.90546 14.6292 2.51761 14.8724 2.28239C15.1157 2.0471 15.5035 2.05367 15.7387 2.29685C17.215 3.82337 18.028 5.84842 18.028 7.99907C18.028 10.1504 17.2146 12.1759 15.7375 13.7025C15.6174 13.8267 15.4573 13.8891 15.2971 13.8891Z" fill="black"/>
<path d="M13.2522 11.7802C13.0988 11.7802 12.9452 11.7229 12.8262 11.6077C12.5831 11.3724 12.5768 10.9846 12.8121 10.7415C13.5207 10.0092 13.911 9.03584 13.911 8.00063C13.911 6.9659 13.5211 5.99289 12.813 5.26074C12.5777 5.01751 12.5842 4.62967 12.8275 4.39445C13.0707 4.15915 13.4586 4.16573 13.6937 4.40895C14.6239 5.37077 15.1362 6.64634 15.1362 8.00063C15.1362 9.3556 14.6235 10.6316 13.6924 11.5936C13.5724 11.7178 13.4124 11.7802 13.2522 11.7802Z" fill="black"/>
<path d="M10.4597 9.83874C9.45501 9.83874 8.6377 9.01423 8.6377 8.00079C8.6377 6.98735 9.45505 6.16284 10.4597 6.16284C11.4643 6.16284 12.2817 6.98735 12.2817 8.00079C12.2817 9.01423 11.4643 9.83874 10.4597 9.83874Z" fill="black"/>
</svg>
