<svg width="28" height="28" viewBox="0 0 28 28" fill="none"
  xmlns="http://www.w3.org/2000/svg">
  <rect width="28" height="28" rx="6" fill="#2DE370"/>
  <path d="M10.0616 5.72729L2.86475 12.8864L14.8533 24.8182L26.8418 12.8911L19.6449 5.72729H10.0616Z" fill="#121619"/>
  <path d="M9.73149 10.3776C12.562 7.54228 17.1552 7.54228 19.9858 10.3776L22.4336 12.8254L19.9858 15.2732C17.1552 18.1084 12.562 18.1084 9.73149 15.2732L7.28369 12.8254L9.73149 10.3776Z" fill="#2DE370"/>
  <path fillRule="evenodd" clipRule="evenodd" d="M14.8514 15.8254C13.1975 15.8254 11.8555 14.5165 11.8555 12.9051C11.8555 11.2937 13.1975 9.98474 14.8514 9.98474C16.5053 9.98474 17.8474 11.2937 17.8474 12.9051C17.8474 14.5165 16.5101 15.8254 14.8514 15.8254Z" fill="white"/>
  <path d="M14.8559 14.0872C14.1613 14.0872 13.5942 13.5202 13.5942 12.8255C13.5942 12.1262 14.1613 11.5638 14.8559 11.5638C15.5506 11.5638 16.1176 12.1309 16.1176 12.8255C16.1176 13.5249 15.5553 14.0872 14.8559 14.0872Z" fill="#121619"/>
</svg>
