<svg width="86" height="114" viewBox="0 0 86 114" fill="none" xmlns="http://www.w3.org/2000/svg">
<path d="M76.5509 34.7742L47.5152 18.0104C44.5759 16.3134 40.9545 16.3134 38.0152 18.0104L8.97945 34.7742C6.04014 36.4712 4.22945 39.6074 4.22945 43.0014V76.529C4.22945 79.923 6.04015 83.0592 8.97945 84.7562L38.0152 101.52C40.9545 103.217 44.5759 103.217 47.5152 101.52L76.5509 84.7562C79.4902 83.0592 81.3009 79.923 81.3009 76.529V43.0014C81.3009 39.6074 79.4902 36.4712 76.5509 34.7742Z" stroke="#F1C94A" stroke-width="3"/>
<path d="M37.8167 89.1547C39.0543 88.4402 40.5791 88.4402 41.8167 89.1547L48.9163 93.2536C50.1539 93.9682 50.9163 95.2887 50.9163 96.7177V104.916C50.9163 106.345 50.1539 107.665 48.9163 108.38L41.8167 112.479C40.5791 113.193 39.0543 113.193 37.8167 112.479L30.7171 108.38C29.4795 107.665 28.7171 106.345 28.7171 104.916V96.7177C28.7171 95.2887 29.4795 93.9682 30.7171 93.2536L37.8167 89.1547Z" fill="#F1C94A"/>
<path d="M41.7309 107V96.328H39.7469L36.3869 99.704L37.6829 101.064L39.4589 99.256V107H41.7309Z" fill="black"/>
<path d="M40.8167 1.1547C42.0543 0.440171 43.5791 0.440169 44.8167 1.1547L57.1124 8.25364C58.35 8.96817 59.1124 10.2887 59.1124 11.7177V25.9156C59.1124 27.3447 58.35 28.6652 57.1124 29.3797L44.8167 36.4787C43.5791 37.1932 42.0543 37.1932 40.8167 36.4787L28.521 29.3797C27.2834 28.6652 26.521 27.3447 26.521 25.9156V11.7177C26.521 10.2887 27.2834 8.96817 28.521 8.25364L40.8167 1.1547Z" fill="#F1C94A"/>
<path d="M42.1349 7C41.1299 7 40.3167 7.81321 40.3167 8.81818C40.3167 9.52486 40.7215 10.1357 41.311 10.4375L37.5894 17.9091L33.5269 14.5284C33.7897 14.2124 33.9531 13.8075 33.9531 13.3636C33.9531 12.3587 33.1399 11.5455 32.1349 11.5455C31.1299 11.5455 30.3167 12.3587 30.3167 13.3636C30.3167 14.3686 31.1299 15.1818 32.1349 15.1818C32.2592 15.1818 32.387 15.1783 32.5042 15.1534L34.0383 22.4545H50.2315L51.7656 15.1534C51.8828 15.1783 52.0106 15.1818 52.1349 15.1818C53.1399 15.1818 53.9531 14.3686 53.9531 13.3636C53.9531 12.3587 53.1399 11.5455 52.1349 11.5455C51.1299 11.5455 50.3167 12.3587 50.3167 13.3636C50.3167 13.8075 50.4801 14.2124 50.7428 14.5284L46.6803 17.9091L42.9588 10.4375C43.5482 10.1357 43.9531 9.52486 43.9531 8.81818C43.9531 7.81321 43.1399 7 42.1349 7ZM33.9531 24.2727V25.6364C33.9531 26.3892 34.5639 27 35.3167 27H48.9531C49.7059 27 50.3167 26.3892 50.3167 25.6364V24.2727H33.9531Z" fill="white"/>
</svg>
