<svg width="66" height="95" viewBox="0 0 66 95" fill="none" xmlns="http://www.w3.org/2000/svg">
<path d="M57.872 29.7484L37.7248 18.1164C34.7855 16.4194 31.1641 16.4194 28.2248 18.1164L8.07768 29.7484C5.13837 31.4454 3.32768 34.5816 3.32768 37.9757V61.2396C3.32768 64.6336 5.13837 67.7698 8.07768 69.4668L28.2248 81.0988C31.1641 82.7958 34.7855 82.7958 37.7248 81.0988L57.872 69.4668C60.8113 67.7698 62.622 64.6336 62.622 61.2396V37.9757C62.622 34.5816 60.8113 31.4454 57.872 29.7484Z" stroke="#9D9D9D" stroke-width="3"/>
<path d="M30.9749 1.1547C32.2125 0.440171 33.7372 0.440169 34.9749 1.1547L47.2706 8.25364C48.5082 8.96817 49.2706 10.2887 49.2706 11.7177V25.9156C49.2706 27.3447 48.5082 28.6652 47.2706 29.3797L34.9749 36.4787C33.7373 37.1932 32.2125 37.1932 30.9749 36.4787L18.6791 29.3797C17.4415 28.6652 16.6791 27.3447 16.6791 25.9156V11.7177C16.6791 10.2887 17.4415 8.96817 18.6791 8.25364L30.9749 1.1547Z" fill="#9D9D9D"/>
<path d="M32.5598 7C31.5548 7 30.7416 7.81321 30.7416 8.81818C30.7416 9.52486 31.1464 10.1357 31.7359 10.4375L28.0143 17.9091L23.9518 14.5284C24.2146 14.2124 24.3779 13.8075 24.3779 13.3636C24.3779 12.3587 23.5647 11.5455 22.5598 11.5455C21.5548 11.5455 20.7416 12.3587 20.7416 13.3636C20.7416 14.3686 21.5548 15.1818 22.5598 15.1818C22.684 15.1818 22.8119 15.1783 22.9291 15.1534L24.4632 22.4545H40.6564L42.1904 15.1534C42.3076 15.1783 42.4355 15.1818 42.5598 15.1818C43.5647 15.1818 44.3779 14.3686 44.3779 13.3636C44.3779 12.3587 43.5647 11.5455 42.5598 11.5455C41.5548 11.5455 40.7416 12.3587 40.7416 13.3636C40.7416 13.8075 40.9049 14.2124 41.1677 14.5284L37.1052 17.9091L33.3836 10.4375C33.9731 10.1357 34.3779 9.52486 34.3779 8.81818C34.3779 7.81321 33.5647 7 32.5598 7ZM24.3779 24.2727V25.6364C24.3779 26.3892 24.9887 27 25.7416 27H39.3779C40.1308 27 40.7416 26.3892 40.7416 25.6364V24.2727H24.3779Z" fill="white"/>
<path d="M30.9749 70.1547C32.2125 69.4402 33.7372 69.4402 34.9749 70.1547L42.0744 74.2536C43.312 74.9682 44.0744 76.2887 44.0744 77.7177V85.9156C44.0744 87.3447 43.312 88.6652 42.0744 89.3797L34.9749 93.4787C33.7372 94.1932 32.2125 94.1932 30.9749 93.4787L23.8753 89.3797C22.6377 88.6652 21.8753 87.3447 21.8753 85.9156V77.7177C21.8753 76.2887 22.6377 74.9682 23.8753 74.2536L30.9749 70.1547Z" fill="#9D9D9D"/>
<path d="M36.3987 87V85H32.0467C34.8147 82.984 36.3187 81.4 36.3187 79.576C36.3187 77.448 34.5107 76.168 32.2387 76.168C30.7507 76.168 29.1667 76.712 28.1267 77.912L29.4227 79.416C30.1427 78.664 31.0707 78.184 32.2867 78.184C33.1667 78.184 34.0147 78.648 34.0147 79.576C34.0147 80.888 32.7347 81.992 28.3667 85.224V87H36.3987Z" fill="black"/>
</svg>
