<svg width="14" height="14" viewBox="0 0 14 14" fill="none" xmlns="http://www.w3.org/2000/svg">
<path d="M0.672227 8.23499C0.432286 8.23499 0.301621 8.12958 0.233955 8.04105C0.167456 7.95417 0.0986238 7.80017 0.146456 7.56135L1.20733 2.32957L0.540784 2.36951H0.535729C0.334676 2.36951 0.188845 2.30033 0.0974571 2.18051C0.0119028 2.06851 -0.018819 1.92481 0.0115139 1.77699C0.0698464 1.48794 0.354898 1.24747 0.659782 1.22976L2.21843 1.1363C2.24876 1.13424 2.27676 1.133 2.30281 1.133C2.35998 1.133 2.51126 1.133 2.60731 1.259C2.70531 1.38747 2.67225 1.55094 2.66137 1.60446L1.44649 7.59841C1.37377 7.96241 1.08911 8.21152 0.720837 8.23334L0.672227 8.23499ZM4.85 7.41147C4.2904 7.41147 3.82529 7.18954 3.50485 6.76955C3.05258 6.17703 2.93436 5.26622 3.16341 4.13553C3.56474 2.15416 4.79983 0.764891 6.23637 0.678834C6.85469 0.642187 7.36647 0.864948 7.7114 1.31665C8.16368 1.90916 8.2819 2.81997 8.05284 3.95066C7.65152 5.93121 6.41642 7.32048 4.97911 7.40695C4.93555 7.41024 4.89239 7.41147 4.85 7.41147ZM6.17765 1.75146L6.12437 1.75311C5.36994 1.79881 4.74189 2.7018 4.4444 4.16848C4.25851 5.08587 4.29623 5.77392 4.55017 6.10662C4.66567 6.25814 4.829 6.33514 5.03589 6.33514L5.09033 6.33349C5.84476 6.28861 6.47242 5.38604 6.76953 3.91895C6.95542 3.00156 6.91808 2.3131 6.66453 1.9804C6.54942 1.82846 6.38531 1.75146 6.17765 1.75146ZM10.6852 6.7366C10.1256 6.7366 9.65971 6.51467 9.33888 6.09426C8.88661 5.50174 8.76839 4.59094 8.99744 3.46025C9.39916 1.47847 10.6343 0.0896091 12.0708 0.00396361C12.6942 -0.0330945 13.1997 0.19049 13.5447 0.641775C13.9969 1.23429 14.1151 2.1451 13.8861 3.27537C13.4852 5.25551 12.2505 6.64478 10.8131 6.73249C10.7696 6.73578 10.7272 6.7366 10.6852 6.7366ZM12.0117 1.07618L11.9588 1.07783C11.204 1.12353 10.5759 2.02651 10.2788 3.49278C10.0929 4.41059 10.1306 5.09905 10.3846 5.43133C10.5001 5.58286 10.6642 5.65986 10.8711 5.65986L10.9255 5.65821C11.6796 5.61333 12.3076 4.71035 12.6047 3.24367C12.791 2.32669 12.7537 1.63823 12.4997 1.30553C12.3838 1.15318 12.2197 1.07618 12.0117 1.07618ZM4.27795 14C3.96296 14 3.66663 13.7958 3.54957 13.4651C3.39869 13.0394 3.60246 12.5646 4.00457 12.4049C4.13562 12.353 7.2708 11.1251 11.9907 10.7084C12.4188 10.6689 12.7945 11.0078 12.8303 11.4607C12.8661 11.914 12.5476 12.3118 12.1198 12.3497C7.61263 12.7474 4.58089 13.9354 4.55056 13.9473C4.46112 13.9827 4.36856 14 4.27795 14ZM0.778392 11.529C0.46573 11.529 0.170567 11.3281 0.0519578 11.0008C-0.10204 10.5762 0.097846 10.0998 0.498785 9.93719C0.70956 9.85114 5.75493 7.82653 13.181 7.41271C13.6139 7.3843 13.9763 7.73759 13.9989 8.19175C14.0218 8.64592 13.692 9.0338 13.2631 9.05768C6.0987 9.45708 1.10622 11.4545 1.05644 11.4747C0.965056 11.5113 0.870946 11.529 0.778392 11.529Z" fill="#BB1A34"/>
</svg>
