<svg width="14" height="14" viewBox="0 0 14 14" fill="none" xmlns="http://www.w3.org/2000/svg">
<path d="M14 7C14 10.8659 10.8659 14 7 14C3.13444 14 0 10.8659 0 7C0 3.13444 3.13444 0 7 0C10.8659 0 14 3.13444 14 7Z" fill="#727279"/>
<path d="M4.47222 7.00043C5.00917 7.00043 5.44444 6.04282 5.44444 4.86155C5.44444 3.68027 5.00917 2.72266 4.47222 2.72266C3.93528 2.72266 3.5 3.68027 3.5 4.86155C3.5 6.04282 3.93528 7.00043 4.47222 7.00043Z" fill="#5C5C63"/>
<path d="M9.52886 7.00043C10.0658 7.00043 10.5011 6.04282 10.5011 4.86155C10.5011 3.68027 10.0658 2.72266 9.52886 2.72266C8.99192 2.72266 8.55664 3.68027 8.55664 4.86155C8.55664 6.04282 8.99192 7.00043 9.52886 7.00043Z" fill="#5C5C63"/>
<path d="M7.00043 8.55546C5.59149 8.55546 4.6566 8.39134 3.50043 8.16657C3.23638 8.11562 2.72266 8.16657 2.72266 8.94434C2.72266 10.4999 4.5096 12.4443 7.00043 12.4443C9.49088 12.4443 11.2782 10.4999 11.2782 8.94434C11.2782 8.16657 10.7645 8.11523 10.5004 8.16657C9.34427 8.39134 8.40938 8.55546 7.00043 8.55546Z" fill="#5C5C63"/>
<path d="M3.5 8.94434C3.5 8.94434 4.66667 9.33322 7 9.33322C9.33333 9.33322 10.5 8.94434 10.5 8.94434C10.5 8.94434 9.72222 10.4999 7 10.4999C4.27778 10.4999 3.5 8.94434 3.5 8.94434Z" fill="#727279"/>
</svg>
