<svg width="14" height="14" viewBox="0 0 14 14" fill="none" xmlns="http://www.w3.org/2000/svg">
<path d="M14 7C14 10.8659 10.8659 14 7 14C3.13444 14 0 10.8659 0 7C0 3.13444 3.13444 0 7 0C10.8659 0 14 3.13444 14 7Z" fill="#FFCC4D"/>
<path d="M11.067 6.92084C11.0437 6.86834 10.4841 5.63867 9.33377 5.63867C8.18382 5.63867 7.62382 6.86834 7.60049 6.92084C7.56471 7.00134 7.58804 7.09545 7.65688 7.15067C7.72493 7.20589 7.82255 7.20784 7.8941 7.15612C7.89877 7.15262 8.38488 6.80534 9.33377 6.80534C10.2772 6.80534 10.7625 7.14795 10.7734 7.15573C10.8077 7.18139 10.8489 7.19423 10.8893 7.19423C10.9321 7.19423 10.9753 7.17984 11.0107 7.15184C11.0795 7.09662 11.1032 7.00173 11.067 6.92084ZM6.40038 6.92084C6.37705 6.86834 5.81743 5.63867 4.6671 5.63867C3.51716 5.63867 2.95716 6.86834 2.93382 6.92084C2.89805 7.00134 2.92138 7.09545 2.98982 7.15067C3.05827 7.20589 3.15588 7.20784 3.22705 7.15612C3.2321 7.15262 3.71782 6.80534 4.6671 6.80534C5.61054 6.80534 6.09588 7.14795 6.10677 7.15573C6.14099 7.18139 6.18221 7.19423 6.22266 7.19423C6.26543 7.19423 6.3086 7.17984 6.34399 7.15184C6.41321 7.09662 6.43616 7.00173 6.40038 6.92084ZM7.00043 8.55534C5.59149 8.55534 4.6566 8.39123 3.50043 8.16645C3.23638 8.11551 2.72266 8.16645 2.72266 8.94423C2.72266 10.4998 4.5096 12.4442 7.00043 12.4442C9.49088 12.4442 11.2782 10.4998 11.2782 8.94423C11.2782 8.16645 10.7645 8.11512 10.5004 8.16645C9.34427 8.39123 8.40938 8.55534 7.00043 8.55534Z" fill="#664500"/>
<path d="M3.5 8.94434C3.5 8.94434 4.66667 9.33322 7 9.33322C9.33333 9.33322 10.5 8.94434 10.5 8.94434C10.5 8.94434 9.72222 10.4999 7 10.4999C4.27778 10.4999 3.5 8.94434 3.5 8.94434Z" fill="white"/>
<path d="M13.6115 4.27756C13.6115 5.35167 12.7412 6.222 11.6671 6.222C10.593 6.222 9.72266 5.35167 9.72266 4.27756C9.72266 3.20345 11.2782 0.388672 11.6671 0.388672C12.056 0.388672 13.6115 3.20345 13.6115 4.27756Z" fill="#5DADEC"/>
</svg>
