<svg width="14" height="14" viewBox="0 0 14 14" fill="none" xmlns="http://www.w3.org/2000/svg">
<path d="M7 0C3.13444 0 0 3.13444 0 7C0 9.35317 1.16511 11.4302 2.94544 12.6992C2.98589 10.1955 2.0755 7.38889 0.546 7.38889C0.365556 7.38889 0.219333 7.41456 0.0976111 7.46006C0.215444 7.16567 0.470944 7 0.948889 7C2.60944 7 3.54122 10.3079 3.318 12.9453C4.389 13.6099 5.64744 14 7 14C8.35294 14 9.61178 13.6096 10.6828 12.9449C10.4584 10.2978 11.3898 7 13.0515 7C13.531 7 13.7873 7.16567 13.9039 7.46006C13.7818 7.41456 13.6352 7.38889 13.454 7.38889C11.9226 7.38889 11.0126 10.1885 11.0546 12.6992C12.8353 11.4302 14 9.35317 14 7C14 3.13444 10.8659 0 7 0Z" fill="#FFCC4D"/>
<path d="M7 0C3.13444 0 0 3.13444 0 7C0 7.46356 0.0478333 7.91622 0.133778 8.35489C0.224778 8.01928 0.367111 7.69728 0.545222 7.38889C0.365167 7.38889 0.219333 7.41456 0.098 7.46006C0.200667 7.20378 0.417667 7.0525 0.785556 7.01594C1.94911 5.39078 4.29217 4.27778 7 4.27778C9.70822 4.27778 12.0509 5.39039 13.2144 7.01556C13.5839 7.05211 13.8017 7.203 13.9036 7.46006C13.7822 7.41456 13.6356 7.38889 13.4552 7.38889C13.6333 7.69728 13.7752 8.01928 13.8666 8.35489C13.9526 7.91622 14 7.46356 14 7C14 3.13444 10.8659 0 7 0Z" fill="#BDDDF4"/>
<path d="M2.85771 4.63171C2.48982 5.86682 2.89932 7.07899 3.77277 7.33915C4.64621 7.59971 5.65266 6.80949 6.02016 5.57437C6.38805 4.33965 5.97893 3.1271 5.10588 2.86693C4.23243 2.60676 3.22599 3.39699 2.85771 4.63171ZM11.143 4.63171C11.5109 5.86682 11.1014 7.07899 10.2283 7.33915C9.35488 7.59971 8.34843 6.80949 7.98093 5.57437C7.61305 4.33965 8.02255 3.1271 8.89521 2.86693C9.76827 2.60676 10.7747 3.39699 11.143 4.63171Z" fill="#F5F8FA"/>
<path d="M7.00108 7C5.92892 7 5.05664 7.87228 5.05664 8.94444V11.2778C5.05664 12.3499 5.92892 13.2222 7.00108 13.2222C8.07325 13.2222 8.94553 12.3499 8.94553 11.2778V8.94444C8.94553 7.87228 8.07325 7 7.00108 7Z" fill="#664500"/>
<path d="M0.545737 7.38933C0.365292 7.38933 0.21907 7.415 0.0973479 7.4605C0.125348 7.39089 0.162292 7.32984 0.206626 7.27539C-0.517485 8.16634 1.10768 11.0993 0.317848 14.0004H2.83007C3.29285 11.2938 2.34979 7.38933 0.545737 7.38933ZM13.9037 7.4605C13.7816 7.415 13.635 7.38933 13.4537 7.38933C11.6489 7.38933 10.7062 11.279 11.1698 14.0004H13.682C12.9408 11.2607 14.326 8.52139 13.9037 7.4605Z" fill="#FCAB40"/>
</svg>
