<svg width="14" height="14" viewBox="0 0 14 14" fill="none" xmlns="http://www.w3.org/2000/svg">
<path d="M14 7C14 10.8659 10.8659 14 7 14C3.13406 14 0 10.8659 0 7C0 3.13406 3.13406 0 7 0C10.8659 0 14 3.13406 14 7Z" fill="#FFCC4D"/>
<path d="M8.55477 10.4998C8.55477 11.5743 7.85827 11.6665 6.99922 11.6665C6.13977 11.6665 5.44366 11.5743 5.44366 10.4998C5.44366 9.42612 6.13977 8.16651 6.99922 8.16651C7.85827 8.16651 8.55477 9.42612 8.55477 10.4998ZM11.6659 5.83318C11.6177 5.83318 11.5687 5.82423 11.5216 5.80518C9.48811 4.99201 8.65472 3.76701 8.62011 3.71529C8.50072 3.5364 8.54894 3.2949 8.72783 3.1759C8.90633 3.0569 9.14666 3.10434 9.26644 3.28245C9.27383 3.29295 10.017 4.36551 11.8102 5.08262C12.0097 5.16273 12.1069 5.38868 12.0272 5.58818C11.9661 5.74062 11.8199 5.83318 11.6659 5.83318ZM2.33255 5.83318C2.17816 5.83318 2.03233 5.74062 1.97127 5.58856C1.89155 5.38906 1.98839 5.16273 2.18789 5.08301C3.98144 4.3659 4.72461 3.29334 4.732 3.28284C4.85177 3.10551 5.09327 3.05845 5.27139 3.17784C5.44911 3.29762 5.49733 3.53756 5.37833 3.71568C5.34372 3.7674 4.51033 4.9924 2.47722 5.80556C2.42977 5.82423 2.38077 5.83318 2.33255 5.83318Z" fill="#664500"/>
<path d="M9.33453 6.22266H10.8901V13.6115L9.33453 13.5937V6.22266ZM3.1123 13.6115L4.66786 13.5937V6.22266H3.1123V13.6115Z" fill="#5DADEC"/>
<path d="M5.83256 7.00016C5.77422 7.00016 5.71473 6.98694 5.65911 6.95932C4.29334 6.27644 2.90967 6.95232 2.89606 6.95932C2.70356 7.05616 2.47022 6.97721 2.37417 6.78549C2.27811 6.59338 2.35589 6.35966 2.548 6.2636C2.61878 6.2286 4.29723 5.40921 6.00717 6.2636C6.19928 6.35966 6.27706 6.59338 6.181 6.78549C6.11256 6.9216 5.97528 7.00016 5.83256 7.00016ZM11.277 7.00016C11.2187 7.00016 11.1592 6.98694 11.1036 6.95932C9.73739 6.27644 8.35411 6.95232 8.3405 6.95932C8.14839 7.05577 7.91506 6.9776 7.81861 6.78549C7.72256 6.59338 7.80034 6.35966 7.99245 6.2636C8.06323 6.2286 9.74284 5.4096 11.4516 6.2636C11.6437 6.35966 11.7215 6.59338 11.6254 6.78549C11.557 6.9216 11.4197 7.00016 11.277 7.00016Z" fill="#664500"/>
<path d="M7 13.9999C10.866 13.9999 14 13.6517 14 13.2221C14 12.7926 10.866 12.4443 7 12.4443C3.13401 12.4443 0 12.7926 0 13.2221C0 13.6517 3.13401 13.9999 7 13.9999Z" fill="#5DADEC"/>
<path d="M6.99967 11.2782C7.64401 11.2782 8.16634 10.93 8.16634 10.5004C8.16634 10.0709 7.64401 9.72266 6.99967 9.72266C6.35534 9.72266 5.83301 10.0709 5.83301 10.5004C5.83301 10.93 6.35534 11.2782 6.99967 11.2782Z" fill="#E75A70"/>
</svg>
