<svg width="14" height="14" viewBox="0 0 14 14" fill="none" xmlns="http://www.w3.org/2000/svg">
<path d="M1.89299 3.54535C2.25898 3.28955 2.8107 3.33861 3.13932 3.60998L2.76242 3.06218C2.45911 2.62962 2.56774 2.16163 3.00071 1.85794C3.43368 1.55542 4.66055 2.36876 4.66055 2.36876C4.35451 1.93191 4.41175 1.37827 4.84861 1.07185C5.28547 0.766609 5.8882 0.872121 6.19423 1.30974L10.2514 7.04087L9.73428 12.0537L5.41902 10.4799L1.65509 4.89949C1.34633 4.45992 1.45301 3.85371 1.89299 3.54535Z" fill="#EF9645"/>
<path d="M1.04974 6.73303C1.04974 6.73303 0.608986 6.09061 1.25182 5.65026C1.89387 5.20992 2.33423 5.85194 2.33423 5.85194L4.37876 8.83353C4.44923 8.71595 4.52633 8.59993 4.61237 8.48546L1.77473 4.34791C1.77473 4.34791 1.33436 3.70589 1.9768 3.26554C2.61886 2.82519 3.05922 3.46722 3.05922 3.46722L5.72828 7.35948C5.82756 7.2785 5.92919 7.19712 6.03392 7.11731L2.93969 2.60443C2.93969 2.60443 2.49932 1.96241 3.14176 1.52206C3.78382 1.08171 4.22418 1.72374 4.22418 1.72374L7.31842 6.23584C7.43211 6.16614 7.54463 6.1058 7.65755 6.04194L4.76539 1.82458C4.76539 1.82458 4.32503 1.18255 4.96708 0.742205C5.60913 0.301858 6.0495 0.943885 6.0495 0.943885L9.10752 5.40342L9.57242 6.08166C7.64587 7.40309 7.46248 9.88904 8.5632 11.4943C8.78319 11.8155 9.10441 11.5955 9.10441 11.5955C7.78331 9.66868 8.18669 7.50354 10.1136 6.1825L9.54555 3.33951C9.54555 3.33951 9.33335 2.59042 10.0821 2.37784C10.8312 2.16564 11.0438 2.91474 11.0438 2.91474L11.6999 4.86301C11.96 5.63547 12.2368 6.4052 12.6032 7.13327C13.6377 9.189 13.0198 11.7439 11.0691 13.082C8.94127 14.5409 6.03237 13.9986 4.57305 11.8712L1.04974 6.73303Z" fill="#FFDC5D"/>
<path d="M4.67068 12.4589C3.11325 12.4589 1.53946 10.8852 1.53946 9.32782C1.53946 9.11251 1.38177 8.93848 1.16645 8.93848C0.951139 8.93848 0.760742 9.11251 0.760742 9.32782C0.760742 11.6639 2.33453 13.2376 4.67068 13.2376C4.886 13.2376 5.06004 13.0472 5.06004 12.8319C5.06004 12.6166 4.886 12.4589 4.67068 12.4589Z" fill="#5DADEC"/>
<path d="M2.72551 13.2207C1.55744 13.2207 0.778718 12.442 0.778718 11.274C0.778718 11.0587 0.604674 10.8846 0.389359 10.8846C0.174043 10.8846 0 11.0587 0 11.274C0 12.8314 1.16808 13.9994 2.72551 13.9994C2.94083 13.9994 3.11487 13.8253 3.11487 13.61C3.11487 13.3947 2.94083 13.2207 2.72551 13.2207ZM9.34461 0.761719C9.12969 0.761719 8.95525 0.936144 8.95525 1.15106C8.95525 1.36598 9.12969 1.5404 9.34461 1.5404C10.902 1.5404 12.4595 2.93776 12.4595 4.65515C12.4595 4.87007 12.6339 5.04449 12.8488 5.04449C13.0638 5.04449 13.2382 4.87007 13.2382 4.65515C13.2382 2.50831 11.6808 0.761719 9.34461 0.761719Z" fill="#5DADEC"/>
<path d="M11.2907 0C11.0758 0 10.9014 0.158073 10.9014 0.372991C10.9014 0.587908 11.0758 0.778686 11.2907 0.778686C12.4588 0.778686 13.2212 1.64497 13.2212 2.70905C13.2212 2.92397 13.4116 3.09839 13.6269 3.09839C13.8422 3.09839 13.9999 2.92397 13.9999 2.70905C13.9999 1.21514 12.8482 0 11.2907 0Z" fill="#5DADEC"/>
</svg>
