<svg width="14" height="14" viewBox="0 0 14 14" fill="none" xmlns="http://www.w3.org/2000/svg">
<path d="M14 7C14 10.8659 10.8659 14 7 14C3.13444 14 0 10.8659 0 7C0 3.13444 3.13444 0 7 0C10.8659 0 14 3.13444 14 7Z" fill="#FFCB4C"/>
<path d="M4.73447 7.16174C5.30298 7.16174 5.76386 6.51648 5.76386 5.72052C5.76386 4.92455 5.30298 4.2793 4.73447 4.2793C4.16595 4.2793 3.70508 4.92455 3.70508 5.72052C3.70508 6.51648 4.16595 7.16174 4.73447 7.16174Z" fill="#65471B"/>
<path d="M9.67633 8.23548C11.1544 8.23548 12.3527 7.03724 12.3527 5.55915C12.3527 4.08105 11.1544 2.88281 9.67633 2.88281C8.19824 2.88281 7 4.08105 7 5.55915C7 7.03724 8.19824 8.23548 9.67633 8.23548Z" fill="#F4F7F9"/>
<path d="M5.76459 3.8675C5.63937 3.8675 5.5157 3.81073 5.43481 3.703C5.04942 3.18928 4.64614 2.91395 4.23587 2.88478C3.69531 2.84784 3.2547 3.25306 3.17264 3.33511C3.01164 3.49611 2.75109 3.49611 2.59048 3.33511C2.42948 3.17411 2.42948 2.91356 2.59048 2.75295C2.7682 2.57523 3.41842 2.00006 4.2942 2.06345C4.95337 2.11011 5.55848 2.4955 6.09359 3.20873C6.23009 3.39073 6.19314 3.64895 6.01153 3.78506C5.93687 3.84067 5.85014 3.8675 5.76459 3.8675Z" fill="#65471B"/>
<path d="M12.7663 13.9995C12.5388 13.9995 12.3545 13.8152 12.3545 13.5877V5.76437C12.3545 5.53687 12.5388 5.35254 12.7663 5.35254C12.9938 5.35254 13.1782 5.53687 13.1782 5.76437V13.588C13.1778 13.8152 12.9938 13.9995 12.7663 13.9995Z" fill="#292F33"/>
<path d="M12.7646 4.94131C12.7436 4.94131 12.7238 4.94598 12.7032 4.94754C12.4185 3.53665 11.1698 2.4707 9.67606 2.4707C7.97311 2.4707 6.58789 3.85593 6.58789 5.55887C6.58789 7.26181 7.97311 8.64704 9.67606 8.64704C11.0247 8.64704 12.1712 7.7767 12.5912 6.5692C12.6472 6.58126 12.7047 6.58826 12.7642 6.58826C13.2192 6.58826 13.5879 6.21959 13.5879 5.76459C13.5879 5.30998 13.2192 4.94131 12.7646 4.94131ZM9.67606 7.82376C8.42734 7.82376 7.41156 6.80798 7.41156 5.55887C7.41156 4.30976 8.42772 3.29398 9.67606 3.29398C10.9248 3.29398 11.9409 4.30976 11.9409 5.55887C11.9409 6.80798 10.9248 7.82376 9.67606 7.82376Z" fill="#67757F"/>
<path d="M8.23315 11.1178C8.17131 11.1178 8.10831 11.1038 8.0492 11.0742C7.34181 10.7203 6.65426 10.7203 5.94687 11.0742C5.74309 11.1757 5.49576 11.0937 5.39426 10.8899C5.29237 10.6865 5.37481 10.4392 5.57859 10.3373C6.52009 9.86674 7.4752 9.86674 8.41748 10.3373C8.62087 10.4392 8.70331 10.6865 8.60181 10.8899C8.52987 11.0346 8.38443 11.1178 8.23315 11.1178Z" fill="#65471B"/>
<path d="M10.9086 3.6595C10.5539 3.42889 10.1316 3.29395 9.677 3.29395C8.42633 3.29395 7.41211 4.30778 7.41211 5.55883C7.41211 6.01345 7.54744 6.43578 7.77766 6.79045L10.9086 3.6595ZM8.71061 7.60439C9.00422 7.74322 9.33089 7.82333 9.677 7.82333C10.9277 7.82333 11.9419 6.8095 11.9419 5.55845C11.9419 5.21233 11.8618 4.88528 11.7229 4.59206L8.71061 7.60439Z" fill="#BDDDF4"/>
</svg>
