<svg width="14" height="14" viewBox="0 0 14 14" fill="none" xmlns="http://www.w3.org/2000/svg">
<path d="M14 7C14 10.8659 10.8659 14 7 14C3.13444 14 0 10.8659 0 7C0 3.13444 3.13444 0 7 0C10.8656 0 14 3.13444 14 7Z" fill="#77B255"/>
<path d="M5.97817 10.1585L5.38901 9.26596C5.83779 8.96963 6.40245 8.8063 6.97917 8.8063C7.55862 8.8063 8.10501 8.96263 8.55884 9.25818L7.97473 10.1546C7.42056 9.79368 6.52767 9.79524 5.97817 10.1585ZM10.9031 5.06946C10.8082 4.9528 8.2699 4.48535 8.24851 4.48535C8.20262 4.48535 8.1509 4.51996 8.14156 4.56507C8.05679 4.96446 8.12134 5.37046 8.32278 5.7088C8.5254 6.04946 8.84273 6.28046 9.21567 6.35941C9.3059 6.37846 9.39884 6.38818 9.49062 6.38818C10.1696 6.38818 10.7724 5.86863 10.9241 5.15268C10.9295 5.12352 10.9217 5.09202 10.9031 5.06946ZM5.74173 4.48535C5.71995 4.48535 3.18167 4.9528 3.08678 5.06946C3.06812 5.09241 3.06034 5.12391 3.06656 5.1523C3.21784 5.86785 3.82062 6.38741 4.50001 6.38741C4.59178 6.38741 4.68434 6.37768 4.77495 6.35863C5.54184 6.19646 6.02367 5.39185 5.84906 4.56468C5.83973 4.51996 5.78801 4.48535 5.74173 4.48535Z" fill="#292F33"/>
<path d="M4.53416 11.5299C4.36149 11.5299 4.20088 11.421 4.14332 11.2484C4.07138 11.0325 4.18804 10.7992 4.40349 10.7276C4.44043 10.7148 5.35743 10.3866 5.35743 9.47114C5.35743 8.55569 4.44043 8.22747 4.40154 8.21425C4.18766 8.13997 4.07254 7.90664 4.14527 7.69236C4.21799 7.47769 4.4486 7.36103 4.66404 7.43375C4.72588 7.45436 6.18071 7.95642 6.18071 9.47114C6.18071 10.9859 4.72588 11.4883 4.66404 11.5085C4.62127 11.5229 4.57732 11.5299 4.53416 11.5299ZM9.47499 11.5299C9.43182 11.5299 9.38827 11.5229 9.3451 11.5085C9.28327 11.4879 7.82843 10.9859 7.82843 9.47114C7.82843 7.95642 9.28327 7.45397 9.3451 7.43375C9.56249 7.36103 9.79388 7.47847 9.86582 7.69392C9.93777 7.90897 9.82188 8.14153 9.6076 8.21425C9.56871 8.22747 8.65171 8.55569 8.65171 9.47114C8.65171 10.3866 9.56871 10.7148 9.6076 10.728C9.82188 10.8023 9.93699 11.0356 9.86427 11.2499C9.80593 11.4218 9.6461 11.5299 9.47499 11.5299Z" fill="#3E721D"/>
</svg>
