<svg width="14" height="14" viewBox="0 0 14 14" fill="none" xmlns="http://www.w3.org/2000/svg">
<path d="M8.55556 0L7 3.1112L5.05556 1.16651V3.88861L1.16667 3.1112L4.27778 6.22239L0 8.5554H4.66667L2.33333 13.2222L7 10.111L11.2778 14L10.1111 8.5554H14L10.8889 6.22201L14 2.7221L9.33333 3.88861L8.55556 0Z" fill="#BB1A34"/>
<path d="M8.91042 5.00883L9.63375 4.82785L11.6661 4.31978L10.3513 5.79865L9.83831 6.37609L10.4566 6.8392L11.5941 7.69257H9.29269L9.47664 8.55214L10.0798 11.3657L7.80675 9.29933L7.39608 8.92573L6.93408 9.23383L4.89631 10.5926L5.83197 8.7215L6.34608 7.69257H3.71875L5.18058 6.89462L6.01475 6.44042L5.34314 5.76803L4.15936 4.58486L5.41197 4.83522L6.26208 5.00535V3.36643L6.82597 3.9303L7.52364 4.62749L7.96425 3.74544L8.45931 2.75488" fill="#FCAB40"/>
<path d="M8.36621 5.54182L8.66449 5.46702L9.50371 5.25736L8.96082 5.86813L8.74888 6.10647L9.00399 6.29753L9.47377 6.64981H8.52371L8.59954 7.0048L8.84882 8.16626L7.91043 7.31328L7.74049 7.15904L7.54993 7.28615L6.70877 7.84731L7.09493 7.07455L7.30727 6.64981H6.22266L6.8266 6.32039L7.17077 6.13282L6.89349 5.85534L6.40466 5.36665L6.92149 5.47012L7.27266 5.54027V4.86401L7.5056 5.09653L7.79338 5.38448L7.97538 5.02057L8.17954 4.61133" fill="#F5F8FA"/>
</svg>
