<svg width="14" height="14" viewBox="0 0 14 14" fill="none" xmlns="http://www.w3.org/2000/svg">
<path d="M14 7C14 10.8659 10.8659 14 7 14C3.13406 14 0 10.8659 0 7C0 3.13406 3.13406 0 7 0C10.8659 0 14 3.13406 14 7Z" fill="#FFCC4D"/>
<path d="M7.00077 8.49699C5.84732 8.49699 5.0816 8.36244 4.13505 8.17849C3.91844 8.13727 3.49805 8.17849 3.49805 8.81549C3.49805 10.0891 4.96144 11.6812 7.00077 11.6812C9.0401 11.6812 10.5035 10.0891 10.5035 8.81549C10.5035 8.17849 10.0827 8.13688 9.86649 8.17849C8.91994 8.36244 8.1546 8.49699 7.00077 8.49699Z" fill="#664500"/>
<path d="M6.47401 1.27653C6.13995 0.331145 5.10356 -0.165077 4.15779 0.1682C3.58379 0.370423 3.1774 0.833589 3.01912 1.37531C2.55595 1.05292 1.94929 0.947534 1.37606 1.14976C0.431064 1.48342 -0.0659356 2.52059 0.26812 3.46598C0.315564 3.59976 0.378564 3.72381 0.451676 3.83853C1.2104 5.23153 3.40256 6.21076 4.72984 6.22281C5.75534 5.38009 6.84773 3.24198 6.56462 1.68176C6.54984 1.54642 6.52068 1.41031 6.47401 1.27653ZM7.52401 1.27653C7.85806 0.331145 8.89484 -0.165077 9.84023 0.1682C10.4142 0.370423 10.8206 0.833589 10.9793 1.37531C11.4425 1.05292 12.0491 0.947534 12.6223 1.14976C13.5673 1.48342 14.064 2.52059 13.7307 3.46598C13.6828 3.59976 13.6202 3.72381 13.5467 3.83853C12.788 5.23153 10.5958 6.21076 9.26818 6.22281C8.24268 5.38009 7.15068 3.24198 7.43379 1.68176C7.44818 1.54642 7.47734 1.41031 7.52401 1.27653Z" fill="#DD2E44"/>
</svg>
