<svg width="14" height="14" viewBox="0 0 14 14" fill="none" xmlns="http://www.w3.org/2000/svg">
<path d="M13.8432 5.53345C14.6531 9.31272 12.2459 13.0333 8.46661 13.8432C4.6873 14.6531 0.966707 12.2459 0.156799 8.46666C-0.653108 4.68739 1.75445 0.96683 5.53337 0.156931C9.31268 -0.653358 13.0333 1.75418 13.8432 5.53345Z" fill="#FFCB4C"/>
<path d="M11.388 3.50358C11.6908 4.91731 10.7903 6.30926 9.3766 6.61215C7.96286 6.91503 6.5709 6.01454 6.26762 4.60081C5.96473 3.18708 6.86523 1.79513 8.27897 1.49224C9.69271 1.18936 11.0851 2.08946 11.388 3.50358Z" fill="#F4F7F9"/>
<path d="M8.67581 4.40434C9.11323 4.40434 9.46783 4.04974 9.46783 3.61233C9.46783 3.17491 9.11323 2.82031 8.67581 2.82031C8.23839 2.82031 7.88379 3.17491 7.88379 3.61233C7.88379 4.04974 8.23839 4.40434 8.67581 4.40434Z" fill="#292F33"/>
<path d="M5.48038 5.5523C5.65768 6.37891 5.13083 7.1927 4.30421 7.37C3.47758 7.5473 2.66379 7.02046 2.48649 6.19384C2.30918 5.36722 2.83603 4.55343 3.66266 4.37613C4.48929 4.19883 5.30308 4.72568 5.48038 5.5523Z" fill="#F4F7F9"/>
<path d="M4.14264 6.90338C4.55041 6.816 4.81013 6.41461 4.72275 6.00685C4.63537 5.59909 4.23398 5.33937 3.82621 5.42675C3.41845 5.51413 3.15873 5.91552 3.24611 6.32328C3.33349 6.73104 3.73488 6.99076 4.14264 6.90338Z" fill="#292F33"/>
<path d="M7.24514 8.14052C5.86756 8.43563 4.91962 8.47102 3.7419 8.49357C3.47322 8.4994 2.98176 8.65648 3.14467 9.417C3.4705 10.9377 5.62494 12.4641 8.06011 11.9423C10.4949 11.4206 11.8347 9.14522 11.5089 7.62457C11.346 6.86405 10.8328 6.92159 10.5855 7.02735C9.50223 7.48887 8.62272 7.84541 7.24514 8.14052Z" fill="#65471B"/>
<path d="M4.2793 9.33301V11.6659C4.2793 12.8323 5.05693 13.9988 6.6122 13.9988C8.16747 13.9988 8.94511 12.8323 8.94511 11.6659V9.33301H4.2793Z" fill="#E8596E"/>
<path d="M6.61268 12.3968C6.72972 12.3968 6.82459 12.3019 6.82459 12.1849V9.7373H6.40039V12.1849C6.40078 12.3019 6.49565 12.3968 6.61268 12.3968Z" fill="#DD2F45"/>
<path d="M3.90527 9.25372C3.90527 9.25372 5.12733 9.38941 7.40852 8.90067C9.68972 8.41193 10.7489 7.78711 10.7489 7.78711C10.7489 7.78711 10.3145 9.47067 7.65309 10.0411C4.99163 10.6115 3.90527 9.25372 3.90527 9.25372Z" fill="white"/>
</svg>
