<svg width="14" height="14" viewBox="0 0 14 14" fill="none" xmlns="http://www.w3.org/2000/svg">
<path d="M11.2778 1.94423C11.7073 1.94423 12.0556 1.596 12.0556 1.16645C12.0556 0.736895 11.7073 0.388672 11.2778 0.388672C10.8482 0.388672 10.5 0.736895 10.5 1.16645C10.5 1.596 10.8482 1.94423 11.2778 1.94423Z" fill="#4289C1"/>
<path d="M12.8337 4.27767C13.478 4.27767 14.0003 3.75533 14.0003 3.111C14.0003 2.46667 13.478 1.94434 12.8337 1.94434C12.1893 1.94434 11.667 2.46667 11.667 3.111C11.667 3.75533 12.1893 4.27767 12.8337 4.27767Z" fill="#4289C1"/>
<path d="M12.8337 2.72201C13.478 2.72201 14.0003 2.19967 14.0003 1.55534C14.0003 0.911006 13.478 0.388672 12.8337 0.388672C12.1893 0.388672 11.667 0.911006 11.667 1.55534C11.667 2.19967 12.1893 2.72201 12.8337 2.72201Z" fill="#4289C1"/>
<path d="M2.72114 1.94423C3.15069 1.94423 3.49891 1.596 3.49891 1.16645C3.49891 0.736895 3.15069 0.388672 2.72114 0.388672C2.29158 0.388672 1.94336 0.736895 1.94336 1.16645C1.94336 1.596 2.29158 1.94423 2.72114 1.94423Z" fill="#4289C1"/>
<path d="M1.16667 4.27767C1.811 4.27767 2.33333 3.75533 2.33333 3.111C2.33333 2.46667 1.811 1.94434 1.16667 1.94434C0.522334 1.94434 0 2.46667 0 3.111C0 3.75533 0.522334 4.27767 1.16667 4.27767Z" fill="#4289C1"/>
<path d="M1.16667 2.72201C1.811 2.72201 2.33333 2.19967 2.33333 1.55534C2.33333 0.911006 1.811 0.388672 1.16667 0.388672C0.522334 0.388672 0 0.911006 0 1.55534C0 2.19967 0.522334 2.72201 1.16667 2.72201Z" fill="#4289C1"/>
<path d="M14 7C14 10.8659 10.8659 14 7 14C3.13406 14 0 10.8659 0 7C0 3.13406 3.13406 0 7 0C10.8659 0 14 3.13406 14 7Z" fill="#FEE7B8"/>
<path d="M11.8619 2.72179C12.3988 2.72179 12.8341 2.28651 12.8341 1.74957C12.8341 1.21262 12.3988 0.777344 11.8619 0.777344C11.3249 0.777344 10.8896 1.21262 10.8896 1.74957C10.8896 2.28651 11.3249 2.72179 11.8619 2.72179Z" fill="#4289C1"/>
<path d="M12.4448 3.49989C12.8743 3.49989 13.2225 3.15167 13.2225 2.72211C13.2225 2.29256 12.8743 1.94434 12.4448 1.94434C12.0152 1.94434 11.667 2.29256 11.667 2.72211C11.667 3.15167 12.0152 3.49989 12.4448 3.49989Z" fill="#4289C1"/>
<path d="M2.13921 2.72179C2.67616 2.72179 3.11144 2.28651 3.11144 1.74957C3.11144 1.21262 2.67616 0.777344 2.13921 0.777344C1.60227 0.777344 1.16699 1.21262 1.16699 1.74957C1.16699 2.28651 1.60227 2.72179 2.13921 2.72179Z" fill="#4289C1"/>
<path d="M1.55512 3.49989C1.98468 3.49989 2.3329 3.15167 2.3329 2.72211C2.3329 2.29256 1.98468 1.94434 1.55512 1.94434C1.12557 1.94434 0.777344 2.29256 0.777344 2.72211C0.777344 3.15167 1.12557 3.49989 1.55512 3.49989Z" fill="#4289C1"/>
<path d="M2.6952 9.72244C3.55431 9.72244 4.25076 9.02599 4.25076 8.16688C4.25076 7.30777 3.55431 6.61133 2.6952 6.61133C1.83609 6.61133 1.13965 7.30777 1.13965 8.16688C1.13965 9.02599 1.83609 9.72244 2.6952 9.72244Z" fill="#FF7892"/>
<path d="M11.2509 9.72244C12.11 9.72244 12.8064 9.02599 12.8064 8.16688C12.8064 7.30777 12.11 6.61133 11.2509 6.61133C10.3918 6.61133 9.69531 7.30777 9.69531 8.16688C9.69531 9.02599 10.3918 9.72244 11.2509 9.72244Z" fill="#FF7892"/>
<path d="M10.6314 9.18868C10.5622 9.12607 10.4587 9.12218 10.3844 9.1774C10.3693 9.18868 8.85923 10.3052 7.00111 10.3052C5.14767 10.3052 3.63256 9.18868 3.61778 9.1774C3.5435 9.12218 3.44006 9.12685 3.37084 9.18868C3.302 9.2509 3.28645 9.35357 3.33428 9.4329C3.38445 9.51651 4.58534 12.0552 7.00111 12.0552C9.41689 12.0552 10.6182 9.51651 10.6679 9.4329C10.7158 9.35318 10.7006 9.2509 10.6314 9.18868Z" fill="#DA2F47"/>
<path d="M4.47222 5.83355C5.00917 5.83355 5.44444 5.22416 5.44444 4.47244C5.44444 3.72072 5.00917 3.11133 4.47222 3.11133C3.93528 3.11133 3.5 3.72072 3.5 4.47244C3.5 5.22416 3.93528 5.83355 4.47222 5.83355Z" fill="#664500"/>
<path d="M9.91558 5.83355C10.4525 5.83355 10.8878 5.22416 10.8878 4.47244C10.8878 3.72072 10.4525 3.11133 9.91558 3.11133C9.37864 3.11133 8.94336 3.72072 8.94336 4.47244C8.94336 5.22416 9.37864 5.83355 9.91558 5.83355Z" fill="#664500"/>
<path d="M7.19412 8.94488C7.94584 8.94488 8.55523 8.33549 8.55523 7.58377C8.55523 6.83205 7.94584 6.22266 7.19412 6.22266C6.4424 6.22266 5.83301 6.83205 5.83301 7.58377C5.83301 8.33549 6.4424 8.94488 7.19412 8.94488Z" fill="#BB1A34"/>
</svg>
