<?xml version="1.0" standalone="no"?>
<!DOCTYPE svg PUBLIC "-//W3C//DTD SVG 1.1//EN" "http://www.w3.org/Graphics/SVG/1.1/DTD/svg11.dtd" >
<svg xmlns="http://www.w3.org/2000/svg">
<metadata>Generated by IcoMoon</metadata>
<defs>
<font id="icomoon" horiz-adv-x="1024">
<font-face units-per-em="1024" ascent="960" descent="-64" />
<missing-glyph horiz-adv-x="1024" />
<glyph unicode="&#x20;" horiz-adv-x="512" d="" />
<glyph unicode="&#xe900;" glyph-name="arrowtop" d="M24.994 202.77c33.325-33.325 87.355-33.325 120.68 0l337.882 337.882 337.882-337.882c33.329-33.325 87.353-33.325 120.676 0 33.331 33.324 33.331 87.355 0 120.679l-398.219 398.222c-33.324 33.325-87.355 33.325-120.679 0l-398.222-398.222c-33.325-33.324-33.325-87.355 0-120.679z" />
<glyph unicode="&#xe901;" glyph-name="comments" d="M170.666 850.286c-16.165 0-31.669-6.422-43.099-17.853s-17.853-26.934-17.853-43.099v-691.9l132.616 132.617c6.859 6.859 16.161 10.712 25.86 10.712h585.145c16.165 0 31.664 6.421 43.096 17.852s17.854 26.935 17.854 43.1v487.619c0 16.165-6.422 31.669-17.854 43.099s-26.931 17.853-43.096 17.853h-682.669zM75.847 884.153c25.148 25.148 59.255 39.276 94.819 39.276h682.669c35.562 0 69.669-14.128 94.815-39.276s39.278-59.255 39.278-94.819v-487.619c0-35.564-14.131-69.672-39.278-94.822-25.147-25.147-59.253-39.27-94.815-39.27h-569.997l-184.336-184.342c-10.459-10.459-26.189-13.583-39.855-7.921-13.666 5.654-22.576 18.995-22.576 33.785v780.191c0 35.564 14.128 69.671 39.276 94.819z" />
<glyph unicode="&#xe902;" glyph-name="avalanche" horiz-adv-x="1158" d="M700.055-47.845c11.936-7.787 32.396-7.787 73.069-7.787h275.71c40.675 0 61.137 0 73.325 8.025 13.149 8.528 21.428 22.909 22.167 38.482 0.699 13.904-9.069 30.76-28.213 63.797-0.661 1.124-1.318 2.268-1.992 3.435l-139.678 238.915c-19.407 32.817-29.202 49.388-41.784 55.795-13.875 7.066-30.208 7.066-44.083 0-12.664-6.574-22.895-23.866-43.11-58.7l-138.084-237.074c-20.146-34.774-30.215-52.153-29.487-66.409 0.973-15.587 9.009-29.95 22.161-38.48zM771.312 577.912c5.358 22.163 5.358 45.548 0 67.711-4.833 20.306-15.905 39.651-37.743 77.8l-0.496 0.87-97.672 170.494c-20.213 35.562-30.444 53.342-43.353 59.917-13.88 7.062-30.444 7.062-44.33 0-12.907-6.574-23.138-24.355-43.353-59.917l-475.098-837.425c-19.972-35.074-29.958-52.618-29.229-66.979 0.975-15.594 9.011-29.718 22.164-38.249 12.181-7.787 32.153-7.787 72.585-7.787h192.417c45.301 0 67.954 0 88.171 5.596 22.163 6.587 42.38 18.272 59.187 34.351 15.436 14.708 26.573 34.202 48.553 72.668l0.646 1.131 249.558 441.146c22.163 38.727 33.124 58.212 37.995 78.672z" />
<glyph unicode="&#xe903;" glyph-name="bsc" d="M313.139 529.715l198.861 198.861 198.963-198.963 115.712 115.712-314.675 314.675-314.573-314.573 115.712-115.712zM0 448l115.712 115.712 115.712-115.712-115.712-115.712-115.712 115.712zM313.139 366.285l198.861-198.861 198.963 198.963 115.712-115.661-314.675-314.726-314.726 314.726 115.866 115.558zM792.576 448l115.712 115.712 115.712-115.712-115.712-115.712-115.712 115.712zM629.35 448.102h0.102v-0.102l-117.453-117.453-117.504 117.453 0.205 0.154 30.515 30.566 86.784 86.733 117.35-117.35z" />
<glyph unicode="&#xe904;" glyph-name="collection" horiz-adv-x="768" d="M761.887 583.604c0 7.009-5.676 12.698-12.698 12.698h-76.189v63.491c0 7.009-5.676 12.698-12.698 12.698h-76.189v63.491c0 7.009-5.676 12.698-12.698 12.698h-482.528c-3.377 0-6.603-1.334-8.977-3.721l-76.176-76.189c-1.168-1.168-2.095-2.552-2.743-4.101-0.635-1.537-0.99-3.187-0.99-4.889v-558.703c0-7.014 5.676-12.698 12.698-12.698h76.189v-63.497c0-7.006 5.676-12.698 12.698-12.698h76.188v-63.488c0-7.006 5.676-12.698 12.698-12.698h482.528c3.377 0 6.603 1.331 8.978 3.721l76.175 76.177c1.169 1.169 3.733 3.806 3.733 8.986v558.721zM25.396 202.661h58.234l34.373-34.374c2.388-2.388 5.6-3.721 8.978-3.721h63.491c7.022 0 12.698 5.688 12.698 12.698s-5.676 12.698-12.698 12.698h-58.233l-34.374 34.374c-2.388 2.387-5.6 3.721-8.978 3.721h-63.49v419.038h165.075c7.022 0 12.698 5.688 12.698 12.698s-5.676 12.698-12.698 12.698h-147.12l50.793 50.793h464.573v-88.887h-58.234l-34.374 34.374c-2.387 2.388-5.6 3.721-8.977 3.721h-63.491c-7.022 0-12.698-5.688-12.698-12.698s5.676-12.698 12.698-12.698h58.233l34.374-34.374c2.388-2.387 5.6-3.721 8.978-3.721h63.491v-419.038h-165.076c-7.022 0-12.698-5.688-12.698-12.698s5.676-12.698 12.698-12.698h147.12l-50.792-50.793h-464.573v88.887zM114.283 88.38h380.944c3.377 0 6.603 1.331 8.977 3.721l76.176 76.174c1.168 1.168 3.733 3.581 3.733 8.991v355.547h25.396c7.022 0 12.698 5.688 12.698 12.698s-5.676 12.698-12.698 12.698h-25.396v88.887h63.491v-533.321h-76.189c-7.022 0-12.698-5.688-12.698-12.696 0-7.014 5.676-12.698 12.698-12.698h58.234l-50.793-50.799h-464.573v50.799zM667.744-38.605h-464.573v50.79h380.943c3.377 0 6.603 1.34 8.978 3.721l76.175 76.177c1.168 1.169 3.733 3.584 3.733 8.994v355.546h25.396c7.022 0 12.698 5.688 12.698 12.698s-5.676 12.698-12.698 12.698h-25.396v88.887h63.491v-533.325h-76.188c-7.022 0-12.698-5.683-12.698-12.698 0-7.006 5.676-12.698 12.698-12.698h58.233l-50.792-50.79zM341.326 885.233c-14.362 0-26.006 11.643-26.006 26.006s11.644 26.006 26.006 26.006c14.362 0 26.005-11.643 26.005-26.006s-11.643-26.006-26.005-26.006zM341.326 862.479c26.929 0 48.76 21.831 48.76 48.761s-21.831 48.761-48.76 48.761c-26.93 0-48.761-21.831-48.761-48.761s21.831-48.761 48.761-48.761zM429.094 855.977h52.012v-52.012h-52.012v52.012zM422.594 878.732c-8.977 0-16.254-7.277-16.254-16.254v-65.015c0-8.976 7.277-16.253 16.254-16.253h65.014c8.977 0 16.253 7.277 16.253 16.253v65.015c0 8.976-7.276 16.254-16.253 16.254h-65.014zM227.55 901.487c8.13 0 15.642-4.337 19.707-11.378l42.228-73.141c4.064-7.041 4.064-15.715 0-22.755s-11.577-11.377-19.707-11.377h-84.456c-8.129 0-15.642 4.337-19.706 11.377s-4.064 15.714 0 22.755l42.228 73.141c4.064 7.040 11.577 11.378 19.706 11.378zM227.55 878.732l-42.228-73.141h84.456l-42.228 73.141zM520.623 291.547v253.962c0 4.711-2.604 9.015-6.756 11.225l-215.868 114.284c-3.721 1.968-8.165 1.968-11.885 0l-215.868-114.284c-4.152-2.196-6.755-6.513-6.755-11.225v-253.962c0-4.711 2.603-9.016 6.755-11.226l215.868-114.283c5.13-3.073 10.019-0.991 11.885 0l215.868 114.283c4.152 2.197 6.756 6.514 6.756 11.226zM495.227 299.191l-203.17-107.566-203.17 107.566v238.674l203.17 107.552 203.17-107.565v-238.661zM242.077 547.465l-82.982-44.215c-4.127-2.196-6.717-6.514-6.717-11.2v-73.521c0-7.010 5.676-12.698 12.698-12.698s12.698 5.688 12.698 12.698v65.903l67.288 35.86c7.581-18.54 25.752-31.669 46.996-31.669 28.012 0 50.792 22.78 50.792 50.792s-22.78 50.792-50.792 50.792c-25.257 0-46.082-18.564-49.98-42.742zM317.453 539.415c0-14.006-11.39-25.396-25.396-25.396s-25.396 11.39-25.396 25.396c0 14.006 11.39 25.396 25.396 25.396s25.396-11.39 25.396-25.396zM292.057 348.435c-28.012 0-50.792-22.781-50.792-50.792s22.78-50.793 50.792-50.793c25.256 0 46.082 18.565 49.98 42.742l82.982 44.215c4.127 2.196 6.717 6.513 6.717 11.199v73.522c0 7.009-5.676 12.698-12.698 12.698s-12.698-5.689-12.698-12.698v-65.903l-67.287-35.86c-7.581 18.54-25.752 31.669-46.996 31.669zM292.057 272.246c-14.006 0-25.396 11.39-25.396 25.397s11.39 25.396 25.396 25.396c14.006 0 25.396-11.39 25.396-25.396s-11.39-25.397-25.396-25.397zM419.038 456.623c7.013 0 12.698 5.685 12.698 12.698s-5.686 12.698-12.698 12.698c-7.013 0-12.698-5.685-12.698-12.698s5.686-12.698 12.698-12.698zM165.076 355.038c7.013 0 12.698 5.685 12.698 12.698s-5.685 12.698-12.698 12.698c-7.013 0-12.698-5.685-12.698-12.698s5.686-12.698 12.698-12.698z" />
<glyph unicode="&#xe905;" glyph-name="emoji" d="M512 874.667c-235.641 0-426.667-191.025-426.667-426.667s191.025-426.667 426.667-426.667c235.642 0 426.667 191.025 426.667 426.667s-191.025 426.667-426.667 426.667zM12.19 448c0 276.037 223.772 499.81 499.81 499.81s499.81-223.772 499.81-499.81c0-276.036-223.773-499.81-499.81-499.81s-499.81 223.773-499.81 499.81zM336.444 586.984c0 20.198 16.373 36.571 36.571 36.571h0.494c20.198 0 36.571-16.373 36.571-36.571s-16.373-36.571-36.571-36.571h-0.494c-20.198 0-36.571 16.374-36.571 36.571zM614.395 586.984c0 20.198 16.374 36.571 36.571 36.571h0.492c20.197 0 36.571-16.373 36.571-36.571s-16.374-36.571-36.571-36.571h-0.492c-20.197 0-36.571 16.374-36.571 36.571zM326.711 355.338c-29.257-21.943-29.248-21.953-29.239-21.967l0.064-0.083 0.403-0.526 0.906-1.161c0.744-0.941 1.767-2.209 3.064-3.755 2.592-3.087 6.294-7.309 11.063-12.288 9.509-9.918 23.433-23.016 41.447-36.118 35.886-26.102 89.605-53.321 157.585-53.321 67.984 0 121.7 27.219 157.589 53.321 18.013 13.102 31.939 26.2 41.448 36.118 4.769 4.979 8.47 9.201 11.059 12.288 1.302 1.546 2.321 2.814 3.067 3.755l0.907 1.161 0.293 0.385 0.112 0.141 0.044 0.059c0.005 0.015 0.034 0.049-29.223 21.992l29.257-21.943c12.122 16.16 8.845 39.083-7.314 51.2-16.121 12.093-38.975 8.86-51.112-7.202l-0.312-0.395c-0.332-0.414-0.912-1.141-1.741-2.126-1.663-1.98-4.291-4.993-7.846-8.704-7.139-7.451-17.827-17.515-31.661-27.575-27.809-20.226-66.736-39.331-114.566-39.331-47.827 0-86.756 19.105-114.565 39.331-13.834 10.060-24.519 20.124-31.658 27.575-3.555 3.711-6.186 6.724-7.846 8.704-0.829 0.985-1.412 1.712-1.742 2.126l-0.305 0.39c-0.002 0.005 0.002 0 0 0-12.141 16.062-35 19.3-51.12 7.207-16.158-12.117-19.415-35.065-7.296-51.224l29.239 21.967z" />
<glyph unicode="&#xe906;" glyph-name="contacts" horiz-adv-x="1195" d="M796.444 760.889c0-109.967-89.145-199.112-199.111-199.112s-199.111 89.145-199.111 199.112c0 109.966 89.145 199.111 199.111 199.111s199.111-89.145 199.111-199.111zM1128.294 628.148c0-73.311-59.426-132.74-132.736-132.74s-132.745 59.43-132.745 132.74c0 73.311 59.435 132.741 132.745 132.741s132.736-59.43 132.736-132.741zM862.814 163.556c0 146.621-118.859 265.481-265.481 265.481s-265.481-118.86-265.481-265.481v-199.114h530.962v199.114zM331.852 628.148c0-73.311-59.43-132.74-132.741-132.74s-132.74 59.43-132.74 132.74c0 73.311 59.43 132.741 132.74 132.741s132.741-59.43 132.741-132.741zM995.558-35.558v199.114c0 69.964-18.048 135.713-49.732 192.851 15.898 4.087 32.555 6.26 49.732 6.26 109.961 0 199.108-89.145 199.108-199.111v-199.114h-199.108zM248.84 356.407c-31.686-57.137-49.729-122.887-49.729-192.851v-199.114h-199.111v199.114c0 109.966 89.145 199.111 199.111 199.111 17.171 0 33.834-2.173 49.729-6.26z" />
<glyph unicode="&#xe907;" glyph-name="copy" d="M102.4 960c-56.576 0-102.4-45.824-102.4-102.4v-716.8h102.4v716.8h716.8v102.4h-716.8zM307.2 755.2c-56.576 0-102.4-45.824-102.4-102.4v-614.4c0-56.576 45.824-102.4 102.4-102.4h614.4c56.576 0 102.4 45.824 102.4 102.4v614.4c0 56.576-45.824 102.4-102.4 102.4h-614.4zM307.2 652.8h614.4v-614.4h-614.4v614.4z" />
<glyph unicode="&#xe908;" glyph-name="crown" horiz-adv-x="1229" d="M605.092 960c-51.456 0-93.092-41.636-93.092-93.091 0-36.182 20.726-67.454 50.908-82.909l-190.544-382.546-208 173.091c13.454 16.182 21.818 36.909 21.818 59.636 0 51.455-41.636 93.091-93.091 93.091s-93.091-41.636-93.091-93.091c0-51.454 41.636-93.091 93.091-93.091 6.364 0 12.909 0.182 18.909 1.455l78.545-373.816h829.092l78.546 373.816c6.001-1.273 12.544-1.455 18.908-1.455 51.456 0 93.092 41.636 93.092 93.091s-41.636 93.091-93.092 93.091c-51.456 0-93.092-41.636-93.092-93.091 0-22.727 8.366-43.454 21.816-59.636l-208-173.091-190.546 382.546c30.182 15.455 50.913 46.727 50.913 82.909 0 51.454-41.636 93.091-93.092 93.091zM186.182 75.638v-69.821c0-38.543 31.273-69.816 69.818-69.816h698.184c38.543 0 69.816 31.273 69.816 69.816v69.821h-837.818z" />
<glyph unicode="&#xe909;" glyph-name="filterby" d="M0 846.222c0 62.838 50.94 113.778 113.778 113.778h796.444c62.839 0 113.778-50.94 113.778-113.778v-121.818c0-30.176-11.986-59.116-33.326-80.453l-320.649-320.651v-128.137c0-15.093-5.996-29.559-16.663-40.232l-202.272-202.268c-16.27-16.27-40.739-21.14-61.997-12.334s-35.119 29.548-35.119 52.56v330.411l-320.65 320.651c-21.337 21.338-33.325 50.278-33.325 80.453v121.818zM910.222 846.222h-796.444v-121.818l320.651-320.651c21.337-21.34 33.324-50.28 33.324-80.453v-193.070l88.494 88.496v104.573c0 30.174 11.987 59.113 33.327 80.453l320.649 320.651v121.818z" />
<glyph unicode="&#xe90a;" glyph-name="eth" horiz-adv-x="627" d="M0 397.26l313.469-185.601 312.93 185.601-312.93-441.879-313.469 441.879zM313.469 280.726l-313.469 185.599 313.469 493.675 313.469-493.675-313.469-185.599z" />
<glyph unicode="&#xe90b;" glyph-name="facebook" horiz-adv-x="512" d="M502.966 534.608l-14.711-127.419c-0.611-5.813-3.335-11.201-7.657-15.139s-9.937-6.152-15.783-6.222h-132.987l-0.665-377.768c0.045-4.476-1.674-8.792-4.784-12.010s-7.364-5.083-11.84-5.193h-134.732c-2.24 0-4.457 0.446-6.519 1.324s-3.924 2.165-5.477 3.774c-1.553 1.616-2.763 3.533-3.558 5.625s-1.159 4.33-1.069 6.568v377.68h-99.741c-3.133 0.032-6.228 0.682-9.11 1.911s-5.493 3.013-7.685 5.252c-2.192 2.238-3.922 4.886-5.090 7.793s-1.753 6.015-1.72 9.148l-0.499 127.418c-0.044 3.144 0.532 6.265 1.694 9.186s2.889 5.584 5.081 7.839c2.192 2.254 4.807 4.054 7.694 5.297s5.992 1.905 9.136 1.949h100.239v123.013c0 142.795 84.779 220.509 209.122 220.509h101.901c3.15-0.033 6.264-0.687 9.161-1.925s5.522-3.037 7.722-5.291c2.201-2.255 3.934-4.922 5.102-7.848s1.746-6.054 1.702-9.205v-107.221c0.044-3.15-0.535-6.279-1.702-9.205s-2.902-5.593-5.102-7.848c-2.201-2.255-4.825-4.054-7.722-5.292s-6.011-1.892-9.161-1.925h-62.504c-67.574 0-80.706-33.246-80.706-81.288v-106.473h148.53c3.378-0.042 6.708-0.799 9.773-2.221s5.794-3.476 8.007-6.027c2.214-2.552 3.863-5.543 4.838-8.777s1.255-6.638 0.821-9.988z" />
<glyph unicode="&#xe90c;" glyph-name="filterarrow" horiz-adv-x="1195" d="M656.762 864c12.381 13.333 32.19 13.333 42.095 0l49.524-53.333c12.381-10.667 12.381-32 0-45.333l-240.19-250.667h614.096c17.331 0 29.713-13.333 29.713-32v-74.667c0-16-12.382-32-29.713-32h-614.096l240.19-248c12.381-13.333 12.381-34.662 0-45.329l-49.524-53.333c-9.905-13.338-29.714-13.338-42.095 0l-366.476 394.662c-12.381 13.333-12.381 32 0 45.333l366.476 394.667zM171.429 928v-960c0-18.671-12.381-32-29.715-32h-69.333c-14.857 0-29.714 13.329-29.714 32v960c0 16 14.857 32 29.714 32h69.333c17.334 0 29.715-16 29.715-32z" />
<glyph unicode="&#xe90d;" glyph-name="nft" d="M492.36 942.354c9.395 5.323 20.894 5.323 30.289 0l409.596-232.091c9.631-5.454 15.575-15.664 15.575-26.727v-464.246c0-11.064-5.944-21.274-15.575-26.726l-409.596-232.090c-9.395-5.325-20.894-5.325-30.289 0l-409.602 232.090c-9.626 5.453-15.576 15.662-15.576 26.726v464.246c0 11.064 5.949 21.273 15.576 26.727l409.602 232.091zM128.622 665.633v-428.439l378.882-214.687 378.875 214.687v428.439l-378.875 214.684-378.882-214.684zM507.503 698.612c10.177 0 19.694-5.040 25.412-13.458l147.042-216.474c7.081-10.419 7.081-24.105 0-34.524l-147.042-216.474c-5.718-8.417-15.235-13.455-25.412-13.455s-19.693 5.038-25.412 13.455l-147.048 216.474c-7.078 10.419-7.078 24.105 0 34.525l147.048 216.474c5.719 8.418 15.235 13.458 25.412 13.458zM397.592 451.418l109.91-161.8 109.908 161.8-109.908 161.802-109.91-161.802z" />
<glyph unicode="&#xe90e;" glyph-name="gif" horiz-adv-x="808" d="M629.539 234.712v-61.235h91.858c21.143 0 38.276-17.133 38.276-38.276 0-21.138-17.133-38.271-38.276-38.271h-91.858v-78.46c0-21.143-17.133-38.276-38.271-38.276-21.132 0-38.276 17.133-38.276 38.276v216.242c0 52.763 42.927 95.685 95.685 95.685h72.72c21.143 0 38.276-17.133 38.276-38.271 0-21.143-17.133-38.276-38.276-38.276h-72.72c-10.547 0-19.138-8.58-19.138-19.138zM770.064 777.931l-148.448 148.438c-21.687 21.686-50.516 33.632-81.187 33.632h-360.387c-84.419 0-153.095-68.676-153.095-153.095v-363.6c0-21.14 17.133-38.276 38.274-38.276s38.273 17.135 38.273 38.276v363.6c0 42.206 34.342 76.548 76.548 76.548h360.387c10.218 0 19.828-3.984 27.061-11.213l148.442-148.437c7.227-7.229 11.205-16.842 11.205-27.061v-253.436c0-21.14 17.144-38.276 38.276-38.276 21.138 0 38.271 17.135 38.271 38.276v253.436c0 30.664-11.938 59.496-33.62 81.189zM285.078 171.563h-66.979c-21.133 0-38.274-17.133-38.274-38.276 0-21.138 17.141-38.271 38.274-38.271h26.761c-8.679-22.948-31.037-38.276-57.381-38.276-33.766 0-61.238 27.47-61.238 61.241v72.72c0 33.765 27.472 61.235 61.238 61.235 21.559 0 41.144-11.016 52.372-29.47 10.989-18.060 34.536-23.784 52.596-12.789 18.053 10.989 23.779 34.536 12.79 52.59-25.237 41.467-69.259 66.215-117.759 66.215-75.972 0-137.785-61.812-137.785-137.782v-72.72c0-75.975 61.813-137.787 137.785-137.787 32.002 0 63.092 10.876 87.551 30.618 24.542 19.817 41.443 47.756 47.588 78.649 0.486 2.458 0.732 4.964 0.732 7.47v36.357c0 21.143-17.134 38.276-38.274 38.276zM438.173 330.396c-21.133 0-38.274-17.133-38.274-38.271v-273.656c0-21.143 17.141-38.276 38.274-38.276 21.14 0 38.273 17.133 38.273 38.276v273.656c0 21.138-17.133 38.271-38.273 38.271z" />
<glyph unicode="&#xe90f;" glyph-name="heart-border" horiz-adv-x="1138" d="M691.894 922.007c37.877 15.694 78.473 23.771 119.472 23.771s81.596-8.078 119.467-23.771c37.877-15.694 72.289-38.696 101.274-67.692 28.991-28.98 51.985-63.387 67.675-101.257 15.696-37.875 23.774-78.471 23.774-119.47s-8.078-81.594-23.774-119.47c-15.69-37.872-38.69-72.281-67.681-101.263-0.006-0.002 0 0.002 0 0l-433.055-433.051c-16.663-16.663-43.678-16.663-60.34 0l-433.053 433.051c-58.542 58.542-91.431 137.942-91.431 220.733s32.889 162.191 91.431 220.733c58.542 58.542 137.942 91.431 220.733 91.431s162.191-32.889 220.733-91.431l21.757-21.757 21.75 21.75c28.985 28.996 63.397 51.999 101.268 67.692zM811.366 860.444c-29.787 0-59.284-5.869-86.807-17.272-27.517-11.402-52.52-28.116-73.58-49.184l-51.934-51.934c-16.663-16.662-43.678-16.662-60.34 0l-51.927 51.927c-42.539 42.539-100.234 66.437-160.393 66.437s-117.854-23.898-160.393-66.437c-42.539-42.539-66.437-100.234-66.437-160.393s23.898-117.854 66.437-160.393l402.883-402.88 402.883 402.88c21.066 21.059 37.791 46.069 49.192 73.589s17.271 57.016 17.271 86.804c0 29.789-5.871 59.285-17.271 86.804s-28.114 52.523-49.186 73.582c-21.055 21.068-46.074 37.796-73.591 49.198-27.523 11.403-57.020 17.272-86.807 17.272z" />
<glyph unicode="&#xe910;" glyph-name="heart-filled" horiz-adv-x="1152" d="M1063.168 871.17c-28.147 28.162-61.568 50.502-98.355 65.743-36.781 15.242-76.211 23.087-116.026 23.087-39.821 0-79.245-7.845-116.032-23.087-36.781-15.242-70.202-37.582-98.352-65.743l-58.418-58.418-58.418 58.418c-56.858 56.858-133.974 88.801-214.383 88.801s-157.526-31.942-214.383-88.801c-56.858-56.858-88.801-133.974-88.801-214.383s31.942-157.525 88.801-214.383l487.185-487.184 487.183 487.184c28.166 28.148 50.502 61.57 65.747 98.355 15.238 36.785 23.085 76.212 23.085 116.029s-7.846 79.245-23.085 116.029c-15.245 36.785-37.581 70.205-65.747 98.354z" />
<glyph unicode="&#xe911;" glyph-name="linkdin" horiz-adv-x="1126" d="M355.479 820.278c0.027-27.673-8.157-54.732-23.514-77.751-15.357-23.021-37.199-40.967-62.76-51.569s-53.692-13.384-80.835-7.991-52.074 18.715-71.642 38.282c-19.567 19.568-32.89 44.5-38.282 71.642s-2.611 55.273 7.991 80.835c10.602 25.561 28.549 47.402 51.569 62.76 23.020 15.357 50.079 23.541 77.75 23.514 37.046-0.036 72.565-14.768 98.76-40.963s40.927-61.713 40.963-98.759zM289.321 622.218h-147.132c-19.124 0-34.628-15.502-34.628-34.627v-616.96c0-19.124 15.503-34.628 34.628-34.628h147.132c19.124 0 34.628 15.503 34.628 34.628v616.96c0 19.124-15.503 34.627-34.628 34.627zM1093.161 266.502v-298.712c0-8.433-3.348-16.521-9.308-22.484-5.97-5.964-14.060-9.316-22.487-9.316h-157.913c-8.434 0-16.521 3.353-22.485 9.316-5.963 5.963-9.313 14.051-9.313 22.484v289.415c0 43.251 12.531 188.631-112.909 188.631-97.28 0-117.086-99.974-121.263-144.842v-333.878c-0.175-8.269-3.566-16.145-9.452-21.956s-13.806-9.1-22.077-9.171h-152.791c-4.181-0.010-8.324 0.796-12.19 2.387s-7.378 3.933-10.334 6.889c-2.956 2.956-5.298 6.469-6.889 10.334-1.592 3.867-2.402 8.009-2.385 12.19v622.484c-0.017 4.187 0.792 8.336 2.382 12.21s3.929 7.394 6.884 10.362c2.954 2.967 6.466 5.321 10.332 6.927s8.013 2.433 12.2 2.433h152.791c4.239 0.072 8.449-0.701 12.386-2.274s7.52-3.914 10.543-6.885c3.023-2.973 5.423-6.517 7.062-10.426 1.638-3.911 2.482-8.107 2.481-12.346v-53.895c36.109 53.895 89.734 95.933 203.857 95.933 252.364 0.134 250.879-236.060 250.879-365.811z" />
<glyph unicode="&#xe912;" glyph-name="live" horiz-adv-x="1260" d="M215.554-4.214c-9.659 0-19.303 3.757-26.545 11.248-121.885 126.031-189.009 293.252-189.009 470.859 0 177.57 67.102 344.763 188.941 470.781 14.171 14.658 37.543 15.057 52.211 0.879 14.658-14.173 15.052-37.548 0.879-52.209-108.456-112.175-168.185-261.137-168.185-419.451 0-158.348 59.749-307.334 168.246-419.517 14.176-14.659 13.787-38.038-0.871-52.208-7.171-6.94-16.427-10.382-25.667-10.382zM338.572 122.982c-9.659 0-19.303 3.757-26.545 11.248-88.975 91.997-137.974 214.045-137.974 343.66 0 129.575 48.975 251.594 137.902 343.584 14.171 14.663 37.549 15.057 52.21 0.884s15.054-37.549 0.881-52.21c-75.544-78.146-117.15-181.937-117.15-292.258 0-110.356 41.625-214.169 117.209-292.323 14.178-14.654 13.788-38.033-0.871-52.211-7.166-6.924-16.421-10.374-25.661-10.374zM461.588 250.175c-9.659 0-19.303 3.764-26.545 11.255-56.062 57.967-86.937 134.843-86.937 216.463 0 81.581 30.848 158.427 86.863 216.384 14.167 14.661 37.544 15.068 52.209 0.889 14.664-14.171 15.062-37.546 0.892-52.21-42.636-44.115-66.117-102.735-66.117-165.066 0-62.361 23.501-121.002 66.174-165.127 14.178-14.659 13.787-38.034-0.874-52.209-7.168-6.929-16.423-10.379-25.664-10.379zM1044.685-4.285c-9.248 0-18.503 3.45-25.671 10.382-14.651 14.178-15.045 37.557-0.866 52.208 108.544 112.199 168.314 261.204 168.314 419.585 0 158.348-59.746 307.335-168.243 419.518-14.178 14.658-13.792 38.033 0.874 52.209 14.659 14.181 38.030 13.785 52.208-0.871 121.88-126.026 189.007-293.246 189.007-470.855 0-177.647-67.151-344.888-189.086-470.927-7.239-7.483-16.88-11.248-26.537-11.248zM921.671 122.912c-9.248 0-18.503 3.45-25.671 10.382-14.659 14.186-15.037 37.557-0.866 52.213 75.626 78.159 117.272 181.996 117.272 292.384 0 110.353-41.622 214.168-117.209 292.322-14.178 14.658-13.785 38.033 0.874 52.209 14.659 14.181 38.038 13.785 52.208-0.871 88.978-92 137.972-214.045 137.972-343.66 0-129.654-49.026-251.73-138.043-343.731-7.239-7.491-16.888-11.248-26.537-11.248zM798.649 250.107c-9.248 0-18.504 3.451-25.672 10.393-14.653 14.181-15.035 37.556-0.855 52.209 42.713 44.13 66.234 102.794 66.234 165.184 0 62.361-23.505 121.002-66.177 165.128-14.178 14.658-13.787 38.033 0.872 52.209 14.657 14.181 38.035 13.785 52.206-0.874 56.068-57.967 86.938-134.843 86.938-216.463 0-81.661-30.901-158.565-87.016-216.539-7.231-7.485-16.872-11.247-26.529-11.247zM630.154 367.089c-60.549 0-109.807 49.691-109.807 110.769s49.26 110.769 109.807 110.769c60.549 0 109.807-49.691 109.807-110.769s-49.258-110.769-109.807-110.769z" />
<glyph unicode="&#xe913;" glyph-name="metaland" d="M35.725 412.281c-11.859 0-22.909-5.859-29.577-15.669-6.62-9.811-8.001-22.243-3.62-33.244l47.628-119.736c3.001-7.525 8.43-13.764 15.431-17.81l142.883-81.971c11.002-6.334 24.528-6.334 35.53 0l89.397 51.295v-61.294c0-10.481 4.572-20.436 12.573-27.195l190.511-162.128c9.478-8.097 22.48-10.62 34.292-6.715 11.859 3.862 20.813 13.619 23.623 25.768l44.104 187.984 111.638 64.059 125.118-71.775c8.624-4.952 18.959-6.093 28.482-3.094 9.479 2.999 17.335 9.808 21.577 18.812l95.254 201.751c5.237 11.050 4.432 24.004-2.099 34.339-6.568 10.335-17.949 16.622-30.193 16.622h-952.552zM512.001 960c-111.734 0-202.418-90.683-202.418-202.418 0-130.404 91.874-242.901 144.74-295.672 0.143-0.095 0.238-0.238 0.381-0.381 31.958-30.91 82.681-30.863 114.592 0.048 0.095 0.143 0.238 0.238 0.334 0.381 52.914 52.724 144.788 165.22 144.788 295.624 0 111.734-90.683 202.418-202.417 202.418zM512.001 805.21c26.29 0 47.628-21.337 47.628-47.628s-21.337-47.628-47.628-47.628c-26.29 0-47.628 21.337-47.628 47.628s21.337 47.628 47.628 47.628z" />
<glyph unicode="&#xe914;" glyph-name="poll" d="M629.619 777.143c0 74.059 60.041 134.095 134.095 134.095h97.524c74.060 0 134.095-60.037 134.095-134.095v-682.667c0-74.060-60.036-134.095-134.095-134.095h-97.524c-38.424 0-73.075 16.16-97.524 42.057-24.444-25.897-59.095-42.057-97.524-42.057h-97.522c-38.425 0-73.075 16.16-97.524 42.057-24.448-25.897-59.098-42.057-97.524-42.057h-97.524c-74.059 0-134.095 60.036-134.095 134.095v292.571c0 74.059 60.037 134.095 134.095 134.095h97.524c21.948 0 42.665-5.273 60.952-14.621v75.574c0 74.059 60.037 134.095 134.095 134.095h97.522c21.953 0 42.667-5.273 60.952-14.622v75.574zM702.761 94.476c0-33.665 27.292-60.952 60.952-60.952h97.524c33.665 0 60.952 27.287 60.952 60.952v682.667c0 33.663-27.287 60.952-60.952 60.952h-97.524c-33.66 0-60.952-27.289-60.952-60.952v-682.667zM629.619 582.095c0 33.663-27.287 60.952-60.952 60.952h-97.522c-33.663 0-60.952-27.289-60.952-60.952v-487.619c0-33.665 27.289-60.952 60.952-60.952h97.522c33.665 0 60.952 27.287 60.952 60.952v487.619zM337.049 387.048c0 33.665-27.289 60.952-60.952 60.952h-97.524c-33.663 0-60.952-27.287-60.952-60.952v-292.571c0-33.665 27.289-60.952 60.952-60.952h97.524c33.663 0 60.952 27.287 60.952 60.952v292.571z" />
<glyph unicode="&#xe915;" glyph-name="repost" horiz-adv-x="1210" d="M777.951 240.836c18.177 18.177 47.648 18.177 65.825 0l143.472-143.47 143.472 143.47c18.171 18.177 47.644 18.177 65.825 0 18.171-18.177 18.171-47.648 0-65.826l-176.389-176.379c-18.171-18.181-47.644-18.181-65.825 0l-176.379 176.379c-18.178 18.178-18.178 47.649 0 65.826zM529.142 913.455c0 25.706 20.839 46.545 46.545 46.545h176.383c74.718 0 146.374-29.681 199.207-82.515 52.838-52.833 82.516-124.491 82.516-199.208v-558.545c0-25.706-20.843-46.545-46.545-46.545s-46.545 20.839-46.545 46.545v558.545c0 50.029-19.874 98.008-55.249 133.383s-83.355 55.249-133.383 55.249h-176.383c-25.706 0-46.545 20.839-46.545 46.545zM190.015 946.367c18.178 18.177 47.649 18.177 65.826 0l176.383-176.382c18.177-18.178 18.177-47.649 0-65.826s-47.649-18.177-65.826 0l-143.47 143.47-143.47-143.47c-18.177-18.177-47.648-18.177-65.825 0s-18.177 47.648 0 65.826l176.382 176.382zM222.932 871.809c25.706 0 46.545-20.839 46.545-46.545v-558.545c0-50.029 19.873-98.008 55.249-133.383s83.355-55.249 133.383-55.249h176.383c25.706 0 46.545-20.839 46.545-46.545 0-25.704-20.839-46.547-46.545-46.547h-176.383c-74.718 0-146.374 29.687-199.208 82.517-52.833 52.833-82.514 124.49-82.514 199.208v558.545c0 25.706 20.838 46.545 46.545 46.545z" />
<glyph unicode="&#xe916;" glyph-name="polygon" horiz-adv-x="1263" d="M953.027 647.171c-23.303 12.989-53.596 12.989-79.223 0l-181.753-99.587-123.498-64.945-181.75-99.587c-23.299-12.988-53.592-12.988-79.224 0l-144.469 77.937c-23.3 12.991-39.611 36.806-39.611 62.785v153.708c0 25.978 13.98 49.793 39.611 62.782l142.139 75.773c23.3 12.989 53.592 12.989 79.226 0l142.135-75.773c23.303-12.989 39.615-36.804 39.615-62.782v-99.586l123.494 67.111v99.587c0 25.978-13.978 49.793-39.608 62.782l-263.308 142.884c-23.299 12.989-53.592 12.989-79.224 0l-267.965-142.884c-25.632-12.989-39.613-36.804-39.613-62.782v-287.933c0-25.979 13.98-49.794 39.613-62.781l267.965-142.886c23.302-12.988 53.593-12.988 79.224 0l181.75 97.423 123.498 67.113 181.753 97.42c23.299 12.988 53.593 12.988 79.223 0l142.138-75.776c23.299-12.988 39.612-36.799 39.612-62.781v-153.706c0-25.979-13.981-49.794-39.612-62.785l-142.138-77.937c-23.303-12.988-53.596-12.988-79.223 0l-142.141 75.773c-23.299 12.991-39.612 36.806-39.612 62.785v99.584l-123.498-67.113v-99.584c0-25.979 13.981-49.794 39.615-62.785l267.964-142.882c23.299-12.988 53.593-12.988 79.223 0l267.967 142.882c23.303 12.991 39.612 36.806 39.612 62.785v287.932c0 25.979-13.981 49.794-39.612 62.781l-270.295 145.049z" />
<glyph unicode="&#xe917;" glyph-name="post" horiz-adv-x="1170" d="M1100.588 559.487l-944.212 391.792c-39.778 16.507-84.715 9.246-117.278-18.942-32.562-28.192-46.181-71.627-35.538-113.36l92.786-363.867-92.786-363.865c-10.642-41.735 2.974-85.168 35.536-113.364 32.624-28.248 77.572-35.416 117.28-18.937l944.212 391.788c42.993 17.837 69.698 57.833 69.698 104.377s-26.704 86.539-69.698 104.377zM1074.308 414.070l-944.213-391.791c-15.879-6.583-33.115-3.803-46.114 7.446-12.997 11.257-18.22 27.919-13.973 44.573l88.363 346.526h340.72c18.937 0 34.288 15.351 34.288 34.288s-15.351 34.288-34.288 34.288h-340.718l-88.366 346.519c-4.247 16.658 0.976 33.321 13.973 44.574s30.228 14.036 46.112 7.449l944.215-391.792c25.424-10.551 27.407-34.079 27.407-41.040s-1.982-30.489-27.407-41.040z" />
<glyph unicode="&#xe918;" glyph-name="refresh" d="M87.394 916.83c-16.941 16.91-31.688 36.11-48.943 36.11s-31.373-14.023-31.373-31.372v-313.726c0-3.795 0-31.373 31.373-31.373h313.725c17.255 0 31.373 14.055 31.373 31.373 0 17.35-16.625 29.429-29.802 42.793l-87.217 87.185c65.57 55.529 149.962 89.349 242.509 89.349 208.001 0 376.471-168.564 376.471-376.47s-168.47-376.471-376.471-376.471c-186.352 0-341.017 135.748-370.821 313.725h-126.746c30.745-247.561 241.567-439.216 497.567-439.216 277.333 0 501.961 224.752 501.961 501.961 0 277.207-224.627 501.96-501.961 501.96-127.372 0-243.136-47.561-331.605-125.71l-90.039 89.883z" />
<glyph unicode="&#xe919;" glyph-name="search" d="M410.864 846.222c-164.076 0-297.086-133.010-297.086-297.086 0-164.078 133.010-297.084 297.086-297.084 164.078 0 297.084 133.006 297.084 297.084 0 164.076-133.006 297.086-297.084 297.086zM0 549.136c0 226.914 183.95 410.864 410.864 410.864 226.912 0 410.862-183.95 410.862-410.864 0-92.943-30.857-178.675-82.893-247.517l268.504-268.504c22.215-22.215 22.215-58.237 0-80.452s-58.237-22.215-80.452 0l-268.504 268.504c-68.841-52.036-154.574-82.893-247.517-82.893-226.914 0-410.864 183.95-410.864 410.862z" />
<glyph unicode="&#xe91a;" glyph-name="sort" horiz-adv-x="1733" d="M50.756 910.013c67.675 66.649 177.397 66.649 245.072 0l570.633-561.987 570.632 561.987c67.675 66.649 177.4 66.649 245.075 0s67.675-174.71 0-241.359l-693.169-682.667c-67.675-66.651-177.4-66.651-245.075 0l-693.168 682.667c-67.675 66.649-67.675 174.709 0 241.359z" />
<glyph unicode="&#xe91b;" glyph-name="affiliate" d="M256 857.6c0 56.554 45.846 102.4 102.4 102.4s102.4-45.846 102.4-102.4c0-23.935-8.207-45.915-21.927-63.322l59.869-149.675c20.62 5.352 42.227 8.196 64.458 8.196 52.155 0 100.712-15.633 141.172-42.42l118.304 118.304c-2.266 8.463-3.476 17.353-3.476 26.516 0 56.553 45.841 102.4 102.4 102.4s102.4-45.847 102.4-102.4c0-56.553-45.841-102.4-102.4-102.4-9.165 0-18.057 1.211-26.513 3.476l-118.306-118.304c26.787-40.462 42.419-89.018 42.419-141.173s-15.632-100.711-42.42-141.173l118.307-118.304c8.457 2.266 17.348 3.476 26.513 3.476 56.559 0 102.4-45.841 102.4-102.4s-45.841-102.4-102.4-102.4c-56.559 0-102.4 45.841-102.4 102.4 0 9.165 1.211 18.057 3.476 26.513l-118.304 118.307c-40.462-26.788-89.018-42.42-141.173-42.42-123.849 0-227.159 87.951-250.879 204.8h-121.22c-17.705-30.608-50.798-51.2-88.701-51.2-56.553 0-102.4 45.844-102.4 102.4s45.847 102.4 102.4 102.4c37.903 0 70.996-20.592 88.701-51.2h121.222c12.43 61.218 46.704 114.47 94.252 151.301l-62.772 156.931c-49.639 7.084-87.803 49.77-87.803 101.367zM358.4 857.6v0zM493.179 533.56c-49.734-25.534-83.579-77.238-83.579-136.76 0-84.829 68.771-153.6 153.6-153.6 42.432 0 80.76 17.136 108.608 44.987l0.005 0.005c27.851 27.848 44.987 66.176 44.987 108.608s-17.136 80.76-44.987 108.608l-0.005 0.004c-27.848 27.851-66.177 44.988-108.608 44.988-25.328 0-49.079-6.089-70.020-16.839z" />
<glyph unicode="&#xe91c;" glyph-name="twiter" horiz-adv-x="1195" d="M1150.089 790.793c-41.574-18.159-85.555-30.223-130.577-35.818 47.462 28.145 82.935 72.734 99.703 125.305-44.425-26.367-93.030-44.938-143.718-54.905-31.061 33.219-71.398 56.321-115.772 66.303-44.367 9.982-90.713 6.382-133.008-10.333s-78.581-45.77-104.139-83.387c-25.558-37.617-39.206-82.053-39.167-127.532-0.16-17.359 1.611-34.681 5.277-51.649-90.164 4.429-178.38 27.829-258.885 68.671s-151.489 98.21-208.315 168.353c-29.209-49.899-38.258-109.068-25.298-165.416s46.95-105.618 95.025-137.742c-35.883 0.967-71.005 10.557-102.4 27.958v-2.47c0.101-52.303 18.205-102.977 51.268-143.504s79.072-68.436 130.289-79.036c-19.383-5.093-39.357-7.584-59.396-7.41-14.43-0.267-28.847 1.013-43.004 3.817 14.674-44.982 42.924-84.313 80.865-112.582s83.709-44.090 131.009-45.285c-80.155-62.651-178.967-96.683-280.702-96.674-18.127-0.154-36.244 0.896-54.231 3.149 103.733-66.884 224.646-102.221 348.070-101.734 417.123 0 645.166 345.492 645.166 644.944 0 9.993 0 19.649-0.785 29.305 44.407 32.052 82.611 71.927 112.725 117.67z" />
<glyph unicode="&#xe91d;" glyph-name="members" horiz-adv-x="768" d="M358.816 448h51.2c47.066 0 93.671-9.271 137.154-27.282s82.993-44.411 116.273-77.691c33.281-33.281 59.68-72.79 77.692-116.273s27.281-90.088 27.281-137.154c0-40.738-16.183-79.804-44.988-108.612s-67.875-44.988-108.612-44.988h-460.8c-40.737 0-79.806 16.179-108.611 44.988s-44.988 67.874-44.988 108.612c0 95.054 37.76 186.214 104.973 253.427 67.214 67.213 158.374 104.973 253.427 104.973zM384.416 499.2c127.247 0 230.4 103.153 230.4 230.4s-103.153 230.4-230.4 230.4c-127.247 0-230.4-103.153-230.4-230.4s103.153-230.4 230.4-230.4z" />
<glyph unicode="&#xe91e;" glyph-name="verified" d="M644.26 904.305c-17.227 17.63-37.803 31.639-60.522 41.203s-47.121 14.491-71.769 14.491c-24.651 0-49.053-4.927-71.772-14.491-22.716-9.564-43.295-23.573-60.522-41.203l-39.81-40.833-56.962 0.704c-24.657 0.292-49.123-4.349-71.96-13.651s-43.584-23.075-61.020-40.511c-17.436-17.436-31.21-38.183-40.512-61.020s-13.943-47.304-13.651-71.961l0.64-56.962-40.705-39.811c-17.63-17.227-31.639-37.803-41.203-60.522s-14.491-47.121-14.491-71.769c0-24.651 4.927-49.053 14.491-71.772 9.564-22.716 23.573-43.295 41.203-60.522l40.77-39.81-0.704-56.962c-0.292-24.658 4.35-49.125 13.651-71.96 9.302-22.839 23.075-43.585 40.512-61.020 17.436-17.439 38.183-31.212 61.020-40.513s47.303-13.943 71.96-13.65l56.962 0.638 39.81-40.704c17.227-17.63 37.806-31.638 60.522-41.202 22.719-9.568 47.121-14.493 71.772-14.493 24.648 0 49.050 4.925 71.769 14.493 22.719 9.564 43.295 23.572 60.522 41.202l39.81 40.769 56.962-0.703c24.658-0.294 49.125 4.349 71.963 13.65 22.835 9.301 43.581 23.074 61.020 40.513 17.435 17.435 31.208 38.182 40.509 61.020 9.301 22.835 13.943 47.302 13.653 71.96l-0.642 56.962 40.704 39.81c17.633 17.227 31.642 37.806 41.206 60.522 9.564 22.719 14.49 47.121 14.49 71.772 0 24.648-4.925 49.050-14.49 71.769s-23.572 43.295-41.206 60.522l-40.769 39.811 0.707 56.962c0.29 24.657-4.352 49.123-13.653 71.961s-23.074 43.584-40.509 61.020c-17.439 17.436-38.185 31.21-61.020 40.511-22.839 9.302-47.305 13.943-71.963 13.651l-56.962-0.64-39.81 40.706v0.064zM662.63 521.315l-192.007-192.007c-2.973-2.98-6.506-5.345-10.394-6.96-3.888-1.611-8.055-2.444-12.264-2.444s-8.376 0.833-12.264 2.444c-3.888 1.615-7.421 3.98-10.394 6.96l-96.003 96.003c-2.975 2.976-5.336 6.506-6.946 10.394s-2.439 8.055-2.439 12.264c0 4.205 0.829 8.373 2.439 12.261s3.97 7.421 6.946 10.394c2.975 2.976 6.508 5.338 10.395 6.946 3.886 1.611 8.054 2.441 12.262 2.441s8.373-0.829 12.261-2.441c3.888-1.608 7.421-3.97 10.397-6.946l73.346-73.411 169.349 169.414c6.011 6.011 14.159 9.387 22.658 9.387s16.647-3.376 22.658-9.387c6.007-6.007 9.383-14.159 9.383-22.654 0-8.499-3.376-16.65-9.383-22.658z" />
<glyph unicode="&#xe91f;" glyph-name="views" horiz-adv-x="1434" d="M1384.83 498.238c-11.523 18.881-286.85 461.762-685.315 461.762-398.462 0-673.821-442.881-685.341-461.762-9.268-15.177-14.174-32.615-14.174-50.399s4.905-35.221 14.174-50.398c11.52-18.56 286.783-460.158 684.802-461.442h1.789c397.763 0 672.413 442.881 683.902 461.762 9.264 15.115 14.179 32.488 14.206 50.215s-4.833 35.117-14.042 50.261zM700.989 31.997h-1.475c-349.725 1.283-604.095 416.003-604.095 416.003s254.37 416 604.095 416c349.73 0 604.099-416 604.099-416s-253.665-416.003-602.624-416.003zM699.515 704c-50.699 0.33-100.357-14.404-142.675-42.332s-75.388-67.795-95.019-114.543c-19.631-46.748-24.939-98.271-15.25-148.039s33.939-95.539 69.674-131.508c35.735-35.97 81.347-60.518 131.051-70.533 49.701-10.015 101.263-5.038 148.135 14.288 46.879 19.326 86.958 52.135 115.159 94.269 28.208 42.134 43.261 91.696 43.267 142.398 0.137 67.649-26.563 132.591-74.247 180.582-47.677 47.991-112.442 75.113-180.094 75.418zM699.515 288c-31.685-0.203-62.721 9.008-89.167 26.465s-47.112 42.376-59.379 71.594c-12.267 29.217-15.583 61.419-9.525 92.523s21.214 59.709 43.549 82.188c22.335 22.479 50.844 37.821 81.908 44.078s63.287 3.15 92.58-8.929c29.3-12.080 54.347-32.588 71.974-58.922s27.040-57.307 27.040-88.996c0.123-42.297-16.548-82.91-46.36-112.914s-70.321-46.942-112.62-47.086z" />
<glyph unicode="&#xe920;" glyph-name="logout" d="M1024 448l-341.333 284.444v-170.667h-398.223v-227.555h398.223v-170.667l341.333 284.444zM113.777 846.223h455.112v113.777h-455.112c-62.577 0-113.777-51.2-113.777-113.777v-796.448c0-62.575 51.2-113.775 113.777-113.775h455.112v113.775h-455.112v796.448z" />
<glyph unicode="&#xe921;" glyph-name="network" horiz-adv-x="878" d="M838.334 329.598c-15.982 9.196-34.684 12.495-52.846 9.324s-34.64-12.613-46.563-26.681l-105.748 55.055v197.488l105.822 55.097c12.69-14.845 30.464-24.419 49.84-26.85 19.383-2.431 38.971 2.458 54.93 13.709s27.151 28.054 31.378 47.12c4.228 19.066 1.185 39.024-8.528 55.965-9.721 16.941-25.403 29.648-43.995 35.632-18.586 5.984-38.744 4.815-56.517-3.278s-31.883-22.528-39.575-40.479c-7.69-17.951-8.405-38.126-2.003-56.576l-105.891-55.13-164.686 85.732v128.174c19.279 3.623 36.511 14.313 48.32 29.975s17.347 35.169 15.528 54.7c-1.819 19.531-10.865 37.68-25.364 50.891s-33.409 20.534-53.025 20.534c-19.616 0-38.525-7.323-53.025-20.534s-23.545-31.36-25.364-50.891c-1.819-19.531 3.719-39.038 15.528-54.7s29.042-26.352 48.32-29.975v-128.174l-164.686-85.732-105.891 55.13c6.529 18.677 5.846 39.118-1.913 57.318s-22.037 32.844-40.034 41.065c-17.997 8.22-38.415 9.422-57.252 3.37s-34.734-18.92-44.576-36.084c-9.842-17.163-12.918-37.383-8.626-56.697s15.643-36.328 31.828-47.707c16.185-11.38 36.036-16.304 55.664-13.808s37.614 12.232 50.435 27.301l105.825-55.097v-197.488l-105.758-55.055c-12.679 14.929-30.474 24.588-49.901 27.085s-39.086-2.347-55.128-13.583c-16.043-11.237-27.313-28.057-31.605-47.167s-1.296-39.134 8.401-56.155c9.697-17.013 25.397-29.798 44.026-35.847s38.845-4.93 56.69 3.145c17.845 8.075 32.034 22.513 39.788 40.502 7.755 17.986 8.517 38.219 2.137 56.736l105.891 55.13 164.686-85.732v-128.171c-19.278-3.628-36.51-14.314-48.32-29.974-11.81-15.667-17.347-35.174-15.528-54.704s10.865-37.683 25.364-50.893c14.5-13.21 33.409-20.531 53.025-20.531s38.526 7.322 53.025 20.531c14.5 13.21 23.545 31.364 25.364 50.893s-3.719 39.036-15.528 54.704c-11.81 15.66-29.041 26.346-48.32 29.974v128.171l164.686 85.732 105.891-55.13c-4.838-14.115-5.566-29.314-2.097-43.826s10.988-27.739 21.688-38.14c10.701-10.401 24.137-17.547 38.736-20.612 14.607-3.057 29.776-1.902 43.754 3.335 13.97 5.23 26.171 14.329 35.174 26.229 8.997 11.9 14.431 26.118 15.66 40.989 1.236 14.87-1.785 29.785-8.704 43.004s-17.459 24.201-30.376 31.663h-0.029zM774.151 713.648c8.499 4.912 18.271 7.193 28.072 6.554 9.794-0.64 19.185-4.172 26.975-10.149 7.797-5.977 13.641-14.13 16.801-23.428 3.152-9.299 3.482-19.325 0.944-28.811-2.545-9.486-7.841-18.005-15.221-24.479-7.387-6.475-16.523-10.614-26.258-11.895s-19.632 0.354-28.445 4.699c-8.806 4.345-16.128 11.203-21.036 19.709-3.291 5.635-5.435 11.868-6.305 18.338s-0.453 13.048 1.236 19.354c1.69 6.306 4.615 12.213 8.602 17.382s8.96 9.494 14.636 12.728zM389.763 881.223c0 9.819 2.912 19.417 8.367 27.582s13.209 14.528 22.281 18.285c9.072 3.758 19.054 4.741 28.684 2.825s18.477-6.644 25.42-13.587c6.943-6.943 11.671-15.789 13.587-25.42s0.933-19.613-2.825-28.684c-3.758-9.072-10.121-16.826-18.286-22.281s-17.763-8.367-27.582-8.367c-13.163 0.013-25.783 5.248-35.091 14.555s-14.542 21.927-14.555 35.091zM439.409 650.499l147.735-76.916-147.735-76.908-147.735 76.924 147.735 76.899zM55.023 627.649c-8.506 4.906-15.365 12.224-19.712 21.029s-5.984 18.701-4.706 28.436c1.278 9.736 5.414 18.874 11.886 26.259s14.988 12.685 24.471 15.23c9.483 2.545 19.509 2.221 28.809-0.933s17.455-8.992 23.436-16.78c5.98-7.788 9.517-17.174 10.162-26.972s-1.629-19.567-6.535-28.072c-6.595-11.389-17.436-19.698-30.147-23.106s-26.256-1.637-37.663 4.925v-0.017zM104.67 218.434c-8.503-4.915-18.273-7.197-28.071-6.554-9.8 0.636-19.189 4.169-26.981 10.145s-13.637 14.132-16.794 23.431c-3.158 9.299-3.487 19.324-0.946 28.81s7.839 18.005 15.222 24.479c7.383 6.475 16.521 10.614 26.258 11.896s19.634-0.354 28.441-4.699c8.807-4.345 16.127-11.204 21.036-19.709 3.295-5.636 5.44-11.868 6.31-18.338s0.448-13.048-1.241-19.354c-1.69-6.306-4.612-12.213-8.601-17.382-3.988-5.17-8.961-9.493-14.632-12.726zM274.723 549.644l150.145-78.171v-182.341l-150.145 78.163v182.349zM489.057 50.856c0-9.816-2.912-19.419-8.368-27.582s-13.209-14.526-22.281-18.286c-9.071-3.76-19.054-4.74-28.684-2.823s-18.477 6.641-25.42 13.59c-6.943 6.941-11.671 15.784-13.587 25.417s-0.933 19.61 2.826 28.687c3.757 9.070 10.121 16.823 18.285 22.279s17.763 8.368 27.582 8.368c13.164-0.015 25.784-5.252 35.091-14.555 9.308-9.311 14.543-21.928 14.556-35.094zM453.95 289.133v182.341l150.145 78.171v-182.349l-150.145-78.163zM841.984 236.596c-4.908-8.507-12.229-15.361-21.036-19.705-8.806-4.337-18.703-5.976-28.438-4.696-9.735 1.287-18.871 5.427-26.258 11.9-7.38 6.472-12.676 14.99-15.221 24.474-2.538 9.484-2.209 19.509 0.944 28.807 3.16 9.298 9.004 17.451 16.794 23.429s17.174 9.511 26.975 10.153c9.794 0.642 19.566-1.635 28.072-6.546 5.676-3.226 10.657-7.55 14.651-12.719 4.001-5.17 6.927-11.081 8.616-17.391s2.107-12.894 1.229-19.367c-0.878-6.474-3.035-12.708-6.341-18.341h0.015z" />
<glyph unicode="&#xe922;" glyph-name="maximize" horiz-adv-x="1084" d="M693.959 35.406l-443.284 767.791c-20.977 36.333-75.537 29.512-86.547-11.578l-162.253-605.54c-6.664-24.871 8.376-50.917 33.25-57.591l605.538-162.25c41.086-11.005 74.276 32.834 53.296 69.168zM390.864 889.105l443.287-767.792c20.974-36.334 75.535-29.509 86.546 11.577l162.25 605.539c6.668 24.871-8.373 50.921-33.25 57.592l-605.536 162.253c-41.086 11.003-74.274-32.837-53.297-69.17z" />
<glyph unicode="&#xe923;" glyph-name="plus" d="M512 941.714c30.297 0 54.857-24.56 54.857-54.857v-384h384c30.296 0 54.857-24.561 54.857-54.857s-24.561-54.857-54.857-54.857h-384v-384c0-30.296-24.561-54.857-54.857-54.857s-54.857 24.561-54.857 54.857v384h-384c-30.297 0-54.857 24.561-54.857 54.857s24.56 54.857 54.857 54.857h384v384c0 30.297 24.561 54.857 54.857 54.857z" />
<glyph unicode="&#xe924;" glyph-name="profile" horiz-adv-x="796" d="M398.222 860.444c-84.157 0-152.381-68.223-152.381-152.381s68.223-152.381 152.381-152.381c84.157 0 152.381 68.223 152.381 152.381s-68.223 152.381-152.381 152.381zM160.508 708.064c0 131.286 106.428 237.714 237.714 237.714s237.716-106.428 237.716-237.714c0-131.286-106.43-237.714-237.716-237.714s-237.714 106.428-237.714 237.714zM102.58 68.062h591.282c-20.702 144.737-145.178 256-295.64 256s-274.939-111.263-295.642-256zM14.222 25.395c0 212.082 171.923 384.002 384 384.002s384-171.92 384-384.002c0-23.563-19.103-42.667-42.667-42.667h-682.667c-23.564 0-42.667 19.103-42.667 42.667z" />
<glyph unicode="&#xe925;" glyph-name="settings" d="M544.132-64h-64.266c-51.978 0-94.268 42.291-94.268 94.268v21.743c-22.098 7.057-43.569 15.966-64.195 26.641l-15.408-15.403c-37.318-37.367-97.096-36.275-133.33 0.009l-45.422 45.422c-36.298 36.258-37.342 96.016 0.012 133.33l15.396 15.397c-10.673 20.626-19.584 42.092-26.645 64.194h-21.74c-51.976 0-94.266 42.288-94.266 94.266v64.268c0 51.978 42.29 94.266 94.268 94.266h21.74c7.062 22.1 15.972 43.568 26.646 64.194l-15.409 15.406c-37.332 37.292-36.302 97.056 0.012 133.33l45.426 45.425c36.318 36.367 96.082 37.275 133.328-0.012l15.394-15.394c20.626 10.672 42.096 19.584 64.194 26.645v21.74c0 51.978 42.288 94.266 94.268 94.266h64.266c51.978 0 94.266-42.288 94.266-94.266v-21.742c22.098-7.060 43.568-15.972 64.194-26.646l15.409 15.409c37.318 37.364 97.096 36.268 133.33-0.015l45.419-45.42c36.301-36.258 37.342-96.016-0.009-133.33l-15.394-15.397c10.675-20.626 19.584-42.092 26.641-64.194h21.743c51.977 0 94.268-42.288 94.268-94.266v-64.268c0-51.978-42.291-94.266-94.268-94.266h-21.743c-7.057-22.1-15.966-43.568-26.641-64.194l15.403-15.409c37.333-37.292 36.301-97.056-0.009-133.33l-45.426-45.427c-36.318-36.361-96.082-37.274-133.328 0.017l-15.394 15.394c-20.626-10.675-42.096-19.584-64.194-26.65v-21.743c0-51.968-42.288-94.259-94.268-94.259zM331.434 141.66c28.654-16.946 59.494-29.748 91.663-38.048 13.248-3.422 22.504-15.369 22.504-29.047v-44.297c0-18.893 15.374-34.27 34.267-34.27h64.266c18.894 0 34.268 15.377 34.268 34.27v44.297c0 13.679 9.256 25.626 22.504 29.047 32.168 8.3 63.008 21.102 91.662 38.048 11.791 6.972 26.8 5.076 36.486-4.611l31.376-31.381c13.528-13.542 35.252-13.227 48.448-0.009l45.454 45.45c13.167 13.148 13.602 34.876 0.009 48.45l-31.386 31.391c-9.684 9.684-11.58 24.695-4.61 36.483 16.945 28.652 29.745 59.492 38.044 91.663 3.422 13.248 15.369 22.502 29.056 22.502h44.288c18.893 0 34.27 15.372 34.27 34.266v64.268c0 18.894-15.377 34.266-34.27 34.266h-44.288c-13.687 0-25.634 9.256-29.056 22.502-8.299 32.17-21.1 63.010-38.044 91.662-6.97 11.788-5.074 26.8 4.61 36.484l31.378 31.378c13.568 13.548 13.21 35.268 0.009 48.45l-45.446 45.45c-13.175 13.192-34.902 13.578-48.451 0.012l-31.388-31.39c-9.684-9.686-24.7-11.582-36.486-4.611-28.653 16.946-59.494 29.748-91.662 38.050-13.248 3.418-22.504 15.366-22.504 29.048v44.3c0 18.894-15.374 34.266-34.268 34.266h-64.265c-18.895 0-34.268-15.372-34.268-34.266v-44.296c0-13.682-9.256-25.631-22.504-29.048-32.168-8.302-63.008-21.104-91.662-38.050-11.792-6.97-26.802-5.074-36.486 4.611l-31.376 31.378c-13.528 13.543-35.254 13.23-48.448 0.014l-45.455-45.452c-13.164-13.148-13.604-34.874-0.012-48.45l31.39-31.391c9.684-9.684 11.581-24.695 4.611-36.483-16.946-28.652-29.746-59.492-38.048-91.663-3.42-13.248-15.368-22.502-29.047-22.502h-44.297c-18.894-0.002-34.268-15.375-34.268-34.268v-64.268c0-18.894 15.374-34.266 34.268-34.266h44.294c13.682 0 25.628-9.255 29.048-22.502 8.302-32.17 21.104-63.010 38.048-91.662 6.97-11.789 5.075-26.801-4.61-36.484l-31.378-31.378c-13.564-13.548-13.21-35.268-0.012-48.451l45.45-45.447c13.174-13.193 34.902-13.585 48.45-0.017l31.388 31.392c7.136 7.134 21.982 13.187 36.488 4.608zM512.003 225.192c-122.854 0-222.8 99.948-222.8 222.799s99.946 222.8 222.8 222.8c122.854 0 222.799-99.948 222.799-222.8s-99.946-222.799-222.799-222.799zM512.003 610.791c-89.771 0-162.801-73.032-162.801-162.8s73.033-162.8 162.801-162.8c89.768 0 162.8 73.032 162.8 162.8s-73.030 162.8-162.8 162.8z" />
<glyph unicode="&#xe926;" glyph-name="ustdt" horiz-adv-x="931" d="M738.348 960h-577.805c-25.541 0-50.035-10.146-68.095-28.206s-28.206-42.554-28.206-68.095c0-25.54 10.146-50.035 28.206-68.095s42.554-28.207 68.095-28.207h192.601v-674.106c0-25.541 10.146-50.035 28.206-68.092 18.061-18.060 42.555-28.207 68.095-28.207s50.035 10.147 68.095 28.207c18.061 18.057 28.207 42.551 28.207 68.092v674.106h192.601c25.54 0 50.035 10.146 68.095 28.207s28.207 42.555 28.207 68.095c0 25.54-10.146 50.035-28.207 68.095s-42.555 28.206-68.095 28.206zM449.405 317.964c-32.518 0-65.677 1.22-98.645 3.595-169.521 12.166-350.76 59.739-350.76 156.907 0 66.961 91.743 120.056 251.731 145.607 8.28 1.076 16.654-1.116 23.344-6.111s11.171-12.403 12.491-20.648c1.32-8.244-0.625-16.679-5.422-23.514s-12.067-11.531-20.271-13.093c-147.886-23.658-197.673-66.383-197.673-82.241 0-25.68 97.296-78.967 291.182-92.867 62.577-4.559 125.402-4.559 187.979 0 193.949 13.899 291.246 67.025 291.246 92.867 0 15.858-49.788 58.583-197.674 82.241-8.202 1.562-15.474 6.259-20.271 13.093s-6.741 15.27-5.422 23.514c1.32 8.245 5.8 15.651 12.491 20.648s15.065 7.188 23.345 6.111c159.988-25.552 251.73-78.646 251.73-145.607 0-97.167-181.238-144.741-350.824-156.907-32.903-2.375-66.062-3.595-98.58-3.595z" />
<glyph unicode="&#xe927;" glyph-name="verification" d="M149.98 866.909c-31.419 0-56.889-25.47-56.889-56.889v-103.434c0-25.706-20.839-46.545-46.545-46.545s-46.545 20.839-46.545 46.545v103.434c0 82.832 67.148 149.98 149.98 149.98h103.434c25.706 0 46.545-20.839 46.545-46.545s-20.839-46.545-46.545-46.545h-103.434zM724.041 913.455c0 25.706 20.839 46.545 46.545 46.545h103.433c82.833 0 149.982-67.149 149.982-149.98v-103.434c0-25.706-20.838-46.545-46.549-46.545-25.702 0-46.541 20.839-46.541 46.545v103.434c0 31.42-25.472 56.889-56.892 56.889h-103.433c-25.706 0-46.545 20.839-46.545 46.545zM512 711.758c-145.669 0-263.758-118.089-263.758-263.758s118.089-263.758 263.758-263.758c145.669 0 263.758 118.089 263.758 263.758s-118.089 263.758-263.758 263.758zM155.151 448c0 197.082 159.766 356.849 356.849 356.849s356.847-159.766 356.847-356.849c0-197.082-159.765-356.847-356.847-356.847s-356.849 159.765-356.849 356.847zM356.868 541.096c0 34.278 27.788 62.060 62.061 62.060 34.276 0 62.061-27.785 62.061-62.060s-27.785-62.060-62.061-62.060c-34.273 0-62.061 27.783-62.061 62.060zM543.031 541.091c0 34.276 27.785 62.060 62.060 62.060s62.060-27.785 62.060-62.060c0-34.276-27.785-62.060-62.060-62.060s-62.060 27.785-62.060 62.060zM425.073 413.91c0 0 0.001 0 0 0l-0.058 0.078-0.063 0.084-0.081 0.106c-15.479 20.318-44.471 24.366-64.94 9.014-20.565-15.423-24.733-44.598-9.31-65.163l35.19 26.392c-35.189-26.393-35.201-26.377-35.19-26.392l0.096-0.128 0.115-0.152 0.284-0.372 0.788-1.009c0.623-0.787 1.441-1.798 2.452-3.002 2.017-2.404 4.82-5.597 8.381-9.312 7.083-7.391 17.387-17.079 30.713-26.772 26.474-19.253 66.915-39.933 118.528-39.933s92.054 20.68 118.528 39.933c13.327 9.692 23.631 19.38 30.713 26.772 3.561 3.715 6.363 6.909 8.381 9.312 1.010 1.204 1.829 2.215 2.452 3.002l0.788 1.009 0.399 0.523 0.050 0.067c0.011 0.015 0.046 0.061-37.191 27.988l37.191-27.988c15.424 20.565 11.302 49.801-9.263 65.225-20.471 15.352-49.47 11.295-64.949-9.025 0.029 0.038 0.036 0.045 0 0l-0.072-0.094-0.064-0.084zM599.079 414.166c0.029 0.038 0.036 0.045 0 0l-0.783-0.955c-0.831-0.991-2.272-2.645-4.286-4.748-4.069-4.245-10.249-10.073-18.256-15.896-16.193-11.777-37.812-22.128-63.775-22.128s-47.582 10.351-63.775 22.128c-8.007 5.823-14.188 11.651-18.256 15.895-2.015 2.103-3.455 3.758-4.285 4.748l-0.792 0.967zM424.871 414.177c0.054-0.070 0.149-0.196 0.202-0.267 0 0 0.001 0 0 0zM46.545 235.959c25.706 0 46.545-20.839 46.545-46.545v-103.433c0-31.42 25.469-56.892 56.889-56.892h103.434c25.706 0 46.545-20.838 46.545-46.541 0-25.711-20.839-46.549-46.545-46.549h-103.434c-82.832 0-149.98 67.149-149.98 149.982v103.433c0 25.706 20.839 46.545 46.545 46.545zM977.451 235.959c25.711 0 46.549-20.839 46.549-46.545v-103.433c0-82.833-67.149-149.982-149.982-149.982h-103.433c-25.706 0-46.545 20.838-46.545 46.549 0 25.702 20.839 46.541 46.545 46.541h103.433c31.42 0 56.892 25.472 56.892 56.892v103.433c0 25.706 20.838 46.545 46.541 46.545z" />
<glyph unicode="&#xe928;" glyph-name="wallet" horiz-adv-x="1117" d="M1037.303 777.618h-911.915c-15.116 0-29.613 6.004-40.301 16.693s-16.693 25.185-16.693 40.301c0 15.116 6.005 29.613 16.693 40.301s25.185 16.693 40.301 16.693h775.124c9.070 0 17.767 3.603 24.18 10.016s10.015 15.111 10.015 24.181c0 9.070-3.603 17.768-10.015 24.181s-15.111 10.016-24.18 10.016h-775.124c-33.255 0-65.148-13.21-88.663-36.725s-36.725-55.408-36.725-88.663v-729.528c0-33.255 13.21-65.148 36.725-88.663s55.408-36.724 88.663-36.724h911.915c21.16 0 41.453 8.406 56.413 23.366 14.969 14.969 23.375 35.263 23.375 56.425v638.337c0 21.162-8.406 41.458-23.375 56.422-14.96 14.963-35.254 23.37-56.413 23.37zM1048.697 59.488c0-3.023-1.201-5.922-3.342-8.060-2.132-2.138-5.036-3.339-8.052-3.339h-911.915c-15.116 0-29.613 6.005-40.301 16.693s-16.693 25.186-16.693 40.302v617.876c17.634-9.050 37.174-13.76 56.995-13.736h911.915c3.016 0 5.921-1.201 8.052-3.338 2.141-2.138 3.342-5.037 3.342-8.061v-638.337zM889.113 401.455c0-11.272-3.343-22.292-9.605-31.665s-15.165-16.677-25.579-20.991c-10.414-4.314-21.874-5.442-32.93-3.243s-21.211 7.627-29.182 15.598c-7.97 7.97-13.399 18.126-15.598 29.182s-1.070 22.515 3.243 32.93c4.314 10.414 11.62 19.315 20.992 25.578s20.392 9.606 31.665 9.606c15.115 0 29.612-6.005 40.301-16.694s16.693-25.185 16.693-40.301z" />
<glyph unicode="&#xe929;" glyph-name="left-arrow" d="M757.228 935.006c33.324-33.325 33.324-87.355 0-120.68l-337.882-337.882 337.882-337.882c33.324-33.329 33.324-87.353 0-120.676-33.325-33.331-87.355-33.331-120.68 0l-398.222 398.219c-33.325 33.324-33.325 87.355 0 120.679l398.222 398.222c33.325 33.325 87.355 33.325 120.68 0z" />
<glyph unicode="&#xe92a;" glyph-name="livestage" d="M755.81 872.229c-45.31 0-78.019-32.175-78.019-67.183s32.709-67.183 78.019-67.183c45.31 0 78.019 32.176 78.019 67.183s-32.709 67.183-78.019 67.183zM638.781 805.045c0 60.745 54.618 106.193 117.029 106.193s117.029-45.448 117.029-106.193c0-60.745-54.618-106.193-117.029-106.193s-117.029 45.448-117.029 106.193zM606.31 521.143h298.998c-10.693 62.285-71.768 112.694-149.499 112.694s-138.806-50.409-149.499-112.694zM565.638 501.638c0 96.652 87.367 171.208 190.171 171.208s190.171-74.556 190.171-171.208c0-10.772-8.733-19.505-19.505-19.505h-341.333c-10.772 0-19.505 8.733-19.505 19.505zM243.929 891.734c-75.362 0-136.675-61.314-136.675-136.675v-268.616c0-75.351 61.314-136.664 136.675-136.664s136.675 60.884 136.675 135.725v269.554c0 75.362-61.313 136.675-136.675 136.675zM323.646 485.512c0-43.433-35.764-78.779-79.718-78.779s-79.727 35.756-79.727 79.719v268.606c0 43.963 35.763 79.727 79.727 79.727s79.727-35.764 79.718-79.727v-269.547zM272.402 268.151h-56.948v-128.137h56.948v128.137zM318.911 168.492h-149.964c-15.727 0-28.474-12.746-28.474-28.477 0-15.726 12.747-28.472 28.474-28.472h149.964c15.727 0 28.474 12.746 28.474 28.472 0 15.731-12.746 28.477-28.474 28.477zM459.383 533.91c-15.727 0-28.474-12.747-28.474-28.474v-22.78c0-103.093-83.884-186.978-186.98-186.978-103.104 0-186.98 83.88-186.98 186.978v22.78c0 15.727-12.747 28.474-28.474 28.474s-28.474-12.747-28.474-28.474v-22.78c0-134.501 109.426-243.928 243.929-243.928s243.929 109.427 243.929 243.928v22.78c0 15.726-12.748 28.474-28.475 28.474zM565.638 315.197c0 34.324 29.569 59.66 62.849 59.66h303.406c33.28 0 62.849-25.337 62.849-59.66v-160.627c0-34.328-29.569-59.665-62.849-59.665h-100.713l-102.751-95.193c-5.686-5.271-13.956-6.671-21.060-3.569-7.105 3.106-11.698 10.123-11.698 17.876v80.886h-67.184c-33.28 0-62.849 25.337-62.849 59.665v160.627zM628.487 335.848c-14.594 0-23.84-10.62-23.84-20.651v-160.627c0-10.030 9.245-20.656 23.84-20.656h86.689c10.772 0 19.505-8.733 19.505-19.505v-55.73l75.596 70.037c3.608 3.345 8.343 5.198 13.258 5.198h108.359c14.594 0 23.84 10.625 23.84 20.656v160.627c0 10.030-9.245 20.651-23.84 20.651h-303.406zM673.997 234.881c0 10.772 8.733 19.505 19.505 19.505h0.219c10.772 0 19.505-8.733 19.505-19.505s-8.733-19.505-19.505-19.505h-0.219c-10.772 0-19.505 8.733-19.505 19.505zM760.686 234.881c0 10.772 8.733 19.505 19.505 19.505h0.215c10.776 0 19.505-8.733 19.505-19.505s-8.728-19.505-19.505-19.505h-0.215c-10.772 0-19.505 8.733-19.505 19.505zM847.375 234.881c0 10.772 8.733 19.505 19.505 19.505h0.215c10.772 0 19.505-8.733 19.505-19.505s-8.733-19.505-19.505-19.505h-0.215c-10.772 0-19.505 8.733-19.505 19.505z" />
<glyph unicode="&#xe92b;" glyph-name="close" d="M21.423 938.577c28.564 28.564 74.875 28.564 103.44 0l387.137-387.137 387.138 387.137c28.563 28.564 74.875 28.564 103.438 0 28.566-28.564 28.566-74.875 0-103.44l-387.135-387.137 387.135-387.138c28.566-28.563 28.566-74.875 0-103.44-28.563-28.563-74.875-28.563-103.438 0l-387.138 387.138-387.137-387.138c-28.564-28.563-74.875-28.563-103.44 0-28.564 28.566-28.564 74.877 0 103.44l387.137 387.138-387.137 387.137c-28.564 28.564-28.564 74.875 0 103.44z" />
<glyph unicode="&#xe92c;" glyph-name="most-view" d="M1017.167 467.44c-93.070 115.382-290.115 250.034-505.167 250.034-215.825 0-412.876-135.567-505.166-250.034-9.112-11.303-9.112-27.577 0-38.877 95.276-118.174 292.781-250.037 505.166-250.037 219.932 0 416.138 139.662 505.167 250.033 9.11 11.303 9.11 27.577 0 38.88zM716.583 448c0-114.79-91.774-208.179-204.583-208.179-112.813 0-204.589 93.397-204.589 208.179 0 114.79 91.776 208.182 204.589 208.182 112.817-0.002 204.583-93.404 204.583-208.182zM70.801 447.992c33.898 35.852 115.634 113.223 230.372 162.88-72.005-96.276-72.033-229.385-0.034-325.696-87.238 37.624-168.279 97.063-230.337 162.816zM722.826 285.129c72.007 96.28 72.034 229.388 0.035 325.698 87.233-37.624 168.279-97.067 230.337-162.815-33.898-35.856-115.633-113.223-230.372-162.883zM404.212 448c0-59.435 48.352-107.788 107.788-107.788s107.788 48.352 107.788 107.788c0 59.435-48.352 107.788-107.788 107.788s-107.788-48.352-107.788-107.788zM556.383 448c0-24.474-19.909-44.383-44.383-44.383s-44.383 19.909-44.383 44.383c0 24.474 19.909 44.383 44.383 44.383s44.383-19.909 44.383-44.383zM512 825.263c14.883 0 26.947 13.921 26.947 31.093v72.551c0 17.172-12.064 31.093-26.947 31.093s-26.947-13.921-26.947-31.093v-72.551c0-17.172 12.064-31.093 26.947-31.093zM690.015 801.586c15.518-6.802 35.285-2.655 44.142 9.284l43.059 58.036c8.854 11.932 3.45 27.121-12.075 33.927s-35.285 2.651-44.138-9.284l-43.063-58.036c-8.854-11.931-3.446-27.121 12.075-33.928zM289.845 810.869c8.853-11.932 28.613-16.087 44.139-9.282 15.523 6.805 20.929 21.996 12.076 33.928l-43.063 58.036c-8.853 11.932-28.618 16.088-44.139 9.283-15.523-6.805-20.929-21.996-12.076-33.928l43.063-58.036zM512 70.739c-14.883 0-26.947-13.922-26.947-31.094v-72.55c0-17.172 12.064-31.094 26.947-31.094s26.947 13.922 26.947 31.094v72.55c0 17.172-12.064 31.094-26.947 31.094zM333.983 94.413c-15.523 6.806-35.283 2.651-44.139-9.283l-43.062-58.037c-8.853-11.93-3.447-27.12 12.076-33.926 15.525-6.806 35.285-2.651 44.139 9.283l43.062 58.037c8.855 11.93 3.447 27.12-12.076 33.926zM734.157 85.13c-8.854 11.934-28.621 16.085-44.142 9.283s-20.929-21.992-12.075-33.926l43.063-58.037c8.85-11.934 28.613-16.089 44.138-9.283s20.929 21.996 12.075 33.926l-43.059 58.037z" />
<glyph unicode="&#xe92d;" glyph-name="nftpresele" horiz-adv-x="878" d="M171.186 913.634c17.198 17.216 40.514 26.862 64.821 26.862h530.53c24.313 0 47.631-9.649 64.829-26.871 17.203-17.196 26.843-40.504 26.843-64.802v-686.568c0-50.625-41.043-91.672-91.672-91.672h-33.158v-33.163c0-24.303-9.645-47.616-26.858-64.814-17.198-17.213-40.511-26.858-64.814-26.858h-530.532c-24.296 0-47.605 9.64-64.799 26.843-17.221 17.198-26.871 40.521-26.871 64.829v686.572c0 24.31 9.649 47.631 26.871 64.829 17.199 17.221 40.491 26.843 64.801 26.843h33.158v33.16c0 24.302 9.643 47.614 26.852 64.81zM111.177 757.15c-8.8 0-17.218-3.489-23.426-9.705-6.216-6.207-9.732-14.653-9.732-23.453v-686.572c0-8.797 3.489-17.218 9.705-23.425 6.204-6.212 14.651-9.733 23.451-9.733h530.532c8.797 0 17.218 3.491 23.425 9.708 6.217 6.207 9.733 14.653 9.733 23.45v686.572c0 8.8-3.486 17.218-9.704 23.426-6.207 6.216-14.653 9.732-23.454 9.732h-530.53zM641.707 815.664c24.303 0 47.611-9.642 64.809-26.85 17.218-17.198 26.863-40.515 26.863-64.822v-594.895h33.158c18.31 0 33.158 14.848 33.158 33.158v686.568c0 8.8-3.491 17.218-9.704 23.426-6.207 6.216-14.653 9.732-23.454 9.732h-530.53c-8.8 0-17.218-3.489-23.426-9.705-6.216-6.207-9.732-14.653-9.732-23.453v-33.148l438.858-0.012zM361.814 702.689c9.052 5.225 20.204 5.225 29.255 0l202.851-117.107c9.050-5.226 14.629-14.885 14.629-25.338v-234.247c0-10.45-5.578-20.109-14.629-25.337l-202.851-117.107c-9.052-5.227-20.204-5.227-29.255 0l-202.852 117.107c-9.053 5.227-14.63 14.887-14.63 25.337v234.247c0 10.453 5.577 20.112 14.63 25.338l202.852 117.107zM202.847 543.352v-200.458l173.595-100.22 173.593 100.22v200.459l-173.593 100.216-173.595-100.217zM376.441 581.606c9.782 0 18.917-4.888 24.343-13.027l72.822-109.227c6.553-9.826 6.553-22.63 0-32.461l-72.822-109.227c-5.426-8.138-14.561-13.024-24.343-13.024s-18.917 4.886-24.343 13.024l-72.824 109.227c-6.553 9.83-6.553 22.635 0 32.461l72.824 109.227c5.426 8.139 14.561 13.027 24.343 13.027zM338.781 443.124l37.66-56.486 37.659 56.486-37.659 56.483-37.66-56.483zM144.332 99.835c0 16.16 13.099 29.257 29.257 29.257h405.702c16.16 0 29.257-13.097 29.257-29.257 0-16.155-13.097-29.257-29.257-29.257h-405.702c-16.158 0-29.257 13.102-29.257 29.257z" />
<glyph unicode="&#xe92e;" glyph-name="rightarrow" horiz-adv-x="597" d="M24.994 935.006c33.325 33.325 87.355 33.325 120.68 0l398.222-398.222c33.325-33.324 33.325-87.355 0-120.679l-398.222-398.219c-33.325-33.331-87.355-33.331-120.68 0-33.325 33.323-33.325 87.347 0 120.676l337.882 337.882-337.882 337.882c-33.325 33.325-33.325 87.355 0 120.68z" />
<glyph unicode="&#xe92f;" glyph-name="grid" horiz-adv-x="1317" d="M0 886.857c0 40.396 32.747 73.143 73.143 73.143h1170.286c40.397 0 73.143-32.747 73.143-73.143s-32.746-73.143-73.143-73.143h-1170.286c-40.396 0-73.143 32.748-73.143 73.143zM0 594.286c0 40.395 32.747 73.143 73.143 73.143h1170.286c40.397 0 73.143-32.748 73.143-73.143s-32.746-73.143-73.143-73.143h-1170.286c-40.396 0-73.143 32.748-73.143 73.143zM0 301.714c0 40.395 32.747 73.143 73.143 73.143h1170.286c40.397 0 73.143-32.748 73.143-73.143s-32.746-73.143-73.143-73.143h-1170.286c-40.396 0-73.143 32.747-73.143 73.143zM0 9.143c0 40.397 32.747 73.143 73.143 73.143h1170.286c40.397 0 73.143-32.746 73.143-73.143s-32.746-73.143-73.143-73.143h-1170.286c-40.396 0-73.143 32.746-73.143 73.143z" />
<glyph unicode="&#xe930;" glyph-name="gridview" d="M385.267 857.6h-188.134c-52.235 0-94.733-42.498-94.733-94.733v-188.134c0-52.235 42.498-94.733 94.733-94.733h188.134c52.235 0 94.733 42.498 94.733 94.733v188.134c0 52.235-42.498 94.733-94.733 94.733zM416 574.733c0-16.946-13.787-30.733-30.733-30.733h-188.134c-16.946 0-30.733 13.787-30.733 30.733v188.134c0 16.946 13.787 30.733 30.733 30.733h188.134c16.946 0 30.733-13.787 30.733-30.733v-188.134zM825.6 857.6h-185.6c-52.936 0-96-43.066-96-96v-185.6c0-52.934 43.064-96 96-96h185.6c52.936 0 96 43.066 96 96v185.6c0 52.934-43.064 96-96 96zM857.6 576c0-17.645-14.356-32-32-32h-185.6c-17.644 0-32 14.355-32 32v185.6c0 17.645 14.356 32 32 32h185.6c17.644 0 32-14.355 32-32v-185.6zM385.267 416h-188.134c-52.235 0-94.733-42.496-94.733-94.735v-188.129c0-52.239 42.498-94.735 94.733-94.735h188.134c52.235 0 94.733 42.496 94.733 94.735v188.129c0 52.239-42.498 94.735-94.733 94.735zM416 133.135c0-16.947-13.787-30.735-30.733-30.735h-188.134c-16.946 0-30.733 13.788-30.733 30.735v188.129c0 16.947 13.787 30.735 30.733 30.735h188.134c16.946 0 30.733-13.788 30.733-30.735v-188.129zM825.6 416h-185.6c-52.936 0-96-43.064-96-96v-185.6c0-52.936 43.064-96 96-96h185.6c52.936 0 96 43.064 96 96v185.6c0 52.936-43.064 96-96 96zM857.6 134.4c0-17.644-14.356-32-32-32h-185.6c-17.644 0-32 14.356-32 32v185.6c0 17.644 14.356 32 32 32h185.6c17.644 0 32-14.356 32-32v-185.6z" />
<glyph unicode="&#xe931;" glyph-name="blockchain" d="M16.703 29.107l182-89.997c3.852-1.901 8.617-3.098 13.226-3.11h0.141c4.68 0.013 9.508 1.242 13.352 3.162l180 90.003c10.156 5.088 16.578 15.469 16.578 26.835v120h180v-120c0-11.366 6.422-21.747 16.586-26.835l179.999-90.003c8.627-4.307 18.643-4.045 26.714-0.051l181.997 89.997c10.227 5.056 16.704 15.482 16.704 26.893v240c0 10.97-6.080 21.491-16.435 26.742-0.096 0.047-0.173 0.101-0.269 0.148l-181.997 90c-8.422 4.164-18.304 4.14-26.714-0.063l-52.467-26.227-88.442 160.695 47.738 23.868c10.163 5.086 16.582 15.469 16.582 26.836v242c0 11.313-6.451 21.766-16.582 26.836l-180.001 90c-8.445 4.219-18.383 4.219-26.828 0l-180-90c-10.118-5.062-16.586-15.516-16.586-26.836v-242c0-11.367 6.422-21.75 16.586-26.836l47.734-23.868-88.437-160.695-52.469 26.234c-8.398 4.204-18.289 4.219-26.71 0.055l-182-90c-10.359-5.124-16.703-15.697-16.703-26.891v-240c0-11.411 6.469-21.837 16.703-26.893zM60 247.693l122-60.326v-173.062l-122 60.326v173.062zM362 74.541l-120-60v172.922l120 60v-172.922zM662.003 247.462l120-60v-172.922l-120 60v172.922zM964 74.63l-122.003-60.326v173.062l122.003 60.326v-173.062zM812.077 352.492l114.246-56.492-114.246-56.499-112.992 56.499 112.992 56.492zM662.003 616.539l-120.003-60v174.922l120.003 60v-174.922zM512 896.461l112.922-56.461-112.922-56.461-112.914 56.461 112.914 56.461zM362 791.461l120-60v-174.922l-120 60v174.922zM420.031 520.445l78.555-39.281c3.843-1.914 8.671-3.149 13.343-3.164h0.141c4.742 0.015 9.516 1.25 13.352 3.164l78.547 39.281 88.447-160.703-73.83-36.906c-10.406-5.204-16.586-15.789-16.586-26.836v-60h-180v60c0 11.597-6.726 21.933-16.586 26.836l-73.82 36.906 88.438 160.703zM211.93 352.492l112.992-56.492-112.992-56.499-114.25 56.499 114.25 56.492z" />
<glyph unicode="&#xe932;" glyph-name="catagroy" d="M-8.001 520c0-26.509 21.49-48 48-48h400c26.51 0 48 21.491 48 48v400c0 26.51-21.49 48-48 48h-400c-26.51 0-48-21.49-48-48v-400zM87.999 568v304h304v-304h-304zM539.653-42.368c7.429-17.939 24.932-29.632 44.346-29.632h400.001c26.509 0 48 21.491 48 48v400c0 19.414-11.693 36.916-29.632 44.346s-38.579 3.323-52.307-10.405l-400.003-400.002c-13.728-13.728-17.835-34.374-10.405-52.307zM699.878 24l236.122 236.115v-236.115h-236.122zM784 568c-83.949 0-152.001 68.052-152.001 152s68.052 152 152.001 152c83.949 0 152-68.052 152-152s-68.051-152-152-152zM535.999 720c0-136.968 111.034-248 248.001-248s248 111.032 248 248c0 136.968-111.034 248-248 248s-248.001-111.032-248.001-248zM6.059-57.939c18.745-18.746 49.137-18.746 67.882 0l400 399.998c18.745 18.745 18.745 49.137 0 67.882s-49.137 18.745-67.882 0l-400-400.002c-18.745-18.746-18.745-49.133 0-67.878zM473.941-57.939c18.745 18.746 18.745 49.133 0 67.878l-400 400.002c-18.745 18.745-49.137 18.745-67.882 0s-18.745-49.137 0-67.882l400-399.998c18.745-18.746 49.137-18.746 67.882 0z" />
<glyph unicode="&#xe933;" glyph-name="delete" horiz-adv-x="819" d="M724.675 707.938h-630.152c-17.392 0-31.507 14.084-31.507 31.508 0 17.392 14.115 31.507 31.507 31.507h630.152c17.393 0 31.508-14.115 31.508-31.507 0-17.424-14.116-31.508-31.508-31.508zM693.171 77.783c0-34.785-28.232-63.012-63.017-63.012h-441.108c-34.785 0-63.015 28.227-63.015 63.012v567.14h567.14v-567.14zM315.077 865.477c0 17.423 14.115 31.507 31.507 31.507h126.031c17.392 0 31.507-14.084 31.507-31.507v-31.508h-189.046v31.508zM756.183 833.969h-189.046v63.015c0 34.785-28.232 63.015-63.014 63.015h-189.046c-34.785 0-63.015-28.231-63.015-63.015v-63.015h-189.046c-34.785 0-63.015-28.231-63.015-63.015v-63.015c0-34.784 28.231-63.015 63.015-63.015v-567.14c0-69.601 56.43-126.029 126.031-126.029h441.108c69.601 0 126.029 56.428 126.029 126.029v567.14c34.785 0 63.017 28.231 63.017 63.015v63.015c0 34.785-28.232 63.015-63.017 63.015zM409.6 77.783c17.392 0 31.508 14.085 31.508 31.508v378.093c0 17.392-14.116 31.507-31.508 31.507s-31.507-14.115-31.507-31.507v-378.093c0-17.423 14.115-31.508 31.507-31.508zM252.062 77.783c17.392 0 31.507 14.085 31.507 31.508v378.093c0 17.392-14.115 31.507-31.507 31.507s-31.508-14.115-31.508-31.507v-378.093c0-17.423 14.115-31.508 31.508-31.508zM567.137 77.783c17.393 0 31.508 14.085 31.508 31.508v378.093c0 17.392-14.116 31.507-31.508 31.507s-31.508-14.115-31.508-31.507v-378.093c0-17.423 14.116-31.508 31.508-31.508z" />
<glyph unicode="&#xe934;" glyph-name="swap" horiz-adv-x="1536" d="M218.506 575.997h741.498c35.346 0 64 28.654 64 64s-28.654 64-64 64h-741.498l146.747 146.746c24.993 24.993 24.993 65.518 0 90.511s-65.518 24.993-90.511 0l-256.005-256.002c-1.491-1.491-2.901-3.060-4.239-4.692-0.606-0.737-1.134-1.518-1.701-2.277-0.684-0.911-1.389-1.802-2.025-2.753-0.609-0.909-1.137-1.855-1.695-2.788-0.513-0.858-1.053-1.697-1.527-2.583-0.51-0.951-0.942-1.932-1.398-2.903-0.435-0.922-0.894-1.828-1.287-2.772-0.39-0.945-0.708-1.911-1.050-2.871-0.363-1.011-0.75-2.007-1.062-3.039-0.291-0.96-0.504-1.935-0.747-2.907-0.267-1.053-0.561-2.094-0.774-3.168-0.222-1.125-0.354-2.259-0.516-3.391-0.132-0.933-0.312-1.853-0.405-2.799-0.414-4.2-0.414-8.433 0-12.632 0.093-0.946 0.27-1.864 0.405-2.799 0.162-1.132 0.294-2.268 0.519-3.389 0.213-1.075 0.507-2.113 0.774-3.165 0.243-0.973 0.456-1.947 0.747-2.907 0.312-1.033 0.699-2.031 1.062-3.040 0.345-0.96 0.66-1.925 1.050-2.871s0.852-1.847 1.287-2.769c0.459-0.972 0.891-1.953 1.401-2.907 0.474-0.882 1.011-1.719 1.524-2.577 0.558-0.937 1.086-1.882 1.695-2.793 0.633-0.948 1.338-1.837 2.019-2.748 0.57-0.763 1.098-1.542 1.707-2.284 1.329-1.619 2.73-3.177 4.209-4.655 0.012-0.013 0.018-0.024 0.030-0.033l256.002-256.003c24.993-24.993 65.518-24.993 90.511 0s24.993 65.518 0 90.511l-146.747 146.749zM1521.498 215.441c0.614 0.744 1.139 1.527 1.715 2.291 0.678 0.906 1.382 1.795 2.010 2.739 0.614 0.913 1.152 1.86 1.702 2.796 0.512 0.855 1.050 1.692 1.523 2.572 0.512 0.954 0.947 1.938 1.395 2.913 0.435 0.918 0.896 1.821 1.293 2.762 0.384 0.946 0.704 1.911 1.050 2.871 0.358 1.011 0.742 2.007 1.062 3.040 0.282 0.96 0.499 1.938 0.742 2.907 0.269 1.053 0.563 2.094 0.781 3.165 0.218 1.124 0.346 2.258 0.512 3.389 0.128 0.933 0.307 1.851 0.41 2.799 0.41 4.2 0.41 8.433 0 12.632-0.102 0.946-0.269 1.864-0.41 2.799-0.166 1.132-0.294 2.268-0.512 3.391-0.218 1.074-0.512 2.112-0.781 3.164-0.243 0.973-0.461 1.947-0.742 2.907-0.32 1.033-0.704 2.031-1.062 3.040-0.346 0.96-0.666 1.925-1.050 2.871-0.397 0.942-0.858 1.844-1.293 2.762-0.448 0.975-0.883 1.96-1.395 2.913-0.474 0.879-1.011 1.716-1.523 2.572-0.55 0.936-1.088 1.884-1.702 2.796-0.627 0.945-1.331 1.833-2.010 2.739-0.576 0.765-1.101 1.548-1.715 2.292-1.318 1.605-2.701 3.15-4.173 4.62l-256.064 256.070c-24.993 24.995-65.517 24.995-90.51 0-24.993-24.993-24.993-65.517 0-90.51l146.74-146.747c0 0-706.145 0-741.492 0 0 0-63.999-28.654-63.999-64s28.653-64 63.999-64h741.492l-146.74-146.747c-24.993-24.993-24.993-65.517 0-90.51s65.517-24.993 90.51 0l256 256.001c1.472 1.48 2.918 3.094 4.237 4.699z" />
<glyph unicode="&#xe935;" glyph-name="check" d="M738.33 610.461c15.622-15.626 15.622-40.954 0-56.57l-268.346-268.352c-15.626-15.616-40.944-15.616-56.57 0l-127.742 127.75c-15.625 15.616-15.625 40.944 0 56.563 15.617 15.622 40.946 15.622 56.562 0l99.462-99.462 240.061 240.070c15.626 15.616 40.954 15.616 56.573 0zM1024 448c0-283.008-229.030-512-512-512-283.008 0-512 229.030-512 512 0 283.008 229.031 512 512 512 283.008 0 512-229.031 512-512zM944 448c0 238.789-193.242 432-432 432-238.789 0-432-193.242-432-432 0-238.79 193.242-432 432-432 238.79 0 432 193.242 432 432z" />
<glyph unicode="&#xe936;" glyph-name="cross" horiz-adv-x="1057" d="M1018.418 640.615c-25.759 61.756-64.476 119.656-116.023 169.584-51.54 49.938-111.312 87.446-175.061 112.4-63.756 24.962-131.492 37.402-199.198 37.402-67.607 0-135.218-12.498-198.836-37.488-63.614-24.982-123.237-62.488-174.664-112.316-51.438-49.822-90.153-107.584-115.939-169.214-25.796-61.63-38.697-127.126-38.697-192.626 0-65.589 12.845-131.204 38.608-192.968 25.759-61.754 64.477-119.656 116.025-169.584 51.539-49.935 111.306-87.446 175.054-112.399 63.756-24.959 131.489-37.402 199.191-37.406 67.61 0 135.221 12.499 198.844 37.485 63.617 24.982 123.24 62.484 174.671 112.316 51.438 49.826 90.155 107.586 115.94 169.218 25.795 61.632 38.694 127.128 38.697 192.628-0.003 65.589-12.846 131.204-38.615 192.968zM953 280.682c-22.34-53.367-55.778-103.295-100.454-146.584-44.683-43.279-96.223-75.674-151.311-97.316-55.081-21.636-113.71-32.484-172.356-32.484-58.791 0-117.565 10.811-172.775 32.428-55.212 21.626-106.858 54.018-151.618 97.369-44.754 43.368-78.191 93.395-100.511 146.888-22.313 53.479-33.474 110.424-33.472 167.378-0.002 56.809 11.196 113.601 33.528 166.962 22.34 53.367 55.779 103.297 100.457 146.583 44.682 43.28 96.221 75.674 151.306 97.318 55.078 21.636 113.704 32.484 172.346 32.484 58.794 0 117.575-10.81 172.782-32.426 55.213-21.622 106.863-54.014 151.628-97.372 44.752-43.364 78.187-93.394 100.511-146.881 22.313-53.483 33.475-110.424 33.475-167.378-0.003-56.812-11.198-113.608-33.534-166.968zM577.219 447.997l170.721 165.386c13.471 13.048 13.471 34.203 0 47.253-13.471 13.048-35.308 13.048-48.779 0l-170.721-165.387-170.721 165.385c-13.471 13.048-35.308 13.048-48.779 0-13.469-13.048-13.469-34.204 0-47.255l170.721-165.386-170.721-165.386c-13.469-13.044-13.469-34.202 0-47.253 13.471-13.048 35.309-13.048 48.779 0l170.721 165.389 170.721-165.386c13.471-13.051 35.308-13.051 48.779 0 13.471 13.048 13.471 34.202 0 47.253l-170.721 165.386z" />
<glyph unicode="&#xe937;" glyph-name="hide" horiz-adv-x="1141" d="M1133.237 473.237c-69.258 90.741-152.438 169.949-246.459 234.684l160.803 160.802c16.188 15.635 16.639 41.432 1.004 57.621s-41.434 16.638-57.622 1.003c-0.339-0.327-0.673-0.661-1.004-1.003l-175.675-175.513c-74.775 41.155-158.433 63.53-243.771 65.202-309.705 0-552.538-328.776-562.726-342.793-10.384-14.286-10.384-33.634 0-47.92 69.258-90.738 152.44-169.949 246.459-234.683l-160.802-160.803c-16.189-15.635-16.638-41.431-1.003-57.619 15.635-16.191 41.432-16.639 57.621-1.004 0.339 0.328 0.673 0.661 1.003 1.004l175.675 175.511c74.778-41.153 158.433-63.529 243.771-65.2 309.707 0 552.539 328.774 562.726 342.794 10.389 14.283 10.389 33.634 0 47.917zM313.499 249.762c-83.014 55.29-157.426 122.517-220.827 199.516 59.985 72.657 254.528 285.254 477.842 285.254 63.535-1.284 126.002-16.592 182.93-44.825l-70.744-70.744c-93.599 62.141-219.853 36.639-281.995-56.958-45.267-68.184-45.267-156.853 0-225.034l-87.207-87.21zM680.542 501.643c7.975-16.308 12.156-34.21 12.224-52.364 0-67.52-54.731-122.254-122.251-122.254-18.154 0.070-36.057 4.251-52.364 12.227l162.392 162.392zM460.487 396.914c-7.975 16.308-12.156 34.213-12.224 52.367 0 67.517 54.734 122.251 122.251 122.251 18.154-0.070 36.057-4.251 52.364-12.227l-162.392-162.392zM570.514 164.024c-63.535 1.284-125.999 16.592-182.927 44.825l70.744 70.744c93.597-62.139 219.853-36.639 281.992 56.961 45.267 68.181 45.267 156.85 0 225.034l87.207 87.207c83.014-55.29 157.427-122.52 220.827-199.513-59.986-72.663-254.528-285.257-477.842-285.257z" />
<glyph unicode="&#xe938;" glyph-name="home1" d="M453.854 945.004c19.994 19.995 52.413 19.995 72.407 0l438.859-438.858c19.99-19.994 19.99-52.413 0-72.407-19.997-19.995-52.414-19.995-72.411 0l-10.116 10.119v-364.009c0-55.208-44.756-99.964-99.964-99.964h-585.143c-55.207 0-99.962 44.756-99.962 99.964v364.009l-10.12-10.119c-19.994-19.995-52.413-19.995-72.407 0s-19.995 52.413 0 72.407l438.858 438.858zM199.924 546.259v-463.973h141.41v192.609c0 55.207 44.754 99.962 99.961 99.962h97.524c55.207 0 99.961-44.755 99.961-99.962v-192.609h141.412v463.973l-290.136 290.134-290.134-290.134zM536.381 82.286v190.171h-92.647v-190.171h92.647z" />
<glyph unicode="&#xe939;" glyph-name="gaurd" horiz-adv-x="939" d="M435.887-64c-10.988 0-21.701 3.447-30.63 9.847-57.207 41.037-105.87 67.43-148.812 90.735-86.456 46.925-154.759 83.981-197.176 193.589-38.108 98.438-54.759 254.022-59.264 554.935-0.097 6.963 1.19 13.876 3.787 20.337s6.453 12.341 11.342 17.3c4.89 4.958 10.716 8.895 17.14 11.581s13.319 4.070 20.282 4.070h8.694c56.937-0.405 208.227-1.501 340.943 109.384 9.452 7.897 21.377 12.222 33.693 12.222s24.241-4.326 33.694-12.222c132.701-110.885 284.337-109.773 341.393-109.384h8.769c6.967 0.001 13.865-1.384 20.292-4.074s12.256-6.63 17.147-11.593c4.89-4.963 8.747-10.848 11.341-17.315s3.874-13.384 3.772-20.35c-4.506-300.779-21.201-456.347-59.429-554.905-42.507-109.609-110.855-146.65-197.371-193.557-42.988-23.305-91.726-49.732-148.977-90.795-8.934-6.391-19.646-9.822-30.63-9.805zM106.055 733.845c5.331-249.802 20.541-386.438 51.232-465.746 28.528-73.574 68.858-95.495 149.292-139.128 36.141-19.61 79.579-43.211 129.308-76.483 49.744 33.314 93.318 56.934 129.518 76.573 80.51 43.648 120.916 65.555 149.473 139.157 30.781 79.369 46.036 216.049 51.366 465.626-40.759 1.411-81.306 6.487-121.155 15.165-77.222 17.117-147.431 48.048-209.217 92.116-123.122-87.732-253.632-104.339-329.818-107.282z" />
<glyph unicode="&#xe93a;" glyph-name="otherwallet" horiz-adv-x="1536" d="M314.518 775.965c250.45 245.38 656.515 245.38 906.964 0l30.161-29.495c2.998-2.868 5.382-6.314 7.012-10.129 1.629-3.816 2.47-7.921 2.47-12.069s-0.841-8.255-2.47-12.069c-1.629-3.816-4.014-7.261-7.012-10.129l-103.13-100.979c-3.036-2.935-7.094-4.575-11.316-4.575s-8.28 1.64-11.316 4.575l-41.477 40.658c-174.767 171.028-458.039 171.028-632.755 0l-44.447-43.525c-3.025-2.959-7.086-4.616-11.316-4.616s-8.293 1.656-11.316 4.616l-103.13 100.978c-2.998 2.868-5.382 6.314-7.013 10.129-1.629 3.816-2.469 7.921-2.469 12.069s0.84 8.255 2.469 12.069c1.631 3.816 4.015 7.261 7.013 10.129l33.079 32.364zM1434.752 567.197l91.763-89.868c2.995-2.868 5.389-6.313 7.014-10.129 1.626-3.814 2.47-7.921 2.47-12.069s-0.845-8.253-2.47-12.069c-1.626-3.814-4.019-7.26-7.014-10.129l-413.795-404.989c-6.084-5.888-14.218-9.18-22.684-9.18-8.467 0-16.602 3.292-22.685 9.18l-293.668 287.574c-1.523 1.455-3.551 2.267-5.658 2.267s-4.134-0.812-5.659-2.267l-293.718-287.574c-6.076-5.885-14.202-9.175-22.66-9.175-8.457 0-16.584 3.29-22.659 9.175l-413.848 404.989c-2.997 2.868-5.383 6.314-7.012 10.129-1.63 3.816-2.47 7.921-2.47 12.069s0.84 8.255 2.47 12.069c1.63 3.816 4.015 7.26 7.012 10.129l91.813 89.868c6.063 5.908 14.193 9.215 22.659 9.215s16.597-3.306 22.659-9.215l293.873-287.524c1.512-1.478 3.543-2.308 5.658-2.308s4.147 0.829 5.659 2.308l293.668 287.524c6.071 5.911 14.211 9.22 22.684 9.22s16.613-3.309 22.684-9.22l293.668-287.524c1.521-1.482 3.56-2.312 5.684-2.312s4.163 0.829 5.683 2.312l293.669 287.524c6.080 5.842 14.182 9.105 22.605 9.105 8.435 0 16.538-3.263 22.605-9.105z" />
<glyph unicode="&#xe93b;" glyph-name="tick" horiz-adv-x="1365" d="M1340.339 935.006c33.323-33.325 33.323-87.355 0-120.68l-853.332-853.332c-33.325-33.323-87.355-33.323-120.68 0l-341.333 341.332c-33.325 33.325-33.325 87.355 0 120.68s87.355 33.324 120.68 0l280.993-280.994 792.994 792.994c33.323 33.325 87.356 33.325 120.678 0z" />
<glyph unicode="&#xe93c;" glyph-name="key" d="M927.488 863.486c-128.685 128.686-338.076 128.684-466.762 0-87.892-87.892-118.412-217.45-80.371-334.966l-371.566-371.567c-5.628-5.626-8.79-13.261-8.79-21.216v-169.734c0-16.57 13.434-30.003 30.004-30.003h169.732c7.96 0 15.588 3.162 21.218 8.787l42.44 42.445c6.482 6.483 9.646 15.571 8.586 24.678l-5.296 45.568 63.168 5.952c14.344 1.357 25.704 12.71 27.056 27.053l5.958 63.181 45.57-5.299c8.508-0.992 17.024 1.702 23.42 7.398 6.392 5.69 10.050 13.843 10.050 22.406v55.878h54.86c7.898 0 15.476 3.11 21.094 8.666l74.544 73.683c117.542-38.106 247.167-7.59 335.084 80.332 128.685 128.684 128.685 338.074 0 466.758zM885.056 439.158c-75.731-75.731-189.331-99.368-289.408-60.228-11.044 4.318-23.592 1.73-32.022-6.604l-79.186-78.272h-72.54c-16.57 0-30.004-13.434-30.004-30.003v-52.186l-42.56 4.947c-8.018 0.928-16.070-1.408-22.344-6.483-6.272-5.082-10.236-12.467-10.994-20.506l-6.506-68.979-68.972-6.496c-8.036-0.762-15.427-4.723-20.506-10.995-5.078-6.272-7.416-14.33-6.484-22.342l7.164-61.613-23.388-23.392h-127.3v127.296l376.194 376.196c8.428 8.428 11.070 21.046 6.728 32.146-39.144 100.076-15.502 213.672 60.228 289.406 105.292 105.288 276.607 105.288 381.894 0 105.293-105.286 105.293-276.604 0.006-381.892zM842.618 778.615c-35.091 35.098-92.198 35.096-127.296 0s-35.098-92.202 0-127.299c35.098-35.096 92.205-35.1 127.296 0 35.098 35.096 35.098 92.202 0 127.299zM800.186 693.748c-11.693-11.698-30.726-11.7-42.432 0-11.693 11.699-11.693 30.732 0 42.432 11.731 11.728 30.707 11.728 42.432 0 11.731-11.728 11.731-30.704 0-42.432z" />
<glyph unicode="&#xe93d;" glyph-name="mail" horiz-adv-x="1472" d="M1328.358 960h-1200.358c-70.434 0-128-57.313-128-128v-768c0-70.714 57.603-128 128-128h1200.358c70.432 0 128 57.312 128 128v768c0 70.704-57.6 128-128 128zM1308.698 874.667c-41.382-41.521-527.488-529.209-547.456-549.245-16.678-16.73-49.44-16.743-66.125 0l-547.462 549.245h1161.043zM85.333 79.686v736.627l367.119-368.313-367.119-368.314zM147.655 21.331l365.039 366.23 121.983-122.383c49.988-50.15 137.034-50.131 187.005 0l121.984 122.381 365.030-366.227h-1161.043zM1371.021 79.686l-367.117 368.314 367.117 368.313v-736.627z" />
<glyph unicode="&#xe93e;" glyph-name="fa" d="M750.784 888.606c-27.443 0-49.696-22.252-49.696-49.699v-387.499c0-27.447 22.253-49.699 49.696-49.699h161.459c27.45 0 49.702 22.252 49.702 49.699v387.499c0 27.447-22.253 49.699-49.702 49.699h-161.459zM639.028 838.908c0 61.722 50.035 111.759 111.756 111.759h161.459c61.722 0 111.763-50.037 111.763-111.759v-387.499c0-61.722-50.042-111.759-111.763-111.759h-161.459c-61.722 0-111.756 50.037-111.756 111.759v387.499zM121.092 824.015c-27.447 0-49.699-22.252-49.699-49.699v-565.101c0-27.45 22.252-49.702 49.699-49.702h791.144c27.443 0 49.696 22.253 49.696 49.702v13.83c0 17.139 13.894 31.027 31.034 31.027s31.027-13.888 31.027-31.027v-13.83c0-61.722-50.035-111.763-111.757-111.763h-364.519v-99.386h130.388c17.133 0 31.027-13.894 31.027-31.034s-13.894-31.027-31.027-31.027h-322.918c-17.137 0-31.030 13.888-31.030 31.027s13.892 31.034 31.030 31.034h130.469v99.386h-364.564c-61.722 0-111.759 50.042-111.759 111.763v565.101c0 61.722 50.037 111.759 111.759 111.759h387.499c17.137 0 31.030-13.893 31.030-31.030s-13.893-31.030-31.030-31.030h-387.499zM305.491 612.863c0 27.448 22.251 49.699 49.699 49.699s49.699-22.251 49.699-49.699c0-27.317-22.040-49.487-49.308-49.697l-0.393 0.003-0.391-0.002c-27.267 0.211-49.306 22.38-49.306 49.697zM466.949 612.863c0-50.956-34.103-93.948-80.731-107.395v-103.754h49.699c17.138 0 31.030-13.892 31.030-31.030s-13.892-31.030-31.030-31.030h-49.699v-49.702c0-17.139-13.892-31.034-31.030-31.034s-31.030 13.894-31.030 31.034v215.517c-46.626 13.448-80.727 56.439-80.727 107.394 0 61.723 50.036 111.759 111.759 111.759s111.759-50.036 111.759-111.759z" />
<glyph unicode="&#xe93f;" glyph-name="accsetting" d="M544.132-64h-64.266c-51.978 0-94.268 42.291-94.268 94.268v21.743c-22.098 7.057-43.569 15.966-64.195 26.641l-15.408-15.403c-37.318-37.367-97.096-36.275-133.33 0.009l-45.422 45.422c-36.298 36.258-37.342 96.016 0.012 133.33l15.396 15.397c-10.673 20.626-19.584 42.092-26.645 64.194h-21.74c-51.976 0-94.266 42.288-94.266 94.266v64.268c0 51.978 42.29 94.266 94.268 94.266h21.74c7.062 22.1 15.972 43.568 26.646 64.194l-15.409 15.406c-37.332 37.292-36.302 97.056 0.012 133.33l45.426 45.425c36.318 36.367 96.082 37.275 133.328-0.012l15.394-15.394c20.626 10.672 42.096 19.584 64.194 26.645v21.74c0 51.978 42.288 94.266 94.268 94.266h64.266c51.978 0 94.266-42.288 94.266-94.266v-21.742c22.098-7.060 43.568-15.972 64.194-26.646l15.409 15.409c37.318 37.364 97.096 36.268 133.33-0.015l45.419-45.42c36.301-36.258 37.342-96.016-0.009-133.33l-15.394-15.397c10.675-20.626 19.584-42.092 26.641-64.194h21.743c51.977 0 94.268-42.288 94.268-94.266v-64.268c0-51.978-42.291-94.266-94.268-94.266h-21.743c-7.057-22.1-15.966-43.568-26.641-64.194l15.403-15.409c37.333-37.292 36.301-97.056-0.009-133.33l-45.426-45.427c-36.318-36.361-96.082-37.274-133.328 0.017l-15.394 15.394c-20.626-10.675-42.096-19.584-64.194-26.65v-21.743c0-51.968-42.288-94.259-94.268-94.259zM331.434 141.66c28.654-16.946 59.494-29.748 91.663-38.048 13.248-3.422 22.504-15.369 22.504-29.047v-44.297c0-18.893 15.374-34.27 34.267-34.27h64.266c18.894 0 34.268 15.377 34.268 34.27v44.297c0 13.679 9.256 25.626 22.504 29.047 32.168 8.3 63.008 21.102 91.662 38.048 11.791 6.972 26.8 5.076 36.486-4.611l31.376-31.381c13.528-13.542 35.252-13.227 48.448-0.009l45.454 45.45c13.167 13.148 13.602 34.876 0.009 48.45l-31.386 31.391c-9.684 9.684-11.58 24.695-4.61 36.483 16.945 28.652 29.745 59.492 38.044 91.663 3.422 13.248 15.369 22.502 29.056 22.502h44.288c18.893 0 34.27 15.372 34.27 34.266v64.268c0 18.894-15.377 34.266-34.27 34.266h-44.288c-13.687 0-25.634 9.256-29.056 22.502-8.299 32.17-21.1 63.010-38.044 91.662-6.97 11.788-5.074 26.8 4.61 36.484l31.378 31.378c13.568 13.548 13.21 35.268 0.009 48.45l-45.446 45.45c-13.175 13.192-34.902 13.578-48.451 0.012l-31.388-31.39c-9.684-9.686-24.7-11.582-36.486-4.611-28.653 16.946-59.494 29.748-91.662 38.050-13.248 3.418-22.504 15.366-22.504 29.048v44.3c0 18.894-15.374 34.266-34.268 34.266h-64.265c-18.895 0-34.268-15.372-34.268-34.266v-44.296c0-13.682-9.256-25.63-22.504-29.048-32.168-8.302-63.008-21.104-91.662-38.050-11.792-6.97-26.802-5.074-36.486 4.611l-31.376 31.378c-13.528 13.543-35.254 13.23-48.448 0.014l-45.455-45.452c-13.164-13.148-13.604-34.874-0.012-48.45l31.39-31.391c9.684-9.684 11.581-24.695 4.611-36.483-16.946-28.652-29.746-59.492-38.048-91.663-3.42-13.248-15.368-22.502-29.047-22.502h-44.297c-18.894-0.002-34.268-15.375-34.268-34.268v-64.268c0-18.894 15.374-34.266 34.268-34.266h44.294c13.682 0 25.628-9.255 29.048-22.502 8.302-32.17 21.104-63.010 38.048-91.662 6.97-11.789 5.075-26.801-4.61-36.484l-31.378-31.378c-13.564-13.548-13.21-35.268-0.012-48.451l45.45-45.447c13.174-13.193 34.901-13.585 48.45-0.017l31.388 31.392c7.136 7.134 21.982 13.187 36.488 4.608zM511.995 122.176c-179.659 0-325.818 146.162-325.818 325.818s146.159 325.819 325.818 325.819c179.66 0 325.819-146.162 325.819-325.819s-146.159-325.818-325.819-325.818zM511.995 686.070c-131.278 0-238.075-106.801-238.075-238.076s106.801-238.075 238.075-238.075c131.275 0 238.076 106.801 238.076 238.075s-106.797 238.076-238.076 238.076zM511.965 582.979c9.268 0 18.138-3.769 24.571-10.441l79.792-82.748c6.135-6.362 9.562-14.855 9.562-23.693 0-53.071-34.959-99.226-83.961-112.828 34.4-5.024 66.202-18.816 91.371-41.055 32.776-28.959 52.427-70.677 52.427-120.214 0-18.851-15.281-34.133-34.133-34.133h-130.963c-4.058-2.138-9.455-4.894-15.789-7.917-13.919-6.643-33.284-15.020-53.305-20.754-18.552-5.313-43.957-10.289-66.794-3.749-12.582 3.603-25.281 10.982-34.406 24.048-8.901 12.745-12.15 27.677-12.15 42.505 0 49.539 19.658 91.258 52.437 120.216 27.964 24.704 64.112 38.984 102.913 42.401-2.219 1.423-4.283 3.11-6.143 5.039l-79.793 82.748c-12.75 13.222-12.75 34.163 0 47.386l79.793 82.748c6.433 6.671 15.303 10.441 24.571 10.441zM494.993 221.622l-0.194-0.109-0.944-0.527c-0.868-0.48-2.199-1.208-3.926-2.127-3.461-1.841-8.468-4.424-14.493-7.299-12.263-5.853-27.807-12.471-42.694-16.735-12.906-3.696-21.546-4.489-26.26-4.189-0.018 0.409-0.029 0.863-0.029 1.365 0 30.436 11.605 53.362 29.368 69.054 18.194 16.073 44.715 26.101 76.143 26.101s57.944-10.028 76.134-26.099c10.365-9.158 18.633-20.78 23.72-34.923h-99.861zM406.909 187.508c-0.001-0.001-0.009 0.020-0.024 0.067zM511.965 499.672l-32.375-33.574 45.021-46.688c15.045 4.662 27.463 17.433 31.568 34.41l-44.215 45.852z" />
<glyph unicode="&#xe940;" glyph-name="msgprivacy" d="M964.002 352.84v35.161c0 57.085-22.912 108.915-59.998 146.807v273.192c0 49.674-40.448 90-90.004 90h-724c-49.486 0-90-40.254-90-90v-480c0-49.626 40.374-90 90-90h394v-150.004c0-49.621 40.374-89.993 89.999-89.993h359.999c49.63 0 90.001 40.371 90.001 89.993v180.004c0 39.111-25.079 72.457-59.998 84.84zM904.004 388v-30.001h-60.005v30.001c0 49.626-40.374 89.999-89.999 89.999s-90-40.374-90-89.999v-30.001h-60v30.001c0 82.709 67.29 150 150.001 150s150.004-67.29 150.004-150zM784 388v-30.001h-60v30.001c0 16.542 13.458 30 30 30s30-13.458 30-30zM780.108 838l-328.108-233.196-328.108 233.196h656.216zM489.16 298h-399.159c-16.542 0-30 13.458-30 30v480c0 0.586 0.054 1.16 0.088 1.738l374.534-266.191c5.204-3.697 11.291-5.546 17.378-5.546s12.175 1.848 17.377 5.546l374.534 266.191c0.034-0.579 0.088-1.152 0.088-1.738v-230.29c-27.291 13-57.81 20.29-89.999 20.29-115.794 0-210-94.205-210-209.999v-35.161c-25.528-9.054-45.786-29.312-54.84-54.839zM964.002 87.996c0-16.538-13.457-29.995-30.003-29.995h-359.999c-16.542 0-30 13.457-30 29.995v179.926c0 0.026 0.004 0.050 0.004 0.078 0 0.013-0.003 0.026-0.003 0.040 0.022 16.522 13.468 29.961 29.998 29.961 72.080 0 288.174 0 359.999 0 16.546 0 30.003-13.458 30.003-30.001v-180.004z" />
<glyph unicode="&#xe941;" glyph-name="repostfeed" horiz-adv-x="1097" d="M0 852.49c0 29.724 24.096 53.814 53.814 53.814h457.434c14.856 0 26.907-12.045 26.907-26.907s-12.051-26.907-26.907-26.907h-457.434v-807.236h914.86v457.436c0 14.857 12.054 26.908 26.909 26.908s26.909-12.051 26.909-26.908v-457.436c0-29.718-24.093-53.811-53.819-53.811h-914.86c-29.724 0-53.814 24.093-53.814 53.811v807.236zM1004.844 883.052l-57.3 57.311c-26.185 26.184-68.791 26.183-94.969 0l-22.433-22.431 152.276-152.286 22.426 22.431c26.251 26.246 26.251 68.727 0 94.975zM419.223 494.697l-26.878-145.156c-1.11-5.999 0.802-12.161 5.116-16.475 4.319-4.32 10.482-6.228 16.474-5.118l145.145 26.881-139.857 139.868zM803.95 891.768l-364.628-364.654 152.273-152.285 364.624 364.653-152.269 152.286z" />
<glyph unicode="&#xe942;" glyph-name="edit" horiz-adv-x="1109" d="M1056.239 835.395l-92.8 92.805c-42.402 42.4-111.386 42.398-153.783 0l-36.322-36.324 246.579-246.601 36.326 36.325c42.496 42.499 42.505 111.292 0 153.795zM108.026 206.521l-43.524-235.057c-1.798-9.711 1.298-19.695 8.284-26.675 6.994-6.997 16.975-10.086 26.677-8.286l235.036 43.529-226.474 226.489zM730.949 849.5l-590.449-590.496 246.581-246.597 590.447 590.491-246.578 246.601z" />
<glyph unicode="&#xe943;" glyph-name="calender" d="M514 505h50c16.567 0 30 13.431 30 30s-13.432 30-30 30h-50c-16.568 0-30-13.431-30-30s13.431-30 30-30zM386 565h-50c-16.568 0-30-13.431-30-30s13.431-30 30-30h50c16.567 0 30 13.431 30 30s-13.432 30-30 30zM692 505h49.999c16.568 0 30.001 13.431 30.001 30s-13.432 30-30.001 30h-49.999c-16.568 0-30.001-13.431-30.001-30s13.432-30 30.001-30zM208 430h-50c-16.567 0-30-13.431-30-30s13.432-30 30-30h50c16.568 0 30 13.431 30 30s-13.431 30-30 30zM386 430h-50c-16.568 0-30-13.431-30-30s13.431-30 30-30h50c16.567 0 30 13.431 30 30s-13.432 30-30 30zM594 400c0 16.568-13.432 30-30 30h-50c-16.568 0-30-13.431-30-30s13.431-30 30-30h50c16.567 0 30 13.431 30 30zM208 295h-50c-16.567 0-30-13.431-30-30s13.432-30 30-30h50c16.568 0 30 13.431 30 30s-13.431 30-30 30zM386 295h-50c-16.568 0-30-13.431-30-30s13.431-30 30-30h50c16.567 0 30 13.431 30 30s-13.432 30-30 30zM900.002 401.848v388.151c0 60.654-49.348 110-110.002 110h-58v30c0 16.568-13.431 30-30 30s-30-13.432-30-30v-30h-108v30c0 16.568-13.432 30-30.001 30s-30-13.432-30-30v-30h-108v30c0 16.568-13.431 30-30 30s-30-13.432-30-30v-30h-108v30c0 16.568-13.432 30-30.001 30s-30-13.432-30-30v-30h-58c-60.654 0-110-49.346-110-110v-600c0-49.626 40.374-89.998 90-89.998h449.244c35.136-95.616 127.11-164.002 234.755-164.002 137.847 0 250 112.154 250 250 0 91.93-49.886 172.418-123.998 215.848zM60 790c0 27.57 22.43 50 50 50h58v-30c0-16.568 13.432-30.001 30-30.001s30.001 13.432 30.001 30.001v30h108v-30c0-16.568 13.432-30.001 30-30.001s30 13.432 30 30.001v30h108v-30c0-16.568 13.432-30.001 30-30.001s30.001 13.432 30.001 30.001v30h108v-30c0-16.568 13.432-30.001 30-30.001s30 13.432 30 30.001v30h58c27.57 0 50-22.43 50-50v-90h-780v90zM90 160c-16.542 0-30 13.458-30 30v450h780v-212.86c-21.034 5.763-43.162 8.86-66 8.86-137.85 0-250-112.15-250-250 0-8.778 0.461-17.452 1.348-26h-435.348zM774-4.002c-104.765 0-190 85.239-190 190.002 0 104.765 85.234 190 190 190 104.763 0 190.002-85.234 190.002-190 0-104.763-85.239-190.002-190.002-190.002zM874.001 216h-70.001v70c0 16.568-13.432 30-30.001 30s-30-13.431-30-30v-100c0-16.568 13.432-30.001 30-30.001h100.001c16.563 0 30.003 13.432 30.003 30.001s-13.44 30-30.003 30z" />
<glyph unicode="&#xe944;" glyph-name="activity" horiz-adv-x="1862" d="M767.596 527.213c-11.559 48.298-71.098 69.38-112.575 39.773l-550.534-393.377c-31.739-22.686-38.28-65.741-14.68-96.168 23.637-30.463 68.459-36.741 100.198-14.126l462.526 330.489 91.799-384.067c12.116-50.651 75.967-70.302 116.552-36.669l825.963 683.593-21.997-252.441c-3.454-39.88 29.249-74.48 71.466-74.48 36.836 0 68.124 27.145 71.252 63.030 0.112 1.177 36.492 419.131 36.566 420.307 3.351 40.344-30.217 74.195-71.354 74.195h-409.861c-39.545 0-71.624-30.784-71.624-68.737s32.079-68.737 71.624-68.737h217.153l-722.719-598.162-89.755 375.577z" />
<glyph unicode="&#xe945;" glyph-name="creator" horiz-adv-x="1097" d="M577.929 960c-101.264 0-200.254-30.028-284.452-86.287s-149.822-136.223-188.575-229.779c-38.752-93.556-48.891-196.503-29.136-295.82s68.519-190.55 140.123-262.156c71.605-71.6 162.834-120.364 262.153-140.12s202.264-9.618 295.823 29.14c93.55 38.751 173.517 104.375 229.778 188.57 56.254 84.199 86.287 183.188 86.287 284.453-0.154 135.744-54.148 265.884-150.133 361.869s-226.126 149.977-361.869 150.131zM135.747 448c-0.097 70.52 16.673 140.039 48.912 202.759s79.011 116.82 136.413 157.784c57.403 40.964 123.769 67.605 193.563 77.699s140.989 3.348 207.646-19.673c66.653-23.022 126.842-61.653 175.526-112.668 48.691-51.015 84.473-112.933 104.36-180.59 19.88-67.658 23.303-139.091 9.962-208.338s-43.045-134.299-86.645-189.729c-53.314 79.469-130.706 139.748-220.812 171.987 38.715 41.533 59.993 96.355 59.437 153.133 0 115.433-83.524 209.455-186.18 209.455s-186.182-94.022-186.182-209.455c-0.316-29.24 5.191-58.248 16.198-85.338s27.298-51.72 47.919-72.452c-90.772-32.655-167.313-95.944-216.436-178.968-67.035 79.596-103.76 180.332-103.681 284.394zM589.565 366.545c-12.777 0-25.46-0.93-38.075-2.093-51.502 14.196-89.925 69.584-89.925 135.912 0 77.033 52.108 139.636 116.364 139.636s116.364-62.604 116.364-139.636c1.437-28.555-6.023-56.853-21.351-80.989s-37.767-42.919-64.223-53.761c-6.377 0.466-12.706 0.932-19.153 0.932zM291.302 111.711c24.992 48.757 61.382 90.756 106.081 122.442 44.698 31.684 96.383 52.112 150.665 59.549 9.866-1.757 19.861-2.691 29.882-2.793 12.969-0.069 25.9 1.414 38.516 4.421 112.827-10.706 209.243-88.204 260.187-172.684-79.294-73.194-182.692-114.739-290.584-116.751-107.892-2.019-212.773 35.635-294.746 105.816z" />
<glyph unicode="&#xe946;" glyph-name="currency" d="M767.974 572.989v130.976c0 62.589-43.883 118.999-123.563 158.836-70.278 35.138-162.765 54.491-260.423 54.491-97.67 0-190.159-19.352-260.435-54.491-79.675-39.837-123.554-96.247-123.554-158.836v-511.972c0-62.592 43.879-118.999 123.557-158.841 70.275-35.132 162.765-54.485 260.435-54.485 74.403 0 145.333 11.102 206.607 32.154 40.497-20.557 86.271-32.154 134.708-32.154 164.703 0 298.693 133.994 298.693 298.693 0 150.211-111.462 274.86-256.026 295.63zM85.341 396.689c11.638-7.865 24.37-15.299 38.216-22.22 70.275-35.138 162.767-54.49 260.435-54.49 15.401 0 30.711 0.509 45.879 1.468-2.137-14.391-3.261-29.113-3.261-44.090 0-13.937 0.982-27.651 2.839-41.083-14.994-1.070-30.179-1.61-45.458-1.61-170.932-0.003-298.65 67.569-298.65 127.985v34.039zM457.521 409.576c-23.958-2.819-48.599-4.253-73.533-4.253-170.929-0.003-298.648 67.567-298.648 127.983v34.039c11.638-7.865 24.37-15.299 38.216-22.217 70.275-35.14 162.767-54.49 260.435-54.49 52.547 0 103.555 5.649 150.456 16.3-31.961-26.615-58.283-59.758-76.926-97.362zM383.989 831.951c170.926 0 298.642-67.569 298.642-127.985s-127.716-127.989-298.642-127.989c-170.929 0-298.648 67.573-298.648 127.989s127.718 127.985 298.648 127.985zM85.341 191.991v34.037c11.638-7.866 24.37-15.296 38.216-22.217 70.275-35.138 162.765-54.49 260.435-54.49 23.554 0 46.944 1.158 69.903 3.397 13.018-28.233 30.304-54.106 51.043-76.779-38.025-7.782-79.197-11.93-120.948-11.93-170.929 0-298.648 67.569-298.648 127.982zM725.304 64.009c-117.643 0-213.353 95.706-213.353 213.349 0 117.309 95.176 212.789 212.362 213.327 0.333-0.009 0.655-0.051 0.991-0.051s0.654 0.043 0.99 0.051c117.187-0.538 212.364-96.017 212.364-213.327 0-117.642-95.712-213.349-213.354-213.349z" />
<glyph unicode="&#xe947;" glyph-name="gwei" horiz-adv-x="1088" d="M726.406-64h-684c-11.044 0-20 8.954-20 20s8.956 20 20 20h40v925.24c0 32.4 26.36 58.76 58.76 58.76h486.48c32.399 0 58.76-26.36 58.76-58.76v-553.24h100c44.109 0 80-35.891 80-80v-60c0-22.054 17.946-40 40-40s40 17.946 40 40v160h-40c-11.046 0-20 8.954-20 20v180c0 7.576 4.282 14.5 11.053 17.888l108.947 54.472v35.281l-108.941 54.47c-9.882 4.94-13.888 16.954-8.947 26.834s16.954 13.884 26.829 8.944l120-60c6.778-3.388 11.059-10.312 11.059-17.888v-300c0-11.046-8.954-20-20-20h-40v-160c0-44.109-35.891-80-80-80-44.115 0-80 35.891-80 80v60c0 22.054-17.946 40-40 40h-100v-332h40c11.046 0 20-8.954 20-20s-8.954-20-20-20zM1006.406 595.64l-80-40v-147.64h80v187.64zM464.406 488h-342v-512h524v512h-182zM464.406 528h182v373.24c0 10.344-8.416 18.76-18.76 18.76h-486.48c-10.344 0-18.76-8.416-18.76-18.76v-373.24h342zM606.406 820v-192c0-33.084-26.916-60-60-60h-324c-33.084 0-60 26.916-60 60v192c0 33.084 26.916 60 60 60h324c33.084 0 60-26.916 60-60zM202.406 820v-192c0-11.028 8.972-20 20-20h324c11.028 0 20 8.972 20 20v192c0 11.028-8.972 20-20 20h-324c-11.028 0-20-8.972-20-20z" />
<glyph unicode="&#xe948;" glyph-name="collect-floor" d="M219.433 850.281c-60.5 0-109.714-49.214-109.714-109.714s49.214-109.715 109.714-109.715c60.5 0 109.715 49.215 109.715 109.715s-49.215 109.714-109.715 109.714zM219.433 703.996c-20.161 0-36.572 16.393-36.572 36.572s16.411 36.572 36.572 36.572c20.161 0 36.572-16.393 36.572-36.572s-16.411-36.572-36.572-36.572zM475.433 521.143c-20.161 0-36.572 16.393-36.572 36.572s16.411 36.571 36.572 36.571c20.161 0 36.572-16.392 36.572-36.571 0-20.214 16.375-36.572 36.572-36.572s36.572 16.357 36.572 36.572c0 47.613-30.666 87.83-73.143 102.975v6.739c0 20.214-16.375 36.572-36.572 36.572s-36.572-16.357-36.572-36.572v-6.739c-42.477-15.146-73.142-55.362-73.142-102.975 0-60.5 49.214-109.715 109.714-109.715 20.161 0 36.572-16.393 36.572-36.572s-16.411-36.572-36.572-36.572c-20.161 0-36.572 16.393-36.572 36.572 0 20.214-16.375 36.572-36.572 36.572s-36.571-16.357-36.571-36.572c0-47.613 30.665-87.828 73.142-102.974v-6.739c0-20.218 16.375-36.57 36.572-36.57s36.572 16.352 36.572 36.57v6.739c42.477 15.144 73.143 55.361 73.143 102.974 0 60.5-49.215 109.715-109.715 109.715zM976.71 71.565c-14.285 14.285-37.427 14.285-51.712 0l-10.714-10.714-10.714 10.714c-14.285 14.285-37.434 14.285-51.718 0s-14.285-37.427 0-51.712l10.714-10.714-10.714-10.714c-14.285-14.285-14.285-37.427 0-51.718 7.142-7.142 16.499-10.714 25.862-10.714 9.357 0 18.714 3.571 25.856 10.714l10.714 10.72 10.714-10.72c7.142-7.142 16.499-10.714 25.856-10.714s18.714 3.571 25.856 10.714c14.285 14.291 14.285 37.434 0 51.718l-10.714 10.714 10.714 10.714c14.285 14.285 14.285 37.427 0 51.712zM1013.286 254.426c-14.285 14.291-37.427 14.291-51.712 0l-10.72-10.714v21.434c0 80.676-65.619 146.283-146.285 146.283h-21.427l47.283 47.286c14.291 14.285 14.291 37.428 0 51.715l-438.854 438.857c-6.857 6.857-16.161 10.714-25.857 10.714h-329.143c-20.196 0-36.571-16.357-36.571-36.571v-329.143c0-9.714 3.857-19 10.714-25.857l438.857-438.854c7.143-7.149 16.5-10.72 25.857-10.72s18.714 3.571 25.857 10.72l208.717 208.711h94.566c40.339 0 73.146-32.82 73.146-73.14v-21.434l-10.714 10.714c-14.285 14.291-37.427 14.291-51.718 0-14.285-14.285-14.285-37.427 0-51.712l73.146-73.139c7.142-7.149 16.499-10.72 25.856-10.72s18.714 3.571 25.856 10.72l73.146 73.139c14.285 14.285 14.285 37.427 0 51.712zM475.428 207.142l-402.285 402.286v277.428h277.428l402.286-402.285-277.429-277.429zM768 45.722h-731.429c-20.196 0-36.571-16.358-36.571-36.576 0-20.211 16.375-36.57 36.571-36.57h731.429c20.198 0 36.57 16.358 36.57 36.57 0 20.218-16.371 36.576-36.57 36.576z" />
<glyph unicode="&#xe949;" glyph-name="pricerange" horiz-adv-x="1646" d="M18.286 595.645c0-191.121 154.941-346.063 346.066-346.063v36.571c-170.928 0-309.494 138.569-309.494 309.492 0 170.931 138.567 309.498 309.494 309.498h925.863c170.928 0 309.489-138.567 309.489-309.498 0-170.923-138.562-309.492-309.489-309.492h-925.863c0 0 0 0 0-18.286s0-18.286 0-18.286h925.863c191.126 0 346.061 154.942 346.061 346.063 0 191.129-154.935 346.069-346.061 346.069h-925.863c-191.126 0-346.066-154.941-346.066-346.069zM542.402 595.657c0-10.097 8.185-18.286 18.286-18.286h876.635c10.101 0 18.286 8.188 18.286 18.286 0 10.099-8.185 18.286-18.286 18.286h-876.635c-10.101 0-18.286-8.187-18.286-18.286zM198.493 595.657c0-10.097 8.187-18.286 18.286-18.286h82.024c10.099 0 18.286 8.188 18.286 18.286 0 10.099-8.187 18.286-18.286 18.286h-82.024c-10.099 0-18.286-8.187-18.286-18.286zM280.697 595.629c0-82.403 66.805-149.205 149.207-149.205 82.406 0 149.208 66.801 149.208 149.205s-66.801 149.206-149.208 149.206c-82.402 0-149.207-66.8-149.207-149.206zM429.904 482.995c-62.204 0-112.636 50.428-112.636 112.633 0 62.206 50.431 112.634 112.636 112.634 62.208 0 112.636-50.427 112.636-112.634 0-62.205-50.428-112.633-112.636-112.633zM375.589-45.711c10.101 0 18.286 8.185 18.286 18.286v90.869c0 10.097-8.185 18.286-18.286 18.286-10.098 0-18.285-8.188-18.285-18.286v-90.869c0-10.101 8.187-18.286 18.285-18.286zM149.76-45.711c10.099 0 18.286 8.185 18.286 18.286h-36.571c0-10.101 8.187-18.286 18.286-18.286zM131.474-27.425v90.869c0 10.097 8.187 18.286 18.286 18.286s18.286-8.188 18.286-18.286v-90.869h-36.571zM601.45-45.711c10.101 0 18.286 8.185 18.286 18.286v90.869c0 10.097-8.185 18.286-18.286 18.286-10.097 0-18.286-8.188-18.286-18.286v-90.869c0-10.101 8.188-18.286 18.286-18.286zM827.282-45.711c10.097 0 18.286 8.185 18.286 18.286v90.869c0 10.097-8.188 18.286-18.286 18.286-10.101 0-18.286-8.188-18.286-18.286v-90.869c0-10.101 8.185-18.286 18.286-18.286zM1053.144-45.711c10.097 0 18.286 8.185 18.286 18.286v90.869c0 10.097-8.188 18.286-18.286 18.286-10.101 0-18.286-8.188-18.286-18.286v-90.869c0-10.101 8.185-18.286 18.286-18.286zM1278.972-45.711c10.101 0 18.286 8.185 18.286 18.286v90.869c0 10.097-8.185 18.286-18.286 18.286-10.097 0-18.286-8.188-18.286-18.286v-90.869c0-10.101 8.188-18.286 18.286-18.286zM1504.801-45.711c10.101 0 18.286 8.185 18.286 18.286v90.869c0 10.097-8.185 18.286-18.286 18.286-10.097 0-18.286-8.188-18.286-18.286v-90.869c0-10.101 8.188-18.286 18.286-18.286z" />
</font>
</defs>
</svg>
