<svg width="50" height="50" viewBox="0 0 50 50" fill="none" xmlns="http://www.w3.org/2000/svg">
<mask id="mask0_14022_69440" style="mask-type:luminance" maskUnits="userSpaceOnUse" x="0" y="0" width="50" height="50">
<path d="M43.5562 0.715285L0.730469 6.27223L6.29354 49.1293L49.1192 43.5723L43.5562 0.715285Z" fill="white"/>
</mask>
<g mask="url(#mask0_14022_69440)">
<mask id="mask1_14022_69440" style="mask-type:luminance" maskUnits="userSpaceOnUse" x="7" y="7" width="36" height="36">
<path d="M8.12236 27.1135C9.33765 36.4739 17.9109 43.0771 27.2712 41.8623C36.6316 40.6475 43.2344 32.0746 42.0191 22.7142C40.8038 13.3538 32.2306 6.75059 22.8703 7.96541C13.5099 9.18024 6.90706 17.7531 8.12236 27.1135Z" fill="white"/>
</mask>
<g mask="url(#mask1_14022_69440)">
<path d="M36.8266 -1.90078L51.886 36.6695L13.3167 51.728L-1.74381 13.1579L36.8266 -1.90078Z" fill="url(#paint0_radial_14022_69440)"/>
</g>
</g>
<mask id="mask2_14022_69440" style="mask-type:luminance" maskUnits="userSpaceOnUse" x="0" y="0" width="50" height="50">
<path d="M43.5562 0.715117L0.730469 6.27206L6.29354 49.1291L49.1192 43.5722L43.5562 0.715117Z" fill="white"/>
</mask>
<g mask="url(#mask2_14022_69440)">
<mask id="mask3_14022_69440" style="mask-type:luminance" maskUnits="userSpaceOnUse" x="-12" y="-6" width="78" height="102">
<path d="M54.0246 -5.53116L-11.207 3.09528L0.559799 95.4192L65.7914 86.7927L54.0246 -5.53116Z" fill="white"/>
</mask>
<g mask="url(#mask3_14022_69440)">
<mask id="mask4_14022_69440" style="mask-type:luminance" maskUnits="userSpaceOnUse" x="5" y="5" width="40" height="40">
<path d="M39.8152 5.764L5.91797 10.1635L10.3188 44.0599L44.216 39.6604L39.8152 5.764Z" fill="white"/>
</mask>
<g mask="url(#mask4_14022_69440)">
<mask id="mask5_14022_69440" style="mask-type:luminance" maskUnits="userSpaceOnUse" x="7" y="7" width="36" height="36">
<path d="M42.0152 22.7119C43.2305 32.0722 36.6277 40.6451 27.2673 41.86C17.9069 43.0748 9.33372 36.4717 8.11844 27.1113C6.90315 17.7509 13.506 9.17805 22.8664 7.96318C32.2256 6.74845 40.8 13.3515 42.0152 22.7119Z" fill="white"/>
</mask>
<g mask="url(#mask5_14022_69440)">
<path opacity="0.1" d="M39.8149 5.76425L5.91797 10.1637L10.3189 44.0604L44.2158 39.6609L39.8149 5.76425Z" fill="url(#paint1_radial_14022_69440)"/>
</g>
</g>
</g>
</g>
<mask id="mask6_14022_69440" style="mask-type:luminance" maskUnits="userSpaceOnUse" x="0" y="0" width="50" height="50">
<path d="M43.5562 0.715117L0.730469 6.27206L6.29354 49.1291L49.1192 43.5722L43.5562 0.715117Z" fill="white"/>
</mask>
<g mask="url(#mask6_14022_69440)">
<mask id="mask7_14022_69440" style="mask-type:luminance" maskUnits="userSpaceOnUse" x="3" y="3" width="44" height="44">
<path d="M5.88201 27.398C4.51915 16.901 11.9508 7.25204 22.4478 5.8897C32.9447 4.52736 42.5941 11.9595 43.957 22.4565C45.3198 32.9535 37.8882 42.6025 27.3912 43.9648C16.8942 45.3271 7.24488 37.895 5.88201 27.398ZM3.51014 27.7058C5.04278 39.5105 15.8946 47.8687 27.6992 46.3367C39.5048 44.8045 47.8615 33.9533 46.3288 22.1487C44.7961 10.3429 33.9455 1.98563 22.1398 3.51781C10.3342 5.05 1.9775 15.9012 3.51014 27.7058Z" fill="white"/>
</mask>
<g mask="url(#mask7_14022_69440)">
<path d="M43.5493 0.739672L0.730469 6.29654L6.28955 49.1156L49.1084 43.5588L43.5493 0.739672Z" fill="url(#paint2_linear_14022_69440)"/>
</g>
</g>
<mask id="mask8_14022_69440" style="mask-type:luminance" maskUnits="userSpaceOnUse" x="0" y="0" width="50" height="50">
<path d="M43.5562 0.715117L0.730469 6.27206L6.29354 49.1291L49.1192 43.5722L43.5562 0.715117Z" fill="white"/>
</mask>
<g mask="url(#mask8_14022_69440)">
<mask id="mask9_14022_69440" style="mask-type:luminance" maskUnits="userSpaceOnUse" x="5" y="5" width="40" height="40">
<path d="M8.27722 27.0904C7.07544 17.8342 13.6277 9.32695 22.884 8.12564C32.1402 6.92434 40.6478 13.477 41.8496 22.7333C43.0513 31.9896 36.499 40.4968 27.2428 41.6981C17.9866 42.8994 9.479 36.3467 8.27722 27.0904ZM5.90534 27.3983C7.2769 37.9622 16.9869 45.441 27.5508 44.07C38.1146 42.699 45.5941 32.9892 44.2225 22.4253C42.851 11.8615 33.1409 4.3826 22.576 5.75376C12.0122 7.12477 4.53379 16.8344 5.90534 27.3983Z" fill="white"/>
</mask>
<g mask="url(#mask9_14022_69440)">
<path d="M41.6983 3.01343L46.9621 41.5498L8.42591 46.8106L3.16206 8.27423L41.6983 3.01343Z" fill="url(#paint3_linear_14022_69440)"/>
</g>
</g>
<mask id="mask10_14022_69440" style="mask-type:luminance" maskUnits="userSpaceOnUse" x="0" y="0" width="50" height="50">
<path d="M43.5903 0.711674L0.703125 6.27611L6.26653 49.1331L49.1537 43.5687L43.5903 0.711674Z" fill="white"/>
</mask>
<g mask="url(#mask10_14022_69440)">
<mask id="mask11_14022_69440" style="mask-type:luminance" maskUnits="userSpaceOnUse" x="5" y="5" width="40" height="40">
<path d="M6.01571 27.3863C4.65128 16.8773 12.0906 7.21841 22.5996 5.85451C33.1086 4.49061 42.7679 11.9304 44.1323 22.4394C45.4966 32.9474 38.0573 42.6063 27.5483 43.9702C17.0394 45.3352 7.38015 37.8954 6.01571 27.3863ZM5.69567 27.4279C7.08301 38.1134 16.9045 45.6781 27.59 44.2913C38.2755 42.9045 45.8397 33.0834 44.4524 22.3979C43.065 11.7124 33.2435 4.14765 22.558 5.53446C11.8725 6.92126 4.30832 16.7423 5.69567 27.4279Z" fill="white"/>
</mask>
<g mask="url(#mask11_14022_69440)">
<path d="M41.9354 3.01955L3.17969 8.04912L8.21142 46.8062L46.9671 41.7766L41.9354 3.01955Z" fill="white"/>
</g>
</g>
<path d="M24.4555 17.1368C24.5491 17.2304 24.5647 17.2304 24.6739 17.1368L25.5476 16.0291C25.6412 15.9043 25.688 15.7794 25.688 15.6078C25.688 15.2802 25.454 14.9838 25.1264 14.9838C24.8924 14.9838 24.7051 15.1242 24.5647 15.2958C24.4243 15.1086 24.2371 14.9838 24.0031 14.9838C23.6754 14.9838 23.4414 15.2802 23.4414 15.6078C23.4414 15.7794 23.5038 15.9043 23.5818 16.0291L24.4555 17.1368Z" fill="white"/>
<path d="M21.2257 20.4753L22.0994 19.3676C22.193 19.2428 22.2398 19.118 22.2398 18.9463C22.2398 18.6187 22.0058 18.3223 21.6782 18.3223C21.6314 18.3223 21.6002 18.3223 21.5534 18.3379L20.7733 19.9136C20.7421 19.9761 20.7109 20.0229 20.6797 20.0697L21.0073 20.4753C21.1165 20.5689 21.1321 20.5689 21.2257 20.4753Z" fill="white"/>
<path d="M25.5162 18.6344L25.2822 18.6344L25.2042 18.4783C25.1574 18.3847 25.1262 18.3223 25.0482 18.3223L24.0965 18.3223C24.0029 18.3223 23.9873 18.4003 23.9404 18.4783L23.8624 18.6344L23.6128 18.6344C23.4412 18.6344 23.3008 18.7748 23.3008 18.9464L23.3008 20.2257C23.3008 20.3973 23.4412 20.5378 23.6128 20.5378L25.5162 20.5378C25.6878 20.5378 25.8282 20.3973 25.8282 20.2257L25.8282 18.9464C25.8438 18.7904 25.7034 18.6344 25.5162 18.6344ZM24.5645 20.2257C24.2057 20.2257 23.9248 19.9449 23.9248 19.5861C23.9248 19.2272 24.2057 18.9464 24.5645 18.9464C24.9233 18.9464 25.2042 19.2272 25.2042 19.5861C25.2042 19.9449 24.9233 20.2257 24.5645 20.2257Z" fill="white"/>
<path d="M24.5657 19.118C24.3005 19.118 24.082 19.3364 24.082 19.6016C24.082 19.8669 24.3005 20.0853 24.5657 20.0853C24.8309 20.0853 25.0493 19.8669 25.0493 19.6016C25.0493 19.3364 24.8309 19.118 24.5657 19.118Z" fill="white"/>
<path d="M26.9335 18.9468C26.9179 18.9624 26.9023 18.9936 26.9023 19.0248L26.9023 19.8517C26.9023 19.8829 26.9179 19.9141 26.9335 19.9297L27.5264 20.5226C27.542 20.5382 27.5732 20.5538 27.6044 20.5538L28.4313 20.5538C28.4625 20.5538 28.4937 20.5382 28.5093 20.5226L28.6497 20.3822C28.5093 20.2574 28.4001 20.1014 28.3065 19.9141L27.542 18.354L27.5264 18.3696L26.9335 18.9468Z" fill="white"/>
<path d="M13.1601 23.2683L13.753 23.8612C13.7686 23.8768 13.7998 23.8924 13.831 23.8924L14.6579 23.8924C14.6891 23.8924 14.7203 23.8768 14.7359 23.8612L15.3287 23.2683C15.3443 23.2527 15.3599 23.2215 15.3599 23.1903L15.3599 22.3634C15.3599 22.3322 15.3443 22.301 15.3287 22.2854L14.7359 21.6926C14.7203 21.677 14.6891 21.6614 14.6579 21.6614L14.0026 21.6614C13.5814 21.8486 13.2849 22.1762 13.1289 22.5819L13.1289 23.1903C13.1289 23.2215 13.1289 23.2527 13.1601 23.2683Z" fill="white"/>
<path d="M17.5766 23.8144C17.6702 23.908 17.6858 23.908 17.795 23.8144L18.6687 22.7067C18.7623 22.5819 18.8091 22.4571 18.8091 22.2854C18.8091 21.9578 18.5751 21.6614 18.2475 21.6614C18.0135 21.6614 17.8262 21.8018 17.6858 21.9734C17.5454 21.7862 17.3582 21.6614 17.1242 21.6614C16.7965 21.6614 16.5625 21.9578 16.5625 22.2854C16.5625 22.4571 16.6249 22.5819 16.7029 22.7067L17.5766 23.8144Z" fill="white"/>
<path d="M22.0826 21.9734L21.8486 21.9734L21.7706 21.8174C21.7238 21.7238 21.6926 21.6614 21.6146 21.6614L20.6473 21.6614C20.5537 21.6614 20.5381 21.7394 20.4913 21.8174L20.4132 21.9734L20.1792 21.9734C20.0076 21.9734 19.8672 22.1138 19.8672 22.2855L19.8672 23.5648C19.8672 23.7364 20.0076 23.8768 20.1792 23.8768L22.0826 23.8768C22.2542 23.8768 22.3946 23.7364 22.3946 23.5648L22.3946 22.2855C22.3946 22.1294 22.2542 21.9734 22.0826 21.9734ZM21.1153 23.5648C20.7565 23.5648 20.4756 23.284 20.4756 22.9251C20.4756 22.5663 20.7565 22.2855 21.1153 22.2855C21.4742 22.2855 21.755 22.5663 21.755 22.9251C21.755 23.284 21.4742 23.5648 21.1153 23.5648Z" fill="white"/>
<path d="M21.1126 23.4088C20.8473 23.4088 20.6289 23.1904 20.6289 22.9252C20.6289 22.66 20.8473 22.4415 21.1126 22.4415C21.3778 22.4415 21.5962 22.66 21.5962 22.9252C21.5962 23.1904 21.3778 23.4088 21.1126 23.4088Z" fill="white"/>
<path d="M21.1126 22.4571C20.8473 22.4571 20.6289 22.6755 20.6289 22.9408C20.6289 23.206 20.8473 23.4244 21.1126 23.4244C21.3778 23.4244 21.5962 23.206 21.5962 22.9408C21.5962 22.6755 21.3778 22.4571 21.1126 22.4571Z" fill="white"/>
<path d="M24.1552 23.8924L24.9821 23.8924C25.0133 23.8924 25.0445 23.8768 25.0601 23.8612L25.653 23.2683C25.6686 23.2527 25.6842 23.2215 25.6842 23.1903L25.6842 22.3634C25.6842 22.3322 25.6686 22.301 25.653 22.2854L25.0601 21.6926C25.0445 21.677 25.0133 21.6614 24.9821 21.6614L24.1552 21.6614C24.124 21.6614 24.0928 21.677 24.0772 21.6926L23.4843 22.2854C23.4687 22.301 23.4531 22.3322 23.4531 22.3634L23.4531 23.1903C23.4531 23.2215 23.4687 23.2527 23.4843 23.2683L24.0772 23.8612C24.0928 23.8768 24.124 23.8924 24.1552 23.8924Z" fill="white"/>
<path d="M27.9047 23.8144C27.9983 23.908 28.0139 23.908 28.1232 23.8144L28.9968 22.7067C29.0905 22.5819 29.1373 22.4571 29.1373 22.2854C29.1373 21.9578 28.9032 21.6614 28.5756 21.6614C28.3416 21.6614 28.1544 21.8018 28.0139 21.9734C27.8735 21.7862 27.6863 21.6614 27.4523 21.6614C27.1247 21.6614 26.8906 21.9578 26.8906 22.2854C26.8906 22.4571 26.953 22.5819 27.031 22.7067L27.9047 23.8144Z" fill="white"/>
<path d="M31.4563 22.4571C31.1911 22.4571 30.9727 22.6755 30.9727 22.9407C30.9727 23.206 31.1911 23.4244 31.4563 23.4244C31.7215 23.4244 31.94 23.206 31.94 22.9407C31.94 22.6755 31.7215 22.4571 31.4563 22.4571Z" fill="white"/>
<path d="M32.4108 21.9735L32.1767 21.9735L32.0987 21.8174C32.0519 21.7238 32.0207 21.6614 31.9427 21.6614L30.991 21.6614C30.8974 21.6614 30.8818 21.7394 30.835 21.8174L30.757 21.9735L30.523 21.9735C30.3514 21.9735 30.2109 22.1139 30.2109 22.2855L30.2109 23.5648C30.2109 23.7364 30.3514 23.8769 30.523 23.8769L32.4264 23.8769C32.598 23.8769 32.7384 23.7364 32.7384 23.5648L32.7384 22.2855C32.7384 22.1295 32.5824 21.9735 32.4108 21.9735ZM31.4591 23.5648C31.1002 23.5648 30.8194 23.284 30.8194 22.9252C30.8194 22.5663 31.1002 22.2855 31.4591 22.2855C31.8179 22.2855 32.0987 22.5663 32.0987 22.9252C32.0987 23.284 31.8179 23.5648 31.4591 23.5648Z" fill="white"/>
<path d="M34.4053 21.6926L33.8125 22.2854C33.7968 22.301 33.7813 22.3322 33.7813 22.3634L33.7813 23.1903C33.7813 23.2215 33.7968 23.2527 33.8125 23.2683L34.4053 23.8612C34.4209 23.8768 34.4521 23.8924 34.4833 23.8924L35.3102 23.8924C35.3414 23.8924 35.3726 23.8768 35.3882 23.8612L35.9811 23.2683C35.9967 23.2527 36.0123 23.2215 36.0123 23.1903L36.0123 22.7379C35.8875 22.2698 35.5598 21.8642 35.0918 21.6614L34.4833 21.6614C34.4521 21.6614 34.4365 21.677 34.4053 21.6926Z" fill="white"/>
<path d="M14.7962 24.9999C14.6402 24.9999 14.4998 25.0623 14.375 25.1715L15.2331 26.014C15.3111 25.9048 15.3423 25.7956 15.3423 25.6395C15.3423 25.2963 15.1239 24.9999 14.7962 24.9999Z" fill="white"/>
<path d="M18.6334 25.3119L18.3994 25.3119L18.3214 25.1559C18.2746 25.0623 18.2434 24.9999 18.1654 24.9999L17.2137 24.9999C17.1201 24.9999 17.1045 25.0779 17.0577 25.1559L16.9796 25.3119L16.7456 25.3119C16.574 25.3119 16.4336 25.4523 16.4336 25.6239L16.4336 26.9033C16.4336 27.0749 16.574 27.2153 16.7456 27.2153L18.649 27.2153C18.8206 27.2153 18.9611 27.0749 18.9611 26.9033L18.9611 25.6239C18.9455 25.4679 18.805 25.3119 18.6334 25.3119ZM17.6817 26.9033C17.3229 26.9033 17.0421 26.6224 17.0421 26.2636C17.0421 25.9048 17.3229 25.6239 17.6817 25.6239C18.0406 25.6239 18.3214 25.9048 18.3214 26.2636C18.3214 26.6224 18.025 26.9033 17.6817 26.9033Z" fill="white"/>
<path d="M17.679 25.7956C17.4137 25.7956 17.1953 26.014 17.1953 26.2792C17.1953 26.5445 17.4137 26.7629 17.679 26.7629C17.9442 26.7629 18.1626 26.5445 18.1626 26.2792C18.147 26.014 17.9442 25.7956 17.679 25.7956Z" fill="white"/>
<path d="M20.7099 27.2309L21.5368 27.2309C21.568 27.2309 21.5992 27.2153 21.6148 27.1997L22.2076 26.6068C22.2232 26.5912 22.2388 26.56 22.2388 26.5288L22.2388 25.702C22.2388 25.6707 22.2232 25.6395 22.2076 25.6239L21.6148 25.0311C21.5992 25.0155 21.568 24.9999 21.5368 24.9999L20.7099 24.9999C20.6787 24.9999 20.6475 25.0155 20.6319 25.0311L20.039 25.6239C20.0234 25.6395 20.0078 25.6707 20.0078 25.702L20.0078 26.5288C20.0078 26.56 20.0234 26.5912 20.039 26.6068L20.6319 27.1997C20.6475 27.2153 20.6787 27.2309 20.7099 27.2309Z" fill="white"/>
<path d="M23.5974 26.0452L24.4555 27.1529C24.5491 27.2465 24.5647 27.2465 24.6739 27.1529L25.5476 26.0452C25.6412 25.9204 25.688 25.7956 25.688 25.6239C25.688 25.2963 25.454 24.9999 25.1264 24.9999C24.8924 24.9999 24.7051 25.1403 24.5647 25.3119C24.4243 25.1247 24.2371 24.9999 24.0031 24.9999C23.6754 24.9999 23.4414 25.2963 23.4414 25.6239C23.457 25.8112 23.5194 25.936 23.5974 26.0452Z" fill="white"/>
<path d="M28.9576 25.3119L28.7236 25.3119L28.6456 25.1559C28.5988 25.0623 28.5676 24.9999 28.4896 24.9999L27.5379 24.9999C27.4443 24.9999 27.4287 25.0779 27.3819 25.1559L27.3039 25.3119L27.0698 25.3119C26.8982 25.3119 26.7578 25.4523 26.7578 25.6239L26.7578 26.9033C26.7578 27.0749 26.8982 27.2153 27.0698 27.2153L28.9732 27.2153C29.1449 27.2153 29.2853 27.0749 29.2853 26.9033L29.2853 25.6239C29.2853 25.4679 29.1449 25.3119 28.9576 25.3119ZM28.0059 26.9033C27.6471 26.9033 27.3663 26.6224 27.3663 26.2636C27.3663 25.9048 27.6471 25.6239 28.0059 25.6239C28.3648 25.6239 28.6456 25.9048 28.6456 26.2636C28.6456 26.6224 28.3648 26.9033 28.0059 26.9033Z" fill="white"/>
<path d="M28.0032 25.7956C27.738 25.7956 27.5195 26.014 27.5195 26.2792C27.5195 26.5445 27.738 26.7629 28.0032 26.7629C28.2684 26.7629 28.4868 26.5445 28.4868 26.2792C28.4868 26.014 28.2684 25.7956 28.0032 25.7956Z" fill="white"/>
<path d="M31.9585 25.0311C31.9429 25.0155 31.9117 24.9999 31.8805 24.9999L31.0536 24.9999C31.0224 24.9999 30.9912 25.0155 30.9756 25.0311L30.3828 25.6239C30.3672 25.6395 30.3516 25.6707 30.3516 25.702L30.3516 26.5288C30.3516 26.56 30.3672 26.5912 30.3828 26.6068L30.9756 27.1997C30.9912 27.2153 31.0224 27.2309 31.0536 27.2309L31.8805 27.2309C31.9117 27.2309 31.9429 27.2153 31.9585 27.1997L32.5514 26.6068C32.567 26.5912 32.5826 26.56 32.5826 26.5288L32.5826 25.702C32.5826 25.6707 32.567 25.6395 32.5514 25.6239L31.9585 25.0311Z" fill="white"/>
<path d="M33.8008 25.6239C33.8008 25.7644 33.8476 25.8736 33.8944 25.9672L34.7525 25.1403C34.6433 25.0467 34.5185 24.9999 34.3624 24.9999C34.0192 24.9999 33.8008 25.2963 33.8008 25.6239Z" fill="white"/>
<path d="M18.167 30.5388L18.7598 29.9459C18.7754 29.9303 18.791 29.8991 18.791 29.8679L18.791 29.041C18.791 29.0098 18.7754 28.9786 18.7598 28.963L18.167 28.3702C18.1514 28.3546 18.1202 28.339 18.089 28.339L17.5273 28.339C17.6989 28.651 17.7613 29.0254 17.6989 29.3999L17.4961 30.57L18.089 30.57C18.1202 30.57 18.1514 30.5544 18.167 30.5388Z" fill="white"/>
<path d="M20.1482 29.3843L21.0063 30.492C21.0999 30.5856 21.1155 30.5856 21.2247 30.492L22.0984 29.3843C22.192 29.2595 22.2388 29.1347 22.2388 28.963C22.2388 28.6354 22.0048 28.339 21.6772 28.339C21.4431 28.339 21.2559 28.4794 21.1155 28.651C20.9751 28.4638 20.7879 28.339 20.5538 28.339C20.2262 28.339 19.9922 28.6354 19.9922 28.963C20.0078 29.1503 20.0702 29.2751 20.1482 29.3843Z" fill="white"/>
<path d="M24.5657 29.1343C24.3005 29.1343 24.082 29.3527 24.082 29.618C24.082 29.8832 24.3005 30.1016 24.5657 30.1016C24.8309 30.1016 25.0493 29.8832 25.0493 29.618C25.0493 29.3527 24.8309 29.1343 24.5657 29.1343Z" fill="white"/>
<path d="M25.5162 28.6662L25.2822 28.6662L25.2042 28.5102C25.1574 28.4166 25.1262 28.3542 25.0482 28.3542L24.0965 28.3542C24.0029 28.3542 23.9873 28.4322 23.9404 28.5102L23.8624 28.6662L23.6128 28.6662C23.4412 28.6662 23.3008 28.8067 23.3008 28.9783L23.3008 30.2576C23.3008 30.4292 23.4412 30.5696 23.6128 30.5696L25.5162 30.5696C25.6878 30.5696 25.8282 30.4292 25.8282 30.2576L25.8282 28.9783C25.8438 28.8067 25.7034 28.6662 25.5162 28.6662ZM24.5645 30.242C24.2057 30.242 23.9248 29.9612 23.9248 29.6023C23.9248 29.2435 24.2057 28.9627 24.5645 28.9627C24.9233 28.9627 25.2042 29.2435 25.2042 29.6023C25.2042 29.9612 24.9233 30.242 24.5645 30.242Z" fill="white"/>
<path d="M28.5093 28.3702C28.4937 28.3546 28.4625 28.339 28.4313 28.339L27.6044 28.339C27.5732 28.339 27.542 28.3546 27.5264 28.3702L26.9335 28.963C26.9179 28.9786 26.9023 29.0098 26.9023 29.041L26.9023 29.8679C26.9023 29.8991 26.9179 29.9303 26.9335 29.9459L27.5264 30.5388C27.542 30.5544 27.5732 30.57 27.6044 30.57L28.4313 30.57C28.4625 30.57 28.4937 30.5544 28.5093 30.5388L29.1022 29.9459C29.1178 29.9303 29.1334 29.8991 29.1334 29.8679L29.1334 29.041C29.1334 29.0098 29.1178 28.9786 29.1022 28.963L28.5093 28.3702Z" fill="white"/>
<path d="M30.9015 28.339C30.5739 28.339 30.3398 28.6354 30.3398 28.963C30.3398 29.1347 30.4022 29.2595 30.4803 29.3843L31.3383 30.492C31.432 30.5856 31.4476 30.5856 31.5568 30.492L31.5724 30.4764L31.3851 29.3999C31.3383 29.1347 31.3539 28.885 31.432 28.6354C31.3071 28.4638 31.1355 28.339 30.9015 28.339Z" fill="white"/>
<path d="M17.7762 33.8305L18.6499 32.7228C18.7435 32.598 18.7904 32.4732 18.7904 32.3016C18.7904 31.9739 18.5563 31.6775 18.2287 31.6775C17.9947 31.6775 17.8074 31.8179 17.667 31.9895C17.5734 31.8491 17.4486 31.7555 17.2926 31.7087L17.043 33.1752L17.5578 33.8461C17.667 33.9241 17.6826 33.9241 17.7762 33.8305Z" fill="white"/>
<path d="M22.0826 32.0054L21.8486 32.0054L21.7706 31.8493C21.7238 31.7557 21.6926 31.6933 21.6146 31.6933L20.6473 31.6933C20.5537 31.6933 20.5381 31.7713 20.4913 31.8493L20.4132 32.0054L20.1792 32.0054C20.0076 32.0054 19.8672 32.1458 19.8672 32.3174L19.8672 33.5967C19.8672 33.7683 20.0076 33.9088 20.1792 33.9088L22.0826 33.9088C22.2542 33.9088 22.3946 33.7683 22.3946 33.5967L22.3946 32.3174C22.3946 32.1458 22.2542 32.0054 22.0826 32.0054ZM21.1153 33.5811C20.7565 33.5811 20.4756 33.3003 20.4756 32.9415C20.4756 32.5826 20.7565 32.3018 21.1153 32.3018C21.4742 32.3018 21.755 32.5826 21.755 32.9415C21.755 33.3003 21.4742 33.5811 21.1153 33.5811Z" fill="white"/>
<path d="M21.1126 32.4734C20.8473 32.4734 20.6289 32.6918 20.6289 32.9571C20.6289 33.2223 20.8473 33.4407 21.1126 33.4407C21.3778 33.4407 21.5962 33.2223 21.5962 32.9571C21.5962 32.6918 21.3778 32.4734 21.1126 32.4734Z" fill="white"/>
<path d="M25.6842 33.2064L25.6842 32.3796C25.6842 32.3484 25.6686 32.3172 25.653 32.3016L25.0601 31.7087C25.0445 31.6931 25.0133 31.6775 24.9821 31.6775L24.1552 31.6775C24.124 31.6775 24.0928 31.6931 24.0772 31.7087L23.4843 32.3016C23.4687 32.3172 23.4531 32.3484 23.4531 32.3796L23.4531 33.2064C23.4531 33.2377 23.4687 33.2689 23.4843 33.2845L23.9368 33.7369C24.3268 33.5809 24.7793 33.5809 25.1693 33.7525L25.6373 33.2845C25.6686 33.2689 25.6842 33.2377 25.6842 33.2064Z" fill="white"/>
<path d="M28.5756 31.6775C28.3416 31.6775 28.1544 31.8179 28.0139 31.9895C27.8735 31.8023 27.6863 31.6775 27.4523 31.6775C27.1247 31.6775 26.8906 31.9739 26.8906 32.3016C26.8906 32.4732 26.953 32.598 27.031 32.7228L27.8891 33.8305C27.9827 33.9241 27.9983 33.9241 28.1075 33.8305L28.9812 32.7228C29.0748 32.598 29.1217 32.4732 29.1217 32.3016C29.1217 31.9739 28.9032 31.6775 28.5756 31.6775Z" fill="white"/>
<path d="M32.0363 33.2065C31.9427 33.4405 31.7087 33.5965 31.4591 33.5965C31.1002 33.5965 30.8194 33.3157 30.8194 32.9568C30.8194 32.598 31.1002 32.3172 31.4591 32.3172C31.6463 32.3172 31.8179 32.3952 31.9271 32.52L31.7867 31.6775L30.991 31.6775C30.8974 31.6775 30.8818 31.7555 30.835 31.8335L30.757 31.9895L30.523 31.9895C30.3514 31.9895 30.2109 32.13 30.2109 32.3016L30.2109 33.5809C30.2109 33.7525 30.3514 33.8929 30.523 33.8929L32.1767 33.8929L32.0363 33.2065Z" fill="white"/>
<path d="M30.9727 32.9568C30.9727 33.2221 31.1911 33.4405 31.4563 33.4405C31.7215 33.4405 31.94 33.2221 31.94 32.9568C31.94 32.6916 31.7215 32.4732 31.4563 32.4732C31.1911 32.4732 30.9727 32.6916 30.9727 32.9568Z" fill="white"/>
<path d="M18.6341 35.3439L18.4001 35.3439L18.3221 35.1878C18.2753 35.0942 18.2441 35.0318 18.1661 35.0318L17.2144 35.0318C17.1208 35.0318 17.1052 35.1098 17.0584 35.1878L16.9804 35.3439L16.9023 35.3439C16.9804 35.5467 17.074 35.7183 17.2144 35.8743C17.2456 35.9211 17.2924 35.9523 17.3236 35.9835C17.5576 36.202 17.8384 36.3424 18.1505 36.4048C18.1973 36.4204 18.2597 36.4204 18.3065 36.4204C18.5249 36.436 18.7433 36.4048 18.9618 36.3424L18.9618 35.6559C18.9462 35.4843 18.8057 35.3439 18.6341 35.3439Z" fill="white"/>
<path d="M20.6319 35.0472L20.039 35.64C20.0234 35.6556 20.0078 35.6868 20.0078 35.7181L20.0078 35.8117L21.5056 35.0316L20.7099 35.0316C20.6787 35.016 20.6475 35.0316 20.6319 35.0472Z" fill="white"/>
<path d="M28.9628 35.3439L28.7288 35.3439L28.6508 35.1878C28.6039 35.0942 28.5727 35.0318 28.4947 35.0318L27.5898 35.0318L29.2904 35.9211L29.2904 35.6715C29.2904 35.4843 29.15 35.3439 28.9628 35.3439Z" fill="white"/>
<path d="M31.8805 35.016L31.0536 35.016C31.0224 35.016 30.9912 35.0316 30.9756 35.0472L30.3828 35.64C30.3672 35.6556 30.3516 35.6868 30.3516 35.718L30.3516 36.3889C31.1628 36.5605 31.9585 36.0613 32.2238 35.2968L31.9585 35.0316C31.9273 35.0316 31.9117 35.016 31.8805 35.016Z" fill="white"/>
<path d="M26.2795 13.0648L28.9941 18.5565C29.275 19.1182 29.821 19.5082 30.4451 19.6019L36.4985 20.4755C38.0743 20.7096 38.6983 22.6442 37.5594 23.7519L33.1754 28.0267C32.7229 28.4636 32.5201 29.1032 32.6293 29.7273L33.659 35.7495C33.9243 37.3097 32.2861 38.511 30.8819 37.7777L25.4682 34.9382C24.9065 34.6418 24.2357 34.6418 23.6896 34.9382L18.2602 37.7777C16.8561 38.511 15.2023 37.3253 15.4832 35.7495L16.5129 29.7273C16.6221 29.1032 16.4193 28.4636 15.9668 28.0267L11.5828 23.7519C10.4438 22.6442 11.0679 20.7096 12.6437 20.4755L18.6971 19.6019C19.3212 19.5082 19.8672 19.1182 20.148 18.5565L22.8627 13.0648C23.5492 11.645 25.5774 11.645 26.2795 13.0648Z" stroke="#45A3DB" stroke-width="1.5" stroke-miterlimit="10"/>
<defs>
<radialGradient id="paint0_radial_14022_69440" cx="0" cy="0" r="1" gradientUnits="userSpaceOnUse" gradientTransform="translate(21.5977 11.8861) rotate(68.6715) scale(33.5289 33.5277)">
<stop stop-color="#605C5E"/>
<stop offset="1" stop-color="#13110C"/>
</radialGradient>
<radialGradient id="paint1_radial_14022_69440" cx="0" cy="0" r="1" gradientUnits="userSpaceOnUse" gradientTransform="translate(25.0675 24.9134) rotate(-7.39506) scale(17.0908 17.0907)">
<stop stop-color="white"/>
<stop offset="0.1009" stop-color="#F7F7F7"/>
<stop offset="0.2341" stop-color="#E0DEDE"/>
<stop offset="0.3856" stop-color="#BDB9B9"/>
<stop offset="0.5506" stop-color="#908B89"/>
<stop offset="0.7265" stop-color="#5E5956"/>
<stop offset="0.9087" stop-color="#2B2825"/>
<stop offset="1" stop-color="#13110C"/>
</radialGradient>
<linearGradient id="paint2_linear_14022_69440" x1="-21.4108" y1="73.284" x2="-47.5685" y2="1.96294" gradientUnits="userSpaceOnUse">
<stop stop-color="#0E1621"/>
<stop offset="1" stop-color="#32A7F4"/>
</linearGradient>
<linearGradient id="paint3_linear_14022_69440" x1="-16.9479" y1="68.758" x2="-40.6653" y2="4.08938" gradientUnits="userSpaceOnUse">
<stop stop-color="#0E1621"/>
<stop offset="1" stop-color="#32A7F4"/>
</linearGradient>
</defs>
</svg>
