<svg width="30" height="29" viewBox="0 0 30 29" fill="none" xmlns="http://www.w3.org/2000/svg">
<path d="M15 7.21615V26.1745M15 7.21615H9.84376C9.08401 7.21615 8.3554 6.90886 7.81819 6.36187C7.28097 5.81489 6.97917 5.07302 6.97917 4.29948C6.97917 3.52594 7.28097 2.78407 7.81819 2.23709C8.3554 1.6901 9.08401 1.38281 9.84376 1.38281C13.8542 1.38281 15 7.21615 15 7.21615ZM15 7.21615H20.1562C20.916 7.21615 21.6446 6.90886 22.1819 6.36187C22.719 5.81489 23.0208 5.07302 23.0208 4.29948C23.0208 3.52594 22.719 2.78407 22.1819 2.23709C21.6446 1.6901 20.916 1.38281 20.1562 1.38281C16.1458 1.38281 15 7.21615 15 7.21615ZM4.79167 14.5078H25.2083V22.9661C25.2083 24.5996 25.2083 25.4164 24.8904 26.0403C24.6109 26.5891 24.1646 27.0353 23.6158 27.3149C22.992 27.6328 22.1751 27.6328 20.5417 27.6328H9.45833C7.82484 27.6328 7.0081 27.6328 6.3842 27.3149C5.83538 27.0353 5.38919 26.5891 5.10957 26.0403C4.79167 25.4164 4.79167 24.5996 4.79167 22.9661V14.5078ZM4.20833 14.5078H25.7917C26.6085 14.5078 27.0168 14.5078 27.3288 14.3489C27.6032 14.209 27.8262 13.986 27.966 13.7116C28.125 13.3996 28.125 12.9913 28.125 12.1745V9.54948C28.125 8.73274 28.125 8.32436 27.966 8.01241C27.8262 7.73801 27.6032 7.51492 27.3288 7.37509C27.0168 7.21615 26.6085 7.21615 25.7917 7.21615H4.20833C3.39159 7.21615 2.98322 7.21615 2.67126 7.37509C2.39686 7.51492 2.17377 7.73801 2.03394 8.01241C1.875 8.32436 1.875 8.73274 1.875 9.54948V12.1745C1.875 12.9913 1.875 13.3996 2.03394 13.7116C2.17377 13.986 2.39686 14.209 2.67126 14.3489C2.98322 14.5078 3.39159 14.5078 4.20833 14.5078Z" stroke="white" stroke-width="2" stroke-linecap="round" stroke-linejoin="round"/>
</svg>