<svg width="24" height="24" viewBox="0 0 24 24" fill="none" xmlns="http://www.w3.org/2000/svg">
<path d="M12 24C18.6274 24 24 18.6274 24 12C24 5.37258 18.6274 0 12 0C5.37258 0 0 5.37258 0 12C0 18.6274 5.37258 24 12 24Z" fill="#FFCC4D"/>
<path d="M12 14C9.58467 14 7.982 13.7187 6 13.3333C5.54733 13.246 4.66667 13.3333 4.66667 14.6667C4.66667 17.3333 7.73 20.6667 12 20.6667C16.2693 20.6667 19.3333 17.3333 19.3333 14.6667C19.3333 13.3333 18.4527 13.2453 18 13.3333C16.018 13.7187 14.4153 14 12 14Z" fill="#664500"/>
<path d="M6 14.6667C6 14.6667 8 15.3333 12 15.3333C16 15.3333 18 14.6667 18 14.6667C18 14.6667 16.6667 17.3333 12 17.3333C7.33333 17.3333 6 14.6667 6 14.6667Z" fill="white"/>
<path d="M8 11.3333C8.92048 11.3333 9.66667 10.2887 9.66667 9C9.66667 7.71134 8.92048 6.66667 8 6.66667C7.07953 6.66667 6.33333 7.71134 6.33333 9C6.33333 10.2887 7.07953 11.3333 8 11.3333Z" fill="#664500"/>
<path d="M16 11.3333C16.9205 11.3333 17.6667 10.2887 17.6667 9C17.6667 7.71134 16.9205 6.66667 16 6.66667C15.0795 6.66667 14.3333 7.71134 14.3333 9C14.3333 10.2887 15.0795 11.3333 16 11.3333Z" fill="#664500"/>
</svg>
