<svg width="24" height="24" viewBox="0 0 24 24" fill="none" xmlns="http://www.w3.org/2000/svg">
<path d="M24 12C24 18.6273 18.6273 24 12 24C5.37333 24 0 18.6273 0 12C0 5.37333 5.37333 0 12 0C18.6273 0 24 5.37333 24 12Z" fill="#DA2F47"/>
<path d="M16.99 19.9193C16.96 19.8 16.2113 17 12 17C7.78801 17 7.04001 19.8 7.01001 19.9193C6.97334 20.064 7.03867 20.214 7.16801 20.2887C7.29801 20.3613 7.46067 20.3413 7.56801 20.2373C7.58067 20.2247 8.87067 19 12 19C15.1293 19 16.42 20.2247 16.432 20.2367C16.496 20.3 16.5813 20.3333 16.6667 20.3333C16.7227 20.3333 16.7793 20.3193 16.8307 20.2907C16.9613 20.216 17.0267 20.0647 16.99 19.9193ZM10.4713 11.5287C8.30134 9.35867 4.81401 9.33333 4.66667 9.33333C4.29867 9.33333 4.00067 9.63133 4.00067 9.99867C4.00001 10.3667 4.29801 10.6653 4.66601 10.6667C4.68534 10.6667 5.94934 10.6813 7.32134 11.158C6.92601 11.5847 6.66667 12.2473 6.66667 13C6.66667 14.2893 7.41267 15.3333 8.33334 15.3333C9.25401 15.3333 10 14.2893 10 13C10 12.884 9.98734 12.7733 9.97534 12.662C9.98401 12.662 9.99201 12.6667 10 12.6667C10.1707 12.6667 10.3413 12.6013 10.4713 12.4713C10.732 12.2107 10.732 11.7893 10.4713 11.5287ZM19.3333 9.33333C19.186 9.33333 15.6993 9.35867 13.5287 11.5287C13.268 11.7893 13.268 12.2107 13.5287 12.4713C13.6587 12.6013 13.8293 12.6667 14 12.6667C14.0087 12.6667 14.016 12.662 14.024 12.662C14.0133 12.7733 14 12.884 14 13C14 14.2893 14.746 15.3333 15.6667 15.3333C16.5873 15.3333 17.3333 14.2893 17.3333 13C17.3333 12.2473 17.074 11.5847 16.6787 11.158C18.0507 10.6813 19.3147 10.6667 19.3347 10.6667C19.702 10.6653 20 10.3667 19.9993 9.99867C19.9987 9.63133 19.7013 9.33333 19.3333 9.33333Z" fill="#292F33"/>
</svg>
