<svg width="24" height="24" viewBox="0 0 24 24" fill="none" xmlns="http://www.w3.org/2000/svg">
<path d="M12 24C18.6274 24 24 18.6274 24 12C24 5.37258 18.6274 0 12 0C5.37258 0 0 5.37258 0 12C0 18.6274 5.37258 24 12 24Z" fill="#FFCC4D"/>
<path d="M8 11.3333C8.92048 11.3333 9.66667 10.2887 9.66667 9C9.66667 7.71134 8.92048 6.66667 8 6.66667C7.07953 6.66667 6.33333 7.71134 6.33333 9C6.33333 10.2887 7.07953 11.3333 8 11.3333Z" fill="#664500"/>
<path d="M16 11.3333C16.9205 11.3333 17.6667 10.2887 17.6667 9C17.6667 7.71134 16.9205 6.66667 16 6.66667C15.0795 6.66667 14.3333 7.71134 14.3333 9C14.3333 10.2887 15.0795 11.3333 16 11.3333Z" fill="#664500"/>
<path d="M18.2233 15.086C18.1047 14.9787 17.9273 14.972 17.8 15.0667C17.774 15.086 15.1853 17 12 17C8.82268 17 6.22534 15.086 6.20001 15.0667C6.07268 14.972 5.89534 14.98 5.77668 15.086C5.65868 15.1927 5.63201 15.3687 5.71401 15.5047C5.80001 15.648 7.85868 19 12 19C16.1413 19 18.2007 15.648 18.286 15.5047C18.368 15.368 18.342 15.1927 18.2233 15.086Z" fill="#664500"/>
<path d="M19.6667 18.3333C19.6667 20.1747 18.1747 21.6667 16.3333 21.6667C14.492 21.6667 13 20.1747 13 18.3333C13 16.492 15.6667 11.6667 16.3333 11.6667C17 11.6667 19.6667 16.492 19.6667 18.3333Z" fill="#5DADEC"/>
</svg>
