<svg width="24" height="24" viewBox="0 0 24 24" fill="none" xmlns="http://www.w3.org/2000/svg">
<path d="M24 12C24 18.6273 18.6273 24 12 24C5.37267 24 0 18.6273 0 12C0 5.37267 5.37267 0 12 0C18.6273 0 24 5.37267 24 12Z" fill="#FFCC4D"/>
<path d="M12 14C9.58467 14 7.982 13.7187 6 13.3333C5.54733 13.246 4.66667 13.3333 4.66667 14.6667C4.66667 17.3333 7.73 20.6667 12 20.6667C16.2693 20.6667 19.3333 17.3333 19.3333 14.6667C19.3333 13.3333 18.4527 13.2453 18 13.3333C16.018 13.7187 14.4153 14 12 14Z" fill="#664500"/>
<path d="M6 14.6667C6 14.6667 8 15.3333 12 15.3333C16 15.3333 18 14.6667 18 14.6667C18 14.6667 16.6667 17.3333 12 17.3333C7.33333 17.3333 6 14.6667 6 14.6667Z" fill="white"/>
<path d="M10.4547 2.942L7.42666 3.476L5.86666 0.640666C5.69466 0.327999 5.34133 0.160666 4.99199 0.221999C4.64066 0.283999 4.36733 0.562666 4.31266 0.914666L3.81599 4.11267L0.787992 4.64667C0.431325 4.70933 0.155992 4.99667 0.107325 5.356C0.0586584 5.71533 0.247992 6.06467 0.575992 6.22067L3.28933 7.50867L2.79066 10.7167C2.73533 11.074 2.91666 11.426 3.23933 11.5893C3.35866 11.6493 3.48666 11.678 3.61399 11.678C3.83199 11.678 4.04733 11.5927 4.20799 11.43L6.54933 9.056L9.56133 10.486C9.88799 10.6407 10.2773 10.568 10.5253 10.3047C10.7733 10.0413 10.8227 9.64867 10.6487 9.332L9.08333 6.48667L11.1933 4.348C11.448 4.09 11.506 3.69667 11.338 3.37533C11.1687 3.054 10.8093 2.88 10.4547 2.942ZM13.5453 2.942L16.5733 3.476L18.1333 0.640666C18.3053 0.327999 18.6587 0.160666 19.008 0.221999C19.3587 0.283999 19.632 0.562666 19.6867 0.914666L20.1833 4.11267L23.2113 4.64667C23.5687 4.70933 23.844 4.996 23.892 5.35533C23.94 5.71467 23.7513 6.064 23.4233 6.22L20.71 7.508L21.2087 10.716C21.264 11.0733 21.0827 11.4253 20.76 11.5887C20.6407 11.6487 20.5127 11.6773 20.3853 11.6773C20.1673 11.6773 19.952 11.592 19.7913 11.4293L17.45 9.05533L14.438 10.4853C14.1113 10.64 13.722 10.5673 13.474 10.304C13.226 10.0407 13.1767 9.648 13.3507 9.33133L14.916 6.48667L12.806 4.348C12.5513 4.09 12.4933 3.69667 12.6613 3.37533C12.8313 3.054 13.1907 2.88 13.5453 2.942Z" fill="#E95F28"/>
</svg>
