<svg width="40" height="58" viewBox="0 0 40 58" fill="none" xmlns="http://www.w3.org/2000/svg">
<ellipse opacity="0.6" cx="19.259" cy="47.226" rx="17.7276" ry="10.3507" transform="rotate(0.926985 19.259 47.226)" fill="#CD9848"/>
<ellipse opacity="0.9" cx="19.259" cy="47.2257" rx="8.18196" ry="4.83032" transform="rotate(0.926985 19.259 47.2257)" fill="#CD9848"/>
<path d="M38.7946 19.9365C38.6787 27.0976 29.9068 37.5621 24.1513 43.6689C21.4775 46.5059 17.0655 46.4346 14.4849 43.5125C8.93006 37.2227 0.501233 26.4799 0.617104 19.3187C0.700006 14.1951 2.79064 9.31383 6.4291 5.74879C10.0676 2.18375 14.9558 0.226947 20.0184 0.308863C25.0811 0.390778 29.9034 2.5047 33.4247 6.18559C36.9459 9.86647 38.8775 14.8128 38.7946 19.9365Z" fill="#CD9848"/>
<path opacity="0.25" d="M19.4829 35.0364C23.6521 35.1039 27.6774 33.5124 30.6732 30.612C33.669 27.7116 35.3899 23.7399 35.4574 19.5706C35.5249 15.4014 33.9333 11.3761 31.0329 8.38034C28.1325 5.38454 24.1609 3.66361 19.9916 3.59615C15.8224 3.52869 11.7971 5.12022 8.80131 8.02062C5.80551 10.921 4.08459 14.8927 4.01713 19.0619C3.94967 23.2312 5.5412 27.2564 8.44159 30.2522C11.342 33.248 15.3137 34.969 19.4829 35.0364Z" fill="white"/>
</svg>
